<svg version="1.2" xmlns="http://www.w3.org/2000/svg" viewBox="0 0 3710 3710" width="3710" height="3710">
	<title>22-ai</title>
	<defs>
		<linearGradient id="g1" x1="2461.1" y1="4151.4" x2="569.1" y2="2495.9" gradientUnits="userSpaceOnUse">
			<stop offset="0" stop-color="#dae3fe"/>
			<stop offset="1" stop-color="#e9effd"/>
		</linearGradient>
		<linearGradient id="g2" x1="2054.8" y1="2921.3" x2="1836.8" y2="3715.6" gradientUnits="userSpaceOnUse">
			<stop offset="0" stop-color="#4f52ff"/>
			<stop offset="1" stop-color="#4042e2"/>
		</linearGradient>
		<linearGradient id="g3" x1="1386" y1="2707.5" x2="1213.2" y2="1192.2" gradientUnits="userSpaceOnUse">
			<stop offset="0" stop-color="#ff928e"/>
			<stop offset="1" stop-color="#fe7062"/>
		</linearGradient>
		<linearGradient id="g4" x1="2134.5" y1="1974.6" x2="2183.8" y2="3539.7" gradientUnits="userSpaceOnUse">
			<stop offset="0" stop-color="#e1473d"/>
			<stop offset="1" stop-color="#e9605a"/>
		</linearGradient>
		<linearGradient id="g5" x1="1837.5" y1="1984" x2="1886.7" y2="3549.1" gradientUnits="userSpaceOnUse">
			<stop offset="0" stop-color="#e1473d"/>
			<stop offset="1" stop-color="#e9605a"/>
		</linearGradient>
		<linearGradient id="g6" x1="3323.9" y1="3356.1" x2="3491.9" y2="4578.8" gradientUnits="userSpaceOnUse">
			<stop offset="0" stop-color="#4f52ff"/>
			<stop offset="1" stop-color="#4042e2"/>
		</linearGradient>
		<linearGradient id="g7" x1="1812.6" y1="2936.6" x2="3158.6" y2="2936.6" gradientUnits="userSpaceOnUse">
			<stop offset="0" stop-color="#dae3fe"/>
			<stop offset="1" stop-color="#e9effd"/>
		</linearGradient>
		<linearGradient id="g8" x1="1812.6" y1="2979" x2="3158.6" y2="2979" gradientUnits="userSpaceOnUse">
			<stop offset="0" stop-color="#dae3fe"/>
			<stop offset="1" stop-color="#e9effd"/>
		</linearGradient>
		<linearGradient id="g9" x1="1812.6" y1="3021.5" x2="3158.6" y2="3021.5" gradientUnits="userSpaceOnUse">
			<stop offset="0" stop-color="#dae3fe"/>
			<stop offset="1" stop-color="#e9effd"/>
		</linearGradient>
		<linearGradient id="g10" x1="1812.6" y1="3063.9" x2="3158.6" y2="3063.9" gradientUnits="userSpaceOnUse">
			<stop offset="0" stop-color="#dae3fe"/>
			<stop offset="1" stop-color="#e9effd"/>
		</linearGradient>
		<linearGradient id="g11" x1="1812.6" y1="3106.3" x2="3158.6" y2="3106.3" gradientUnits="userSpaceOnUse">
			<stop offset="0" stop-color="#dae3fe"/>
			<stop offset="1" stop-color="#e9effd"/>
		</linearGradient>
		<linearGradient id="g12" x1="3601.4" y1="1398.2" x2="3325.9" y2="2493" gradientUnits="userSpaceOnUse">
			<stop offset="0" stop-color="#4f52ff"/>
			<stop offset="1" stop-color="#4042e2"/>
		</linearGradient>
		<linearGradient id="g13" x1="1319.5" y1="3064.4" x2="1263.4" y2="3174.8" gradientUnits="userSpaceOnUse">
			<stop offset="0" stop-color="#09005d"/>
			<stop offset="1" stop-color="#1a0f91"/>
		</linearGradient>
		<linearGradient id="g14" x1="1161.8" y1="3037.6" x2="1216.4" y2="3037.6" gradientUnits="userSpaceOnUse">
			<stop offset="0" stop-color="#febbba"/>
			<stop offset="1" stop-color="#ff928e"/>
		</linearGradient>
		<linearGradient id="g15" x1="912.4" y1="2807.5" x2="1150" y2="2474.5" gradientUnits="userSpaceOnUse">
			<stop offset="0" stop-color="#09005d"/>
			<stop offset="1" stop-color="#1a0f91"/>
		</linearGradient>
		<linearGradient id="g16" x1="1293.5" y1="3186.5" x2="1111.7" y2="3424.2" gradientUnits="userSpaceOnUse">
			<stop offset="0" stop-color="#09005d"/>
			<stop offset="1" stop-color="#1a0f91"/>
		</linearGradient>
		<linearGradient id="g17" x1="1137.2" y1="3156.2" x2="1284.7" y2="3156.2" gradientUnits="userSpaceOnUse">
			<stop offset="0" stop-color="#4f52ff"/>
			<stop offset="1" stop-color="#4042e2"/>
		</linearGradient>
		<linearGradient id="g18" x1="1120" y1="3092.4" x2="1171.3" y2="3092.4" gradientUnits="userSpaceOnUse">
			<stop offset="0" stop-color="#febbba"/>
			<stop offset="1" stop-color="#ff928e"/>
		</linearGradient>
		<linearGradient id="g19" x1="821.2" y1="3084.5" x2="834.3" y2="2639.3" gradientUnits="userSpaceOnUse">
			<stop offset="0" stop-color="#09005d"/>
			<stop offset="1" stop-color="#1a0f91"/>
		</linearGradient>
		<linearGradient id="g20" x1="-4557.9" y1="7211.1" x2="-4221.8" y2="6928.8" gradientUnits="userSpaceOnUse">
			<stop offset="0" stop-color="#ff928e"/>
			<stop offset="1" stop-color="#fe7062"/>
		</linearGradient>
		<linearGradient id="g21" x1="1282.6" y1="2467.3" x2="1463.4" y2="2467.3" gradientUnits="userSpaceOnUse">
			<stop offset="0" stop-color="#febbba"/>
			<stop offset="1" stop-color="#ff928e"/>
		</linearGradient>
		<linearGradient id="g22" x1="-4627.7" y1="6480.9" x2="-4298.9" y2="6204.7" gradientUnits="userSpaceOnUse">
			<stop offset="0" stop-color="#ff928e"/>
			<stop offset="1" stop-color="#fe7062"/>
		</linearGradient>
		<linearGradient id="g23" x1="1107.1" y1="2190" x2="1227.1" y2="2190" gradientUnits="userSpaceOnUse">
			<stop offset="0" stop-color="#febbba"/>
			<stop offset="1" stop-color="#ff928e"/>
		</linearGradient>
		<linearGradient id="g24" x1="-3665.9" y1="6968.9" x2="-3394.3" y2="6740.7" gradientUnits="userSpaceOnUse">
			<stop offset="0" stop-color="#ff928e"/>
			<stop offset="1" stop-color="#fe7062"/>
		</linearGradient>
		<linearGradient id="g25" x1="1396.9" y1="1682.8" x2="1084.9" y2="2150.8" gradientUnits="userSpaceOnUse">
			<stop offset="0" stop-color="#e1473d"/>
			<stop offset="1" stop-color="#e9605a"/>
		</linearGradient>
		<linearGradient id="g26" x1="1096.3" y1="2578.3" x2="770.2" y2="3145" gradientUnits="userSpaceOnUse">
			<stop offset="0" stop-color="#febbba"/>
			<stop offset="1" stop-color="#ff928e"/>
		</linearGradient>
		<linearGradient id="g27" x1="1291" y1="2256.3" x2="1116" y2="2302.1" gradientUnits="userSpaceOnUse">
			<stop offset="0" stop-color="#febbba"/>
			<stop offset="1" stop-color="#ff928e"/>
		</linearGradient>
		<linearGradient id="g28" x1="1315" y1="2026" x2="1370.3" y2="2231.3" gradientUnits="userSpaceOnUse">
			<stop offset="0" stop-color="#09005d"/>
			<stop offset="1" stop-color="#1a0f91"/>
		</linearGradient>
		<linearGradient id="g29" x1="1235.3" y1="2178.1" x2="1117.2" y2="2209" gradientUnits="userSpaceOnUse">
			<stop offset="0" stop-color="#febbba"/>
			<stop offset="1" stop-color="#ff928e"/>
		</linearGradient>
		<linearGradient id="g30" x1="1065.1" y1="2571.2" x2="1298.4" y2="2647.8" gradientUnits="userSpaceOnUse">
			<stop offset="0" stop-color="#09005d"/>
			<stop offset="1" stop-color="#1a0f91"/>
		</linearGradient>
		<linearGradient id="g31" x1="1229.3" y1="2524.9" x2="1398.2" y2="2703.4" gradientUnits="userSpaceOnUse">
			<stop offset="0" stop-color="#09005d"/>
			<stop offset="1" stop-color="#1a0f91"/>
		</linearGradient>
		<linearGradient id="g32" x1="1486.5" y1="2423" x2="1556.9" y2="2529.1" gradientUnits="userSpaceOnUse">
			<stop offset="0" stop-color="#4f52ff"/>
			<stop offset="1" stop-color="#4042e2"/>
		</linearGradient>
		<linearGradient id="g33" x1="2094" y1="2747.8" x2="2470" y2="2962.4" gradientUnits="userSpaceOnUse">
			<stop offset="0" stop-color="#febbba"/>
			<stop offset="1" stop-color="#ff928e"/>
		</linearGradient>
		<linearGradient id="g34" x1="2284" y1="2380" x2="2627.9" y2="3366.1" gradientUnits="userSpaceOnUse">
			<stop offset="0" stop-color="#09005d"/>
			<stop offset="1" stop-color="#1a0f91"/>
		</linearGradient>
		<linearGradient id="g35" x1="2441.9" y1="2280.5" x2="1155.7" y2="1475.3" gradientUnits="userSpaceOnUse">
			<stop offset="0" stop-color="#febbba"/>
			<stop offset="1" stop-color="#ff928e"/>
		</linearGradient>
		<linearGradient id="g36" x1="2333.6" y1="2364" x2="2677.2" y2="3349.1" gradientUnits="userSpaceOnUse">
			<stop offset="0" stop-color="#09005d"/>
			<stop offset="1" stop-color="#1a0f91"/>
		</linearGradient>
		<linearGradient id="g37" x1="-3405.7" y1="-5581.6" x2="-3226.9" y2="-5322.7" gradientUnits="userSpaceOnUse">
			<stop offset="0" stop-color="#09005d"/>
			<stop offset="1" stop-color="#1a0f91"/>
		</linearGradient>
		<linearGradient id="g38" x1="2765.3" y1="1722.3" x2="2911.2" y2="1890.6" gradientUnits="userSpaceOnUse">
			<stop offset="0" stop-color="#09005d"/>
			<stop offset="1" stop-color="#1a0f91"/>
		</linearGradient>
		<linearGradient id="g39" x1="3481.5" y1="1884.6" x2="3192.9" y2="2159.8" gradientUnits="userSpaceOnUse">
			<stop offset="0" stop-color="#ff928e"/>
			<stop offset="1" stop-color="#fe7062"/>
		</linearGradient>
		<linearGradient id="g40" x1="2901.2" y1="2315.9" x2="3273.4" y2="2315.9" gradientUnits="userSpaceOnUse">
			<stop offset="0" stop-color="#febbba"/>
			<stop offset="1" stop-color="#ff928e"/>
		</linearGradient>
		<linearGradient id="g41" x1="2696.6" y1="2169.3" x2="2704.9" y2="2040.7" gradientUnits="userSpaceOnUse">
			<stop offset="0" stop-color="#febbba"/>
			<stop offset="1" stop-color="#ff928e"/>
		</linearGradient>
		<linearGradient id="g42" x1="2705" y1="2080" x2="2568.1" y2="1818.1" gradientUnits="userSpaceOnUse">
			<stop offset="0" stop-color="#febbba"/>
			<stop offset="1" stop-color="#ff928e"/>
		</linearGradient>
		<linearGradient id="g43" x1="2576.6" y1="1846.5" x2="2793.3" y2="1890" gradientUnits="userSpaceOnUse">
			<stop offset="0" stop-color="#09005d"/>
			<stop offset="1" stop-color="#1a0f91"/>
		</linearGradient>
		<linearGradient id="g44" x1="2789.1" y1="2046.3" x2="2644.5" y2="1769.6" gradientUnits="userSpaceOnUse">
			<stop offset="0" stop-color="#febbba"/>
			<stop offset="1" stop-color="#ff928e"/>
		</linearGradient>
		<linearGradient id="g45" x1="2901.2" y1="2406.3" x2="2709.1" y2="2469.3" gradientUnits="userSpaceOnUse">
			<stop offset="0" stop-color="#4f52ff"/>
			<stop offset="1" stop-color="#4042e2"/>
		</linearGradient>
		<linearGradient id="g46" x1="2369.4" y1="2198.3" x2="4116" y2="2051.4" gradientUnits="userSpaceOnUse">
			<stop offset="0" stop-color="#09005d"/>
			<stop offset="1" stop-color="#1a0f91"/>
		</linearGradient>
		<linearGradient id="g47" x1="2554.5" y1="2284.2" x2="2496.5" y2="2371.5" gradientUnits="userSpaceOnUse">
			<stop offset="0" stop-color="#4f52ff"/>
			<stop offset="1" stop-color="#4042e2"/>
		</linearGradient>
		<linearGradient id="g48" x1="1877" y1="1167.6" x2="1972.3" y2="992.8" gradientUnits="userSpaceOnUse">
			<stop offset="0" stop-color="#4f52ff"/>
			<stop offset="1" stop-color="#4042e2"/>
		</linearGradient>
		<linearGradient id="g49" x1="1806.7" y1="943.2" x2="2265.5" y2="291.5" gradientUnits="userSpaceOnUse">
			<stop offset="0" stop-color="#4f52ff"/>
			<stop offset="1" stop-color="#4042e2"/>
		</linearGradient>
		<linearGradient id="g50" x1="2451.9" y1="1666.9" x2="2466" y2="1233.7" gradientUnits="userSpaceOnUse">
			<stop offset="0" stop-color="#4f52ff"/>
			<stop offset="1" stop-color="#4042e2"/>
		</linearGradient>
	</defs>
	<style>
		.s0 { fill: url(#g1) } 
		.s1 { fill: #91b3fa } 
		.s2 { fill: #bdd0fb } 
		.s3 { fill: #7d97f4 } 
		.s4 { fill: url(#g2) } 
		.s5 { fill: url(#g3) } 
		.s6 { fill: url(#g4) } 
		.s7 { fill: url(#g5) } 
		.s8 { opacity: .7;fill: #ffffff } 
		.s9 { fill: url(#g6) } 
		.s10 { fill: url(#g7) } 
		.s11 { fill: url(#g8) } 
		.s12 { fill: url(#g9) } 
		.s13 { fill: url(#g10) } 
		.s14 { fill: url(#g11) } 
		.s15 { fill: url(#g12) } 
		.s16 { fill: url(#g13) } 
		.s17 { fill: url(#g14) } 
		.s18 { fill: url(#g15) } 
		.s19 { fill: url(#g16) } 
		.s20 { fill: url(#g17) } 
		.s21 { fill: url(#g18) } 
		.s22 { fill: url(#g19) } 
		.s23 { fill: url(#g20) } 
		.s24 { fill: url(#g21) } 
		.s25 { fill: url(#g22) } 
		.s26 { fill: url(#g23) } 
		.s27 { fill: url(#g24) } 
		.s28 { fill: url(#g25) } 
		.s29 { fill: url(#g26) } 
		.s30 { fill: url(#g27) } 
		.s31 { fill: url(#g28) } 
		.s32 { fill: url(#g29) } 
		.s33 { fill: url(#g30) } 
		.s34 { fill: url(#g31) } 
		.s35 { fill: url(#g32) } 
		.s36 { fill: url(#g33) } 
		.s37 { fill: url(#g34) } 
		.s38 { fill: url(#g35) } 
		.s39 { fill: url(#g36) } 
		.s40 { fill: url(#g37) } 
		.s41 { fill: url(#g38) } 
		.s42 { fill: url(#g39) } 
		.s43 { fill: url(#g40) } 
		.s44 { fill: url(#g41) } 
		.s45 { fill: url(#g42) } 
		.s46 { fill: url(#g43) } 
		.s47 { fill: url(#g44) } 
		.s48 { fill: url(#g45) } 
		.s49 { fill: url(#g46) } 
		.s50 { fill: url(#g47) } 
		.s51 { fill: url(#g48) } 
		.s52 { fill: url(#g49) } 
		.s53 { fill: url(#g50) } 
	</style>
	<g id="Illustration">
		<g id="&lt;Group&gt;">
			<path id="&lt;Path&gt;" class="s0" d="m3056.6 2302c-262.7 618.8-962.7 965.4-1569.7 871.9-98.8-15.2-369.6-60.6-609.3-274.4-461.6-411.6-560.3-1226.6-188-1800.9 271-418.1 756.7-655 1218.3-643.2 99.4 2.6 480.4 18.3 815.3 294.4 49.2 40.6 157.6 136.9 255.4 289.8 229.6 359 249.3 859.2 78 1262.4z"/>
			<g id="&lt;Group&gt;">
				<g id="&lt;Group&gt;">
					<g id="&lt;Group&gt;" style="opacity: .3">
						<path id="&lt;Compound Path&gt;" class="s1" d="m1245.7 1527.5c0.2-5.7 5.1-10.2 10.8-10 11.3 0.4 22.6 0.4 33.9-0.1 5.7-0.3 10.5 4.1 10.9 9.7q0 0.1 0 0.2c0.3 5.8-4.2 10.7-9.9 11-11.9 0.5-23.9 0.5-35.7 0.1-5.4-0.2-9.6-4.5-10-9.8q0-0.5 0-1.1zm99.3-16.4c11.1-2.1 22.2-4.6 33-7.6 5.6-1.5 11.3 1.8 12.8 7.3 1.6 5.6-1.7 11.3-7.3 12.9-11.3 3.1-23 5.8-34.7 7.9-5.6 1.1-11.1-2.7-12.2-8.3q-0.1-0.7-0.1-1.3c-0.3-5.2 3.3-9.9 8.5-10.9zm84.8-25.8c10.4-4.4 20.6-9.4 30.5-14.7 5.1-2.8 11.4-0.8 14.2 4.2 2.7 5.1 0.8 11.4-4.3 14.2-10.4 5.6-21.2 10.8-32.1 15.5-5.3 2.3-11.4-0.2-13.7-5.5q-0.7-1.7-0.8-3.4c-0.3-4.3 2.1-8.5 6.2-10.3zm77-44.1c9.1-6.6 17.9-13.8 26.4-21.2 4.3-3.8 10.9-3.3 14.7 1 3.8 4.4 3.4 11-0.9 14.8-9 7.8-18.3 15.3-27.8 22.3-4.7 3.4-11.2 2.4-14.7-2.3-1.2-1.6-1.8-3.5-2-5.5-0.2-3.4 1.3-6.9 4.3-9.1zm65.2-60.1c7.3-8.5 14.4-17.4 21-26.5 3.4-4.7 10-5.7 14.6-2.3 4.7 3.4 5.7 9.9 2.3 14.6-6.9 9.6-14.4 18.9-22.1 27.9-3.8 4.3-10.4 4.8-14.8 1-2.2-1.9-3.4-4.5-3.5-7.2-0.2-2.6 0.6-5.4 2.5-7.5zm50.2-73.1c5.3-9.9 10.3-20.1 14.7-30.5 2.3-5.3 8.4-7.7 13.7-5.4 5.3 2.2 7.8 8.4 5.5 13.7-4.6 10.8-9.8 21.6-15.4 32.1-2.7 5.1-9.1 7-14.2 4.3-3.3-1.8-5.2-5.1-5.5-8.6-0.1-1.9 0.3-3.8 1.2-5.6zm4.2-387.9c5-2.8 11.4-0.8 14.1 4.2 5.6 10.5 10.8 21.3 15.5 32.2 2.2 5.3-0.2 11.4-5.5 13.7-5.3 2.3-11.5-0.2-13.7-5.5-4.5-10.3-9.4-20.6-14.7-30.5-0.7-1.4-1.1-2.8-1.2-4.2-0.3-4 1.7-7.9 5.5-9.9zm28.6 305.6c3-10.9 5.5-21.9 7.6-33 1-5.7 6.4-9.4 12.1-8.4 5.7 1 9.4 6.5 8.4 12.2-2.1 11.6-4.8 23.3-7.9 34.7-1.5 5.6-7.3 8.8-12.8 7.3-4.4-1.2-7.4-5.1-7.7-9.4q-0.1-1.7 0.3-3.4zm7.2-221.9c5.6-1.5 11.3 1.7 12.8 7.3 3.1 11.4 5.8 23.1 7.9 34.7 1.1 5.7-2.7 11.2-8.4 12.2-5.6 1-11.1-2.7-12.1-8.4-2.1-11.1-4.6-22.2-7.5-33q-0.3-1-0.4-2.1c-0.3-4.8 2.8-9.4 7.7-10.7zm6.4 134.3c0.5-11.2 0.5-22.6 0-33.8-0.3-5.8 4.2-10.7 9.9-10.9 5.7-0.3 10.6 4.1 10.9 9.7q0 0.1 0 0.2c0.6 11.9 0.6 23.8 0.1 35.7-0.2 5.7-5.1 10.2-10.9 10-5.4-0.3-9.6-4.5-10-9.8q0-0.5 0-1.1z"/>
						<path id="&lt;Path&gt;" class="s1" d="m1584.4 859.8c4.5-3.6 11.1-2.8 14.7 1.7 3.5 4.4 7 9 10.4 13.6 3.4 4.6 2.4 11.2-2.3 14.6-4.6 3.4-11.1 2.4-14.6-2.3-3.2-4.3-6.5-8.7-9.8-12.9-1.4-1.7-2.2-3.8-2.3-5.8-0.2-3.3 1.1-6.7 3.9-8.9z"/>
					</g>
					<g id="&lt;Group&gt;" style="opacity: .3">
						<path id="&lt;Path&gt;" class="s1" d="m1300.5 715.3c0.5-5.8 5.6-10 11.4-9.5 5.6 0.6 11.3 1.2 17 2 5.7 0.8 9.7 6 8.9 11.7-0.7 5.8-6 9.8-11.7 9-5.4-0.7-10.8-1.4-16.2-1.9-5.2-0.5-9.1-4.6-9.4-9.7q-0.1-0.8 0-1.6z"/>
						<path id="&lt;Compound Path&gt;" class="s1" d="m855.2 1127.6c-0.1-5.7 4.5-10.5 10.3-10.6 5.8-0.1 10.5 4.5 10.6 10.3 0.2 11 0.8 22.1 2 33.3 0.5 5.7-3.7 10.8-9.4 11.4-5.8 0.6-10.9-3.6-11.4-9.4q-0.8-7.2-1.2-14.4c-0.5-6.9-0.8-13.8-0.9-20.6zm19.2 78.6c5.7-1.4 11.3 2.1 12.6 7.7 2.6 10.8 5.7 21.6 9.1 32.1 1.8 5.4-1.1 11.3-6.6 13.1-5.5 1.9-11.4-1.1-13.2-6.6-3.7-11-6.9-22.4-9.6-33.7q-0.2-0.9-0.3-1.8c-0.3-5 3-9.6 8-10.8zm-16.2-135.4c1.4-11.6 3.3-23.2 5.7-34.6 1.2-5.7 6.7-9.3 12.3-8.1 5.7 1.2 9.3 6.7 8.1 12.4-2.2 10.8-4 21.8-5.4 32.8-0.7 5.7-5.9 9.8-11.6 9.1-5.1-0.6-8.8-4.8-9.2-9.7q0-0.9 0.1-1.9zm44.4 220.5c5.2-2.6 11.4-0.4 14 4.7 4.8 10 10.2 19.8 15.9 29.3 2.9 4.9 1.3 11.3-3.6 14.3-5 3-11.4 1.4-14.3-3.6-6-9.9-11.7-20.3-16.8-30.8-0.6-1.2-1-2.6-1.1-3.9-0.2-4.1 2-8.1 5.9-10zm-23.3-309.9c3.9-10.9 8.3-21.8 13.1-32.5 2.4-5.2 8.6-7.5 13.9-5.1 5.2 2.3 7.6 8.5 5.2 13.8-4.6 10.1-8.8 20.5-12.5 30.8-2 5.5-7.9 8.3-13.4 6.4-4-1.5-6.6-5.2-6.9-9.2-0.1-1.4 0.1-2.8 0.6-4.2zm40.2-82.5c6.2-9.9 12.9-19.6 19.9-28.9 3.5-4.6 10-5.5 14.6-2 4.6 3.5 5.6 10 2.1 14.6-6.7 8.8-13.1 18-19 27.4-3 4.9-9.5 6.3-14.4 3.3-2.9-1.9-4.6-5-4.8-8.2-0.2-2.1 0.3-4.3 1.6-6.2zm57.2-71.9c8.2-8.3 16.9-16.3 25.7-23.8 4.4-3.7 11-3.2 14.7 1.2 3.8 4.4 3.2 11-1.1 14.7-8.5 7.2-16.7 14.8-24.5 22.6-4.1 4.1-10.7 4.2-14.8 0.1-1.8-1.9-2.9-4.3-3-6.7-0.2-2.9 0.8-5.9 3-8.1zm71.5-57.6c9.8-6.3 20-12.2 30.4-17.6 5.1-2.7 11.4-0.8 14.1 4.3 2.6 5.1 0.7 11.5-4.4 14.2-9.8 5.1-19.5 10.7-28.8 16.7-4.9 3.1-11.4 1.6-14.5-3.2-0.9-1.6-1.5-3.3-1.6-4.9-0.2-3.7 1.5-7.4 4.8-9.5zm82.5-40.6c10.9-3.9 22.2-7.5 33.5-10.5 5.5-1.5 11.3 1.8 12.7 7.4 1.5 5.6-1.8 11.3-7.3 12.8-10.7 2.9-21.4 6.2-31.8 10-5.4 1.9-11.4-0.9-13.4-6.3q-0.5-1.5-0.6-2.9c-0.3-4.5 2.4-8.9 6.9-10.5zm89.3-21.4c8.5-1.1 17.1-1.9 25.7-2.5q4.6-0.3 9.2-0.5c5.8-0.2 10.8 4.1 10.9 10 0.3 5.8-4.2 10.6-10 10.9q-4.4 0.2-8.8 0.5c-8.1 0.5-16.3 1.3-24.4 2.3-5.7 0.7-10.9-3.3-11.6-9q-0.1-0.4-0.1-0.7c-0.4-5.5 3.6-10.3 9.1-11z"/>
						<path id="&lt;Path&gt;" class="s1" d="m948.9 1368.3c4.5-3.7 11.1-3 14.7 1.5 3.4 4.2 6.9 8.4 10.5 12.5 3.8 4.3 3.3 10.9-1 14.7-4.4 3.8-11 3.4-14.8-0.9-3.7-4.3-7.4-8.8-11-13.2-1.4-1.7-2.1-3.7-2.3-5.8-0.2-3.3 1.1-6.6 3.9-8.8z"/>
					</g>
					<g id="&lt;Group&gt;">
						<path id="&lt;Compound Path&gt;" class="s1" d="m1065 1355.1c-1.7-1.2-2.4-3.4-1.8-5.4l16.8-57c-18.3-20.8-33.5-44.7-44.5-71.1l-58.6-9.8c-2-0.3-3.6-1.9-4-4l-11.8-70.3c-0.3-2 0.7-4.1 2.5-5.1l52.2-28.4c1.8-28.5 8.3-56 18.8-81.7l-34.5-48.4c-1.2-1.7-1.2-3.9 0-5.6l41.4-58.1c1.2-1.7 3.3-2.4 5.3-1.8l57 16.8c20.9-18.4 44.8-33.5 71.1-44.5l9.8-58.6c0.4-2.1 2-3.7 4-4l70.3-11.8c2.1-0.4 4.1 0.6 5.1 2.5l28.4 52.1c28.5 1.9 56.1 8.4 81.8 18.9l48.3-34.5c1.7-1.2 4-1.2 5.7 0l58.1 41.3c1.7 1.3 2.4 3.4 1.8 5.4l-16.8 57c18.3 20.8 33.5 44.8 44.5 71.1l58.6 9.8c2 0.3 3.6 2 4 4l11.8 70.3c0.3 2.1-0.7 4.1-2.5 5.1l-52.2 28.4c-1.8 28.5-8.3 56.1-18.8 81.7l34.5 48.4c1.2 1.7 1.2 4 0 5.7l-41.4 58c-1.2 1.7-3.3 2.5-5.3 1.9l-57-16.8c-20.9 18.3-44.8 33.4-71.1 44.5l-9.8 58.6c-0.4 2-2 3.6-4 4l-70.3 11.8c-2.1 0.3-4.1-0.7-5.1-2.5l-28.4-52.2c-28.5-1.8-56.1-8.3-81.8-18.8l-48.3 34.5c-1.7 1.2-4 1.2-5.7 0z"/>
						<g id="&lt;Group&gt;">
							<path id="&lt;Compound Path&gt;" fill-rule="evenodd" class="s2" d="m1204.3 1115.1c3.2-39.4 37.8-68.8 77.2-65.6 19.1 1.5 36.4 10.4 48.8 25 12.4 14.6 18.4 33.1 16.8 52.2-3.2 39.4-37.8 68.8-77.2 65.6-35.8-2.9-63.4-31.8-65.7-66.7q-0.4-5.2 0.1-10.5zm113.3-29.8c-9.5-11.2-22.8-18-37.5-19.2-30.2-2.4-56.7 20.1-59.2 50.3-2.4 30.2 20.2 56.8 50.4 59.2 30.1 2.5 56.7-20.1 59.2-50.3q0.3-4.1 0-8.1c-0.7-11.7-5.2-22.8-12.9-31.9z"/>
						</g>
						<g id="&lt;Group&gt;">
							<path id="&lt;Path&gt;" class="s2" d="m1133.2 1017.5c27.3-38.4 67.9-63.8 114.3-71.6q9-1.5 18-2c40.4-2.7 80.1 8.5 113.4 32.3 38.4 27.3 63.8 67.9 71.5 114.4 16.1 95.7-48.7 186.8-144.6 202.9q-8.8 1.5-17.7 2c-25.8 1.7-51.6-2.2-75.6-11.7-2.2-0.8-3.2-3.2-2.4-5.4 0.6-1.5 2.1-2.5 3.6-2.6q0.9-0.1 1.8 0.2c22.9 9 47.5 12.8 72 11.2q8.5-0.5 17-2c91.2-15.3 153-102 137.7-193.3-7.4-44.2-31.6-82.9-68.1-108.9-31.8-22.6-69.6-33.3-108-30.8q-8.6 0.6-17.2 2c-32.6 5.5-61.5 20.1-84.4 40.7-41.2 37.2-63.2 93.9-53.3 152.6 1.9 11.8 5.2 23.4 9.6 34.4 0.8 2.2-0.2 4.6-2.4 5.5q-0.6 0.2-1.3 0.2c-1.7 0.2-3.4-0.9-4.1-2.6q-0.4-1-0.8-2-0.2-0.5-0.4-1 0-0.2-0.1-0.3c-3.3-8.8-5.9-17.9-7.7-27.2q-0.6-2.8-1.1-5.6-1.5-9-2.1-18c-2.6-40.4 8.6-80.1 32.4-113.4z"/>
						</g>
					</g>
				</g>
				<g id="&lt;Group&gt;">
					<g id="&lt;Group&gt;" style="opacity: .3">
						<path id="&lt;Path&gt;" class="s1" d="m994.4 1900.6c0.8-3.5 4.2-5.7 7.7-4.9 5.1 1.1 10.3 2.1 15.5 2.9 3.5 0.6 5.9 3.9 5.3 7.4-0.6 3.6-3.9 6-7.4 5.4-5.4-0.9-10.9-1.9-16.2-3.1-2.9-0.7-4.9-3.1-5-5.9q-0.1-0.9 0.1-1.8z"/>
						<path id="&lt;Compound Path&gt;" class="s1" d="m1043.5 1908.1c0.1-3.6 3.1-6.4 6.7-6.2 8.9 0.3 18.1 0.2 27-0.4q2.9-0.2 5.7-0.5c3.6-0.3 6.7 2.4 7 5.9 0.2 3.4-2.3 6.7-5.9 7q-3 0.3-5.9 0.4c-9.4 0.7-19 0.8-28.4 0.5-3.3-0.2-6-2.8-6.2-6.1q0-0.3 0-0.6zm71.8-11.9c10.7-2.2 21.3-5.2 31.6-8.7 3.4-1.2 7.1 0.6 8.2 4 1.2 3.4-0.6 7-4 8.2-10.8 3.7-21.9 6.8-33.1 9.2-3.5 0.7-6.9-1.5-7.6-5q-0.1-0.5-0.2-0.9c-0.2-3.2 2-6.1 5.1-6.8zm61.9-21.3c9.8-4.8 19.3-10.2 28.5-16.2 2.9-1.9 6.9-1.1 8.9 1.9 1.9 3 1.1 6.9-1.9 8.9-9.5 6.3-19.6 12-29.8 17-3.2 1.6-7.1 0.3-8.7-2.9q-0.5-1.2-0.6-2.5c-0.2-2.5 1.2-5 3.6-6.2zm54.7-35.8c8.3-7.1 16.3-14.7 23.6-22.7 2.5-2.6 6.5-2.8 9.2-0.4 2.6 2.4 2.8 6.5 0.3 9.1-7.7 8.4-16 16.4-24.7 23.8-2.8 2.3-6.8 2-9.1-0.7-1-1.1-1.5-2.4-1.6-3.8-0.1-1.9 0.7-3.9 2.3-5.3zm44.3-48.1c6.4-8.9 12.2-18.2 17.4-27.8 1.7-3.1 5.7-4.3 8.8-2.6 3.1 1.7 4.3 5.7 2.6 8.8-5.5 10-11.6 19.8-18.3 29.1-2.1 2.9-6.1 3.6-9 1.5-1.6-1.2-2.5-3-2.7-4.9-0.1-1.4 0.3-2.9 1.2-4.1zm31.3-57.4c4-10.2 7.4-20.6 10.1-31.2 0.9-3.4 4.4-5.5 7.9-4.6 3.4 0.9 5.5 4.4 4.6 7.8-2.8 11.1-6.4 22.1-10.6 32.7-1.3 3.3-5 4.9-8.3 3.6-2.4-0.9-4-3.1-4.1-5.6-0.1-0.9 0.1-1.8 0.4-2.7zm16.3-63.3c1.4-10.8 2.1-21.8 2.2-32.7 0-3.6 2.9-6.5 6.5-6.5 3.5 0.1 6.3 3 6.4 6.5-0.1 11.5-0.8 23-2.3 34.3-0.4 3.5-3.7 6-7.2 5.6-3.1-0.4-5.4-3-5.6-6q-0.1-0.6 0-1.2zm-0.8-105.5c3.4-0.9 6.9 1.3 7.8 4.7 2.3 9.6 4.2 19.5 5.5 29.3q0.3 2.3 0.6 4.5c0.5 3.5-2.1 6.8-5.7 7.2-3.5 0.4-6.7-2.1-7.1-5.7q-0.3-2.1-0.6-4.2c-1.2-9.4-3-18.9-5.3-28q-0.1-0.6-0.1-1.1c-0.2-3.1 1.8-5.9 4.9-6.7z"/>
					</g>
					<g id="&lt;Group&gt;" style="opacity: .3">
						<path id="&lt;Compound Path&gt;" class="s1" d="m781.8 1650.5c-0.6-11.2-0.5-22.6 0.3-33.7 0.2-3.6 3.3-6.3 6.8-6 3.6 0.2 6.3 3.3 6 6.8-0.7 10.7-0.8 21.5-0.2 32.3 0.2 3.5-2.6 6.6-6.1 6.7-3.6 0.2-6.6-2.5-6.8-6q0 0 0-0.1zm9 26.2c3.5-0.7 6.9 1.7 7.5 5.2 1.8 10.6 4.3 21.1 7.4 31.4 1 3.4-0.9 7-4.3 8-3.4 1.1-7-0.9-8-4.3-3.3-10.7-5.9-21.8-7.8-32.9q-0.1-0.3-0.1-0.7c-0.2-3.2 2.1-6.2 5.3-6.7zm-4.4-93.5c2.2-11 5-22 8.5-32.7 1.1-3.4 4.7-5.2 8.1-4.1 3.4 1.1 5.2 4.7 4.2 8.1-3.3 10.2-6 20.7-8.1 31.2-0.7 3.5-4.1 5.8-7.6 5.1-2.9-0.6-5-3.1-5.2-5.9q0-0.8 0.1-1.7zm22 157c3.2-1.4 7.1 0.1 8.5 3.3 4.3 9.8 9.3 19.5 14.8 28.7 1.8 3 0.8 7-2.3 8.8-3 1.8-7 0.8-8.8-2.2-5.8-9.7-11-19.8-15.5-30.1q-0.5-1.1-0.5-2.2c-0.2-2.6 1.2-5.2 3.8-6.3zm-1.2-221.1c4.7-10.2 10.1-20.2 16.1-29.7 1.8-3.1 5.8-4 8.9-2.1 3 1.9 3.9 5.8 2 8.9-5.6 9.1-10.8 18.6-15.3 28.3-1.5 3.2-5.3 4.7-8.5 3.1-2.3-1-3.6-3.1-3.8-5.4 0-1 0.1-2.1 0.6-3.1zm35.6-57.3c7-8.8 14.7-17.2 22.7-25.1 2.5-2.5 6.6-2.4 9.1 0.1 2.5 2.6 2.4 6.7-0.1 9.2-7.6 7.4-14.9 15.5-21.7 23.9-2.2 2.7-6.2 3.2-9 0.9-1.5-1.1-2.3-2.8-2.4-4.6-0.1-1.5 0.3-3.1 1.4-4.4zm48.2-47.2c9-6.8 18.4-13.2 28.1-18.8 3.1-1.8 7-0.8 8.8 2.3 1.8 3 0.8 7-2.3 8.8-9.2 5.4-18.2 11.5-26.7 18-2.8 2.1-6.9 1.6-9.1-1.2-0.8-1.1-1.2-2.3-1.3-3.5-0.1-2.1 0.8-4.2 2.5-5.6z"/>
						<path id="&lt;Path&gt;" class="s1" d="m840.9 1797.9c2.9-2.2 6.9-1.7 9.1 1.1 3.2 4.2 6.6 8.3 10 12.2 2.4 2.7 2.1 6.7-0.6 9.1-2.7 2.3-6.7 2.1-9.1-0.6-3.6-4.1-7.1-8.4-10.5-12.7-0.8-1.1-1.3-2.3-1.3-3.6-0.2-2 0.7-4.1 2.4-5.5z"/>
					</g>
					<g id="&lt;Group&gt;">
						<path id="&lt;Compound Path&gt;" class="s1" d="m921.3 1792.6c-1.1-0.8-1.6-2.2-1.2-3.6l11.2-38.1c-12.2-13.9-22.4-29.9-29.8-47.6l-39.2-6.5c-1.3-0.3-2.4-1.3-2.6-2.7l-7.9-47.1c-0.3-1.3 0.4-2.7 1.6-3.4l34.9-19c1.3-19 5.6-37.5 12.6-54.7l-23-32.3c-0.9-1.2-0.9-2.7 0-3.8l27.6-38.9c0.8-1.1 2.3-1.6 3.6-1.2l38.2 11.2c13.9-12.2 29.9-22.4 47.5-29.7l6.6-39.2c0.2-1.4 1.3-2.5 2.7-2.7l47-7.9c1.4-0.2 2.8 0.4 3.4 1.6l19 35c19.1 1.2 37.5 5.5 54.7 12.6l32.4-23.1c1.1-0.8 2.7-0.8 3.8 0l38.8 27.7c1.2 0.8 1.7 2.2 1.3 3.5l-11.3 38.2c12.3 13.9 22.4 29.9 29.8 47.6l39.2 6.5c1.4 0.2 2.5 1.3 2.7 2.7l7.9 47c0.2 1.4-0.5 2.8-1.7 3.5l-34.9 19c-1.2 19-5.6 37.5-12.6 54.6l23.1 32.4c0.8 1.2 0.8 2.7 0 3.8l-27.7 38.9c-0.8 1.1-2.2 1.6-3.6 1.2l-38.1-11.3c-14 12.3-30 22.4-47.6 29.8l-6.6 39.2c-0.2 1.4-1.3 2.5-2.6 2.7l-47.1 7.9c-1.4 0.2-2.7-0.4-3.4-1.7l-19-34.9c-19.1-1.2-37.5-5.5-54.7-12.6l-32.4 23.1c-1.1 0.8-2.6 0.8-3.8 0z"/>
						<g id="&lt;Group&gt;">
							<path id="&lt;Compound Path&gt;" fill-rule="evenodd" class="s2" d="m1013.6 1631.9c1.1-13 7.1-24.8 17.1-33.2 9.9-8.4 22.5-12.5 35.5-11.5 26.8 2.2 46.9 25.8 44.7 52.6-2.2 26.9-25.8 46.9-52.6 44.7-13-1-24.8-7.1-33.2-17-6.9-8.1-10.9-17.9-11.5-28.3q-0.3-3.6 0-7.3zm51.6-31.8c-9.6-0.8-18.9 2.2-26.2 8.4-7.3 6.2-11.7 14.9-12.5 24.5-0.8 9.5 2.2 18.8 8.4 26.1 6.2 7.4 14.9 11.8 24.5 12.6 19.7 1.6 37.1-13.2 38.7-32.9q0.2-2.7 0-5.3c-1.1-17.4-15-31.9-32.9-33.4z"/>
						</g>
						<g id="&lt;Group&gt;">
							<path id="&lt;Path&gt;" class="s2" d="m1042.8 1515.2q6.2-1 12.4-1.4c27.9-1.8 55.2 5.9 78.3 22.3 26.4 18.9 43.9 46.9 49.3 78.9 5.4 32-2 64.2-20.9 90.7-18.8 26.4-46.8 43.9-78.9 49.3q-6.1 1-12.2 1.4c-17.8 1.2-35.6-1.6-52.2-8.1-3.3-1.3-4.9-5-3.6-8.3 0.9-2.4 3.2-4 5.6-4.1q1.4-0.1 2.7 0.4c14.9 5.8 30.8 8.3 46.6 7.2q5.5-0.3 11-1.2c28.6-4.8 53.7-20.5 70.5-44.1 16.8-23.7 23.5-52.5 18.7-81.1-4.8-28.6-20.5-53.6-44.1-70.5-20.6-14.6-45.1-21.6-70-19.9q-5.5 0.3-11.1 1.3c-28.6 4.8-53.6 20.4-70.5 44.1q-0.2 0.3-0.4 0.6-0.1 0.1-0.1 0.2c-5.7 8.1-10.2 16.8-13.5 26-5.9 16.8-7.7 34.9-4.8 52.9q0.1 0.7 0.2 1.3c1.2 7.6 3.3 15.1 6.2 22.3 1.3 3.3-0.3 7.1-3.6 8.4q-1 0.4-2 0.4c-2.7 0.2-5.3-1.4-6.4-4q-0.2-0.6-0.4-1.1c-3-7.7-5.2-15.7-6.6-23.9q-1-6.1-1.4-12.2c-4-61.5 39.2-117.4 101.2-127.8z"/>
						</g>
					</g>
				</g>
			</g>
			<g id="&lt;Group&gt;">
				<path id="&lt;Path&gt;" class="s3" d="m2141.4 2658.8c19.2 7.8 30.6 17.4 31.5 28.5 1 12.2-10.6 24.5-31.5 36.1 19.2 7.7 30.6 17.3 31.5 28.5 1.5 19-27.8 38.6-75.9 54.7 1.5 13 2.2 27.7 2 44.3-1 67.8-88.1 140.1-188.7 140.1-100.6 0-176.7-53-182.2-120.6-1.2-14.5-1.5-27.7-1-39.7-37.9-8.5-61.4-21.6-62.7-37.8-1-12.2 10.6-24.5 31.5-36.1-19.2-7.7-30.6-17.3-31.5-28.5-1-12.1 10.6-24.5 31.5-36-19.2-7.7-30.6-17.4-31.5-28.5-1-12.1 10.6-24.5 31.5-36-19.2-7.7-30.6-17.4-31.5-28.5-2.9-36.7 108.5-75.6 248.9-87 140.4-11.3 256.6 9.3 259.6 46 1 12.1-10.6 24.5-31.5 36 19.2 7.7 30.6 17.4 31.5 28.5 1 12.1-10.6 24.5-31.5 36z"/>
				<g id="&lt;Group&gt;">
					<path id="&lt;Path&gt;" class="s4" d="m1848.3 2845.3c-41.7 0-79.8-3-111.3-9.1-1.9-0.3-3.1-2.1-2.7-3.9 0.3-1.9 2.1-3.1 3.9-2.7 49.4 9.4 115.2 11.5 185.6 5.9 57.5-4.7 111.3-14 155.5-26.9 1.8-0.5 3.7 0.5 4.2 2.3 0.6 1.8-0.5 3.7-2.3 4.2-44.7 13-98.9 22.4-156.9 27.1-26.1 2.1-51.6 3.1-76 3.1z"/>
					<path id="&lt;Path&gt;" class="s1" d="m1849 2780.7c-54.1 0-102.6-5.1-136.7-14.8-1.8-0.5-2.8-2.4-2.3-4.1 0.5-1.8 2.3-2.9 4.1-2.4 48.7 13.9 127.1 18.2 209.7 11.5 81.6-6.6 157.8-23.1 203.8-44.3 1.7-0.8 3.7-0.1 4.4 1.6 0.8 1.7 0.1 3.7-1.6 4.5-46.6 21.5-123.7 38.3-206.1 45-25.7 2-51.1 3-75.3 3z"/>
					<path id="&lt;Path&gt;" class="s1" d="m1848.3 2716.3c-58.5 0-109.6-6-144.1-17.4-1.8-0.6-2.7-2.5-2.2-4.2 0.6-1.8 2.5-2.8 4.3-2.2 48 15.8 129.2 21 217.5 13.9 81.6-6.6 157.8-23.2 203.8-44.3 1.7-0.8 3.7-0.1 4.4 1.6 0.8 1.7 0.1 3.7-1.6 4.5-46.6 21.5-123.7 38.3-206.1 44.9-26.1 2.1-51.7 3.2-76 3.2z"/>
					<path id="&lt;Path&gt;" class="s1" d="m1848.8 2651.7c-46.4 0-88.6-3.7-121.4-11-1.8-0.4-3-2.2-2.6-4.1 0.4-1.8 2.2-2.9 4-2.5 49.4 10.9 120.4 13.8 195 7.8 80.9-6.5 156.7-22.9 202.7-43.9 1.7-0.8 3.7 0 4.5 1.7 0.8 1.7 0 3.7-1.7 4.4-46.7 21.3-123.3 37.9-205 44.5-25.8 2.1-51.2 3.1-75.5 3.1z"/>
				</g>
				<path id="&lt;Path&gt;" class="s5" d="m1570.2 2297.1c-17.1-60.4-46-116.8-85-166-83.6-105.4-220-319.6-236.8-612-24.4-425.3 352.8-638.3 697-609.4 344.2 28.9 683.9 285.2 646.7 680.9-22.9 243.5-159.1 428.1-260.6 534.2-64.4 67.3-110.4 149.8-135.3 239.6-30.4 110-102.9 247-275.1 255.3-222.9 10.8-315.4-196.9-350.9-322.6z"/>
				<path id="&lt;Path&gt;" class="s6" d="m1978 2534.9l120.5-783.3c2.5-16.2 10.4-27.1 17.8-24.3 7.3 2.8 11.2 18.1 8.7 34.3 0 0.5-0.1 1-0.2 1.4l-137.2 776.1c-1 5.8-4 9.5-6.6 8.2-2.6-1.2-3.8-6.7-3-12.4z"/>
				<path id="&lt;Path&gt;" class="s7" d="m1850 2553.5c-2.6 1.3-5.6-2.4-6.6-8.2l-137.2-776.1c0-0.4-0.1-0.9-0.2-1.4-2.5-16.1 1.4-31.5 8.8-34.3 7.3-2.8 15.3 8.1 17.8 24.3l120.4 783.3c0.9 5.7-0.4 11.2-3 12.4z"/>
				<path id="&lt;Path&gt;" class="s8" d="m2092.9 1698l-79.6 37.2c-5.7 2.7-12.8 0.8-15.8-4.1q-0.4-0.5-0.6-1l-0.2-0.4-22.2-47.9-59 94.6c-3.1 5-10.2 6.9-16 4.2-2.5-1.2-4.4-3.1-5.4-5.3v-0.1l-61.1-136.2-67.9 75.7c-4 4.5-11.3 5.3-16.4 1.8-4.8-3.2-5.9-9-2.7-13.4l77.1-106.1c5.4-7.4 16.7-9.7 25.3-5 3.9 2.1 6.5 5.2 7.8 8.7v0.3l51.2 143.1 55.2-100.5 0.1-0.2c3.7-6.7 12.9-9.6 20.6-6.4 4.1 1.7 6.9 4.7 8.1 8.2l23.3 66.3 67.1-31.3c5.7-2.6 12.7-0.8 15.8 4.1 3.1 4.9 0.9 11.1-4.7 13.7z"/>
			</g>
			<g id="&lt;Group&gt;">
				<g id="&lt;Group&gt;">
					<g id="&lt;Group&gt;">
						<path id="&lt;Path&gt;" class="s1" d="m3204.7 3169.2h-1428.3v-285.9h1428.3c-30.6 0-30.6 285.9 0 285.9z"/>
						<path id="&lt;Path&gt;" class="s9" d="m1830.4 3169.2h1414.5c1.9 0 3.4 1.5 3.4 3.4v57.9c0 1.8-1.5 3.3-3.4 3.3h-1500.8c-32.1 0-84.7-50.5-84.7-112.8v-182.7c0-66.1 54.1-119.6 88.2-119.6h1497.3c1.9 0 3.4 1.5 3.4 3.3v58c0 1.8-1.5 3.3-3.4 3.3h-1405.5c-34.8 0-63 37.4-63 83.5v130.9c0 39.5 24.1 71.5 54 71.5z"/>
					</g>
					<path id="&lt;Path&gt;" class="s10" d="m3155.3 2945.3h-1339.3c-1.9 0-3.4-1.5-3.4-3.3 0-1.9 1.5-3.4 3.4-3.4h1339.3c1.8 0 3.3 1.5 3.3 3.4 0 1.8-1.5 3.3-3.3 3.3z"/>
					<path id="&lt;Path&gt;" class="s11" d="m3155.3 2987.8h-1339.3c-1.9 0-3.4-1.5-3.4-3.4 0-1.9 1.5-3.4 3.4-3.4h1339.3c1.8 0 3.3 1.5 3.3 3.4 0 1.9-1.5 3.4-3.3 3.4z"/>
					<path id="&lt;Path&gt;" class="s12" d="m3155.3 3030.2h-1339.3c-1.9 0-3.4-1.5-3.4-3.4 0-1.8 1.5-3.3 3.4-3.3h1339.3c1.8 0 3.3 1.5 3.3 3.3 0 1.9-1.5 3.4-3.3 3.4z"/>
					<path id="&lt;Path&gt;" class="s13" d="m3155.3 3072.6h-1339.3c-1.9 0-3.4-1.5-3.4-3.3 0-1.9 1.5-3.4 3.4-3.4h1339.3c1.8 0 3.3 1.5 3.3 3.4 0 1.8-1.5 3.3-3.3 3.3z"/>
					<path id="&lt;Path&gt;" class="s14" d="m3155.3 3115.1h-1339.3c-1.9 0-3.4-1.5-3.4-3.4 0-1.9 1.5-3.4 3.4-3.4h1339.3c1.8 0 3.3 1.5 3.3 3.4 0 1.9-1.5 3.4-3.3 3.4z"/>
				</g>
				<g id="&lt;Group&gt;">
					<path id="&lt;Path&gt;" class="s15" d="m1924.3 2806.8v-250.9c0-7.6 6.2-13.8 13.8-13.8h1291.1c7.6 0 13.8 6.2 13.8 13.8v250.9c0 7.6-6.2 13.8-13.8 13.8h-1291.1c-7.6 0-13.8-6.2-13.8-13.8z"/>
					<path id="&lt;Path&gt;" class="s3" d="m2977.1 2574.1h135.5v214.5h-135.5z"/>
					<path id="&lt;Path&gt;" class="s3" d="m2906.3 2574.1h50.8v214.5h-50.8z"/>
				</g>
			</g>
			<g id="&lt;Group&gt;">
				<g id="&lt;Group&gt;">
					<path id="&lt;Path&gt;" class="s3" d="m888.5 3157.4h-31.8v-343.7h31.8z"/>
					<path id="&lt;Path&gt;" class="s3" d="m1011.8 3164.1h-278.4v-11.1c0-5.3 4.3-9.6 9.6-9.6h258.5c5.7 0 10.3 4.6 10.3 10.3z"/>
					<path id="&lt;Path&gt;" class="s3" d="m1064.5 2801c0 20-16.4 36.3-36.4 36.3h-299.3c-20 0-36.4-16.3-36.4-36.3v-32.9c0-20 16.4-36.3 36.4-36.3h299.3c20 0 36.4 16.3 36.4 36.3z"/>
				</g>
				<g id="&lt;Group&gt;">
					<path id="&lt;Path&gt;" class="s16" d="m1189.8 3094.4c0 0 90.8 65.4 75 109.4 0 0-99.3-42.9-111.3-76.7-12-33.7 2-48.6 2-48.6z"/>
					<path id="&lt;Path&gt;" class="s17" d="m1216.4 3062.5l-17.8 33.5c-3.7 6.9-11.6 10.4-19.2 8.7-5.4-1.2-9.4-2.9-12.3-4.8-5.8-3.6-8-11-5.8-17.5l14.8-42.9z"/>
					<path id="&lt;Path&gt;" class="s18" d="m1031.7 2653.3c0 0 186.5 32.3 266.4 106.2 80 73.9-73.4 309.6-73.4 309.6 0 0-25.1-0.2-55.6-26.3 0 0 91-177.3 12.6-228.9-88.1-58.2-189.7-71.3-189.7-71.3l37.9-83.6z"/>
					<path id="&lt;Path&gt;" class="s19" d="m1281.8 3207.7c-12.7 9.1-33.1 16.9-62.2 8.5-39.6-11.4-69.1-42-82.4-58-4.3-12.6-0.2-19.9-0.2-19.9 0 0 16.5-11.2 26-9.4 9.5 1.7 66.1 41.3 86 50.5 13.3 6.2 25.8 17.6 32.8 28.3z"/>
					<path id="&lt;Path&gt;" class="s20" d="m1281.8 3207.7c7.6 11.6 8.7 22.3-2.9 24-14.4 2.3-82.2-9.2-117.7-41.2-14.4-12.8-21.1-23.8-24-32.3 13.3 16 42.8 46.6 82.4 58 29.1 8.4 49.5 0.6 62.2-8.5z"/>
					<path id="&lt;Path&gt;" class="s21" d="m1159.2 3094.4l12.8 43.8c1.8 5.9-1.5 12.2-7.4 13.8-4 1.2-8.3 1.5-12 1.5-5.9 0-11.4-3.1-14.5-8.1-6.6-10.6-17.9-29.5-18.1-35z"/>
					<path id="&lt;Path&gt;" class="s22" d="m1045.1 2652.3l-11.1 28c-6.1 15.4-8.4 31.2 4.8 41.2 46 34.8 70 97.2 86.3 140.5 18.8 49.9 47.4 244.5 47.4 244.5-13.2 14-48.4 17.4-48.4 17.4-50.1-46.1-87.6-176.5-109.6-243.5-22.1-67.1-120.9-105-162.3-138.7-41.4-33.7 0-144.4 0-144.4z"/>
					<path id="&lt;Path&gt;" class="s23" d="m1285.7 2568.6c-17.9 3.9-38.2 3.5-60.3-4.3-87.7-31.2-93.2-90.5-93.2-90.5l105.3-74.4c-1.2 4.4-22.8 115.3 46.6 111.1-4.5 15.9-6 35.9 1.6 58.1z"/>
					<path id="&lt;Path&gt;" class="s24" d="m1463.4 2552.4c0 0-13.8 10.8-24.8 0-10.9-10.8-39-39.1-39-39.1 0 0 5.9 26 4.8 30.4-1 4.4-15.1 0.6-13.2-11.5 1-6.2-4.3-12-9.7-16.2-5.3-4.2-12.9-3.3-17.3 1.9-12 14.3-39.8 42.4-78.5 50.7-7.6-22.2-6.1-42.2-1.6-58.1 18.9-1.1 44.5-10.7 79-33.3 0 0 29.4-18 55.2 0 25.9 18 45.1 75.2 45.1 75.2z"/>
					<path id="&lt;Path&gt;" class="s25" d="m960.3 2228.1c0 0 101.1-40.4 289 114.7 0 0 15.7 32.5-1.4 61.5-17.1 28.9-180.3 169.9-202.8 248 0 0-97.2 31.6-197.8-43.3 0 0 8.9-217.6 113-380.9z"/>
					<path id="&lt;Path&gt;" class="s26" d="m1227.1 2216.3l-34.7 71.9c-4.7 9.7-14.3 16.3-25.1 17.1-36.3 2.8-52.7-17.7-59.6-31.7-3.4-7-2.3-15.3 2.6-21.3l49.7-60.3z"/>
					<path id="&lt;Path&gt;" class="s27" d="m805.5 2578.8c-14.5-9.2-26.9-23-36.3-42.7-65.3-137.3 191.1-308 191.1-308l28.9 103.9c0 0-118.8 106.5-107.1 154.3-23.1 11.4-56 36.9-76.6 92.5z"/>
					<path id="&lt;Path&gt;" class="s28" d="m882.1 2479.3c-1.3 0-2.5-0.8-2.8-2.1-12-48.9 103-152.6 107.9-157 1.2-1 3-0.9 4 0.2 1 1.2 0.9 2.9-0.2 4-1.2 1-117.4 105.9-106.2 151.4 0.4 1.5-0.6 3.1-2.1 3.4q-0.3 0.1-0.6 0.1z"/>
					<path id="&lt;Path&gt;" class="s29" d="m1180.6 2573.3c-29.2 19.6-55-43.9-73-41.1-12.3 1.9-35.1-2.2-48.3-4.9-6.6-1.3-13.3-0.1-18.9 3.5-34.3 21.7-160.9 95.3-234.9 48 20.6-55.6 53.5-81.1 76.6-92.5 0.9 3.4 2.4 6.6 4.7 9.4 34.4 41.1 175.2-13.5 175.2-13.5 93.6-19.2 118.6 91.1 118.6 91.1z"/>
					<g id="&lt;Group&gt;">
						<path id="&lt;Path&gt;" class="s30" d="m1284.1 2122.6c0 0 0.8 65.7-9.8 95.5-10.6 29.8-12.2 51.3-48.4 43.1-36.1-8.3-57.5-37-60.7-72.5 0 0-5.3-54.8 7.8-70.8 13.1-16.1 111.1 4.7 111.1 4.7z"/>
						<path id="&lt;Path&gt;" class="s31" d="m1176.4 2168.9c-1.3-0.6-2.8 0.1-3.3 1.5l-9.1 26.1c-0.4 1.1-1.5 1.8-2.7 1.6-4.4-0.7-15.5-4.1-29.4-21.2-13.6-16.7-3.8-20.9 1.9-21.9 1.7-0.3 2.5-2.2 1.7-3.6-16.4-31-10.7-57.9 4.8-62.7 8.9-2.7 13.4 0.2 15.7 3.4 1.1 1.6 3.5 1.4 4.3-0.4 12.7-28.5 47.3-33.7 92-24 31.6 6.9 46.9 1 53.7-3.8 1.7-1.2 4.1 0.2 3.8 2.3-0.2 2.3 2.3 3.7 4.1 2.2l2.5-2c1-0.8 2.5-0.8 3.3 0.1 13.8 14.7 13.8 46.4-7.7 62-22.2 16.1-88.5 2.9-106.6 2.8-18.1-0.2-15.6 43.2-15.6 43.2l-4.3-1.8z"/>
						<path id="&lt;Path&gt;" class="s32" d="m1173.7 2192.3c-12.2-6.7-23.8-46.6-3.8-49.9 20.1-3.3 14.4 36.1 14.4 36.1z"/>
					</g>
				</g>
				<g id="&lt;Group&gt;">
					<g id="&lt;Group&gt;">
						<path id="&lt;Path&gt;" class="s1" d="m1644.6 3216.4l-260.4-586c-2.7-6.1 0.2-13.2 6.5-15.8 6.3-2.7 13.6 0.2 16.3 6.3l260.4 586c2.7 6.1-0.2 13.2-6.5 15.8-1.6 0.7-3.2 1-4.9 1-4.8 0-9.4-2.8-11.4-7.3z"/>
						<path id="&lt;Path&gt;" class="s1" d="m1357.8 3222.7c-6.3-2.6-9.2-9.7-6.5-15.8l260.4-586c2.7-6.1 10-9 16.3-6.3 6.3 2.6 9.2 9.7 6.5 15.8l-260.4 586c-2 4.5-6.6 7.3-11.4 7.3-1.6 0-3.3-0.3-4.9-1z"/>
						<path id="&lt;Path&gt;" class="s1" d="m838.6 3216.4l-260.4-586c-2.7-6.1 0.2-13.2 6.5-15.8 6.3-2.7 13.6 0.2 16.3 6.3l260.4 586c2.7 6.1-0.2 13.2-6.5 15.8-1.6 0.7-3.3 1-4.9 1-4.8 0-9.4-2.8-11.4-7.3z"/>
						<path id="&lt;Path&gt;" class="s1" d="m551.8 3222.7c-6.3-2.6-9.2-9.7-6.5-15.8l260.4-586c2.7-6.1 10-9 16.3-6.3 6.3 2.6 9.2 9.7 6.5 15.8l-260.4 586c-2 4.5-6.6 7.3-11.4 7.3-1.7 0-3.3-0.3-4.9-1z"/>
					</g>
					<path id="&lt;Path&gt;" class="s1" d="m526.1 2602.8c-0.6-3.9 0.3-7.9 2.5-10.9 2.2-3 5.5-4.7 9-4.7h1184.6c4.6 0 8.9 2.6 11.4 6.9 2.5 4.4 2.8 9.8 0.9 14.5l-12.9 31.1c-2.9 7.1-9.3 11.7-16.3 11.7h-1159.6c-6.5 0-12.1-5.2-13.3-12.4z"/>
				</g>
				<g id="&lt;Group&gt;">
					<path id="&lt;Path&gt;" class="s33" d="m1121.6 2576.8c0-7.3 5.9-13.3 13.2-13.3l295.5-0.3c7.3-0.1 13.2 5.9 13.2 13.2 0 7.3-5.9 13.3-13.2 13.3l-295.4 0.3q-0.4 0-0.7 0c-7-0.4-12.6-6.2-12.6-13.2z"/>
					<path id="&lt;Path&gt;" class="s34" d="m1714.2 2348.6l-88.2 223.2c-4.3 10.9-14.8 18-26.5 18h-305.8l113.7-241.2c7.8-16.4 24.3-26.9 42.5-26.9h246c13.9 0 23.4 14 18.3 26.9z"/>
					<path id="&lt;Path&gt;" class="s35" d="m1550.7 2421.3c10.2 3.3 14.1 19.4 8.8 36-5.4 16.5-17.9 27.3-28.1 24-10.2-3.3-14.2-19.4-8.8-35.9 5.3-16.6 17.9-27.4 28.1-24.1z"/>
				</g>
			</g>
			<g id="&lt;Group&gt;">
				<path id="&lt;Path&gt;" class="s36" d="m2301.3 2834.6c0.5-0.1 238.9-417.7 271.1-457 5.4-6.6 13.8-10 22.3-9l66.6 7.9 78.2 169.2-130.3-75.9c12.9 89.2-154.4 221.7-211.8 270-5.9 4.9-6.3 13.7-1.1 19.2l22.9 24c-37.6 38.1-81 62.6-130 73.9z"/>
				<path id="&lt;Path&gt;" class="s37" d="m2406 2770c0 0 14.6 4.8 19.6 17.8 2.3 6.2-0.2 13.3-5.6 17.2-24.1 17.2-103.5 72.9-140.2 83.8-3 0.9-5.9-1.8-5.2-4.9 1.9-8.5 8-25.5 27.6-50.4l-1.8 3.6c-2.2 4.5 2.7 9.2 7.1 6.7 24.5-13.9 74.4-44.1 98.5-73.8z"/>
				<path id="&lt;Path&gt;" class="s38" d="m2394.2 2937.1c0.4-0.2 36.2-86.4 36.6-86.7 32.8-199.7 112.8-370.7 136.4-415.7 4-7.6 11.5-12.6 20-13.3l66.8-5.7 110.8 149.8-142.9-47.9c30.6 84.6-106.4 248.3-152.8 307.2-4.7 6-3.4 14.7 2.8 19l27.3 18.9c-29.1 44.9-66.6 77.7-112.3 98.7z"/>
				<path id="&lt;Path&gt;" class="s39" d="m2483.6 2852.7c0 0 15.3 1.6 22.8 13.4 3.6 5.6 2.5 13-2 17.9-20.1 21.8-86.6 92.4-120.3 110.5-2.8 1.5-6.1-0.6-6.1-3.7 0.1-8.7 2.7-26.6 16.8-55l-1 3.9c-1.3 4.8 4.5 8.4 8.3 5.1 21.2-18.5 64-58.2 81.5-92.1z"/>
				<g id="&lt;Group&gt;">
					<path id="&lt;Path&gt;" class="s40" d="m2966.6 2384.1c0 0 60.4 89.9 65.4 130.9 4.9 40.9-16.7 55.1-80 60.3-188.1 15.6-280.9-40.8-280.9-40.8-12.9-82.1-22-102.9-129.5-147.6 0 0 135.9 10.8 163.3 0.2 27.4-10.6 261.7-3 261.7-3z"/>
				</g>
				<g id="&lt;Group&gt;">
					<path id="&lt;Path&gt;" class="s41" d="m2725.7 1880.7c0 0 42.1-49.8 86.8 11.3 8.1 11 39.2 1.9 50.6 25.1 5.9 11.9 18.6 18.7 31.8 16.3 32.6-6 86-6.5 112.3 44.6 20.1 39.1 4.6 61.9-15.5 74.9-14.8 9.6-20.1 29-11.1 44.2 8.5 14.5 10.1 34.2-12 57.9-49.5 53.1-147.6-33.7-147.6-33.7l-77.9-184z"/>
					<path id="&lt;Path&gt;" class="s42" d="m2803.2 2372.2c0 0-70.3-67-105-111.3-18.7-24-24.6-55.6-15.9-84.8 15.8-53.2 43.9-108.4 46.5-117 3.9-13.2 82.8-12.6 82.8-12.6 0 0 155.2 100.7 216.2 271.4l-68.5 21.3c0 0-40.5-68-80.6-111.2 0 0 69.3 91.5 71.8 129z"/>
					<path id="&lt;Path&gt;" class="s43" d="m2669.2 2398.6l52.8-57.5 61.1 16.5c0 0 71.2 11 111.9 0 40.7-11.1 40.7-11.1 40.7-11.1l92.1-28.6 14.5 40.8c3.6 10.4-0.1 21.9-9 28.3-8 5.7-17.3 11.9-23.3 14.5-12.1 5.3-279.2 1.7-279.2 1.7z"/>
					<path id="&lt;Path&gt;" class="s44" d="m2757.4 1951.6l53 98.6c-3.5 21.6-57.7 22.2-66.1 9.3-0.8-1.3-1.3-2.8-1.7-4.3l-31.7-65.9c-1.3-6.4 16.3-28.1 22.1-31.2l21-11.2c8.2-4.3-25.7-4.6 3.4 4.7z"/>
					<g id="&lt;Group&gt;">
						<path id="&lt;Path&gt;" class="s45" d="m2757.6 1947c7.3 42.2-8.6 67.4-21.8 82.5-13.3 15.1-39.4 17-65.5-25.3-26.2-42.4-20.2-75.7-20.2-75.7 9-42.5 100.3-23.7 107.5 18.5z"/>
						<path id="&lt;Path&gt;" class="s46" d="m2726 1951.6c0 0-42.4-55.7-75-7.1l0.6 16.7c0 0-42.4-2-37.8-41 4.6-39 39.2-65.6 87.1-52.3 47.9 13.3 75.9 28.5 81.3 61.8 5.4 33.2-21.8 27.8-21.8 27.8 0 0-10.3-23-22.9-24.5-12.5-1.6-8 16.6-8 16.6z"/>
						<path id="&lt;Path&gt;" class="s47" d="m2735.7 1950.1c0 0-22-28.5-2-34.4 20-5.9 19.3 27.9 17.9 40.5z"/>
					</g>
				</g>
				<g id="&lt;Group&gt;">
					<path id="&lt;Path&gt;" class="s48" d="m2844.2 2421.4q-0.3 0-0.6 0l-243.1-0.2c-6.1 0-10.9-4.9-10.9-10.9 0-6 4.9-11 10.9-10.9l243.1 0.3c6 0 10.9 4.8 10.9 10.9 0 5.8-4.6 10.5-10.3 10.8z"/>
					<path id="&lt;Path&gt;" class="s49" d="m2381.9 2200.7h202.5c14.9 0 28.5 8.6 34.9 22.1l93.6 198.5h-251.7c-9.6 0-18.2-5.9-21.8-14.9l-72.6-183.6c-4.2-10.6 3.7-22.1 15.1-22.1z"/>
					<path id="&lt;Path&gt;" class="s50" d="m2524.5 2302.4c4.4 13.7 1.2 26.9-7.2 29.6-8.4 2.7-18.7-6.2-23.1-19.8-4.4-13.6-1.2-26.9 7.2-29.6 8.4-2.7 18.7 6.2 23.1 19.8z"/>
				</g>
			</g>
			<g id="&lt;Group&gt;">
				<path id="&lt;Path&gt;" class="s51" d="m2745.4 1113.9l-106.4 196.3c0 0-126.9 104.1-366-20-239-124.1-244.9-363.2-244.9-363.2l83.2-131.8z"/>
				<path id="&lt;Path&gt;" class="s52" d="m2568.8 661.3c74 55 278.6 329.2 358.6 438.4 15.2 20.7 3.4 50.1-21.9 54.6l-558.8 98.8c-15.7 2.7-31.2-5.4-37.7-19.9-60.7-135.1-244.5-385.3-325.8-493.3-16.7-22.1-1.9-53.9 25.7-55.4l537.4-29.9c8.1-0.5 16 1.8 22.5 6.7z"/>
				<path id="&lt;Path&gt;" class="s53" d="m2477.6 913.6c0 0 232.2 229.7 244.1 273.2 12 43.4-68.4 211-68.4 211 9.4 158.9-20.2 322.8-110.7 391.9 0 0-45-216.2 12.8-290.4 57.8-74.2 80.6-104.8 80.6-104.8 0 0 76.2-180.8 71.2-210.1 0 0-254.9-265.1-229.6-270.8z"/>
				<path id="&lt;Path&gt;" class="s1" d="m2067.7 745.8c0 0 101.1 156.4 202.3 312.9 12.6 19.5 25.2 39.1 37.7 58.3q9.3 14.5 18.5 28.6 4.6 7.1 9.1 14.1c1.5 2.3 3 4.8 4.4 6.8 1.7 2.4 3 4.1 4.7 5.9 6.8 7.4 15.9 12.4 25.3 14.4 4.7 1.1 9.6 1.4 14.3 1 4.9-0.4 10.1-1 15-1.5 19.9-2.1 38.7-4.1 56.1-5.9 69.5-7.4 115.8-12.2 115.8-12.2 1.8-0.2 3.4 1.1 3.6 2.9 0.2 1.7-1.1 3.3-2.9 3.5 0 0-46.3 5.4-115.7 13.3-17.3 2-36.1 4.2-56 6.4-5 0.6-9.9 1.2-15.2 1.7-5.5 0.5-11.2 0.2-16.7-0.9-11.1-2.3-21.8-8.1-29.9-16.7-2-2-4.1-4.7-5.6-6.8-1.7-2.5-3.1-4.7-4.7-7.1q-4.5-6.9-9.2-13.9-9.3-14.1-18.7-28.5c-12.6-19.1-25.5-38.5-38.3-58-102.6-155.5-205.2-310.9-205.2-310.9-2-3.1-1.1-7.3 2-9.4 3-2 7.2-1.1 9.3 2z"/>
				<path id="&lt;Path&gt;" class="s1" d="m2614.3 1485.2c0 0-1 0.7-2.2 1.6-0.7 0.5-1.5 1.2-2.5 2.1-1 0.9-2.2 1.9-3.5 3.1-1.2 1.3-2.6 2.6-4.1 4.2q-2.1 2.4-4.6 5.2c-1.6 1.9-3.1 4.2-4.8 6.4-0.9 1.1-1.8 2.2-2.6 3.5q-1.2 1.8-2.5 3.8c-1.6 2.7-3.5 5.3-5.1 8.3q-2.4 4.4-4.9 9.2c-1.7 3.1-3 6.6-4.6 10-1.5 3.5-3.3 6.9-4.5 10.7q-1.9 5.6-4 11.3l-1 2.9-0.8 3q-0.9 3-1.7 6-1.6 6-3.3 12.1-1.2 6.2-2.5 12.4c-0.8 4.2-1.8 8.3-2.3 12.5q-0.9 6.3-1.7 12.5-0.8 6.3-1.6 12.4-0.3 6.1-0.7 12.1-0.4 6-0.8 11.8-0.2 2.9-0.3 5.7 0 2.8-0.1 5.6c0 7.3 0 14.2 0 20.6-0.2 6.5 0.3 12.3 0.6 17.5 0.2 5.2 0.5 9.8 0.7 13.5 0.4 7.5 0.6 11.8 0.6 11.8v0.1c0.1 1.3-0.9 2.4-2.2 2.4-1.2 0.1-2.3-0.8-2.4-2.1 0 0-0.4-4.3-1-11.8-0.4-3.8-0.8-8.3-1.2-13.6-0.4-5.2-1.1-11.1-1.2-17.6-0.2-6.5-0.4-13.5-0.6-20.9q0-2.8-0.1-5.6 0.1-2.9 0.1-5.8 0.2-5.9 0.4-12 0.2-6.1 0.4-12.3 0.6-6.3 1.2-12.7 0.7-6.3 1.3-12.8c0.4-4.3 1.3-8.6 2-12.9q1.1-6.4 2.2-12.8 1.5-6.4 3-12.7 0.7-3.1 1.5-6.2l0.7-3.1 1-3q1.9-6.1 3.8-11.9c1.1-4 2.8-7.7 4.3-11.4 1.5-3.6 2.8-7.3 4.5-10.7q2.6-5.1 5-9.9c1.5-3.3 3.5-6.1 5.1-9q1.3-2.2 2.5-4.2c0.9-1.4 1.8-2.6 2.7-3.9 1.8-2.5 3.4-4.9 5.1-7q2.6-3.2 4.9-6c1.5-1.8 3.1-3.4 4.4-4.8 1.4-1.5 2.7-2.7 3.9-3.8 1.1-1.1 2.1-2 3.1-2.7 2-1.6 2.8-2.1 2.8-2.1l0.2-0.2c3.1-2 7.2-1.2 9.3 1.9 2.1 3 1.2 7.2-1.8 9.3 0 0-0.1 0-0.1 0z"/>
				<path id="&lt;Path&gt;" class="s1" d="m2607.7 1555.6c0 0-0.2 0.7-0.6 2.1-0.4 1.3-0.6 3-1.2 5.3-1.1 5.1-2.7 12.5-4.6 21.3-3.7 17.9-8.6 41.8-13.6 65.7-9.7 47.8-19.4 95.5-19.4 95.5-0.4 2-2.3 3.3-4.3 2.9-1.9-0.4-3.2-2.2-2.9-4.2 0 0 8.2-48.1 16.4-96.2 4.2-24 8.4-48 11.5-66 1.7-9.1 3.1-16.7 4.1-22 0.6-2.9 1.1-5.4 1.4-6.8 0.4-1.4 0.5-2.1 0.5-2.1 0.9-3.6 4.6-5.8 8.2-5 3.6 0.9 5.8 4.6 4.9 8.2q0 0-0.1 0.1z"/>
			</g>
		</g>
	</g>
</svg>