<svg version="1.2" xmlns="http://www.w3.org/2000/svg" viewBox="0 0 2475 1650" width="2475" height="1650">
	<title>444-ai</title>
	<defs>
		<linearGradient id="g1" x1="2459.4" y1="614.2" x2="1177.5" y2="2571.8" gradientUnits="userSpaceOnUse">
			<stop offset="0" stop-color="#4042e2"/>
			<stop offset="1" stop-color="#4f52ff"/>
		</linearGradient>
		<linearGradient id="g2" x1="1492.6" y1="158.6" x2="1687.9" y2="158.6" gradientUnits="userSpaceOnUse">
			<stop offset="0" stop-color="#dae3fe"/>
			<stop offset="1" stop-color="#e9effd"/>
		</linearGradient>
		<linearGradient id="g3" x1="1490" y1="173.1" x2="1685.3" y2="173.1" gradientUnits="userSpaceOnUse">
			<stop offset="0" stop-color="#dae3fe"/>
			<stop offset="1" stop-color="#e9effd"/>
		</linearGradient>
		<linearGradient id="g4" x1="1490" y1="188" x2="1685.3" y2="188" gradientUnits="userSpaceOnUse">
			<stop offset="0" stop-color="#dae3fe"/>
			<stop offset="1" stop-color="#e9effd"/>
		</linearGradient>
		<linearGradient id="g5" x1="1491.7" y1="200.9" x2="1687" y2="200.9" gradientUnits="userSpaceOnUse">
			<stop offset="0" stop-color="#dae3fe"/>
			<stop offset="1" stop-color="#e9effd"/>
		</linearGradient>
		<linearGradient id="g6" x1="1608.9" y1="212.9" x2="1686.6" y2="212.9" gradientUnits="userSpaceOnUse">
			<stop offset="0" stop-color="#dae3fe"/>
			<stop offset="1" stop-color="#e9effd"/>
		</linearGradient>
		<linearGradient id="g7" x1="1491.3" y1="216.6" x2="1545.8" y2="216.6" gradientUnits="userSpaceOnUse">
			<stop offset="0" stop-color="#dae3fe"/>
			<stop offset="1" stop-color="#e9effd"/>
		</linearGradient>
		<linearGradient id="g8" x1="1610.1" y1="227.3" x2="1684" y2="227.3" gradientUnits="userSpaceOnUse">
			<stop offset="0" stop-color="#dae3fe"/>
			<stop offset="1" stop-color="#e9effd"/>
		</linearGradient>
		<linearGradient id="g9" x1="1488.7" y1="231.1" x2="1542.6" y2="231.1" gradientUnits="userSpaceOnUse">
			<stop offset="0" stop-color="#dae3fe"/>
			<stop offset="1" stop-color="#e9effd"/>
		</linearGradient>
		<linearGradient id="g10" x1="1610.1" y1="242.3" x2="1684" y2="242.3" gradientUnits="userSpaceOnUse">
			<stop offset="0" stop-color="#dae3fe"/>
			<stop offset="1" stop-color="#e9effd"/>
		</linearGradient>
		<linearGradient id="g11" x1="1488.7" y1="246.2" x2="1541.4" y2="246.2" gradientUnits="userSpaceOnUse">
			<stop offset="0" stop-color="#dae3fe"/>
			<stop offset="1" stop-color="#e9effd"/>
		</linearGradient>
		<linearGradient id="g12" x1="1610.1" y1="255.1" x2="1685.7" y2="255.1" gradientUnits="userSpaceOnUse">
			<stop offset="0" stop-color="#dae3fe"/>
			<stop offset="1" stop-color="#e9effd"/>
		</linearGradient>
		<linearGradient id="g13" x1="1490.3" y1="259.1" x2="1542.6" y2="259.1" gradientUnits="userSpaceOnUse">
			<stop offset="0" stop-color="#dae3fe"/>
			<stop offset="1" stop-color="#e9effd"/>
		</linearGradient>
		<linearGradient id="g14" x1="1827.9" y1="372.3" x2="1954.5" y2="372.3" gradientUnits="userSpaceOnUse">
			<stop offset="0" stop-color="#dae3fe"/>
			<stop offset="1" stop-color="#e9effd"/>
		</linearGradient>
		<linearGradient id="g15" x1="1830.9" y1="377.5" x2="1954.5" y2="377.5" gradientUnits="userSpaceOnUse">
			<stop offset="0" stop-color="#dae3fe"/>
			<stop offset="1" stop-color="#e9effd"/>
		</linearGradient>
		<linearGradient id="g16" x1="1832.4" y1="381.3" x2="1954.5" y2="381.3" gradientUnits="userSpaceOnUse">
			<stop offset="0" stop-color="#dae3fe"/>
			<stop offset="1" stop-color="#e9effd"/>
		</linearGradient>
		<linearGradient id="g17" x1="1940.3" y1="-153.8" x2="1945.8" y2="241.7" gradientUnits="userSpaceOnUse">
			<stop offset="0" stop-color="#09005d"/>
			<stop offset="1" stop-color="#1a0f91"/>
		</linearGradient>
		<linearGradient id="g18" x1="1960.1" y1="188.3" x2="1928.3" y2="656.8" gradientUnits="userSpaceOnUse">
			<stop offset="0" stop-color="#4042e2"/>
			<stop offset="1" stop-color="#4f52ff"/>
		</linearGradient>
		<linearGradient id="g19" x1="1936" y1="510.8" x2="1718.2" y2="528" gradientUnits="userSpaceOnUse">
			<stop offset="0" stop-color="#4042e2"/>
			<stop offset="1" stop-color="#4f52ff"/>
		</linearGradient>
		<linearGradient id="g20" x1="1486.7" y1="497.5" x2="1714.3" y2="497.5" gradientUnits="userSpaceOnUse">
			<stop offset="0" stop-color="#4042e2"/>
			<stop offset="1" stop-color="#4f52ff"/>
		</linearGradient>
		<linearGradient id="g21" x1="1700.9" y1="512.5" x2="1727" y2="512.5" gradientUnits="userSpaceOnUse">
			<stop offset="0" stop-color="#09005d"/>
			<stop offset="1" stop-color="#1a0f91"/>
		</linearGradient>
		<linearGradient id="g22" x1="1726.3" y1="477.6" x2="1723.6" y2="499.6" gradientUnits="userSpaceOnUse">
			<stop offset="0" stop-color="#09005d"/>
			<stop offset="1" stop-color="#1a0f91"/>
		</linearGradient>
		<linearGradient id="g23" x1="1985.1" y1="847.8" x2="1037.8" y2="2294.5" gradientUnits="userSpaceOnUse">
			<stop offset="0" stop-color="#fe7062"/>
			<stop offset="1" stop-color="#ff928e"/>
		</linearGradient>
		<linearGradient id="g24" x1="1564.5" y1="1001.7" x2="849.5" y2="2093.6" gradientUnits="userSpaceOnUse">
			<stop offset="0" stop-color="#4042e2"/>
			<stop offset="1" stop-color="#4f52ff"/>
		</linearGradient>
		<linearGradient id="g25" x1="1159.8" y1="1180.2" x2="670.7" y2="1927.1" gradientUnits="userSpaceOnUse">
			<stop offset="0" stop-color="#fe7062"/>
			<stop offset="1" stop-color="#ff928e"/>
		</linearGradient>
		<linearGradient id="g26" x1="658.2" y1="490.6" x2="1595.9" y2="490.6" gradientUnits="userSpaceOnUse">
			<stop offset="0" stop-color="#dae3fe"/>
			<stop offset="1" stop-color="#e9effd"/>
		</linearGradient>
		<linearGradient id="g27" x1="966.4" y1="699" x2="749.7" y2="579.6" gradientUnits="userSpaceOnUse">
			<stop offset="0" stop-color="#4042e2"/>
			<stop offset="1" stop-color="#4f52ff"/>
		</linearGradient>
		<linearGradient id="g28" x1="1165.1" y1="641.6" x2="983.6" y2="735.9" gradientUnits="userSpaceOnUse">
			<stop offset="0" stop-color="#ff928e"/>
			<stop offset="1" stop-color="#feb3b1"/>
		</linearGradient>
		<linearGradient id="g29" x1="1144" y1="640.8" x2="1002" y2="714.5" gradientUnits="userSpaceOnUse">
			<stop offset="0" stop-color="#ff928e"/>
			<stop offset="1" stop-color="#feb3b1"/>
		</linearGradient>
		<linearGradient id="g30" x1="1211.9" y1="480.3" x2="1153.6" y2="563.8" gradientUnits="userSpaceOnUse">
			<stop offset="0" stop-color="#ff928e"/>
			<stop offset="1" stop-color="#feb3b1"/>
		</linearGradient>
		<linearGradient id="g31" x1="557.8" y1="1007.1" x2="599" y2="1007.1" gradientUnits="userSpaceOnUse">
			<stop offset="0" stop-color="#4042e2"/>
			<stop offset="1" stop-color="#4f52ff"/>
		</linearGradient>
		<linearGradient id="g32" x1="561.7" y1="1003" x2="599.1" y2="1003" gradientUnits="userSpaceOnUse">
			<stop offset="0" stop-color="#09005d"/>
			<stop offset="1" stop-color="#1a0f91"/>
		</linearGradient>
		<linearGradient id="g33" x1="584.1" y1="987.7" x2="615.6" y2="987.7" gradientUnits="userSpaceOnUse">
			<stop offset="0" stop-color="#ff928e"/>
			<stop offset="1" stop-color="#feb3b1"/>
		</linearGradient>
		<linearGradient id="g34" x1="1061" y1="863.6" x2="1123.2" y2="863.6" gradientUnits="userSpaceOnUse">
			<stop offset="0" stop-color="#4042e2"/>
			<stop offset="1" stop-color="#4f52ff"/>
		</linearGradient>
		<linearGradient id="g35" x1="1045.4" y1="863.5" x2="1120.9" y2="863.5" gradientUnits="userSpaceOnUse">
			<stop offset="0" stop-color="#09005d"/>
			<stop offset="1" stop-color="#1a0f91"/>
		</linearGradient>
		<linearGradient id="g36" x1="1026.4" y1="884.1" x2="1060.6" y2="884.1" gradientUnits="userSpaceOnUse">
			<stop offset="0" stop-color="#ff928e"/>
			<stop offset="1" stop-color="#feb3b1"/>
		</linearGradient>
		<linearGradient id="g37" x1="594.2" y1="758.4" x2="836.1" y2="758.4" gradientUnits="userSpaceOnUse">
			<stop offset="0" stop-color="#09005d"/>
			<stop offset="1" stop-color="#1a0f91"/>
		</linearGradient>
		<linearGradient id="g38" x1="747.9" y1="750.6" x2="1045.4" y2="750.6" gradientUnits="userSpaceOnUse">
			<stop offset="0" stop-color="#09005d"/>
			<stop offset="1" stop-color="#1a0f91"/>
		</linearGradient>
		<linearGradient id="g39" x1="931.2" y1="647.8" x2="744.4" y2="945.5" gradientUnits="userSpaceOnUse">
			<stop offset="0" stop-color="#4042e2"/>
			<stop offset="1" stop-color="#4f52ff"/>
		</linearGradient>
		<linearGradient id="g40" x1="787.3" y1="602.4" x2="779.4" y2="756.4" gradientUnits="userSpaceOnUse">
			<stop offset="0" stop-color="#ff928e"/>
			<stop offset="1" stop-color="#feb3b1"/>
		</linearGradient>
		<linearGradient id="g41" x1="829.3" y1="608.7" x2="805.9" y2="620.1" gradientUnits="userSpaceOnUse">
			<stop offset="0" stop-color="#09005d"/>
			<stop offset="1" stop-color="#1a0f91"/>
		</linearGradient>
		<linearGradient id="g42" x1="857.9" y1="626.5" x2="855.4" y2="546.8" gradientUnits="userSpaceOnUse">
			<stop offset="0" stop-color="#ff928e"/>
			<stop offset="1" stop-color="#feb3b1"/>
		</linearGradient>
		<linearGradient id="g43" x1="849.9" y1="491.5" x2="909" y2="465.6" gradientUnits="userSpaceOnUse">
			<stop offset="0" stop-color="#ff928e"/>
			<stop offset="1" stop-color="#feb3b1"/>
		</linearGradient>
		<linearGradient id="g44" x1="909" y1="422.4" x2="976.3" y2="509.1" gradientUnits="userSpaceOnUse">
			<stop offset="0" stop-color="#09005d"/>
			<stop offset="1" stop-color="#1a0f91"/>
		</linearGradient>
		<linearGradient id="g45" x1="860.9" y1="510.9" x2="908.5" y2="490" gradientUnits="userSpaceOnUse">
			<stop offset="0" stop-color="#ff928e"/>
			<stop offset="1" stop-color="#feb3b1"/>
		</linearGradient>
		<linearGradient id="g46" x1="1506.8" y1="225.1" x2="1690.1" y2="225.1" gradientUnits="userSpaceOnUse">
			<stop offset="0" stop-color="#dae3fe"/>
			<stop offset="1" stop-color="#e9effd"/>
		</linearGradient>
		<linearGradient id="g47" x1="1506.8" y1="234" x2="1690.9" y2="234" gradientUnits="userSpaceOnUse">
			<stop offset="0" stop-color="#dae3fe"/>
			<stop offset="1" stop-color="#e9effd"/>
		</linearGradient>
		<linearGradient id="g48" x1="1505.9" y1="243.7" x2="1690.9" y2="243.7" gradientUnits="userSpaceOnUse">
			<stop offset="0" stop-color="#dae3fe"/>
			<stop offset="1" stop-color="#e9effd"/>
		</linearGradient>
		<linearGradient id="g49" x1="1505.9" y1="252.5" x2="1690.9" y2="252.5" gradientUnits="userSpaceOnUse">
			<stop offset="0" stop-color="#dae3fe"/>
			<stop offset="1" stop-color="#e9effd"/>
		</linearGradient>
		<linearGradient id="g50" x1="1505.9" y1="263.1" x2="1690.1" y2="263.1" gradientUnits="userSpaceOnUse">
			<stop offset="0" stop-color="#dae3fe"/>
			<stop offset="1" stop-color="#e9effd"/>
		</linearGradient>
		<linearGradient id="g51" x1="1505.9" y1="272.1" x2="1690.1" y2="272.1" gradientUnits="userSpaceOnUse">
			<stop offset="0" stop-color="#dae3fe"/>
			<stop offset="1" stop-color="#e9effd"/>
		</linearGradient>
		<linearGradient id="g52" x1="1506.8" y1="283.4" x2="1690.1" y2="283.4" gradientUnits="userSpaceOnUse">
			<stop offset="0" stop-color="#dae3fe"/>
			<stop offset="1" stop-color="#e9effd"/>
		</linearGradient>
		<linearGradient id="g53" x1="1506.8" y1="292.3" x2="1690.1" y2="292.3" gradientUnits="userSpaceOnUse">
			<stop offset="0" stop-color="#dae3fe"/>
			<stop offset="1" stop-color="#e9effd"/>
		</linearGradient>
		<linearGradient id="g54" x1="1505.9" y1="303.6" x2="1690.9" y2="303.6" gradientUnits="userSpaceOnUse">
			<stop offset="0" stop-color="#dae3fe"/>
			<stop offset="1" stop-color="#e9effd"/>
		</linearGradient>
		<linearGradient id="g55" x1="1505.9" y1="313.3" x2="1690.1" y2="313.3" gradientUnits="userSpaceOnUse">
			<stop offset="0" stop-color="#dae3fe"/>
			<stop offset="1" stop-color="#e9effd"/>
		</linearGradient>
		<linearGradient id="g56" x1="1505.9" y1="323" x2="1690.9" y2="323" gradientUnits="userSpaceOnUse">
			<stop offset="0" stop-color="#dae3fe"/>
			<stop offset="1" stop-color="#e9effd"/>
		</linearGradient>
		<linearGradient id="g57" x1="1505.9" y1="331.1" x2="1690.1" y2="331.1" gradientUnits="userSpaceOnUse">
			<stop offset="0" stop-color="#dae3fe"/>
			<stop offset="1" stop-color="#e9effd"/>
		</linearGradient>
		<linearGradient id="g58" x1="1505.1" y1="339.9" x2="1690.9" y2="339.9" gradientUnits="userSpaceOnUse">
			<stop offset="0" stop-color="#dae3fe"/>
			<stop offset="1" stop-color="#e9effd"/>
		</linearGradient>
		<linearGradient id="g59" x1="1505.1" y1="349.6" x2="1690.9" y2="349.6" gradientUnits="userSpaceOnUse">
			<stop offset="0" stop-color="#dae3fe"/>
			<stop offset="1" stop-color="#e9effd"/>
		</linearGradient>
		<linearGradient id="g60" x1="1505.1" y1="360.2" x2="1690.1" y2="360.2" gradientUnits="userSpaceOnUse">
			<stop offset="0" stop-color="#dae3fe"/>
			<stop offset="1" stop-color="#e9effd"/>
		</linearGradient>
		<linearGradient id="g61" x1="1504.2" y1="368.3" x2="1690.1" y2="368.3" gradientUnits="userSpaceOnUse">
			<stop offset="0" stop-color="#dae3fe"/>
			<stop offset="1" stop-color="#e9effd"/>
		</linearGradient>
		<linearGradient id="g62" x1="1504.2" y1="379.5" x2="1690.9" y2="379.5" gradientUnits="userSpaceOnUse">
			<stop offset="0" stop-color="#dae3fe"/>
			<stop offset="1" stop-color="#e9effd"/>
		</linearGradient>
		<linearGradient id="g63" x1="1503.3" y1="387.5" x2="1690.1" y2="387.5" gradientUnits="userSpaceOnUse">
			<stop offset="0" stop-color="#dae3fe"/>
			<stop offset="1" stop-color="#e9effd"/>
		</linearGradient>
		<linearGradient id="g64" x1="1502.4" y1="397.2" x2="1690.1" y2="397.2" gradientUnits="userSpaceOnUse">
			<stop offset="0" stop-color="#dae3fe"/>
			<stop offset="1" stop-color="#e9effd"/>
		</linearGradient>
		<linearGradient id="g65" x1="1502.4" y1="406" x2="1690.9" y2="406" gradientUnits="userSpaceOnUse">
			<stop offset="0" stop-color="#dae3fe"/>
			<stop offset="1" stop-color="#e9effd"/>
		</linearGradient>
		<linearGradient id="g66" x1="1500.7" y1="418" x2="1690.9" y2="418" gradientUnits="userSpaceOnUse">
			<stop offset="0" stop-color="#dae3fe"/>
			<stop offset="1" stop-color="#e9effd"/>
		</linearGradient>
		<linearGradient id="g67" x1="1501.5" y1="426.1" x2="1690.9" y2="426.1" gradientUnits="userSpaceOnUse">
			<stop offset="0" stop-color="#dae3fe"/>
			<stop offset="1" stop-color="#e9effd"/>
		</linearGradient>
		<linearGradient id="g68" x1="1502.4" y1="434.9" x2="1690.1" y2="434.9" gradientUnits="userSpaceOnUse">
			<stop offset="0" stop-color="#dae3fe"/>
			<stop offset="1" stop-color="#e9effd"/>
		</linearGradient>
		<linearGradient id="g69" x1="1503.3" y1="445.3" x2="1690.1" y2="445.3" gradientUnits="userSpaceOnUse">
			<stop offset="0" stop-color="#dae3fe"/>
			<stop offset="1" stop-color="#e9effd"/>
		</linearGradient>
		<linearGradient id="g70" x1="1502.4" y1="454.3" x2="1690.1" y2="454.3" gradientUnits="userSpaceOnUse">
			<stop offset="0" stop-color="#dae3fe"/>
			<stop offset="1" stop-color="#e9effd"/>
		</linearGradient>
		<linearGradient id="g71" x1="1502.4" y1="461.6" x2="1690.1" y2="461.6" gradientUnits="userSpaceOnUse">
			<stop offset="0" stop-color="#dae3fe"/>
			<stop offset="1" stop-color="#e9effd"/>
		</linearGradient>
		<linearGradient id="g72" x1="1734.1" y1="222.6" x2="1914.7" y2="222.6" gradientUnits="userSpaceOnUse">
			<stop offset="0" stop-color="#dae3fe"/>
			<stop offset="1" stop-color="#e9effd"/>
		</linearGradient>
		<linearGradient id="g73" x1="1735" y1="230.7" x2="1916.5" y2="230.7" gradientUnits="userSpaceOnUse">
			<stop offset="0" stop-color="#dae3fe"/>
			<stop offset="1" stop-color="#e9effd"/>
		</linearGradient>
		<linearGradient id="g74" x1="1735" y1="242" x2="1915.6" y2="242" gradientUnits="userSpaceOnUse">
			<stop offset="0" stop-color="#dae3fe"/>
			<stop offset="1" stop-color="#e9effd"/>
		</linearGradient>
		<linearGradient id="g75" x1="1734.1" y1="251.5" x2="1917.3" y2="251.5" gradientUnits="userSpaceOnUse">
			<stop offset="0" stop-color="#dae3fe"/>
			<stop offset="1" stop-color="#e9effd"/>
		</linearGradient>
		<linearGradient id="g76" x1="1733.2" y1="259.6" x2="1917.3" y2="259.6" gradientUnits="userSpaceOnUse">
			<stop offset="0" stop-color="#dae3fe"/>
			<stop offset="1" stop-color="#e9effd"/>
		</linearGradient>
		<linearGradient id="g77" x1="1734.1" y1="268.4" x2="1913.8" y2="268.4" gradientUnits="userSpaceOnUse">
			<stop offset="0" stop-color="#dae3fe"/>
			<stop offset="1" stop-color="#e9effd"/>
		</linearGradient>
		<linearGradient id="g78" x1="1733.2" y1="275.6" x2="1915.6" y2="275.6" gradientUnits="userSpaceOnUse">
			<stop offset="0" stop-color="#dae3fe"/>
			<stop offset="1" stop-color="#e9effd"/>
		</linearGradient>
		<linearGradient id="g79" x1="1733.2" y1="286" x2="1914.7" y2="286" gradientUnits="userSpaceOnUse">
			<stop offset="0" stop-color="#dae3fe"/>
			<stop offset="1" stop-color="#e9effd"/>
		</linearGradient>
		<linearGradient id="g80" x1="1734.1" y1="295.7" x2="1915.6" y2="295.7" gradientUnits="userSpaceOnUse">
			<stop offset="0" stop-color="#dae3fe"/>
			<stop offset="1" stop-color="#e9effd"/>
		</linearGradient>
		<linearGradient id="g81" x1="1734.1" y1="302.9" x2="1913.8" y2="302.9" gradientUnits="userSpaceOnUse">
			<stop offset="0" stop-color="#dae3fe"/>
			<stop offset="1" stop-color="#e9effd"/>
		</linearGradient>
		<linearGradient id="g82" x1="1735" y1="313.3" x2="1912.9" y2="313.3" gradientUnits="userSpaceOnUse">
			<stop offset="0" stop-color="#dae3fe"/>
			<stop offset="1" stop-color="#e9effd"/>
		</linearGradient>
		<linearGradient id="g83" x1="1735.9" y1="319.8" x2="1914.7" y2="319.8" gradientUnits="userSpaceOnUse">
			<stop offset="0" stop-color="#dae3fe"/>
			<stop offset="1" stop-color="#e9effd"/>
		</linearGradient>
		<linearGradient id="g84" x1="1735.9" y1="330.2" x2="1914.7" y2="330.2" gradientUnits="userSpaceOnUse">
			<stop offset="0" stop-color="#dae3fe"/>
			<stop offset="1" stop-color="#e9effd"/>
		</linearGradient>
		<linearGradient id="g85" x1="1735" y1="340.8" x2="1913.8" y2="340.8" gradientUnits="userSpaceOnUse">
			<stop offset="0" stop-color="#dae3fe"/>
			<stop offset="1" stop-color="#e9effd"/>
		</linearGradient>
		<linearGradient id="g86" x1="1734.1" y1="349.4" x2="1915.6" y2="349.4" gradientUnits="userSpaceOnUse">
			<stop offset="0" stop-color="#dae3fe"/>
			<stop offset="1" stop-color="#e9effd"/>
		</linearGradient>
		<linearGradient id="g87" x1="1733.2" y1="357.4" x2="1915.6" y2="357.4" gradientUnits="userSpaceOnUse">
			<stop offset="0" stop-color="#dae3fe"/>
			<stop offset="1" stop-color="#e9effd"/>
		</linearGradient>
		<linearGradient id="g88" x1="1734.1" y1="365.6" x2="1914.7" y2="365.6" gradientUnits="userSpaceOnUse">
			<stop offset="0" stop-color="#dae3fe"/>
			<stop offset="1" stop-color="#e9effd"/>
		</linearGradient>
		<linearGradient id="g89" x1="1734.1" y1="374.4" x2="1914.7" y2="374.4" gradientUnits="userSpaceOnUse">
			<stop offset="0" stop-color="#dae3fe"/>
			<stop offset="1" stop-color="#e9effd"/>
		</linearGradient>
		<linearGradient id="g90" x1="1735" y1="384.8" x2="1913.8" y2="384.8" gradientUnits="userSpaceOnUse">
			<stop offset="0" stop-color="#dae3fe"/>
			<stop offset="1" stop-color="#e9effd"/>
		</linearGradient>
		<linearGradient id="g91" x1="1735.9" y1="393.8" x2="1914.7" y2="393.8" gradientUnits="userSpaceOnUse">
			<stop offset="0" stop-color="#dae3fe"/>
			<stop offset="1" stop-color="#e9effd"/>
		</linearGradient>
		<linearGradient id="g92" x1="1735.8" y1="402.1" x2="1913.8" y2="402.1" gradientUnits="userSpaceOnUse">
			<stop offset="0" stop-color="#dae3fe"/>
			<stop offset="1" stop-color="#e9effd"/>
		</linearGradient>
		<linearGradient id="g93" x1="1734.1" y1="412.8" x2="1913.8" y2="412.8" gradientUnits="userSpaceOnUse">
			<stop offset="0" stop-color="#dae3fe"/>
			<stop offset="1" stop-color="#e9effd"/>
		</linearGradient>
		<linearGradient id="g94" x1="1733.2" y1="427.4" x2="1915.6" y2="427.4" gradientUnits="userSpaceOnUse">
			<stop offset="0" stop-color="#dae3fe"/>
			<stop offset="1" stop-color="#e9effd"/>
		</linearGradient>
		<linearGradient id="g95" x1="1733.2" y1="438.7" x2="1915.6" y2="438.7" gradientUnits="userSpaceOnUse">
			<stop offset="0" stop-color="#dae3fe"/>
			<stop offset="1" stop-color="#e9effd"/>
		</linearGradient>
		<linearGradient id="g96" x1="1734.1" y1="448.4" x2="1915.6" y2="448.4" gradientUnits="userSpaceOnUse">
			<stop offset="0" stop-color="#dae3fe"/>
			<stop offset="1" stop-color="#e9effd"/>
		</linearGradient>
		<linearGradient id="g97" x1="1733.2" y1="461.5" x2="1914.7" y2="461.5" gradientUnits="userSpaceOnUse">
			<stop offset="0" stop-color="#dae3fe"/>
			<stop offset="1" stop-color="#e9effd"/>
		</linearGradient>
	</defs>
	<style>
		.s0 { fill: #bdd0fb } 
		.s1 { fill: #dce5fe } 
		.s2 { fill: #91b3fa } 
		.s3 { fill: url(#g1) } 
		.s4 { fill: url(#g2) } 
		.s5 { fill: url(#g3) } 
		.s6 { fill: url(#g4) } 
		.s7 { fill: url(#g5) } 
		.s8 { fill: url(#g6) } 
		.s9 { fill: url(#g7) } 
		.s10 { fill: url(#g8) } 
		.s11 { fill: url(#g9) } 
		.s12 { fill: url(#g10) } 
		.s13 { fill: url(#g11) } 
		.s14 { fill: url(#g12) } 
		.s15 { fill: url(#g13) } 
		.s16 { fill: url(#g14) } 
		.s17 { fill: url(#g15) } 
		.s18 { fill: url(#g16) } 
		.s19 { fill: #7d97f4 } 
		.s20 { fill: url(#g17) } 
		.s21 { fill: url(#g18) } 
		.s22 { fill: url(#g19) } 
		.s23 { fill: url(#g20) } 
		.s24 { fill: url(#g21) } 
		.s25 { fill: url(#g22) } 
		.s26 { fill: url(#g23) } 
		.s27 { fill: url(#g24) } 
		.s28 { fill: url(#g25) } 
		.s29 { fill: url(#g26) } 
		.s30 { fill: url(#g27) } 
		.s31 { fill: url(#g28) } 
		.s32 { fill: url(#g29) } 
		.s33 { fill: url(#g30) } 
		.s34 { fill: url(#g31) } 
		.s35 { fill: url(#g32) } 
		.s36 { fill: url(#g33) } 
		.s37 { fill: url(#g34) } 
		.s38 { fill: url(#g35) } 
		.s39 { fill: url(#g36) } 
		.s40 { fill: url(#g37) } 
		.s41 { fill: url(#g38) } 
		.s42 { fill: url(#g39) } 
		.s43 { fill: url(#g40) } 
		.s44 { fill: url(#g41) } 
		.s45 { fill: url(#g42) } 
		.s46 { fill: url(#g43) } 
		.s47 { fill: url(#g44) } 
		.s48 { fill: url(#g45) } 
		.s49 { fill: url(#g46) } 
		.s50 { fill: url(#g47) } 
		.s51 { fill: url(#g48) } 
		.s52 { fill: url(#g49) } 
		.s53 { fill: url(#g50) } 
		.s54 { fill: url(#g51) } 
		.s55 { fill: url(#g52) } 
		.s56 { fill: url(#g53) } 
		.s57 { fill: url(#g54) } 
		.s58 { fill: url(#g55) } 
		.s59 { fill: url(#g56) } 
		.s60 { fill: url(#g57) } 
		.s61 { fill: url(#g58) } 
		.s62 { fill: url(#g59) } 
		.s63 { fill: url(#g60) } 
		.s64 { fill: url(#g61) } 
		.s65 { fill: url(#g62) } 
		.s66 { fill: url(#g63) } 
		.s67 { fill: url(#g64) } 
		.s68 { fill: url(#g65) } 
		.s69 { fill: url(#g66) } 
		.s70 { fill: url(#g67) } 
		.s71 { fill: url(#g68) } 
		.s72 { fill: url(#g69) } 
		.s73 { fill: url(#g70) } 
		.s74 { fill: url(#g71) } 
		.s75 { fill: url(#g72) } 
		.s76 { fill: url(#g73) } 
		.s77 { fill: url(#g74) } 
		.s78 { fill: url(#g75) } 
		.s79 { fill: url(#g76) } 
		.s80 { fill: url(#g77) } 
		.s81 { fill: url(#g78) } 
		.s82 { fill: url(#g79) } 
		.s83 { fill: url(#g80) } 
		.s84 { fill: url(#g81) } 
		.s85 { fill: url(#g82) } 
		.s86 { fill: url(#g83) } 
		.s87 { fill: url(#g84) } 
		.s88 { fill: url(#g85) } 
		.s89 { fill: url(#g86) } 
		.s90 { fill: url(#g87) } 
		.s91 { fill: url(#g88) } 
		.s92 { fill: url(#g89) } 
		.s93 { fill: url(#g90) } 
		.s94 { fill: url(#g91) } 
		.s95 { fill: url(#g92) } 
		.s96 { fill: url(#g93) } 
		.s97 { fill: url(#g94) } 
		.s98 { fill: url(#g95) } 
		.s99 { fill: url(#g96) } 
		.s100 { fill: url(#g97) } 
	</style>
	<g id="Illustration">
		<g id="&lt;Group&gt;">
			<g id="&lt;Group&gt;">
				<path id="&lt;Path&gt;" class="s0" d="m1659.3 1384c-66.9-162.3 94.5-411.8 284.1-545.6 116.4-82.2 220-262.6 257.3-332.5 3.9-7.3 14.9-4.5 14.8 3.7-3.7 893.5-556.2 874.4-556.2 874.4z"/>
				<path id="&lt;Path&gt;" class="s1" d="m2177 612.7c-0.8 2.3-1.6 4.2-2.3 6.3l-2.4 6.1-5 12.2c-3.3 8.1-6.8 16.1-10.2 24.2q-10.5 24.1-21.4 48c-14.7 31.9-30.2 63.3-46.1 94.5-16 31.3-32.7 62.1-50.1 92.5l-6.5 11.4-6.6 11.4c-4.5 7.5-8.8 15.2-13.4 22.6l-13.6 22.5-14 22.3c-37.5 59.3-78.1 116.6-122.7 170.9-2.7 3.4-5.6 6.7-8.4 10l-8.6 10-8.6 10c-2.9 3.3-5.9 6.5-8.8 9.8-5.9 6.4-11.7 13-17.8 19.4l-18.2 18.9c-24.9 24.8-50.8 48.5-78.2 70.3-0.4 0.3-1 0.3-1.3-0.1-0.3-0.4-0.2-0.9 0.1-1.2 26.9-22.5 52.4-46.4 76.7-71.5l18.1-19.1c5.9-6.4 11.6-13 17.5-19.5 2.8-3.3 5.8-6.5 8.6-9.9l8.5-10 8.4-10c2.8-3.4 5.6-6.7 8.3-10.2l16.4-20.4c5.4-6.9 10.7-13.9 16-20.8 2.7-3.5 5.3-7 8-10.5l7.7-10.5 7.7-10.6c2.6-3.6 5.2-7.1 7.7-10.7 20.3-28.5 39.5-57.7 58.4-87.1 37.6-59.1 72.1-120 104.7-181.9q24.4-46.5 46.9-93.9 11.4-23.7 22.2-47.7c3.6-7.9 7.1-15.9 10.6-24l5.1-12 2.5-6.1c0.8-2 1.7-4.1 2.3-6l0.1-0.2c0.1-0.4 0.6-0.7 1.1-0.5 0.5 0.1 0.7 0.6 0.6 1.1z"/>
			</g>
			<g id="&lt;Group&gt;">
				<path id="&lt;Path&gt;" class="s0" d="m1171.8 276.8c46.8 100.8 295.3 698.5-223.7 1032.4 0 0-264.9-351.4 207.4-1033.8 4.1-6 13.2-5.2 16.3 1.4z"/>
				<path id="&lt;Path&gt;" class="s1" d="m1149.1 386.1c1.2 35.6 1.6 71 1.8 106.5q0.2 53.3-0.8 106.5-1.1 53.3-3.3 106.5c-1.6 35.5-3.7 70.9-6.2 106.4-5.2 70.8-12.4 141.5-23.5 211.7-5.5 35.2-12.2 70.1-20.3 104.8-8.1 34.6-17.5 69-29.7 102.6-0.7 1.8-2.7 2.8-4.6 2.1-1.8-0.7-2.8-2.7-2.1-4.6 12.2-33.1 21.8-67.2 30-101.6 8.2-34.5 15.1-69.2 20.7-104.2 11.4-70 19-140.5 24.5-211.2 2.7-35.4 4.9-70.8 6.6-106.2q2.6-53.1 3.8-106.3 1.3-53.2 1.4-106.4c0-35.5-0.3-71-1.3-106.4v-0.1c-0.1-0.8 0.6-1.5 1.4-1.5 0.8 0 1.5 0.6 1.6 1.4z"/>
			</g>
			<g id="&lt;Group&gt;">
				<path id="&lt;Path&gt;" class="s2" d="m456.2 1275.9c-95.7-85.2-123.5-199.4-131.1-246.4-0.8-4.4 4.6-7.9 6.9-4.6 52.7 74.8 241.6 170.9 319.2 214.2 83.6 46.6 98 120.9 98 120.9 0 0-169.5 25.9-293-84.1z"/>
				<path id="&lt;Path&gt;" class="s1" d="m372.2 1098.1c1.6 4.4 3.6 8.6 5.6 12.8 2.1 4.1 4.3 8.3 6.7 12.2 2.3 4.1 4.9 8 7.4 11.9 2.5 3.9 5.4 7.6 8 11.4 11.1 14.9 23.7 28.6 37.4 41.1l5.1 4.7c1.7 1.6 3.5 3 5.3 4.5 3.6 2.9 7.1 5.9 10.8 8.8l11.2 8.2c1.9 1.3 3.6 2.8 5.6 4l5.9 3.8c3.9 2.5 7.7 5.1 11.7 7.5l12.1 6.8c7.9 4.7 16.4 8.8 24.6 13.2q24.9 12.7 50.2 24.7c8.4 4 16.9 7.9 25.4 11.8l25.5 11.7c17 7.9 34.1 15.5 50.7 24.1 8.4 4.3 16.5 9.1 24.5 14.1 7.9 5.2 15.3 11.1 21.9 17.9 0.4 0.3 0.4 0.9 0 1.2-0.3 0.4-0.8 0.4-1.2 0.1v-0.1c-3.6-3-7-6.1-10.8-8.7-3.7-2.9-7.7-5.2-11.6-7.7-8-4.7-16.2-9-24.7-13-16.8-7.9-33.9-15.3-51.1-22.7l-25.8-11.2c-8.5-3.8-17.1-7.6-25.6-11.6-8.5-3.9-16.9-7.9-25.4-12-8.4-4.1-16.8-8.3-25.1-12.6-33.4-16.8-66.1-36.9-93-63.5-13.6-13.1-26-27.4-36.5-43.1-5.2-7.8-10.1-15.9-14.3-24.3-4.3-8.3-8.1-17-10.7-26q0-0.1 0.1-0.1 0 0 0.1 0.1z"/>
			</g>
			<g id="&lt;Group&gt;">
				<path id="&lt;Path&gt;" class="s0" d="m497.5 800c0.1-4.6 6.4-6 8.5-1.8 19.9 40.4 75.4 145 140.1 193.9 105.2 79.6 192.4 224.5 151.3 315.6 0 0-314.6 0.5-299.9-507.7z"/>
				<path id="&lt;Path&gt;" class="s1" d="m518.8 859.1c0.4 1 0.8 2.2 1.3 3.4l1.3 3.5 2.7 6.9 5.7 13.8q5.8 13.8 11.8 27.4c8.1 18.2 16.4 36.3 25.1 54.2 17.5 35.7 36 71 56.3 105.2 10.2 17.1 20.5 34.1 31.5 50.6 11 16.6 22.4 32.9 34.4 48.7 23.9 31.8 50.2 61.7 79.7 88.5 0.4 0.3 0.4 0.8 0.1 1.2-0.3 0.4-0.9 0.4-1.2 0.1-15.4-12.8-29.8-26.7-43.5-41.2-13.7-14.6-26.5-30-38.9-45.7-24.4-31.6-46.5-65-66.7-99.5-10.2-17.2-19.7-34.7-29.1-52.4-9.3-17.6-18.2-35.5-26.6-53.6-8.4-18.1-16.6-36.3-24.3-54.7q-5.7-13.8-11.1-27.8c-1.8-4.6-3.6-9.3-5.3-14l-2.5-7-1.2-3.6c-0.4-1.2-0.8-2.3-1.2-3.7-0.1-0.5 0.1-0.9 0.6-1.1 0.5-0.1 0.9 0.2 1.1 0.6z"/>
			</g>
			<g id="&lt;Group&gt;">
			</g>
			<g id="&lt;Group&gt;">
			</g>
			<path id="&lt;Path&gt;" class="s3" d="m1951.2 1387.1h-521.1v-795.6c0-19.6 15.9-35.6 35.6-35.6h449.9c19.6 0 35.6 16 35.6 35.6z"/>
			<g id="&lt;Group&gt;">
				<g id="&lt;Group&gt;">
					<path id="&lt;Path&gt;" class="s4" d="m1687.4 169.3q-0.1 0-0.2-0.1c-44-15.3-117.7-7.8-189-0.5l-4.9 0.6c-0.4 0-0.7-0.3-0.7-0.6 0-0.4 0.2-0.7 0.6-0.7l4.9-0.5c35.7-3.7 72.6-7.4 105.3-8.3 36.8-1 64.3 1.9 84.2 8.8 0.3 0.1 0.5 0.5 0.4 0.8-0.1 0.3-0.4 0.5-0.6 0.5z"/>
					<path id="&lt;Path&gt;" class="s5" d="m1684.7 183.8q-0.1 0-0.2-0.1c-43.9-15.3-117.7-7.8-188.9-0.5l-5 0.6c-0.3 0-0.6-0.3-0.6-0.6-0.1-0.4 0.2-0.7 0.5-0.7l4.9-0.5c35.7-3.7 72.6-7.4 105.4-8.3 36.7-1 64.3 1.9 84.1 8.8 0.4 0.1 0.5 0.5 0.4 0.8-0.1 0.3-0.3 0.5-0.6 0.5z"/>
					<path id="&lt;Path&gt;" class="s6" d="m1684.7 198.7q-0.1 0-0.2 0c-43.9-15.4-117.7-7.8-188.9-0.5l-5 0.5c-0.3 0-0.6-0.2-0.6-0.6-0.1-0.3 0.2-0.6 0.5-0.6l4.9-0.6c35.7-3.6 72.6-7.4 105.4-8.3 36.8-0.9 64.3 2 84.1 8.9 0.4 0.1 0.5 0.5 0.4 0.8-0.1 0.2-0.3 0.4-0.6 0.4z"/>
					<path id="&lt;Path&gt;" class="s7" d="m1686.4 211.5q-0.1 0-0.2 0c-44-15.3-117.7-7.8-189-0.5l-4.9 0.5c-0.3 0.1-0.6-0.2-0.7-0.5 0-0.4 0.3-0.7 0.6-0.7l4.9-0.5c35.7-3.7 72.6-7.5 105.4-8.3 36.7-1 64.3 1.9 84.1 8.8 0.4 0.1 0.5 0.5 0.4 0.8-0.1 0.3-0.3 0.4-0.6 0.4z"/>
					<path id="&lt;Path&gt;" class="s8" d="m1686.1 223.7q-0.1 0-0.2 0c-18.5-6.5-43.4-9.4-76.3-9-0.4 0-0.7-0.2-0.7-0.6 0-0.3 0.3-0.6 0.6-0.6 33.1-0.4 58.2 2.5 76.8 9 0.3 0.1 0.5 0.5 0.4 0.8-0.1 0.2-0.4 0.4-0.6 0.4z"/>
					<path id="&lt;Path&gt;" class="s9" d="m1491.9 223.7c-0.3 0-0.6-0.2-0.6-0.6-0.1-0.3 0.2-0.6 0.5-0.7l4.9-0.5c16-1.6 32.5-3.3 48.5-4.7 0.3 0 0.6 0.2 0.7 0.6 0 0.3-0.3 0.6-0.6 0.7-16 1.4-32.5 3.1-48.5 4.7l-4.8 0.5q-0.1 0-0.1 0z"/>
					<path id="&lt;Path&gt;" class="s10" d="m1683.4 238.2q-0.1 0-0.2 0c-17.7-6.2-41.4-9.2-72.5-9q0 0 0 0c-0.3 0-0.6-0.3-0.6-0.6 0-0.4 0.3-0.7 0.6-0.7 31.2-0.1 55 2.8 72.9 9.1 0.4 0.1 0.5 0.5 0.4 0.8-0.1 0.2-0.3 0.4-0.6 0.4z"/>
					<path id="&lt;Path&gt;" class="s11" d="m1489.3 238.2c-0.4 0-0.6-0.2-0.7-0.6 0-0.3 0.3-0.6 0.6-0.7l4.9-0.5c15.8-1.6 32.1-3.2 47.8-4.6 0.4-0.1 0.7 0.2 0.7 0.5 0 0.4-0.2 0.7-0.6 0.7-15.7 1.4-32 3.1-47.7 4.7l-5 0.5q0 0 0 0z"/>
					<path id="&lt;Path&gt;" class="s12" d="m1683.4 253.2q-0.1 0-0.2-0.1c-17.7-6.2-41.4-9.1-72.5-8.9q0 0 0 0c-0.3 0-0.6-0.3-0.6-0.7 0-0.3 0.3-0.6 0.6-0.6 31.2-0.2 55 2.8 72.9 9 0.4 0.1 0.5 0.5 0.4 0.8-0.1 0.3-0.3 0.5-0.6 0.5z"/>
					<path id="&lt;Path&gt;" class="s13" d="m1489.3 253.2c-0.4 0-0.6-0.3-0.7-0.6 0-0.4 0.3-0.7 0.6-0.7l4.9-0.5c15.4-1.6 31.3-3.2 46.7-4.6 0.3 0 0.6 0.2 0.7 0.6 0 0.3-0.3 0.6-0.6 0.7-15.4 1.3-31.3 3-46.7 4.5l-4.9 0.6q0 0 0 0z"/>
					<path id="&lt;Path&gt;" class="s14" d="m1685.1 266q-0.1 0-0.2 0c-18.1-6.3-42.3-9.3-74.1-9-0.4 0-0.7-0.3-0.7-0.6 0-0.4 0.3-0.6 0.6-0.7 32-0.2 56.4 2.7 74.6 9.1 0.3 0.1 0.5 0.4 0.4 0.8-0.1 0.2-0.3 0.4-0.6 0.4z"/>
					<path id="&lt;Path&gt;" class="s15" d="m1490.9 266c-0.3 0-0.5-0.2-0.6-0.6 0-0.3 0.2-0.6 0.6-0.7l4.9-0.5c15.2-1.5 30.9-3.1 46.1-4.5 0.4 0 0.7 0.2 0.7 0.6 0 0.3-0.2 0.6-0.6 0.6-15.1 1.4-30.9 3-46.1 4.6l-4.9 0.5q0 0-0.1 0z"/>
				</g>
			</g>
			<g id="&lt;Group&gt; copy 7">
				<g id="&lt;Group&gt;">
				</g>
				<g id="&lt;Group&gt;">
				</g>
				<g id="&lt;Group&gt;">
				</g>
				<g id="&lt;Group&gt;">
					<path id="&lt;Path&gt;" class="s16" d="m1954 373.8h-125.6c-0.3 0-0.5-0.1-0.5-0.3 0-0.2 0.2-0.4 0.5-0.4h125.6c0.3 0 0.5 0.2 0.5 0.4 0 0.2-0.2 0.3-0.5 0.3z"/>
					<path id="&lt;Path&gt;" class="s17" d="m1954 379h-122.6c-0.3 0-0.5-0.2-0.5-0.4 0-0.1 0.2-0.3 0.5-0.3h122.6c0.3 0 0.5 0.2 0.5 0.3 0 0.2-0.2 0.4-0.5 0.4z"/>
					<path id="&lt;Path&gt;" class="s18" d="m1954 382.8h-121.1c-0.3 0-0.5-0.2-0.5-0.4 0-0.1 0.2-0.3 0.5-0.3h121.1c0.3 0 0.5 0.2 0.5 0.3 0 0.2-0.2 0.4-0.5 0.4z"/>
				</g>
				<g id="&lt;Group&gt;">
					<path id="&lt;Path&gt;" class="s2" d="m1872.2 319.3v44.5h-52c10-16.4-1.6-43-1.6-43z"/>
					<path id="&lt;Path&gt;" class="s19" d="m1818.1 314.7l33.1-0.3c2.4 0 4.7 1.3 5.7 3.5 6.8 13.7 3.2 36.4 1.6 44.4-0.3 1.7-1.8 2.9-3.5 2.9h-33.7c-0.9 0-1.8-0.8-1.9-1.7-0.2-1.3 0.8-2.4 2-2.4h30.8c1.5 0 2.8-1.1 3-2.6 1.7-12.7-0.5-28.1-1.6-34.5-0.3-1.6-1.8-2.8-3.5-2.8l-30.6 0.5c-1.4 0.1-2.6-0.9-2.9-2.2l-0.5-2.2c-0.3-1.3 0.7-2.6 2-2.6z"/>
				</g>
				<path id="&lt;Path&gt;" class="s19" d="m1868.9 330c0-4 3.2-7.2 7.2-7.2h4.9c4 0 7.2 3.2 7.2 7.2v22.9c0 4-3.2 7.3-7.2 7.3h-4.9c-4 0-7.2-3.3-7.2-7.3z"/>
			</g>
			<g id="&lt;Group&gt;">
				<path id="&lt;Path&gt;" class="s2" d="m1580.7 1378.1c-17.2-111.5 121.4-242.8 260.1-297.6 85.1-33.7 177.1-130.6 211-168.6 3.5-4 10-0.5 8.7 4.6-137.7 557.3-479.8 461.6-479.8 461.6z"/>
				<path id="&lt;Path&gt;" class="s1" d="m2021.1 975.1c-0.8 1.4-1.6 2.5-2.4 3.7l-2.4 3.4-4.9 6.9c-3.3 4.6-6.6 9.1-10 13.6q-10.1 13.6-20.6 26.9c-13.9 17.7-28.3 35-43 52.1-14.6 17.1-29.7 33.9-45.2 50.3-15.5 16.3-31.2 32.5-47.4 48.2-32.4 31.3-66.6 60.9-102.7 88-18.2 13.3-36.7 26.2-56 38-19.3 11.6-39.1 22.5-59.7 31.8-0.4 0.2-1 0-1.2-0.5-0.2-0.4 0-0.9 0.4-1.1h0.1c20-10.1 39.6-21.2 58.5-33.3 18.9-12 37.2-25.1 55.1-38.7 17.8-13.6 35.1-27.9 52.1-42.6 17-14.6 33.4-30 49.7-45.5 32.4-31.1 63.2-63.9 93-97.5q22.3-25.3 43.6-51.4 10.7-13 21.2-26.3l10.3-13.3 5.1-6.8 2.5-3.3c0.8-1.2 1.6-2.4 2.3-3.4l0.1-0.1c0.3-0.4 0.8-0.6 1.2-0.3 0.4 0.3 0.5 0.8 0.3 1.2z"/>
			</g>
			<g id="&lt;Group&gt;">
				<path id="&lt;Path&gt;" class="s2" d="m1570.2 1320.7c-60.5-92.8 10.4-266.4 112.2-371.6 62.6-64.5 105.7-188.5 120.6-236.2 1.6-4.9 8.7-4.5 9.7 0.6 102.2 554.3-242.5 607.2-242.5 607.2z"/>
				<path id="&lt;Path&gt;" class="s1" d="m1801.1 781.9c-0.1 1.6-0.4 2.8-0.6 4.2l-0.8 4.1-1.5 8.2c-1.1 5.4-2.3 10.8-3.5 16.2q-3.6 16.2-7.5 32.3c-5.3 21.5-11.2 42.8-17.4 64.1-6.1 21.2-12.9 42.3-20.1 63.2-7.2 21-14.7 41.8-22.9 62.4-16.3 41.1-34.9 81.4-56.3 120.3-10.8 19.3-22.2 38.3-34.7 56.6-12.6 18.3-25.9 36-40.6 52.6-0.3 0.4-0.8 0.4-1.2 0.1-0.4-0.3-0.4-0.9-0.1-1.2 13.9-17.2 26.8-35 38.9-53.5 12.1-18.4 23.1-37.5 33.6-56.9 10.5-19.4 20.2-39.2 29.4-59.2 9.3-20 17.7-40.4 26-60.8 16.4-41 30.7-82.8 43.7-124.9q9.8-31.6 18.3-63.6 4.3-16 8.3-32.1l3.8-16.1 1.8-8.1 0.9-4c0.3-1.3 0.6-2.8 0.8-3.9v-0.2c0.1-0.5 0.5-0.8 1-0.8 0.5 0.1 0.8 0.5 0.7 1z"/>
			</g>
			<g id="&lt;Group&gt;">
				<path id="&lt;Path&gt;" class="s20" d="m1944.6 204.4l-3.9 314c-77.9 0-164-5.2-238.6-2.3-75.5-2-140.1 0-223.5 0v-311.7h234.6q0.7 0.2 1.3 0.4 0.6-0.2 1.1-0.4z"/>
				<path id="&lt;Path&gt;" class="s21" d="m1486.8 197.8c92.5-3.3 136.7-26.8 227.9 6.4 59.2-26.2 134-8.5 222.5-5.6v314.4c-72.8-5.7-144.5-2.8-216.7 0-72.4-7.9-151-6.9-233.7 0z"/>
				<g id="&lt;Group&gt;">
					<g id="&lt;Group&gt;">
						<path id="&lt;Path&gt;" class="s0" d="m1710.1 510.8c-68.2-6.6-141.9-5.4-219.2 1.1v-313c89.3-3.3 132.9-25.7 219.2 4.5z"/>
					</g>
					<g id="&lt;Group&gt;">
						<path id="&lt;Path&gt;" class="s2" d="m1936.2 200v311.9c-72.3-5.6-143.5-2.7-215.2 0q-0.6 0-1.2-0.1v-308.2c58.1-23.2 130.8-6.4 216.4-3.6z"/>
					</g>
				</g>
				<path id="&lt;Path&gt;" class="s22" d="m1937.2 504.6v8.4l-222.9 0.2c5.5-24 98.7-16.7 222.9-8.6z"/>
				<path id="&lt;Path&gt;" class="s23" d="m1714.3 513.2l-227.6-0.3v-8.5c124.1-8.1 225.3-11.7 227.6 8.8z"/>
				<path id="&lt;Path&gt;" class="s24" d="m1724.8 513.2c1.9 0.7 2.2 1.7 2.2 2.8 0 3.4-2.8 6.2-6.2 6.2h-13c-3.4 0-6.2-2.8-6.2-6.2 0-1.1 0.3-2.1-0.7-2.8z"/>
				<path id="&lt;Path&gt;" class="s25" d="m1714.2 515.6c-3.9 0-7-1.6-7-3.5 0-1.9 3.1-3.5 7-3.5 3.8 0 7 1.6 7 3.5 0 1.9-3.2 3.5-7 3.5z"/>
			</g>
			<path id="&lt;Path&gt;" class="s26" d="m1629.9 1387.1h-454.2v-537.7c0-19.6 15.9-35.6 35.6-35.6h382.9c19.7 0 35.7 16 35.7 35.6z"/>
			<path id="&lt;Path&gt;" class="s27" d="m1310.6 1386.3h-391.3v-369.3c0-19.7 15.9-35.6 35.6-35.6h320.1c19.7 0 35.6 15.9 35.6 35.6z"/>
			<path id="&lt;Path&gt;" class="s28" d="m1022.8 1386.3h-391.4v-165.7c0-19.6 16-35.6 35.6-35.6h320.2c19.6 0 35.6 16 35.6 35.6z"/>
			<path id="&lt;Compound Path&gt;" class="s29" d="m661.8 1188.8c-1.3 0-2.5-1.1-2.6-2.4q-0.3-2.7-0.5-5.4c-0.1-1.5 1-2.7 2.5-2.8 1.5-0.2 2.8 1 2.9 2.4q0.1 2.7 0.4 5.3c0.1 1.4-1 2.7-2.4 2.9q-0.2 0-0.3 0zm-0.9-17.7c-1.5 0-2.7-1.2-2.7-2.7q0-1.5 0-3 0-1.2 0-2.4c0-1.4 1.2-2.6 2.7-2.6q0 0 0 0c1.5 0 2.7 1.2 2.6 2.7q0 1.2 0 2.3 0 1.5 0.1 3c0 1.4-1.2 2.6-2.7 2.7q0 0 0 0zm0.5-17.8q-0.1 0-0.2 0c-1.5-0.1-2.6-1.4-2.5-2.8q0.2-2.7 0.4-5.4c0.1-1.5 1.4-2.6 2.9-2.4 1.5 0.1 2.5 1.4 2.4 2.9q-0.2 2.6-0.4 5.2c-0.1 1.4-1.3 2.5-2.6 2.5zm1.8-17.7q-0.2 0-0.4 0c-1.5-0.2-2.5-1.5-2.3-3q0.4-2.7 0.8-5.3c0.3-1.5 1.7-2.5 3.1-2.2 1.5 0.2 2.4 1.6 2.2 3q-0.4 2.6-0.8 5.2c-0.2 1.4-1.3 2.3-2.6 2.3zm3.1-17.4q-0.3 0-0.6-0.1c-1.4-0.3-2.3-1.7-2-3.2q0.6-2.6 1.2-5.2c0.4-1.5 1.8-2.3 3.2-2 1.5 0.4 2.3 1.8 2 3.2q-0.6 2.6-1.2 5.2c-0.3 1.2-1.4 2.1-2.6 2.1zm4.4-17.2q-0.4 0-0.7-0.2c-1.5-0.4-2.3-1.9-1.8-3.3q0.7-2.6 1.5-5.1c0.5-1.4 2-2.2 3.4-1.7 1.4 0.4 2.2 1.9 1.7 3.3q-0.8 2.5-1.5 5c-0.4 1.2-1.4 2-2.6 2zm5.6-16.9q-0.4 0-0.9-0.2c-1.4-0.5-2.1-2-1.5-3.4q0.9-2.5 1.9-5c0.5-1.4 2.1-2 3.5-1.5 1.3 0.5 2 2.1 1.4 3.5q-0.9 2.4-1.9 4.9c-0.4 1-1.4 1.7-2.5 1.7zm6.9-16.4q-0.6 0-1.1-0.2c-1.4-0.6-2-2.2-1.4-3.6q1.2-2.4 2.3-4.8c0.7-1.4 2.3-1.9 3.6-1.3 1.3 0.7 1.9 2.3 1.2 3.6q-1.1 2.4-2.2 4.8c-0.5 0.9-1.4 1.5-2.4 1.5zm7.9-15.9q-0.6 0-1.3-0.3c-1.2-0.7-1.7-2.3-1-3.6q1.3-2.4 2.6-4.7c0.7-1.3 2.4-1.7 3.7-1 1.2 0.7 1.7 2.4 0.9 3.6q-1.3 2.3-2.5 4.6c-0.5 0.9-1.4 1.4-2.4 1.4zm9.1-15.2q-0.8 0-1.5-0.5c-1.2-0.8-1.6-2.4-0.8-3.6q1.5-2.3 3-4.6c0.8-1.2 2.5-1.5 3.7-0.7 1.2 0.8 1.5 2.5 0.7 3.7q-1.5 2.2-2.9 4.4c-0.5 0.8-1.3 1.3-2.2 1.3zm10.1-14.6c-0.5 0-1.1-0.2-1.6-0.6-1.2-0.8-1.4-2.5-0.5-3.7q1.6-2.2 3.3-4.3c0.9-1.1 2.5-1.3 3.7-0.4 1.2 0.9 1.4 2.6 0.5 3.7q-1.7 2.1-3.3 4.2c-0.5 0.7-1.3 1.1-2.1 1.1zm11.2-13.9c-0.7 0-1.3-0.2-1.8-0.6-1.1-1-1.2-2.7-0.2-3.8q1.7-2 3.5-4c1-1.1 2.7-1.2 3.8-0.2 1.1 1 1.2 2.7 0.2 3.8q-1.8 1.9-3.5 3.9c-0.5 0.6-1.3 0.9-2 0.9zm12.1-12.9c-0.7 0-1.4-0.3-1.9-0.8-1-1-1-2.7 0-3.8q2-1.9 3.9-3.7c1.1-1 2.8-1 3.8 0.1 1 1.1 0.9 2.7-0.1 3.7q-1.9 1.9-3.8 3.7c-0.5 0.5-1.2 0.8-1.9 0.8zm13.1-12c-0.8 0-1.5-0.3-2-1-1-1.1-0.9-2.8 0.3-3.7q2-1.8 4.1-3.5c1.2-0.9 2.8-0.7 3.8 0.4 0.9 1.2 0.7 2.9-0.4 3.8q-2.1 1.6-4.1 3.3c-0.5 0.5-1.1 0.7-1.7 0.7zm14-11c-0.9 0-1.7-0.4-2.2-1.1-0.9-1.2-0.6-2.8 0.6-3.7q2.2-1.6 4.4-3.1c1.2-0.8 2.9-0.5 3.7 0.7 0.8 1.2 0.5 2.8-0.7 3.7q-2.1 1.5-4.3 3c-0.4 0.4-1 0.5-1.5 0.5zm14.8-9.8c-0.9 0-1.8-0.5-2.3-1.3-0.8-1.2-0.4-2.9 0.9-3.6q2.3-1.4 4.6-2.8c1.3-0.7 2.9-0.3 3.7 1 0.7 1.3 0.2 2.9-1 3.6q-2.3 1.3-4.6 2.7-0.6 0.4-1.3 0.4zm242.6-3.8q-0.7 0-1.3-0.4-2.3-1.3-4.6-2.5c-1.3-0.7-1.8-2.3-1.1-3.6 0.7-1.3 2.3-1.8 3.6-1.1q2.4 1.3 4.7 2.6c1.3 0.7 1.7 2.3 1 3.6-0.5 0.9-1.4 1.4-2.3 1.4zm-227.1-4.8c-1 0-1.9-0.5-2.4-1.5-0.7-1.3-0.1-2.9 1.2-3.6q2.4-1.2 4.8-2.3c1.4-0.7 3-0.1 3.6 1.2 0.6 1.4 0 3-1.3 3.6q-2.4 1.1-4.7 2.3-0.6 0.3-1.2 0.3zm211.3-3.4q-0.6 0-1.1-0.2-2.4-1.1-4.8-2.2c-1.4-0.6-2-2.1-1.4-3.5 0.6-1.3 2.2-1.9 3.5-1.4q2.5 1.1 4.9 2.3c1.4 0.6 2 2.2 1.3 3.5-0.4 1-1.4 1.5-2.4 1.5zm19-1.4q-0.2 0-0.5-0.1c-1.4-0.2-2.4-1.6-2.2-3q0.5-2.7 1-5.3c0.2-1.5 1.6-2.4 3-2.2 1.5 0.3 2.5 1.7 2.2 3.1q-0.5 2.6-0.9 5.2c-0.2 1.3-1.3 2.3-2.6 2.3zm-214.2-2.6c-1 0-2-0.6-2.4-1.6-0.6-1.4 0.1-3 1.4-3.5q2.5-1 5-2c1.4-0.5 3 0.2 3.5 1.5 0.5 1.4-0.2 2.9-1.5 3.5q-2.5 0.9-4.9 1.9-0.5 0.2-1.1 0.2zm178.8-2.8q-0.4 0-0.9-0.2-2.5-0.9-5-1.8c-1.3-0.5-2.1-2-1.6-3.4 0.5-1.4 2-2.1 3.4-1.6q2.5 0.9 5.1 1.8c1.4 0.5 2.1 2.1 1.5 3.4-0.4 1.1-1.4 1.8-2.5 1.8zm-162.1-3.3c-1.1 0-2.1-0.7-2.5-1.8-0.5-1.4 0.3-2.9 1.7-3.4q2.6-0.8 5.1-1.6c1.4-0.4 2.9 0.4 3.4 1.8 0.4 1.4-0.4 2.9-1.8 3.3q-2.6 0.8-5.1 1.6-0.4 0.1-0.8 0.1zm145.3-2.3q-0.4 0-0.8-0.1-2.5-0.8-5-1.4c-1.5-0.4-2.3-1.9-1.9-3.3 0.4-1.4 1.8-2.3 3.2-1.9q2.6 0.7 5.2 1.5c1.4 0.4 2.3 1.8 1.8 3.3-0.3 1.1-1.4 1.9-2.5 1.9zm-128.2-2.6c-1.2 0-2.3-0.8-2.6-2-0.3-1.4 0.5-2.9 2-3.2q2.6-0.7 5.2-1.2c1.4-0.4 2.9 0.5 3.2 2 0.3 1.4-0.6 2.8-2 3.2q-2.6 0.5-5.2 1.2-0.3 0-0.6 0zm111-1.7q-0.3 0-0.6-0.1-2.6-0.5-5.2-1c-1.4-0.3-2.4-1.7-2.1-3.2 0.3-1.4 1.7-2.4 3.1-2.1q2.7 0.5 5.3 1.1c1.5 0.3 2.4 1.7 2.1 3.1-0.3 1.3-1.4 2.2-2.6 2.2zm-93.6-1.9c-1.3 0-2.4-0.9-2.6-2.2-0.3-1.4 0.7-2.8 2.1-3.1q2.7-0.4 5.4-0.8c1.4-0.2 2.8 0.8 3 2.2 0.2 1.5-0.8 2.8-2.3 3.1q-2.6 0.3-5.2 0.8-0.2 0-0.4 0zm166.2-0.3q-0.2 0-0.5 0c-1.4-0.3-2.4-1.7-2.1-3.2q0.6-2.6 1.2-5.2c0.3-1.5 1.7-2.4 3.2-2 1.4 0.3 2.3 1.7 2 3.1q-0.6 2.6-1.1 5.2c-0.3 1.3-1.4 2.1-2.7 2.1zm-90.1-0.9q-0.2 0-0.4 0-2.6-0.4-5.2-0.7c-1.5-0.2-2.5-1.5-2.4-2.9 0.2-1.5 1.5-2.6 3-2.4q2.7 0.3 5.3 0.7c1.5 0.2 2.5 1.5 2.3 3-0.2 1.3-1.3 2.3-2.6 2.3zm-58.5-1.1c-1.4 0-2.5-1.1-2.7-2.4-0.1-1.5 1-2.8 2.4-3q2.7-0.2 5.4-0.4c1.5-0.1 2.7 1 2.9 2.4 0.1 1.5-1 2.8-2.5 2.9q-2.6 0.2-5.3 0.5-0.1 0-0.2 0zm40.8-0.7q-0.1 0-0.2 0-2.6-0.2-5.2-0.3c-1.5-0.1-2.7-1.3-2.6-2.8 0.1-1.4 1.3-2.6 2.8-2.5q2.7 0.1 5.4 0.3c1.4 0.1 2.6 1.3 2.5 2.8-0.1 1.4-1.3 2.5-2.7 2.5zm-23.1-0.4c-1.4 0-2.6-1.2-2.7-2.6 0-1.5 1.2-2.7 2.6-2.8q2.7 0 5.4-0.1 0 0 0 0c1.5 0 2.7 1.2 2.7 2.7 0 1.5-1.2 2.7-2.6 2.7q-2.7 0-5.3 0.1-0.1 0-0.1 0zm135-14.2q-0.4 0-0.7-0.1c-1.4-0.3-2.3-1.8-1.9-3.2q0.7-2.6 1.4-5.2c0.3-1.4 1.8-2.2 3.2-1.9 1.5 0.4 2.3 1.9 1.9 3.3q-0.7 2.6-1.3 5.1c-0.4 1.2-1.4 2-2.6 2zm4.8-17.1q-0.4 0-0.8-0.1c-1.4-0.4-2.2-1.9-1.8-3.3q0.8-2.6 1.7-5.1c0.4-1.4 1.9-2.2 3.3-1.8 1.4 0.5 2.2 2 1.7 3.4q-0.8 2.5-1.6 5.1c-0.3 1.1-1.4 1.8-2.5 1.8zm5.7-16.8q-0.5 0-0.9-0.2c-1.4-0.5-2.1-2-1.6-3.4q0.9-2.5 1.9-5c0.5-1.4 2-2.1 3.4-1.6 1.4 0.6 2.1 2.1 1.5 3.5q-0.9 2.5-1.8 4.9c-0.4 1.1-1.4 1.8-2.5 1.8zm6.5-16.5q-0.5 0-1-0.2c-1.4-0.6-2-2.2-1.4-3.5q1.1-2.5 2.2-5c0.6-1.3 2.2-1.9 3.5-1.3 1.3 0.6 1.9 2.2 1.3 3.5q-1.1 2.4-2.1 4.9c-0.4 1-1.4 1.6-2.5 1.6zm7.6-16.1q-0.6 0-1.2-0.3c-1.3-0.7-1.9-2.3-1.2-3.6q1.2-2.4 2.5-4.8c0.7-1.3 2.3-1.8 3.6-1.1 1.3 0.7 1.8 2.3 1.1 3.6q-1.2 2.4-2.4 4.7c-0.5 0.9-1.5 1.5-2.4 1.5zm8.5-15.6q-0.7 0-1.3-0.4c-1.3-0.7-1.7-2.4-1-3.6q1.4-2.3 2.9-4.6c0.7-1.3 2.4-1.7 3.6-0.9 1.3 0.8 1.7 2.4 0.9 3.7q-1.4 2.2-2.8 4.5c-0.5 0.8-1.4 1.3-2.3 1.3zm9.7-14.9c-0.6 0-1.1-0.2-1.6-0.5-1.2-0.9-1.5-2.5-0.6-3.7q1.5-2.2 3.1-4.4c0.9-1.2 2.6-1.4 3.7-0.6 1.2 0.9 1.5 2.6 0.6 3.7q-1.5 2.2-3 4.3c-0.6 0.8-1.4 1.2-2.2 1.2zm10.7-14.2c-0.6 0-1.2-0.2-1.7-0.6-1.1-0.9-1.3-2.6-0.3-3.7q1.7-2.1 3.4-4.2c1-1.1 2.7-1.2 3.8-0.2 1.1 0.9 1.2 2.6 0.3 3.7q-1.8 2-3.4 4.1c-0.6 0.6-1.3 0.9-2.1 0.9zm240.4-9.4q-0.2 0-0.4 0c-1.4-0.2-2.4-1.6-2.3-3q0.1-0.6 0.2-1.3-0.3 0.6-0.9 1c-1.2 0.9-2.8 0.5-3.7-0.7q-1.4-2.1-3-4.2c-0.9-1.2-0.6-2.9 0.6-3.8 1.1-0.8 2.8-0.6 3.7 0.6q1.6 2.2 3.2 4.4 0.3 0.5 0.4 1 0.1-1.2 0.3-2.3c0.2-1.5 1.6-2.5 3-2.3 1.5 0.2 2.5 1.6 2.3 3q-0.4 2.6-0.8 5.3c-0.1 1.3-1.3 2.3-2.6 2.3zm-228.5-3.8c-0.7 0-1.4-0.2-1.9-0.7-1-1.1-1-2.8 0-3.8q1.9-1.9 3.8-3.8c1.1-1 2.8-1 3.8 0.1 1 1 1 2.7-0.1 3.7q-1.9 1.9-3.7 3.7c-0.5 0.6-1.2 0.8-1.9 0.8zm13-12.1c-0.8 0-1.5-0.3-2.1-0.9-0.9-1.1-0.8-2.8 0.4-3.8q2-1.7 4.1-3.4c1.2-0.9 2.8-0.7 3.8 0.4 0.9 1.2 0.7 2.9-0.5 3.8q-2 1.6-4 3.3c-0.5 0.4-1.1 0.6-1.7 0.6zm199.5-0.7c-0.7 0-1.4-0.3-1.9-0.8q-1.8-1.9-3.7-3.7c-1.1-1-1.1-2.7-0.1-3.8 1-1 2.7-1.1 3.8-0.1q1.9 1.9 3.8 3.9c1 1 1 2.7-0.1 3.7-0.5 0.5-1.1 0.8-1.8 0.8zm18.7-1q-0.2 0-0.5 0c-1.4-0.3-2.4-1.7-2.1-3.1q0.5-2.6 1-5.3c0.2-1.4 1.6-2.4 3.1-2.1 1.4 0.3 2.4 1.7 2.1 3.1q-0.5 2.6-1 5.2c-0.2 1.3-1.3 2.2-2.6 2.2zm-204.2-9.1c-0.8 0-1.6-0.4-2.2-1.1-0.8-1.2-0.5-2.9 0.7-3.7q1-0.7 2.1-1.4 1.2-0.8 2.4-1.6c1.2-0.8 2.9-0.5 3.7 0.8 0.8 1.2 0.4 2.8-0.8 3.6q-1.2 0.8-2.3 1.6-1 0.7-2 1.4c-0.5 0.3-1 0.4-1.6 0.4zm172.2-1.7c-0.5 0-1.1-0.1-1.6-0.5q-2.1-1.5-4.2-3c-1.2-0.8-1.6-2.5-0.7-3.7 0.8-1.2 2.4-1.5 3.7-0.7q2.2 1.5 4.4 3.1c1.2 0.9 1.4 2.6 0.5 3.8-0.5 0.7-1.3 1-2.1 1zm35.5-6.6q-0.3 0-0.6 0c-1.4-0.4-2.3-1.8-2-3.2q0.6-2.6 1.2-5.3c0.3-1.4 1.8-2.3 3.2-1.9 1.4 0.3 2.3 1.7 2 3.2q-0.6 2.5-1.2 5.1c-0.3 1.3-1.4 2.1-2.6 2.1zm-192.5-0.9c-1 0-1.9-0.5-2.4-1.4-0.7-1.3-0.2-2.9 1.2-3.6q2.3-1.3 4.8-2.5c1.3-0.6 2.9 0 3.6 1.3 0.6 1.3 0 2.9-1.3 3.5q-2.4 1.2-4.7 2.4-0.6 0.3-1.2 0.3zm142-1.9q-0.6 0-1.2-0.4-2.3-1.2-4.7-2.3c-1.3-0.7-1.9-2.2-1.2-3.6 0.6-1.3 2.2-1.9 3.5-1.2q2.5 1.2 4.9 2.4c1.3 0.7 1.8 2.3 1.1 3.6-0.5 0.9-1.4 1.5-2.4 1.5zm-125.8-5.4c-1.1 0-2.1-0.7-2.5-1.7-0.5-1.4 0.1-2.9 1.5-3.5q2.5-0.9 5.1-1.8c1.4-0.5 2.9 0.2 3.4 1.6 0.5 1.4-0.3 2.9-1.7 3.4q-2.4 0.9-4.9 1.8-0.5 0.2-0.9 0.2zm109.6-1.9q-0.5 0-0.9-0.1-2.5-0.9-5-1.7c-1.4-0.5-2.1-2-1.7-3.4 0.5-1.4 2-2.2 3.4-1.7q2.6 0.8 5.1 1.8c1.4 0.5 2.1 2 1.6 3.4-0.4 1.1-1.4 1.7-2.5 1.7zm-92.7-3.5c-1.2 0-2.3-0.8-2.6-2-0.4-1.5 0.5-2.9 1.9-3.3q2.6-0.7 5.3-1.3c1.4-0.3 2.8 0.6 3.2 2.1 0.3 1.4-0.6 2.8-2.1 3.1q-2.5 0.6-5.1 1.3-0.3 0.1-0.6 0.1zm75.7-1.5q-0.3 0-0.6-0.1-2.6-0.5-5.2-1c-1.4-0.3-2.4-1.7-2.1-3.1 0.3-1.5 1.7-2.4 3.1-2.2q2.7 0.5 5.3 1.1c1.5 0.4 2.4 1.8 2.1 3.2-0.3 1.3-1.4 2.1-2.6 2.1zm-58.3-2.1c-1.3 0-2.5-0.9-2.7-2.2-0.2-1.5 0.8-2.8 2.3-3.1q2.7-0.3 5.4-0.7c1.4-0.1 2.7 0.9 2.9 2.4 0.2 1.5-0.9 2.8-2.3 2.9q-2.6 0.3-5.2 0.7-0.2 0-0.4 0zm146.2 0q-0.3 0-0.7-0.1c-1.4-0.4-2.2-1.9-1.8-3.3q0.7-2.6 1.4-5.2c0.4-1.4 1.9-2.2 3.3-1.8 1.4 0.4 2.2 1.9 1.8 3.3q-0.7 2.5-1.4 5.1c-0.3 1.2-1.4 2-2.6 2zm-105.5-0.8q-0.1 0-0.3 0-2.6-0.3-5.2-0.5c-1.4-0.1-2.5-1.4-2.4-2.8 0.1-1.5 1.4-2.6 2.8-2.5q2.7 0.2 5.4 0.5c1.5 0.1 2.5 1.5 2.4 2.9-0.2 1.4-1.3 2.4-2.7 2.4zm-23-0.8c-1.5 0-2.6-1.1-2.7-2.5-0.1-1.5 1.1-2.8 2.6-2.8q2.7-0.1 5.4-0.1 0 0 0 0c1.5 0 2.6 1.2 2.7 2.6 0 1.5-1.2 2.7-2.7 2.7q-2.6 0-5.2 0.1-0.1 0-0.1 0zm133.5-15.5q-0.4 0-0.8-0.1c-1.4-0.4-2.2-1.9-1.7-3.3q0.8-2.6 1.6-5.2c0.5-1.3 2-2.1 3.4-1.6 1.4 0.4 2.2 1.9 1.7 3.3q-0.8 2.5-1.6 5.1c-0.4 1.1-1.4 1.8-2.6 1.8zm5.7-16.8q-0.4 0-0.9-0.2c-1.4-0.5-2.1-2-1.6-3.4q1-2.5 1.9-5c0.5-1.4 2.1-2.1 3.4-1.6 1.4 0.6 2.1 2.1 1.6 3.5q-1 2.5-1.9 4.9c-0.3 1.1-1.4 1.8-2.5 1.8zm6.5-16.6q-0.6 0-1.1-0.2c-1.3-0.5-2-2.1-1.4-3.4q1-2.5 2.1-5c0.5-1.3 2.1-2 3.5-1.4 1.3 0.6 1.9 2.2 1.4 3.5q-1.1 2.4-2.1 4.9c-0.4 1-1.4 1.6-2.4 1.6zm7.1-16.2q-0.6 0-1.1-0.3c-1.4-0.6-2-2.2-1.3-3.5q1.1-2.5 2.2-4.9c0.7-1.3 2.3-1.9 3.6-1.2 1.3 0.6 1.9 2.2 1.2 3.5q-1.1 2.4-2.2 4.8c-0.5 1-1.4 1.6-2.4 1.6zm7.8-16q-0.7 0-1.3-0.3c-1.3-0.7-1.8-2.3-1.1-3.6q1.2-2.4 2.5-4.7c0.7-1.3 2.3-1.8 3.6-1.1 1.3 0.7 1.8 2.3 1.1 3.6q-1.3 2.3-2.5 4.7c-0.4 0.9-1.4 1.4-2.3 1.4zm8.4-15.6q-0.7 0-1.3-0.4c-1.3-0.7-1.7-2.3-1-3.6q1.3-2.3 2.7-4.6c0.7-1.3 2.4-1.7 3.6-1 1.3 0.7 1.7 2.4 1 3.6q-1.4 2.3-2.7 4.6c-0.5 0.9-1.4 1.4-2.3 1.4zm9.1-15.3q-0.7 0-1.4-0.4c-1.2-0.8-1.6-2.4-0.8-3.6q1.4-2.3 2.8-4.6c0.8-1.2 2.5-1.6 3.7-0.8 1.3 0.8 1.6 2.5 0.8 3.7q-1.4 2.2-2.8 4.5c-0.5 0.8-1.4 1.2-2.3 1.2zm9.8-14.8c-0.6 0-1.1-0.2-1.5-0.5-1.3-0.8-1.6-2.5-0.7-3.7q1.5-2.2 3-4.4c0.9-1.2 2.5-1.5 3.7-0.6 1.2 0.8 1.5 2.5 0.7 3.7q-1.5 2.1-3 4.3c-0.6 0.8-1.4 1.2-2.2 1.2zm10.3-14.5c-0.5 0-1.1-0.1-1.6-0.5-1.2-0.9-1.4-2.5-0.5-3.7q1.6-2.2 3.2-4.3c0.9-1.2 2.6-1.4 3.8-0.5 1.1 0.9 1.4 2.6 0.5 3.8q-1.7 2.1-3.2 4.2c-0.6 0.7-1.4 1-2.2 1zm11-13.9c-0.6 0-1.2-0.2-1.7-0.6-1.1-1-1.3-2.6-0.4-3.8q1.7-2.1 3.5-4.1c0.9-1.1 2.6-1.3 3.7-0.3 1.1 0.9 1.3 2.6 0.3 3.7q-1.7 2.1-3.3 4.1c-0.6 0.6-1.3 1-2.1 1zm11.5-13.5c-0.6 0-1.2-0.2-1.7-0.7-1.1-1-1.2-2.7-0.2-3.8q1.7-2 3.6-3.9c1-1.1 2.6-1.2 3.7-0.2 1.1 1 1.2 2.7 0.2 3.8q-1.8 1.9-3.6 3.9c-0.5 0.6-1.2 0.9-2 0.9zm12.2-13c-0.7 0-1.4-0.2-1.9-0.7-1-1.1-1.1-2.8 0-3.8q1.8-1.9 3.7-3.8c1.1-1.1 2.8-1.1 3.8 0 1.1 1 1 2.7 0 3.7q-1.9 1.9-3.7 3.8c-0.5 0.5-1.2 0.8-1.9 0.8zm12.7-12.4c-0.7 0-1.5-0.3-2-0.9-1-1-0.9-2.7 0.1-3.7q2-1.9 4-3.7c1.1-1 2.7-0.9 3.7 0.2 1 1.1 1 2.8-0.1 3.8q-2 1.7-3.9 3.6c-0.5 0.4-1.2 0.7-1.8 0.7zm13.2-11.9c-0.8 0-1.5-0.3-2-0.9-1-1.1-0.9-2.8 0.3-3.8q2-1.7 4.1-3.4c1.1-1 2.8-0.8 3.7 0.3 1 1.2 0.8 2.9-0.3 3.8q-2.1 1.7-4.1 3.4c-0.5 0.4-1.1 0.6-1.7 0.6zm13.9-11.1c-0.8 0-1.7-0.3-2.2-1-0.9-1.2-0.6-2.9 0.6-3.8q2.2-1.6 4.4-3.1c1.2-0.9 2.8-0.6 3.7 0.6 0.8 1.2 0.5 2.9-0.7 3.8q-2.1 1.5-4.3 3c-0.4 0.4-1 0.5-1.5 0.5zm116.5-1.4c-0.8 0-1.6-0.3-2.2-1.1q-1.4-2-3.1-3.9c-1-1-1-2.7 0.1-3.7 1.1-1 2.8-0.9 3.8 0.2q1.9 2 3.5 4.3c0.9 1.2 0.7 2.8-0.5 3.7-0.5 0.4-1.1 0.5-1.6 0.5zm-101.8-8.4c-0.9 0-1.8-0.5-2.2-1.3-0.8-1.3-0.4-2.9 0.9-3.7q2.3-1.4 4.7-2.6c1.3-0.7 2.9-0.3 3.6 1 0.7 1.3 0.2 2.9-1 3.6q-2.3 1.3-4.6 2.6-0.6 0.4-1.4 0.4zm89.1-3.8c-0.6 0-1.1-0.2-1.6-0.5q-2-1.4-4.3-2.6c-1.3-0.8-1.7-2.4-1-3.7 0.7-1.3 2.3-1.7 3.6-1q2.5 1.4 4.8 2.9c1.2 0.9 1.5 2.5 0.7 3.7-0.6 0.8-1.4 1.2-2.2 1.2zm-73.2-4.2c-1 0-2-0.6-2.5-1.6-0.5-1.4 0.1-3 1.5-3.5q2.5-1.1 5.1-2c1.3-0.5 2.9 0.2 3.4 1.6 0.5 1.4-0.3 2.9-1.6 3.4q-2.5 0.9-4.9 1.9-0.5 0.2-1 0.2zm57.2-3.6q-0.4 0-0.8-0.1-2.4-0.8-4.9-1.4c-1.5-0.4-2.3-1.8-2-3.2 0.4-1.5 1.8-2.3 3.3-2q2.7 0.7 5.3 1.5c1.4 0.5 2.1 2 1.7 3.4-0.4 1.1-1.4 1.8-2.6 1.8zm-40.3-1.8c-1.2 0-2.3-0.8-2.6-2.1-0.3-1.4 0.6-2.8 2-3.1q0.8-0.2 1.5-0.4 2-0.4 3.9-0.7c1.5-0.2 2.8 0.8 3.1 2.3 0.2 1.4-0.8 2.8-2.3 3q-1.8 0.3-3.6 0.7-0.7 0.1-1.4 0.3-0.3 0-0.6 0zm22.9-1.6q-0.1 0-0.2 0-2.5-0.2-5.1-0.2c-1.5 0-2.7-1.2-2.6-2.7 0-1.5 1.2-2.7 2.6-2.7q0 0 0 0 2.8 0.1 5.6 0.3c1.4 0.1 2.5 1.4 2.4 2.8-0.1 1.4-1.3 2.5-2.7 2.5z"/>
			<g id="&lt;Group&gt;">
				<path id="&lt;Path&gt;" class="s30" d="m995.3 651.7c-8.6 9.9-20.3 26.5-23.6 46.6-18.3-8.5-36.7-26.3-53.2-58.4l35.5-54.7c0 0 8.6 47.8 41.3 66.5z"/>
				<g id="&lt;Group&gt;">
				</g>
				<path id="&lt;Path&gt;" class="s31" d="m1088.5 657.5c0 0-58.4 67.6-116.8 40.8 3.3-20.1 15-36.7 23.6-46.6 18.4 10.4 44.4 11.7 80.7-9.8z"/>
				<path id="&lt;Path&gt;" class="s32" d="m1078 651.2c0 0-9.8-17.1 4.3-30.2 0 0 4.6-5.2 9.6 2.4 0 0 15.2-13.8 19.3-8.2 4.2 5.5 15.2 19.3 4.4 35-10.8 15.8-32.8 8.8-37.6 1z"/>
				<path id="&lt;Path&gt;" class="s33" d="m1092.9 641.7c-1.4 0-3-0.3-4.3-1.1-1.4-0.8-3.1-2.4-3.5-5.8-0.1-1 0.6-1.9 1.5-2 1-0.1 1.9 0.6 2 1.5 0.2 1.6 0.8 2.7 1.8 3.3 1.3 0.8 3.3 0.6 4.8 0.3l-3.4-10.9c-0.3-1 0.2-2 1.1-2.3 1-0.3 2 0.3 2.3 1.2l3.9 12.6c0.3 0.9-0.1 1.9-1 2.2-0.4 0.2-2.6 1-5.2 1z"/>
				<path id="&lt;Path&gt;" class="s34" d="m576.9 1064c8.7 18.2 16.1 28.8 22.1 35.1-1.4 1.4-3.7 1.5-5.2 0-23.7-24.2-33.4-65-36.4-80.5-0.8-3.9 0.9-7.9 4-9.8-0.4 10.2 2.1 27.4 15.5 55.2z"/>
				<path id="&lt;Path&gt;" class="s35" d="m600 1097.3q-0.3 1.1-1 1.8c-6-6.3-13.4-16.9-22.1-35.1-13.4-27.8-15.9-45-15.5-55.2q0.1 0 0.1-0.1c15.2-8.8 30.5-0.5 30.5-0.5 21.8 30.8 12.4 73.7 8 89.1z"/>
				<path id="&lt;Path&gt;" class="s36" d="m614 1009.2l-13.8 13.3c-2.5 2.3-6.2 2.7-9 0.8-2.5-1.6-5.2-4.3-7.1-8.7-1.1-2.6-0.5-5.6 1.4-7.7l13.8-15.2c3.3-3.6 9.1-3 11.6 1.2l4.3 7.3c1.8 2.9 1.3 6.6-1.2 9z"/>
				<path id="&lt;Path&gt;" class="s37" d="m1101.4 901.9c11.5-16.5 17.1-28.2 19.5-36.5 2 0.4 3.2 2.4 2.6 4.5-9.3 32.5-40 61.2-51.9 71.4-3.1 2.6-7.4 3.1-10.6 1.3 9.1-4.7 22.8-15.3 40.4-40.7z"/>
				<path id="&lt;Path&gt;" class="s38" d="m1118.9 865.4q1.1-0.3 2 0c-2.4 8.3-8 20-19.5 36.5-17.6 25.4-31.3 36-40.4 40.7q0 0-0.1 0c-15.2-8.9-15.5-26.3-15.5-26.3 16-34.1 57.9-47.2 73.5-50.9z"/>
				<path id="&lt;Path&gt;" class="s39" d="m1044.3 887.6l14.5 12.6c2.6 2.2 3.3 5.9 1.6 8.9-1.4 2.6-3.8 5.6-8 7.8-2.5 1.3-5.5 1-7.8-0.7l-16.3-12.4c-3.9-2.9-3.9-8.8 0.1-11.7l6.9-4.9c2.8-2 6.5-1.8 9 0.4z"/>
				<path id="&lt;Path&gt;" class="s40" d="m831.5 766.4l4.6 52.1-96.5 112.2-121 83.8c-13.3-3.2-24.4-24.3-24.4-24.3 0 0 42.5-63.8 62.2-75.4 19.7-11.5 51.6-16.3 51.6-16.3 18.2-42.3 46.4-138.3 46.4-138.3z"/>
				<path id="&lt;Path&gt;" class="s41" d="m825.9 770.2c10.6 1.8 80.7-5.9 118.1-11.7 16.9-2.7 25.5 1.1 34.8 15.5l66.6 109.9c-3.2 12.3-17.6 23.3-17.6 23.3-95.1-53-87.5-97.1-87.5-97.1 0 0-11 14.2-97.9 25.9-87 11.6-94.5-57.4-94.5-57.4l8.2-26.3z"/>
				<path id="&lt;Path&gt;" class="s42" d="m954 585.2l-3.3 21.5c-2.3 15.5-8.2 30.2-17.2 43l-83.2 119.2c-37.6 21.2-84.4 8.1-100.3 2.5-3-1-4.5-4.5-3.2-7.4 20.5-47.1 37.4-97.9 51.6-151.1-16.5 4.1-28.2 10.5-36.3 18.1-9.1-14.1-21.4-28.4-29.3-37.1 25.9-23.9 65.9-35.9 91.2-37.2 55.3-2.8 130 28.5 130 28.5z"/>
				<path id="&lt;Path&gt;" class="s43" d="m755.9 759.6c-5.1-2.4-14.4-19.8-11.6-34.6-52.3-60.5-41.4-103.7-11.5-131.1 7.9 8.7 20.2 23 29.3 37.1-31 29.2-10.5 76.8-5.4 87.4 5.9 3.2 18.3 10.7 21.9 18.7 4.9 10.6-20.4 23.6-22.7 22.5z"/>
				<path id="&lt;Path&gt;" class="s44" d="m803.2 612.8c-0.8 0-1.5-0.6-1.7-1.4-0.2-0.9 0.4-1.9 1.4-2.1l23.1-5c1-0.2 1.9 0.4 2.1 1.4 0.2 0.9-0.4 1.9-1.3 2.1l-23.2 5q-0.2 0-0.4 0z"/>
				<path id="&lt;Path&gt;" class="s45" d="m909 540.1l-5.7 38.7c-0.3 2.4-2 4.5-4.4 5.3-21.7 6.8-34.1-2.7-39.4-8.6-1.9-2.1-2.3-5.3-1-7.9l21.8-42.6z"/>
				<g id="&lt;Group&gt;">
					<path id="&lt;Path&gt;" class="s46" d="m916.5 475.6c0 0 12.8 29.3 13.6 44.7 0.9 15.4 4.2 25.4-13.6 28.5-17.7 3.1-32.7-5.8-40.8-21.1 0 0-12.8-23.6-9.9-33.3 2.8-9.7 50.7-18.8 50.7-18.8z"/>
					<path id="&lt;Path&gt;" class="s47" d="m877.2 516.7c-0.8 0-1.4 0.7-1.2 1.4l2.9 13.4c0.2 0.6-0.3 1.3-1 1.4-2.7 0.5-9.9 0.9-19.4-4.2-9.3-5-5.7-8.7-3.3-10.2 0.7-0.5 0.7-1.5 0-2-13.2-10.8-15.6-23.9-9.6-29 3.5-2.9 6.1-2.5 7.7-1.5 0.8 0.5 1.8 0 1.8-1 0.4-15.1 14.9-24 36.8-28.1 15.5-2.8 21.3-8.3 23.4-11.8 0.6-0.9 1.9-0.7 2.2 0.3 0.3 1.1 1.7 1.2 2.2 0.3l0.7-1.4c0.4-0.6 1.1-0.8 1.6-0.6 9 4.1 14.9 18.3 8.2 29.3-7 11.4-39.2 18-47.3 21.3-6.4 2.6-1.5 13.7 1 18.6 0.7 1.2 0.1 2.7-1.2 3.3l-1 0.5z"/>
					<path id="&lt;Path&gt;" class="s48" d="m880.1 527.7c-6.7-0.7-19.5-16.5-11.1-21.7 8.4-5.2 13.3 13.5 13.3 13.5z"/>
				</g>
			</g>
		</g>
		<path id=" 1" class="s49" d="m1506.8 226.6v-0.8h183.3v0.8z"/>
		<path id=" 2" class="s50" d="m1506.8 237.2v-0.9l184.1-0.8v0.8z"/>
		<path id=" 3" class="s51" d="m1505.9 246.9v-0.9l185-0.9v0.9z"/>
		<path id=" 4" class="s52" d="m1505.9 255.7v-0.9l185-0.8v0.8z"/>
		<path id=" 5" class="s53" d="m1505.9 266.3v-0.9l184.1-0.9 0.1 0.9z"/>
		<path id=" 6" class="s54" d="m1505.9 276.9v-0.9l184.1-1.8 0.1 0.9z"/>
		<path id=" 7" class="s55" d="m1506.8 286.6v-0.9l183.2-0.9 0.1 0.9z"/>
		<path id=" 8" class="s56" d="m1506.8 297.1v-0.9l183.2-1.7 0.1 0.9z"/>
		<path id=" 9" class="s57" d="m1505.9 306.8v-0.9l185-0.8v0.8z"/>
		<path id=" 10" class="s58" d="m1505.9 316.5v-0.9l184.1-0.9 0.1 0.9z"/>
		<path id=" 11" class="s59" d="m1505.9 326.2v-0.9l185-0.9v0.9z"/>
		<path id=" 12" class="s60" d="m1505.9 335.9v-0.9l184.1-1.8 0.1 0.9z"/>
		<path id=" 13" class="s61" d="m1505.1 344.7v-0.9l185.8-1.7v0.8z"/>
		<path id=" 14" class="s62" d="m1505.1 354.4v-0.9l185.8-1.8v0.9z"/>
		<path id=" 15" class="s63" d="m1505.1 365v-0.9l184.9-1.8 0.1 0.9z"/>
		<path id=" 16" class="s64" d="m1504.2 374.6v-0.8l185.8-2.7 0.1 0.9z"/>
		<path id=" 17" class="s65" d="m1504.2 384.3v-0.8l186.7-1.8v0.9z"/>
		<path id=" 18" class="s66" d="m1503.3 392.3v-0.9l186.7-1.8 0.1 0.9z"/>
		<path id=" 19" class="s67" d="m1502.4 402v-0.9l187.6-1.8 0.1 0.9z"/>
		<path id=" 20" class="s68" d="m1502.4 410.8v-0.9l188.5-1.8v0.9z"/>
		<path id=" 21" class="s69" d="m1500.7 419.6v-0.9h190.2v0.9z"/>
		<path id=" 22" class="s70" d="m1501.5 428.4v-0.9l189.4 0.9v0.9z"/>
		<path id=" 23" class="s71" d="m1502.4 437.2v-0.9l187.7 0.9-0.1 0.9z"/>
		<path id=" 24" class="s72" d="m1503.3 446.9v-0.9h186.8v0.9z"/>
		<path id=" 25" class="s73" d="m1502.4 456.6v-0.9l187.7 0.9-0.1 0.9z"/>
		<path id=" 26" class="s74" d="m1502.4 465.4v-0.9l187.7 2.6-0.1 0.9z"/>
		<path id=" 27" class="s75" d="m1734.1 224.9v-0.9l180.6 0.9v0.9z"/>
		<path id=" 28" class="s76" d="m1735 233.7v-0.9l181.5 1.8-0.1 0.9z"/>
		<path id=" 29" class="s77" d="m1735 245.1v-0.8l180.6-0.9v0.9z"/>
		<path id=" 30" class="s78" d="m1734.1 253.1v-0.9h183.2v0.9z"/>
		<path id=" 31" class="s79" d="m1733.2 261.9v-0.9l184.1 0.9v0.9z"/>
		<path id=" 32" class="s80" d="m1734.1 270.7v-0.9l179.7 0.9v0.9z"/>
		<path id=" 33" class="s81" d="m1733.2 278.6v-0.9l182.4 1.8v0.9z"/>
		<path id=" 34" class="s82" d="m1733.2 288.3v-0.9l181.5 0.9v0.9z"/>
		<path id=" 35" class="s83" d="m1734.1 298v-0.9l181.5 0.9v0.9z"/>
		<path id=" 36" class="s84" d="m1734.1 305.9v-0.8l179.7 1.7v0.9z"/>
		<path id=" 37" class="s85" d="m1735 315.6v-0.9l177.9 0.9v0.9z"/>
		<path id=" 38" class="s86" d="m1735.9 323.6v-0.9l178.8 2.6v0.9z"/>
		<path id=" 39" class="s87" d="m1735.9 333.2v-0.8l178.8 1.7v0.9z"/>
		<path id=" 40" class="s88" d="m1735 343.8v-0.9l178.8 1.8v0.9z"/>
		<path id=" 41" class="s89" d="m1734.1 351.7v-0.8l181.5 0.8v0.9z"/>
		<path id=" 42" class="s90" d="m1733.2 359.7v-0.9l182.4 0.9v0.9z"/>
		<path id=" 43" class="s91" d="m1734.1 369.4v-0.9l180.6 2.6v0.9z"/>
		<path id=" 44" class="s92" d="m1734.1 378.2v-0.9l180.6 2.6v0.9z"/>
		<path id=" 45" class="s93" d="m1735 387.9v-0.9l178.8 1.7v0.9z"/>
		<path id=" 46" class="s94" d="m1735.9 397.6v-0.9l178.8 2.6v0.9z"/>
		<path id=" 47" class="s95" d="m1735.8 407.2l0.1-0.8 177.9 4.4v0.8z"/>
		<path id=" 48" class="s96" d="m1734.1 418.7v-0.9l179.7 5.3v0.9z"/>
		<path id=" 49" class="s97" d="m1733.2 431.9v-0.9l182.4 3.5v0.9z"/>
		<path id=" 50" class="s98" d="m1733.2 442.5v-0.9l182.4 2.6v0.9z"/>
		<path id=" 51" class="s99" d="m1734.1 452.2v-0.9l181.5 2.6v0.9z"/>
		<path id=" 52" class="s100" d="m1733.2 464.5v-0.9l181.5 1.8v0.9z"/>
	</g>
</svg>