<svg version="1.2" xmlns="http://www.w3.org/2000/svg" viewBox="0 0 3710 3710" width="3710" height="3710">
	<title>20943968-ai</title>
	<defs>
		<linearGradient id="g1" x1="2521" y1="4182.3" x2="653.1" y2="2548" gradientUnits="userSpaceOnUse">
			<stop offset="0" stop-color="#dae3fe"/>
			<stop offset="1" stop-color="#e9effd"/>
		</linearGradient>
		<linearGradient id="g2" x1="98.1" y1="1788" x2="3045.2" y2="5147.3" gradientUnits="userSpaceOnUse">
			<stop offset="0" stop-color="#09005d"/>
			<stop offset="1" stop-color="#1a0f91"/>
		</linearGradient>
		<linearGradient id="g3" x1="2456.5" y1="888.1" x2="4465.3" y2="888.1" gradientUnits="userSpaceOnUse">
			<stop offset="0" stop-color="#4f52ff"/>
			<stop offset="1" stop-color="#4042e2"/>
		</linearGradient>
		<linearGradient id="g4" x1="3479.1" y1="-41.2" x2="3033.4" y2="991.9" gradientUnits="userSpaceOnUse">
			<stop offset="0" stop-color="#4f52ff"/>
			<stop offset="1" stop-color="#4042e2"/>
		</linearGradient>
		<linearGradient id="g5" x1="-5781.3" y1="6086.7" x2="-4395.9" y2="5523.7" gradientUnits="userSpaceOnUse">
			<stop offset="0" stop-color="#ff928e"/>
			<stop offset="1" stop-color="#fe7062"/>
		</linearGradient>
		<linearGradient id="g6" x1="-4816.4" y1="5794.1" x2="-3541.5" y2="5039.1" gradientUnits="userSpaceOnUse">
			<stop offset="0" stop-color="#ff928e"/>
			<stop offset="1" stop-color="#fe7062"/>
		</linearGradient>
		<linearGradient id="g7" x1="-4574.5" y1="-10003.4" x2="-5303.7" y2="-11325" gradientUnits="userSpaceOnUse">
			<stop offset="0" stop-color="#ff928e"/>
			<stop offset="1" stop-color="#fe7062"/>
		</linearGradient>
		<linearGradient id="g8" x1="3127.7" y1="623.1" x2="3114.5" y2="1114.1" gradientUnits="userSpaceOnUse">
			<stop offset="0" stop-color="#09005d"/>
			<stop offset="1" stop-color="#1a0f91"/>
		</linearGradient>
		<linearGradient id="g9" x1="2596.1" y1="293.4" x2="3528.6" y2="1035.1" gradientUnits="userSpaceOnUse">
			<stop offset="0" stop-color="#09005d"/>
			<stop offset="1" stop-color="#1a0f91"/>
		</linearGradient>
		<linearGradient id="g10" x1="2997.7" y1="384" x2="2811.2" y2="971.3" gradientUnits="userSpaceOnUse">
			<stop offset="0" stop-color="#ff928e"/>
			<stop offset="1" stop-color="#fe7062"/>
		</linearGradient>
		<linearGradient id="g11" x1="3062.3" y1="408" x2="2875.9" y2="994.9" gradientUnits="userSpaceOnUse">
			<stop offset="0" stop-color="#ff928e"/>
			<stop offset="1" stop-color="#fe7062"/>
		</linearGradient>
		<linearGradient id="g12" x1="502.2" y1="2112.9" x2="737" y2="1775.4" gradientUnits="userSpaceOnUse">
			<stop offset="0" stop-color="#e1473d"/>
			<stop offset="1" stop-color="#e9605a"/>
		</linearGradient>
		<linearGradient id="g13" x1="1085.1" y1="1784.5" x2="821.5" y2="2148.9" gradientUnits="userSpaceOnUse">
			<stop offset="0" stop-color="#febbba"/>
			<stop offset="1" stop-color="#ff928e"/>
		</linearGradient>
		<linearGradient id="g14" x1="556.5" y1="3177.6" x2="476.2" y2="3177.6" gradientUnits="userSpaceOnUse">
			<stop offset="0" stop-color="#09005d"/>
			<stop offset="1" stop-color="#1a0f91"/>
		</linearGradient>
		<linearGradient id="g15" x1="968.8" y1="3536.8" x2="849.2" y2="2139.6" gradientUnits="userSpaceOnUse">
			<stop offset="0" stop-color="#febbba"/>
			<stop offset="1" stop-color="#ff928e"/>
		</linearGradient>
		<linearGradient id="g16" x1="940" y1="3146.2" x2="810.9" y2="3146.2" gradientUnits="userSpaceOnUse">
			<stop offset="0" stop-color="#09005d"/>
			<stop offset="1" stop-color="#1a0f91"/>
		</linearGradient>
		<linearGradient id="g17" x1="814.3" y1="3535.7" x2="700" y2="2199.6" gradientUnits="userSpaceOnUse">
			<stop offset="0" stop-color="#febbba"/>
			<stop offset="1" stop-color="#ff928e"/>
		</linearGradient>
		<linearGradient id="g18" x1="781" y1="1988.1" x2="1027.5" y2="1988.1" gradientUnits="userSpaceOnUse">
			<stop offset="0" stop-color="#dae3fe"/>
			<stop offset="1" stop-color="#e9effd"/>
		</linearGradient>
		<linearGradient id="g19" x1="669.4" y1="2314.3" x2="966.8" y2="2314.3" gradientUnits="userSpaceOnUse">
			<stop offset="0" stop-color="#4f52ff"/>
			<stop offset="1" stop-color="#4042e2"/>
		</linearGradient>
		<linearGradient id="g20" x1="974.3" y1="2150.7" x2="952.6" y2="1991.8" gradientUnits="userSpaceOnUse">
			<stop offset="0" stop-color="#febbba"/>
			<stop offset="1" stop-color="#ff928e"/>
		</linearGradient>
		<linearGradient id="g21" x1="1013.3" y1="1941.3" x2="904.8" y2="1609.9" gradientUnits="userSpaceOnUse">
			<stop offset="0" stop-color="#febbba"/>
			<stop offset="1" stop-color="#ff928e"/>
		</linearGradient>
		<linearGradient id="g22" x1="597.7" y1="2120.6" x2="807.9" y2="1818.4" gradientUnits="userSpaceOnUse">
			<stop offset="0" stop-color="#e1473d"/>
			<stop offset="1" stop-color="#e9605a"/>
		</linearGradient>
		<linearGradient id="g23" x1="930.5" y1="1957.6" x2="826.3" y2="1639.4" gradientUnits="userSpaceOnUse">
			<stop offset="0" stop-color="#febbba"/>
			<stop offset="1" stop-color="#ff928e"/>
		</linearGradient>
		<linearGradient id="g24" x1="1149.4" y1="1822" x2="894.1" y2="2174.9" gradientUnits="userSpaceOnUse">
			<stop offset="0" stop-color="#febbba"/>
			<stop offset="1" stop-color="#ff928e"/>
		</linearGradient>
		<linearGradient id="g25" x1="1250.2" y1="1683.5" x2="1298.8" y2="1683.5" gradientUnits="userSpaceOnUse">
			<stop offset="0" stop-color="#febbba"/>
			<stop offset="1" stop-color="#ff928e"/>
		</linearGradient>
		<linearGradient id="g26" x1="808.3" y1="2381.8" x2="1019.4" y2="2451.1" gradientUnits="userSpaceOnUse">
			<stop offset="0" stop-color="#09005d"/>
			<stop offset="1" stop-color="#1a0f91"/>
		</linearGradient>
		<linearGradient id="g27" x1="958" y1="2341.1" x2="1109.9" y2="2501.6" gradientUnits="userSpaceOnUse">
			<stop offset="0" stop-color="#09005d"/>
			<stop offset="1" stop-color="#1a0f91"/>
		</linearGradient>
		<linearGradient id="g28" x1="472.8" y1="2206.7" x2="913.6" y2="2022.3" gradientUnits="userSpaceOnUse">
			<stop offset="0" stop-color="#febbba"/>
			<stop offset="1" stop-color="#ff928e"/>
		</linearGradient>
		<linearGradient id="g29" x1="3000.9" y1="2910.6" x2="2948.3" y2="2990.6" gradientUnits="userSpaceOnUse">
			<stop offset="0" stop-color="#fdf53f"/>
			<stop offset=".7" stop-color="#e57a58"/>
			<stop offset="1" stop-color="#d93c65"/>
		</linearGradient>
		<linearGradient id="g30" x1="2587.8" y1="3221.5" x2="2509.8" y2="3319.6" gradientUnits="userSpaceOnUse">
			<stop offset="0" stop-color="#09005d"/>
			<stop offset="1" stop-color="#1a0f91"/>
		</linearGradient>
		<linearGradient id="g31" x1="2584.5" y1="3185.1" x2="2539.8" y2="3241.3" gradientUnits="userSpaceOnUse">
			<stop offset="0" stop-color="#febbba"/>
			<stop offset="1" stop-color="#ff928e"/>
		</linearGradient>
		<linearGradient id="g32" x1="3914.5" y1="4078.4" x2="3131.8" y2="3553.3" gradientUnits="userSpaceOnUse">
			<stop offset="0" stop-color="#4f52ff"/>
			<stop offset="1" stop-color="#4042e2"/>
		</linearGradient>
		<linearGradient id="g33" x1="2366.6" y1="3152.9" x2="2396.5" y2="3257.7" gradientUnits="userSpaceOnUse">
			<stop offset="0" stop-color="#febbba"/>
			<stop offset="1" stop-color="#ff928e"/>
		</linearGradient>
		<linearGradient id="g34" x1="3148" y1="2644.9" x2="3134.7" y2="2525.4" gradientUnits="userSpaceOnUse">
			<stop offset="0" stop-color="#febbba"/>
			<stop offset="1" stop-color="#ff928e"/>
		</linearGradient>
		<linearGradient id="g35" x1="3107.9" y1="2565.9" x2="3175.4" y2="2396.5" gradientUnits="userSpaceOnUse">
			<stop offset="0" stop-color="#febbba"/>
			<stop offset="1" stop-color="#ff928e"/>
		</linearGradient>
		<linearGradient id="g36" x1="2929.3" y1="2181.1" x2="2854.6" y2="2463.4" gradientUnits="userSpaceOnUse">
			<stop offset="0" stop-color="#09005d"/>
			<stop offset="1" stop-color="#1a0f91"/>
		</linearGradient>
		<linearGradient id="g37" x1="3082.1" y1="2567.3" x2="3141.6" y2="2418.2" gradientUnits="userSpaceOnUse">
			<stop offset="0" stop-color="#febbba"/>
			<stop offset="1" stop-color="#ff928e"/>
		</linearGradient>
		<linearGradient id="g38" x1="2353.1" y1="3172.6" x2="2380.6" y2="3269.1" gradientUnits="userSpaceOnUse">
			<stop offset="0" stop-color="#09005d"/>
			<stop offset="1" stop-color="#1a0f91"/>
		</linearGradient>
		<linearGradient id="g39" x1="2638.9" y1="2625.9" x2="2443.4" y2="2625.9" gradientUnits="userSpaceOnUse">
			<stop offset="0" stop-color="#09005d"/>
			<stop offset="1" stop-color="#1a0f91"/>
		</linearGradient>
		<linearGradient id="g40" x1="2604.6" y1="2885.9" x2="2761.1" y2="2928.8" gradientUnits="userSpaceOnUse">
			<stop offset="0" stop-color="#09005d"/>
			<stop offset="1" stop-color="#1a0f91"/>
		</linearGradient>
		<linearGradient id="g41" x1="2966.6" y1="2887.7" x2="2777.6" y2="2314.9" gradientUnits="userSpaceOnUse">
			<stop offset="0" stop-color="#febbba"/>
			<stop offset="1" stop-color="#ff928e"/>
		</linearGradient>
		<linearGradient id="g42" x1="3180.5" y1="2260.7" x2="3349" y2="3191.9" gradientUnits="userSpaceOnUse">
			<stop offset="0" stop-color="#ff928e"/>
			<stop offset="1" stop-color="#fe7062"/>
		</linearGradient>
		<linearGradient id="g43" x1="2958" y1="2772.4" x2="3077.3" y2="2772.4" gradientUnits="userSpaceOnUse">
			<stop offset="0" stop-color="#e1473d"/>
			<stop offset="1" stop-color="#e9605a"/>
		</linearGradient>
		<linearGradient id="g44" x1="2347.6" y1="3067.7" x2="2393.1" y2="2542.9" gradientUnits="userSpaceOnUse">
			<stop offset="0" stop-color="#4f52ff"/>
			<stop offset="1" stop-color="#4042e2"/>
		</linearGradient>
	</defs>
	<style>
		.s0 { fill: url(#g1) } 
		.s1 { fill: #bdd0fb } 
		.s2 { mix-blend-mode: soft-light;fill: #ffffff } 
		.s3 { fill: #91b3fa } 
		.s4 { fill: url(#g2) } 
		.s5 { fill: url(#g3) } 
		.s6 { opacity: .8;fill: #ffffff } 
		.s7 { fill: url(#g4) } 
		.s8 { fill: url(#g5) } 
		.s9 { opacity: .7;fill: #ffffff } 
		.s10 { fill: url(#g6) } 
		.s11 { fill: url(#g7) } 
		.s12 { fill: url(#g8) } 
		.s13 { fill: url(#g9) } 
		.s14 { opacity: .6;fill: #ffffff } 
		.s15 { fill: #ffffff } 
		.s16 { fill: url(#g10) } 
		.s17 { fill: url(#g11) } 
		.s18 { fill: #7d97f4 } 
		.s19 { fill: url(#g12) } 
		.s20 { fill: url(#g13) } 
		.s21 { fill: url(#g14) } 
		.s22 { fill: url(#g15) } 
		.s23 { fill: url(#g16) } 
		.s24 { fill: url(#g17) } 
		.s25 { fill: url(#g18) } 
		.s26 { fill: url(#g19) } 
		.s27 { fill: url(#g20) } 
		.s28 { fill: url(#g21) } 
		.s29 { fill: url(#g22) } 
		.s30 { fill: url(#g23) } 
		.s31 { fill: url(#g24) } 
		.s32 { fill: url(#g25) } 
		.s33 { fill: url(#g26) } 
		.s34 { fill: url(#g27) } 
		.s35 { fill: url(#g28) } 
		.s36 { fill: url(#g29) } 
		.s37 { fill: url(#g30) } 
		.s38 { fill: url(#g31) } 
		.s39 { fill: url(#g32) } 
		.s40 { fill: url(#g33) } 
		.s41 { fill: url(#g34) } 
		.s42 { fill: url(#g35) } 
		.s43 { fill: url(#g36) } 
		.s44 { fill: url(#g37) } 
		.s45 { fill: url(#g38) } 
		.s46 { fill: url(#g39) } 
		.s47 { fill: url(#g40) } 
		.s48 { fill: url(#g41) } 
		.s49 { fill: url(#g42) } 
		.s50 { fill: url(#g43) } 
		.s51 { fill: url(#g44) } 
	</style>
	<g id="Illustration">
		<g id="&lt;Group&gt;">
			<path id="&lt;Path&gt;" class="s0" d="m3108.9 2356.6c-259.4 610.8-950.4 953-1549.7 860.7-97.5-15-364.9-59.7-601.5-270.8-455.7-406.4-553.1-1211-185.6-1778 267.5-412.7 747.1-646.6 1202.7-634.9 98.2 2.5 474.3 18 804.9 290.6 48.6 40.1 155.7 135.2 252.2 286.1 226.6 354.4 246.1 848.2 77 1246.3z"/>
			<g id="&lt;Group&gt;">
				<path id="&lt;Path&gt;" class="s1" d="m874.8 481.2c-4.4-14 11.9-25.3 23.6-16.5 118.5 89.8 409.6 365.3 401.3 901.7-10.4 673 153.8 900.8 341.8 1030.3 0 0-244-44.4-419-274.6-429.6-565.1-269.3-1392.7-347.7-1640.9z"/>
				<path id="&lt;Path&gt;" class="s2" d="m981.3 675.2c2.1-0.7 4.3 0.4 5 2.4 24.6 71.7 46.4 144.3 66.3 217.5 19.6 73.2 36.8 147.2 51.8 221.6q5.6 27.9 10.7 55.9c3.3 18.7 6.6 37.4 9.6 56.1q9.2 56.3 16.3 112.8c9.7 75.3 16.4 151.1 22.5 226.5 5.9 75.4 11.6 150.6 24.6 224 6.5 36.7 15.1 72.9 26.4 108.2 11.3 35.3 25.2 69.6 41.7 102.7 33.6 65.9 75.4 128.5 125.2 183.3 24.7 27.6 51.5 53.3 80 77.1 7.1 6 14.5 11.6 21.7 17.4 7.5 5.6 14.8 11.3 22.4 16.7 15 11 30.5 21.3 46.1 31.5 6.6 4.3 8.7 13.1 4.5 19.9-4.2 6.9-13.2 9.1-20.1 4.8-65.4-40-126.1-89-178.2-146-26-28.5-49.8-59-71.5-90.9-10.8-15.9-21.2-32.1-31-48.7-10-16.4-19.1-33.5-27.9-50.7-35.1-69.1-57.1-144.3-69.8-219.9-12.9-75.8-17.9-151.8-23.4-227.3-5-75.5-10.2-150.7-18.7-225.6-8.2-74.9-19.5-149.5-32.3-223.8-13-74.4-28.3-148.3-45.9-221.7-17.2-73.6-37.1-146.5-58.5-219-0.5-2 0.5-4.1 2.5-4.8z"/>
			</g>
			<g id="&lt;Group&gt;">
				<g id="&lt;Group&gt;">
					<path id="&lt;Path&gt;" class="s3" d="m1228.3 2473.5c-5.1 27.9-37.1 41.5-61 26.2-131.9-84.8-483-358.2-543-896-50.7-454.2-121.3-695.7-160.9-803.1-8.4-22.7 17-42.9 37.3-29.6 223.2 146.6 913.6 689.9 727.6 1702.5z"/>
					<path id="&lt;Path&gt;" class="s2" d="m1190.4 2480.1q-0.8 0.7-1.7 1.3c-5.2 3.2-12 1.6-15.3-3.6-3.7-5.9-369.3-596-468.2-1224.3-1-6.1 3.2-11.7 9.2-12.7 6.1-1 11.7 3.2 12.7 9.2 98.2 623.8 461.5 1210.2 465.1 1216.1 2.9 4.5 2 10.4-1.8 14z"/>
				</g>
			</g>
			<g id="&lt;Group&gt;">
				<path id="&lt;Path&gt;" class="s4" d="m1833 741.6c633 0 1174.5 472.9 1174.5 1082.8 0 610-541.5 1126.1-1174.5 1126.1-633 0-1146.2-494.5-1146.2-1104.4 0-610 513.2-1104.5 1146.2-1104.5z"/>
				<g id="&lt;Group&gt;">
					<path id="&lt;Path&gt;" class="s3" d="m2909.9 1571.9c-12.1-44-27.7-87.6-46.1-129.6-1.7-3.9 0.2-8.3 4.2-10 4-1.6 8.7 0.2 10.4 4.1 18.7 42.6 34.5 86.9 46.8 131.5 1.1 4.1-1.4 8.3-5.6 9.4q-1 0.2-2.1 0.2c-3.5 0-6.7-2.2-7.6-5.6z"/>
					<path id="&lt;Path&gt;" class="s3" d="m2736.1 1229.3c-209.4-267.5-546.8-427.2-902.4-427.2-151.8 0-298.6 29.6-436.4 88.1-4 1.7-8.6-0.1-10.4-3.9-1.8-3.8 0.1-8.4 4.1-10.1 139.7-59.3 288.7-89.4 442.7-89.4 360.6 0 702.6 162 915 433.4 2.6 3.3 1.9 8.1-1.6 10.6-1.4 1.1-3.1 1.6-4.7 1.6-2.4 0-4.8-1.1-6.3-3.1z"/>
				</g>
				<path id="&lt;Path&gt;" class="s5" d="m1834.9 890.1c547.9 0 1016.7 409.3 1016.7 937.3 0 527.9-468.8 974.6-1016.7 974.6-547.9 0-992.1-428-992.1-955.9 0-528 444.2-956 992.1-956z"/>
				<path id="&lt;Path&gt;" class="s6" d="m2669.9 1718.7c42.1-2.3 78.2 28.6 80.6 69.2 2.5 40.6-29.7 75.4-71.8 77.8-42.1 2.3-78.2-28.6-80.7-69.2-2.4-40.6 29.7-75.4 71.9-77.8z"/>
				<path id="&lt;Path&gt;" class="s1" d="m1019.6 1811.3c42.1-2.4 78.3 28.6 80.7 69.2 2.5 40.5-29.7 75.4-71.8 77.7-42.1 2.4-78.3-28.6-80.7-69.2-2.5-40.6 29.7-75.4 71.8-77.7z"/>
				<path id="&lt;Path&gt;" class="s1" d="m2072.8 2608.7c7.6 40-19.9 78.3-61.4 85.6-41.5 7.3-81.3-19.2-88.9-59.2-7.5-40 20-78.3 61.5-85.6 41.5-7.3 81.2 19.2 88.8 59.2z"/>
				<path id="&lt;Path&gt;" class="s1" d="m1775.8 1041.8c7.6 40-19.9 78.3-61.4 85.6-41.5 7.3-81.3-19.2-88.9-59.1-7.6-40 19.9-78.4 61.4-85.7 41.5-7.3 81.3 19.2 88.9 59.2z"/>
				<path id="&lt;Path&gt;" class="s1" d="m1473.3 2562.7c10.2 2.9 12.1 20.6 4.4 39.5-7.8 18.8-22.3 31.8-32.5 28.8-10.1-2.9-12.1-20.6-4.3-39.4 7.8-18.9 22.3-31.8 32.4-28.9z"/>
				<path id="&lt;Path&gt;" class="s6" d="m2137.2 1076.5c10.2 2.9 12.1 20.6 4.4 39.5-7.8 18.9-22.3 31.8-32.5 28.9-10.1-3-12.1-20.6-4.3-39.5 7.8-18.9 22.3-31.8 32.4-28.9z"/>
				<path id="&lt;Path&gt;" class="s6" d="m1137.5 2300.6c7.1 7.6-0.7 23.7-17.5 35.9-16.8 12.3-36.2 16-43.3 8.5-7.1-7.6 0.8-23.7 17.6-35.9 16.8-12.3 36.1-16.1 43.2-8.5z"/>
				<path id="&lt;Path&gt;" class="s6" d="m2505.8 1362.6c7.1 7.6-0.8 23.7-17.6 35.9-16.8 12.2-36.2 16-43.3 8.4-7.1-7.5 0.8-23.6 17.6-35.9 16.8-12.2 36.2-16 43.3-8.4z"/>
				<path id="&lt;Path&gt;" class="s6" d="m1078.4 1500.7c-3.7 9.5-22.1 10.2-41.1 1.5-19-8.7-31.4-23.6-27.7-33.1 3.7-9.6 22.1-10.3 41.1-1.5 19 8.7 31.5 23.5 27.7 33.1z"/>
				<path id="&lt;Path&gt;" class="s6" d="m2572.9 2238.5c-3.7 9.5-22.1 10.2-41.2 1.5-19-8.7-31.4-23.6-27.7-33.1 3.7-9.6 22.2-10.3 41.2-1.5 19 8.7 31.4 23.5 27.7 33.1z"/>
				<path id="&lt;Path&gt;" class="s1" d="m1372.3 1195.4c-8.3 6.3-24.4-2.3-36-19.3-11.5-17-14.1-35.9-5.8-42.2 8.3-6.3 24.4 2.3 36 19.3 11.5 17 14.2 35.9 5.8 42.2z"/>
				<path id="&lt;Path&gt;" class="s1" d="m2252 2573.6c-8.3 6.4-24.5-2.3-36-19.3-11.6-16.9-14.2-35.8-5.9-42.1 8.4-6.4 24.5 2.3 36 19.3 11.6 16.9 14.2 35.8 5.9 42.1z"/>
				<path id="&lt;Path&gt;" class="s7" d="m1848 867c774.8 75.4 1387.7 765.2 792.3 1584.7l-843.5-624z"/>
				<g id="&lt;Group&gt;">
					<path id="&lt;Path&gt;" class="s8" d="m1848.8 1824.6l563.2 382.6c10.9 7.4 25.9 1 27.4-11.7l8.9-75.7c1.8-14.7 20.9-20.1 30.8-8.7l383 438c11.7 13.4-2.5 32.9-19.4 26.7l-547.7-201c-13.1-4.8-15.6-21.7-4.3-29.6l75.5-52.9c9.4-6.6 9.6-20 0.5-27l-538.7-413.6c-7.5-5.8-8.9-16.2-3.2-23.5 5.7-7.3 16.3-8.8 24-3.6z"/>
					<path id="&lt;Path&gt;" class="s9" d="m2790.9 2536.3c-188.1-69.9-410.5-152.4-419.3-155.2-4.1-1.1-6.6-5.2-5.6-9.2 1.1-4.1 5.5-6.6 9.6-5.5 6.1 1.6 296.3 109.4 420.1 156.7l-84.6-90.9c-2.9-3.2-2.7-8 0.5-10.8 3.3-2.8 8.3-2.5 11.2 0.7l84.6 90.8c4.8 5.2 5.3 12.4 1.3 18.1-3.3 4.7-8.9 7-14.5 6.1q-1.7-0.2-3.3-0.8z"/>
					<path id="&lt;Path&gt;" class="s10" d="m1801.8 1787.4l1.2-578.1c-0.2-12.8-14.5-20.8-26.1-14.5l-69 37c-13.5 7.2-29.3-4.5-25.6-18.8l142.7-552.8c4.4-16.9 29.2-17.2 34-0.4l154.5 543c3.7 13-9 24.7-22.3 20.6l-89.4-28c-11-3.5-22.5 4.2-23 15.3l-41.9 577.2c-0.4 9.2-8.4 16.3-17.9 16.2-9.5-0.2-17.1-7.6-17.2-16.7z"/>
					<path id="&lt;Path&gt;" class="s9" d="m1958.8 1145c-2.4-5.7-83.1-294.2-116.4-417.9l-26.6 118.6c-0.9 4.1-5.2 6.8-9.4 5.8-4.3-0.8-7-4.9-6.1-9l26.6-118.7c1.5-6.7 7.3-11.3 14.5-11.5 7.3-0.1 13.1 4.2 15 10.8 52.3 187 114.3 408.1 117.1 416.4 1.5 3.9-0.5 8.3-4.5 9.8q-1.4 0.5-2.9 0.5c-3.1 0-6.1-1.8-7.3-4.8z"/>
					<path id="&lt;Path&gt;" class="s11" d="m1840 1739.8c45.1 0 81.6 35.2 81.6 78.6 0 43.4-36.5 78.6-81.6 78.6-45 0-81.6-35.2-81.6-78.6 0-43.4 36.6-78.6 81.6-78.6z"/>
				</g>
			</g>
			<g id="&lt;Group&gt;">
				<path id="&lt;Path&gt;" class="s12" d="m3099.4 1186.9c-8.5 9.6-20.7 15.1-33.4 15.1h-94.8l14.5-561.6c0 0 68-12.3 76.3 43.2 6.6 44.2 36.8 346.3 48.9 467.9 1.2 12.9-2.9 25.7-11.5 35.4z"/>
				<path id="&lt;Path&gt;" class="s13" d="m2343.7 1216.2c-29.6-0.7-53.1-25.2-52.5-54.8l9.7-456c0.5-25.1 20.6-45.4 45.8-46.2l661.8-19.6c19.7-0.6 35.9 15.2 35.8 34.9l-1.5 522.8c-0.1 18.5-15.3 33.4-33.8 33z"/>
				<g id="&lt;Group&gt;">
					<path id="&lt;Path&gt;" class="s3" d="m2301 1177.9c-9.5-0.2-16.6-8.7-15.1-18 9.7-62.1 40.4-275.7 30.5-453-0.4-8.1 5.9-14.9 14-15.2l664.7-21.2c9.1-0.3 16.8 6.8 17.1 15.9 2.8 74.6 13.4 381.6-0.4 490.7-0.8 6.6-6.6 11.6-13.3 11.5z"/>
					<path id="&lt;Path&gt;" class="s14" d="m2317.8 1170.9c-9.1-0.1-16-8.3-14.6-17.3 9.4-59.8 38.9-265.3 29.5-435.9-0.5-7.8 5.6-14.4 13.3-14.7l639.8-20.4c8.7-0.3 16.1 6.6 16.4 15.4 2.7 71.7 12.9 367.1-0.4 472.1-0.8 6.4-6.3 11.2-12.7 11.1z"/>
				</g>
				<path id="&lt;Path&gt;" class="s9" d="m2723 799.1l47.3-2.1c7.3-0.3 13.4 5.6 13.2 12.9l-1 48.4c-0.2 6.9-5.8 12.4-12.7 12.3l-47.3-0.2c-7-0.1-12.6-5.9-12.5-12.9l1-46.1c0.1-6.6 5.4-12 12-12.3z"/>
				<path id="&lt;Path&gt;" class="s9" d="m2533.3 857.1l0.8-39.2c0.1-6.7 5.5-12.1 12.1-12.3l47.3-1.7c7.3-0.3 13.2 5.6 13.1 12.8l-0.9 41.2c-0.1 6.9-5.8 12.4-12.7 12.4l-47.2-0.3c-7.1-0.1-12.7-5.8-12.5-12.9z"/>
				<path id="&lt;Path&gt;" class="s9" d="m2600.8 1089.2l-0.9 43.6c-0.2 7.7-6.7 13.8-14.4 13.5l-44.9-2c-7.4-0.3-13.3-6.5-13.1-14l0.9-42.1c0.1-7.5 6.3-13.5 13.8-13.4l45 0.4c7.6 0.1 13.8 6.4 13.6 14z"/>
				<path id="&lt;Path&gt;" class="s9" d="m2497.5 1142.5l-45.4-1.9c-7.4-0.3-13.1-6.4-13-13.8l0.9-39.7c0.1-7.4 6.2-13.3 13.6-13.2l45.5 0.5c7.5 0 13.5 6.2 13.3 13.7l-0.8 41.2c-0.2 7.6-6.6 13.5-14.1 13.2z"/>
				<path id="&lt;Path&gt;" class="s9" d="m2500.5 957.7l-43.4-1.4c-7.9-0.3-14.2-6.9-14-14.8l0.7-32.3c0.1-7.9 6.6-14.3 14.5-14.3h43.4c8.1-0.1 14.7 6.6 14.5 14.8l-0.7 33.8c-0.2 8.1-6.9 14.5-15 14.2z"/>
				<path id="&lt;Path&gt;" class="s9" d="m2499.9 1054.9h-45.4c-7.6 0-13.7-6.2-13.5-13.8l1.1-52.1c0.1-8.1 6.9-14.5 15-14.2l44.3 1.4c7.4 0.3 13.3 6.4 13.1 13.8l-1.1 51.7c-0.1 7.3-6.1 13.2-13.5 13.2z"/>
				<path id="&lt;Path&gt;" class="s9" d="m2621.6 857.6l0.9-42.9c0.2-6.7 5.5-12.1 12.2-12.3l47.3-1.7c7.2-0.3 13.2 5.6 13 12.8l-0.9 44.9c-0.2 6.9-5.8 12.4-12.7 12.4l-47.2-0.3c-7.1-0.1-12.7-5.8-12.6-12.9z"/>
				<path id="&lt;Path&gt;" class="s9" d="m2588.1 1054.9h-45c-7.7 0-13.9-6.3-13.7-14l1-49.8c0.2-7.7 6.6-13.7 14.2-13.5l44.9 1.5c7.6 0.2 13.5 6.5 13.3 14l-1 48.4c-0.1 7.4-6.3 13.4-13.7 13.4z"/>
				<path id="&lt;Path&gt;" class="s9" d="m2693.1 905.2l-1 48.2c-0.2 5.8-5 10.4-10.8 10.2l-51.6-1.7c-5.7-0.1-10.2-4.9-10.1-10.6l1-46.5c0.2-5.6 4.8-10.2 10.4-10.2l51.6-0.1c5.9 0 10.6 4.8 10.5 10.7z"/>
				<path id="&lt;Path&gt;" class="s9" d="m2722 894.5l46.3-0.1c7.4 0 13.3 6 13.1 13.4l-0.9 45.8c-0.2 7.3-6.3 13.1-13.6 12.8l-46.2-1.5c-7.2-0.2-12.8-6.2-12.7-13.4l1-44.2c0.1-7.1 5.9-12.8 13-12.8z"/>
				<path id="&lt;Path&gt;" class="s9" d="m2531.3 948.4l0.9-43.4c0.2-5.7 4.8-10.2 10.4-10.2l51.7-0.1c5.8 0 10.5 4.8 10.4 10.6l-1 45.2c-0.1 5.8-4.9 10.4-10.7 10.2l-51.6-1.6c-5.7-0.2-10.2-5-10.1-10.7z"/>
				<path id="&lt;Path&gt;" class="s9" d="m2691.2 996l-1 45.5c-0.2 7.4-6.3 13.4-13.7 13.4h-45c-7.7 0-13.9-6.3-13.8-14l1-46.9c0.2-7.7 6.6-13.7 14.2-13.5l45 1.5c7.5 0.2 13.4 6.5 13.3 14z"/>
				<path id="&lt;Path&gt;" class="s9" d="m2779.5 997.3l-0.9 45.7c-0.2 6.6-5.6 11.9-12.2 11.9h-48.1c-6.9 0-12.3-5.6-12.2-12.4l1-47.2c0.1-6.8 5.8-12.2 12.6-11.9l48 1.5c6.7 0.2 12 5.8 11.8 12.4z"/>
				<path id="&lt;Path&gt;" class="s9" d="m2445 849.4l0.6-24.7c0.1-9.1 7.4-16.4 16.4-16.7l40-1.5c8.9-0.3 16.3 7 16.1 15.9l-0.7 29.6c-0.2 9.6-8 17.2-17.5 17.1l-35.9-0.2c-10.6 0-19.2-8.8-19-19.5z"/>
				<path id="&lt;Path&gt;" class="s9" d="m2423.3 1125.6c-0.2 7.5-6.6 13.5-14.1 13.2l-16.8-0.7c-11.8-0.5-21-8.7-20.8-18.5l0.6-28.6c0.2-9.9 9.9-17.8 21.8-17.7l15.6 0.2c8.1 0.1 14.6 6.7 14.4 14.8z"/>
				<path id="&lt;Path&gt;" class="s9" d="m2948.1 1097l-1 46c-0.2 10.2-10.4 18.1-22.6 17.6l-30.6-1.3c-7.5-0.3-13.4-6.6-13.2-14l1.1-53.6c0.2-7.6 6.4-13.6 13.9-13.5l30.8 0.3c12.1 0.1 21.8 8.5 21.6 18.5z"/>
				<path id="&lt;Path&gt;" class="s9" d="m2373.4 1036.4l1-46c0.2-10.1 10.2-18 22.4-17.6l15.3 0.5c8 0.2 14.2 6.9 14.1 14.8l-1.1 52.6c-0.2 7.9-6.7 14.2-14.6 14.2h-15.2c-12.2 0-22.1-8.4-21.9-18.5z"/>
				<path id="&lt;Path&gt;" class="s9" d="m2375.5 935.8l0.5-23.1c0.2-9.8 9.7-17.6 21.5-17.7h19.4c6.2 0 11.1 5.1 11 11.2l-0.8 38c-0.1 6.1-5.2 10.9-11.4 10.7l-19.2-0.6c-11.8-0.4-21.2-8.6-21-18.5z"/>
				<path id="&lt;Path&gt;" class="s9" d="m2954.2 809.7l-1 44.2c-0.2 9.9-9.8 17.7-21.7 17.7l-31.7-0.2c-7.3-0.1-13.2-6.1-13-13.4l1.1-52.9c0.2-7 5.7-12.6 12.6-12.9l30.9-1.1c12.5-0.4 23 8.1 22.8 18.6z"/>
				<path id="&lt;Path&gt;" class="s9" d="m2689.2 1090.1l-1 46.4c-0.2 7.8-6.6 13.8-14.3 13.5l-45-1.9c-7.4-0.3-13.3-6.6-13.1-14l0.9-45c0.2-7.5 6.4-13.5 13.9-13.5l45 0.5c7.6 0 13.7 6.4 13.6 14z"/>
				<path id="&lt;Path&gt;" class="s9" d="m2952 912.6l-0.9 41.5c-0.2 10.1-10.3 18-22.4 17.6l-31.3-1c-7.2-0.2-12.9-6.2-12.7-13.4l1.1-50.3c0.1-7.2 5.9-12.8 13-12.9h31.3c12.2 0 22.1 8.3 21.9 18.5z"/>
				<path id="&lt;Path&gt;" class="s9" d="m2950 1008.7l-0.7 28.6c-0.2 9.8-9.7 17.7-21.5 17.7l-32.8-0.1c-6.8 0-12.3-5.6-12.1-12.4l0.9-41.5c0.1-6.7 5.8-12.1 12.5-11.9l32.6 1.1c11.9 0.4 21.3 8.6 21.1 18.5z"/>
				<path id="&lt;Path&gt;" class="s9" d="m2808 986.2l48.1 1.6c6.6 0.2 11.9 5.8 11.7 12.4l-0.9 42.8c-0.1 6.6-5.5 11.9-12.1 11.9h-48.1c-6.9 0-12.4-5.6-12.2-12.4l0.9-44.3c0.2-6.8 5.8-12.2 12.6-12z"/>
				<path id="&lt;Path&gt;" class="s9" d="m2865.9 1091.8l-1.1 52.2c-0.2 7.7-6.6 13.8-14.3 13.5l-44.9-1.9c-7.5-0.4-13.4-6.6-13.2-14.1l1.1-50.7c0.1-7.5 6.3-13.5 13.9-13.5l44.9 0.5c7.6 0.1 13.8 6.4 13.6 14z"/>
				<path id="&lt;Path&gt;" class="s9" d="m2377.3 850l0.5-22.1c0.2-9.5 9.2-17.2 20.6-17.6l19.9-0.7c6.3-0.3 11.5 4.9 11.4 11.2l-0.8 37.1c-0.1 6-5 10.8-11 10.8l-18.8-0.2c-12.2 0-22-8.4-21.8-18.5z"/>
				<path id="&lt;Path&gt;" class="s9" d="m2777.5 1091l-1 49.3c-0.2 7.7-6.6 13.8-14.3 13.4l-44.9-1.9c-7.5-0.3-13.4-6.5-13.2-14l1-47.1c0.1-7.9 6.7-14.3 14.6-14.2l44.2 0.4c7.7 0.1 13.8 6.4 13.6 14.1z"/>
				<path id="&lt;Path&gt;" class="s9" d="m2812.1 795.4l46.3-1.7c7.5-0.2 13.7 5.9 13.5 13.4l-1 51.2c-0.2 7.2-6.1 12.9-13.2 12.8l-46.3-0.2c-7.3-0.1-13.1-6.1-13-13.4l1.1-49.3c0.1-6.9 5.6-12.5 12.6-12.8z"/>
				<path id="&lt;Path&gt;" class="s9" d="m2810.4 894.3l46.3-0.1c7.3 0 13.3 6 13.1 13.4l-1 48.9c-0.2 7.3-6.3 13.1-13.6 12.8l-46.2-1.5c-7.1-0.2-12.8-6.2-12.6-13.4l1-47.3c0.1-7.1 5.9-12.8 13-12.8z"/>
				<path id="&lt;Path&gt;" class="s15" d="m2403 758.8l3.2-0.4c6.1-0.6 11.5 4.2 11.3 10.4l-0.3 16c-0.1 5.7-4.8 10.2-10.5 10h-0.7c-5-0.1-9.2-3.8-9.9-8.8l-2.2-15.6c-0.7-5.8 3.3-11 9.1-11.6z"/>
				<path id="&lt;Path&gt;" class="s15" d="m2475.4 754.8l3.2-0.4c6.1-0.7 11.5 4.2 11.4 10.4l-0.4 16c-0.1 5.6-4.8 10.1-10.4 10h-0.8c-5-0.1-9.2-3.9-9.9-8.9l-2.1-15.6c-0.8-5.7 3.3-10.9 9-11.5z"/>
				<path id="&lt;Path&gt;" class="s15" d="m2564.5 756l3.2-0.4c6.1-0.6 11.5 4.3 11.4 10.4l-0.4 16c-0.1 5.7-4.8 10.2-10.4 10h-0.8c-5-0.1-9.2-3.8-9.9-8.8l-2.1-15.6c-0.8-5.7 3.3-11 9-11.6z"/>
				<path id="&lt;Path&gt;" class="s15" d="m2651.3 752.1l3.2-0.3c6.2-0.7 11.5 4.2 11.4 10.4l-0.4 15.9c-0.1 5.7-4.8 10.2-10.4 10.1l-0.8-0.1c-5-0.1-9.2-3.8-9.9-8.8l-2.1-15.6c-0.8-5.7 3.3-11 9-11.6z"/>
				<path id="&lt;Path&gt;" class="s15" d="m2740.5 740.8l3.2-0.4c6.1-0.7 11.5 4.2 11.3 10.4l-0.3 16c-0.1 5.6-4.8 10.1-10.5 10h-0.7c-5.1-0.1-9.3-3.9-10-8.9l-2.1-15.6c-0.8-5.7 3.3-10.9 9.1-11.5z"/>
				<path id="&lt;Path&gt;" class="s15" d="m2834.9 742.8l3.2-0.4c6.2-0.7 11.5 4.2 11.4 10.4l-0.4 16c-0.1 5.7-4.8 10.1-10.4 10h-0.8c-5-0.1-9.2-3.9-9.9-8.9l-2.1-15.6c-0.8-5.7 3.3-10.9 9-11.5z"/>
				<path id="&lt;Path&gt;" class="s15" d="m2914.6 741.1l3.2-0.3c6.2-0.7 11.5 4.2 11.4 10.4l-0.3 15.9c-0.2 5.7-4.8 10.2-10.5 10.1l-0.7-0.1c-5.1-0.1-9.3-3.8-10-8.8l-2.1-15.6c-0.8-5.7 3.3-11 9-11.6z"/>
				<g id="&lt;Group&gt;">
					<path id="&lt;Path&gt;" class="s16" d="m2868.2 772.6c-3.8 9-7.6 18.1-10.9 27.3-7 19.4-12 39-14.2 59.5-0.8 7.5-11.5 9.4-13.5 1.5-5.9-22.1-13.5-43.7-19.7-65.7-1-3.8 4.3-5.7 6.2-2.5 7.2 12 12.9 24.7 17.7 37.7 2.5-10.9 5.7-21.6 9.5-32.1 3.5-10 7.6-19.9 11.8-29.6 3.6-8.4 6.6-17.3 13.9-23.1 2.6-2 6.1-0.6 6.3 2.8 0.5 8.8-3.7 16.3-7.1 24.2z"/>
					<path id="&lt;Path&gt;" class="s17" d="m2928.4 851.8c-12.9 34.2-53.2 57.8-85.6 70.5-29.5 11.6-68.5 11.1-89.1-16.6-19.9-26.8-10.8-64.5 4.4-91.1 16.5-29 43.2-51.2 74.5-62.5 4.4-1.5 6.1 5.5 1.8 7.1-33.4 12.4-60.7 38.2-73.4 71.7-13.3 34.7-7.2 79.8 37.1 84.3 19.1 1.9 37.5-5 53.9-14.1 16.3-9 33.4-19.4 46.3-32.8 28-29.1 22.9-77-15.8-94-5.8-2.6-3.5-10.8 2.9-9.6 39.8 7.5 56.5 51.3 43 87.1z"/>
				</g>
				<g id="&lt;Group&gt;">
					<path id="&lt;Path&gt;" class="s3" d="m3044.3 1193.3c-0.9 0-1.6-0.7-1.6-1.6l-2.1-294.4c0-0.9 0.8-1.7 1.7-1.7 0.9 0 1.7 0.8 1.7 1.7l2 294.4c0 0.9-0.7 1.6-1.6 1.6z"/>
					<path id="&lt;Path&gt;" class="s3" d="m3041.8 831.4c-0.9 0-1.6-0.8-1.6-1.7l-0.8-102.8c0-0.9 0.8-1.7 1.7-1.7 0.9 0 1.7 0.8 1.7 1.7l0.7 102.8c0 0.9-0.7 1.7-1.6 1.7z"/>
				</g>
				<path id="&lt;Path&gt;" class="s3" d="m2429.7 727.1c0 9.9-8 18-17.9 18-9.9 0-18-8.1-18-18 0-9.9 8.1-17.9 18-17.9 9.9 0 17.9 8 17.9 17.9z"/>
				<path id="&lt;Path&gt;" class="s3" d="m2576.7 725.7c0 9.9-8.1 18-18 18-9.9 0-17.9-8.1-17.9-18 0-9.9 8-17.9 17.9-17.9 9.9 0 18 8 18 17.9z"/>
				<path id="&lt;Path&gt;" class="s3" d="m2725 720.9c0 9.9-8 17.9-17.9 17.9-9.9 0-18-8-18-17.9 0-9.9 8.1-17.9 18-17.9 9.9 0 17.9 8 17.9 17.9z"/>
				<path id="&lt;Path&gt;" class="s3" d="m2872 714c0 9.9-8.1 17.9-18 17.9-9.9 0-17.9-8-17.9-17.9 0-9.9 8-17.9 17.9-17.9 9.9 0 18 8 18 17.9z"/>
				<g id="&lt;Group&gt;">
					<path id="&lt;Path&gt;" class="s18" d="m2914.6 642.9h-17.2c-2.7-30.9-18.7-28-18.7-28-22.2 3.7-16.6 73.9-14 98.2 0.2 2.1-0.5 4.2-1.9 5.8-1.4 1.6-3.4 2.5-5.5 2.5-7.6 0-14-5.9-14.5-13.4-2.5-32.3-5.3-111.7 24.9-118.3 37.9-8.3 46.9 53.2 46.9 53.2z"/>
					<path id="&lt;Path&gt;" class="s18" d="m2767.6 646.9h-17.2c-2.7-30.2-18.6-28-18.6-28-22.2 3.8-16.7 74-14.1 98.4 0.2 2.1-0.4 4.2-1.9 5.7-1.4 1.6-3.4 2.5-5.5 2.5-7.6 0-13.9-5.8-14.5-13.4-2.4-32.3-5.3-111.7 24.9-118.3 38-8.3 46.9 53.1 46.9 53.1z"/>
					<path id="&lt;Path&gt;" class="s18" d="m2620.7 651l-17.3 0.6c-2.7-30.4-18.6-28.6-18.6-28.6-22.2 3.8-16.7 74-14.1 98.4 0.3 2.1-0.4 4.2-1.8 5.8-1.4 1.6-3.4 2.5-5.5 2.5-7.7 0-14-5.9-14.5-13.5-2.5-32.2-5.3-111.7 24.9-118.3 37.9-8.3 46.9 53.1 46.9 53.1z"/>
					<path id="&lt;Path&gt;" class="s18" d="m2473.7 655.7h-17.2c-2.7-30.2-18.6-27.9-18.6-27.9-22.3 3.7-16.7 74.1-14.1 98.4 0.2 2.1-0.5 4.2-1.9 5.8-1.4 1.6-3.4 2.5-5.5 2.5-7.6 0-13.9-5.9-14.5-13.5-2.4-32.3-5.3-111.8 24.9-118.3 38-8.3 46.9 53 46.9 53z"/>
				</g>
			</g>
			<g id="&lt;Group&gt;">
				<g id="&lt;Group&gt;">
					<path id="&lt;Path&gt;" class="s3" d="m1494.1 1585.5h-490.7c-19.8 0-35.9-14.7-35.9-32.8v-292.4c0-17.4 14.9-31.8 33.9-32.7l509.7-26c21.3-1.1 38.9 15 37.8 34.5l-19 318.4c-1 17.4-16.7 31-35.8 31z"/>
					<g id="&lt;Group&gt;">
						<path id="&lt;Path&gt;" class="s1" d="m1179.6 1407.3l-200.8-170.8c6-5.2 13.8-8.5 22.6-8.9l509.7-26c6.2-0.3 12.1 0.8 17.4 3.1l-268.3 204.4c-23 17.5-58.8 16.7-80.6-1.8z"/>
					</g>
				</g>
				<path id="&lt;Path&gt;" class="s9" d="m1222.9 1399c-13.3 0-26.6-4.4-37.3-13l-75.6-61.1c-2.2-1.8-2.4-4.9-0.5-6.9 2-2.1 5.4-2.3 7.6-0.5l75.6 61.1c16.1 13 39.5 14.1 56.9 2.6l39.2-25.7c2.4-1.6 5.7-1.1 7.5 1.1 1.7 2.2 1.2 5.2-1.2 6.8l-39.2 25.8c-10 6.5-21.5 9.8-33 9.8z"/>
				<path id="&lt;Path&gt;" class="s9" d="m1085.4 1303.4c-1.2 0-2.5-0.4-3.5-1.2l-10.2-8.3c-2.2-1.7-2.4-4.8-0.5-6.9 2-2 5.4-2.2 7.6-0.4l10.2 8.2c2.2 1.8 2.4 4.9 0.4 6.9-1 1.1-2.5 1.7-4 1.7z"/>
			</g>
			<g id="&lt;Group&gt;">
				<path id="&lt;Path&gt;" class="s3" d="m2830.3 1582.6h281c27.6 0 50 22.4 50 50v238c0 28.5-23.8 51.2-52.3 49.9l-281.1-13.2c-26.7-1.2-47.6-23.2-47.6-49.9v-224.8c0-27.6 22.3-50 50-50z"/>
				<path id="&lt;Compound Path&gt;" fill-rule="evenodd" class="s9" d="m2882.1 1865.4c-3.7 0-6.7-0.1-9.2-0.1-4.1-0.1-7.5-3.2-8-7.3-0.6-4.1 2-8 6-9.1 21.6-6.1 45.1-16.3 62.4-24.7-82.6-6.7-99.1-49.1-102.3-68.6-8-48.9 34.5-104.3 94.7-123.5 61.6-19.5 123.9-12.5 158.8 17.9 18.6 16.2 38.7 47.2 29.2 102.8-17.7 104.2-180.2 112.6-231.6 112.6zm110.6-55.9l-26.2 14.6c-1.4 0.8-24.5 13.6-52.5 25.3 63.8-3.8 171.8-21.9 184.9-99.1 6.7-39.2-1.4-69.1-24.2-88.9-35.4-30.8-98-29.7-144.4-15-52.6 16.7-91.3 65.6-84.5 106.8 6.2 37.4 48.7 58.3 116.9 56.9zm-117.7 53.8zm-1.7-13.1q0 0 0 0z"/>
			</g>
			<g id="&lt;Group&gt;">
				<path id="&lt;Path&gt;" class="s3" d="m1767.3 2964.1h-291.2c-22.2 0-40.3-14-40.3-31.2v-225.4c0-16.2 16.2-29.7 37.1-31l310.3-19.4c24.4-1.5 44.9 14 43.5 32.9l-19.1 244.8c-1.3 16.4-18.9 29.3-40.3 29.3z"/>
				<path id="&lt;Path&gt;" class="s9" d="m1517.6 2919.2c-8.1 0-15.6-2.8-20.9-7.9-4.4-4.1-6.7-9.4-6.7-14.9v-144.5c0-3.6 2.8-6.4 6.4-6.4 3.5 0 6.4 2.8 6.4 6.4v144.5c0 2.5 1.5 4.5 2.7 5.7 3.1 2.9 8 4.5 13.1 4.3l221.9-10.2c7.6-0.4 13.9-4.9 13.9-10v-141.9c0-2.6-1.6-4.6-2.9-5.8-3.3-3-8.3-4.6-13.6-4.2l-184.6 14.1c-7.5 0.6-11.6 4.5-12.8 7.6-1 2.6-0.4 5.3 1.9 7.7l70.4 74.9c2.7 3 7.4 4.8 12.3 4.8 5.1-0.1 9.8-1.7 12.7-4.6l77.5-79.8c2.5-2.5 6.5-2.5 9-0.1 2.6 2.5 2.6 6.5 0.2 9.1l-77.6 79.7c-5.3 5.5-13.2 8.5-21.9 8.5-8.5 0-16.4-3.3-21.6-8.8l-70.4-75c-5.6-5.9-7.2-13.8-4.4-21 3.4-8.8 12.5-14.9 23.8-15.7l184.5-14.1c8.8-0.7 17.5 2.1 23.3 7.5 4.5 4.2 7 9.6 7 15.2v141.9c0 12.1-11.5 22.1-26.2 22.8l-221.8 10.2q-0.8 0-1.6 0z"/>
			</g>
			<g id="&lt;Group&gt;">
				<path id="&lt;Path&gt;" class="s19" d="m909.7 1830.6l-15 226.7c0 0-72.9 129.8-145.9 91.2-32.6-17.1-38.2-38.9-34.4-57.7 3.9-19.6-9-38.5-28.4-43.3-26.5-6.5-51.7-25.2-44.6-74.6 9.2-64.8 66.6-84.1 103.9-89.9 15-2.3 26.1-14.3 28-29.3 3.6-29.2 40.1-31.1 45-45.9 6.1-18.4 39.1-34.5 39.1-34.5z"/>
				<path id="&lt;Path&gt;" class="s20" d="m1263.5 1752.3c-54.8 171.7-268.1 349.6-268.1 349.6-26.1-11-59.9-107.2-59.9-107.2 173.4-44.5 319.2-275.1 319.2-275.1z"/>
				<path id="&lt;Path&gt;" class="s21" d="m557.3 3194.5l-4.8 38.8c-0.9 7.4-6.7 13.2-14 14-12.5 1.5-32.5 2.9-52 0.9-8.6-1-14.2-9.6-11.6-17.9 4.8-15 13.5-37.5 26.1-50.7h43.1c8 0 14.1 6.9 13.2 14.9z"/>
				<path id="&lt;Path&gt;" class="s22" d="m894.7 2739.4l7.3 42.8c0 0-24.3 246.7-28.7 345.4-0.6 15.5 3.4 30.8 11.5 43.9l42.3 68.8-107.6-63.5-2.1-13.1 17.6-24.3-23.1-276.3c-1.4-16.3 2-32.5 9.6-46.9l22.3-41.8z"/>
				<path id="&lt;Path&gt;" class="s23" d="m934.2 3250.3h-34.3c-6.5 0-12.5-3-16.4-8.1-10.8-13.9-32.9-41-43.5-41.7-14.3-1-12.5 49.8-12.5 49.8h-8l-10.1-63.1c-2.6-15.9 5.3-31.6 19.6-39 0 0 3.2 24.1 20.9 34.8 17.7 10.7 72 48.9 72 48.9 0 0 6.7-1 14 0.4 10.8 1.9 9.3 18-1.7 18z"/>
				<path id="&lt;Path&gt;" class="s24" d="m747.3 2759.8c0 0-142.6 270.6-165.3 332.4-22.7 61.8-30.7 113.3-31 118.2-0.4 7.6-9.9 15-36.1 15-13.5 0-20.1-5.4-23.3-10.7-2.8-4.4-2.9-10-0.6-14.7 8.3-16.8 34.5-70.1 44.2-94.3 11.5-28.9 36.5-159.9 50.1-205.5 13.7-45.5 29.1-94.9 88.6-140.4 0 0 40.9-40 73.4 0z"/>
				<path id="&lt;Path&gt;" class="s25" d="m837.5 2316.3c36.8-156-56.5-244.2-56.5-244.2 58.9-56.4 166.1-82.1 166.1-82.1 0 0 102.2 74.7 90.1 133.3-7.1 34.3-71.9 205.4-71.9 205.4 0 0-59.9 28.4-127.8-12.4z"/>
				<path id="&lt;Path&gt;" class="s26" d="m755.9 2393.5c14.9-45.1 81.6-77.2 81.6-77.2 67.9 40.8 127.8 12.4 127.8 12.4 0 0 13.4 51.4 4.2 99.1-9.3 47.7-67.5 354.4-67.5 354.4-91.6 18.6-232.6-18.7-232.6-18.7 58.4-103.6 71.5-324.9 86.5-370z"/>
				<path id="&lt;Path&gt;" class="s27" d="m903.3 1875.5l24.8 11c6.8 3.1 10.8 10.2 9.8 17.6l-12.9 93.2c-0.2 1.8-0.7 3.5-1.5 5.1-8.5 15.2-33.7 22.9-53.3 26.6-12 2.2-22.8 4.1-19.9-7.7l29.9-134.4c2.4-10.2 13.5-15.6 23.1-11.4z"/>
				<g id="&lt;Group&gt;">
					<path id="&lt;Path&gt;" class="s28" d="m937.5 1764.4c0 0 31.9 21.5 45.5 76.5 13.7 54.9-8.5 74.6-31.3 73.4-22.8-1.2-55.9-8.3-84.5-47.7-28.7-39.4 28.6-128.6 70.3-102.2z"/>
					<path id="&lt;Path&gt;" class="s29" d="m891.6 1845.8c0 0-11.2-18.1-19.9-6.7-8.6 11.4 1.8 38.1 1.8 38.1 0 0-17.1 26.4-39.9-4.4-22.8-30.8-12.9-65.6 14.3-115.2 27.1-49.5 76.2-56.5 111.6-29.3 35.4 27.2 3.4 63.3 3.4 63.3l-13.2-13.8c-65.3-12-53.6 66.7-53.6 66.7z"/>
					<path id="&lt;Path&gt;" class="s30" d="m879.4 1869c-11.3-8.9-39.4-35.1-18.7-46.7 20.7-11.6 26.4 28.9 26.4 28.9z"/>
				</g>
				<g id="&lt;Group&gt;">
					<path id="&lt;Path&gt;" class="s31" d="m1253.7 1767.1c0.4 4.7-17.3 8-22.9-12.3 1.6-8.8 4.3-47.3 11.1-53.3 35.9-31.9 100-67.8 100-67.8 7.2 10.9-2.2 18.1-2.2 18.1l-32 21.6c3.3 11.1 8.2 20.9 8.7 33.5 0.5 9.6-3.1 18.9-9.4 26.2-6.4 7.2-15 16.6-22.7 23.8-14.6 13.5-30.6 10.2-30.6 10.2z"/>
					<path id="&lt;Path&gt;" class="s32" d="m1271.1 1751.3l-4.9-2c0.6-1.6 16-38.9 23.4-46.6 2.8-3 4.2-5.5 4.1-7.5q-0.1-1.7-1.7-3.3l-25.9 13.8-11.4 17.9-4.5-2.8 12.2-19.1 30.4-16.2 1.3 1.1c3.1 2.5 4.7 5.2 4.9 8.2 0.2 3.7-1.6 7.4-5.6 11.5-5.6 5.9-18 34.5-22.3 45z"/>
				</g>
				<g id="&lt;Group&gt;">
					<path id="&lt;Path&gt;" class="s33" d="m859.4 2386.8c0-6.6 5.4-11.9 12-11.9l267.3-0.3c6.6-0.1 12 5.3 12 11.8 0 6.6-5.3 11.9-11.9 11.9l-267.4 0.3q-0.3 0-0.6 0c-6.3-0.3-11.3-5.5-11.4-11.8z"/>
					<path id="&lt;Path&gt;" class="s34" d="m1395.6 2182.5l-79.8 199.8c-3.9 9.7-13.4 16.1-24 16.1h-276.7l103-215.9c7-14.7 21.9-24.1 38.3-24.1h222.7c12.5 0 21.1 12.5 16.5 24.1z"/>
					<path id="&lt;Path&gt;" class="s3" d="m1247.6 2247.6c9.3 2.9 12.8 17.3 8 32.2-4.8 14.8-16.2 24.4-25.4 21.5-9.2-2.9-12.8-17.3-8-32.2 4.8-14.8 16.2-24.4 25.4-21.5z"/>
				</g>
				<path id="&lt;Path&gt;" class="s35" d="m829.7 2152.1c-7.2 30.6-30 62.3-48.2 93-6 10.2-3.9 23.3 5.1 31 22.9 19.5 57.2 63.3 83.6 74.6 33.3-30.2 61.3-19.3 102 23.9h-96.7c-65.6 0-134.4-43.2-154.6-74.9-23-27.3 23.3-190.4 59.7-227.2 24.1 2.5 50.7 43.7 49.1 79.6z"/>
			</g>
			<g id="&lt;Group&gt;">
				<path id="&lt;Path&gt;" class="s36" d="m2966.1 2863.7c0 0 0 60.5 0 66 0 59.2-86.9 7.4-102.1 4.4-4.4-0.9 102.1-70.4 102.1-70.4z"/>
				<path id="&lt;Path&gt;" class="s37" d="m2566.4 3241.1c0 5.2-68.7 7.2-103.8 8-3.3 0-6.3-1.9-7.5-4.9-1.3-3-0.4-6.4 2-8.5 14.2-12.3 36.2-28.9 54.9-32.1 26.8-2.5 47 14.3 47 14.3 0 0 7.4 16.2 7.4 23.2z"/>
				<path id="&lt;Path&gt;" class="s38" d="m2572.9 3188.3l-16.1 30.5c0 0-36.4 3-35.2-11.4 1.2-14.3 10.2-31.6 10.2-31.6z"/>
				<path id="&lt;Path&gt;" class="s39" d="m2976.7 3237.4c-6.8 7.8-16.6 12.2-26.9 11.9-207.3-6.1-232.4-216.9-259.3-305.2-9.6 121-114.2 262.7-114.2 262.7l-54.7-14.9c0 0 82.1-301.3 110.7-345.5 28.7-44.2 330.9 140.8 330.9 140.8 0 0-4.1 84 21.2 221.9 1.8 10.1-1 20.5-7.7 28.3z"/>
				<path id="&lt;Path&gt;" class="s40" d="m2379.6 3205.6l-33.4 31.7-26.3-26.3 34.6-40z"/>
				<path id="&lt;Path&gt;" class="s41" d="m3115 2519.2l27.9 102.8c1.3 4.7-0.3 9.8-4 12.6-13.4 10.2-48.5 30.4-96.7 10.8-5.5-2.3-9.3-8-9.8-14.4l-6.6-89.6z"/>
				<g id="&lt;Group&gt;">
					<path id="&lt;Path&gt;" class="s42" d="m3092.4 2384.4l37.9 128.1c-30.5 70.3-104.4 86.5-138.8 53.8-34.4-32.8-39.8-130-39.8-130z"/>
					<path id="&lt;Path&gt;" class="s43" d="m3081.5 2471.6c-2.9 0.7-5.7-1.4-5.9-4.3-0.6-9-2.4-26.8-8.1-39.4 0 0 4.6-12.3-32.4 3.7-37.1 16.1-92.6 39.5-122.5 20.2-29.1-18.9-53-103.3 26.3-81.2 3 0.8 6.1-1.4 6.1-4.5 0.2-13.6 4.1-44.4 36.3-51.6 30.1-6.8 45 7.8 50.9 16.3 1.8 2.5 5.4 2.8 7.4 0.5 9.8-10.7 35.7-33 69.5-14.6 27.8 15.2 30.8 33.4 29.3 44.5-0.4 3.6 3 6.3 6.4 5.1 9.2-3.3 23.6-4.2 35.8 14 16.9 25.2-11.8 43.4-20.4 48.1-1.4 0.8-2.3 2.2-2.5 3.8-1.1 12.2-5.4 67-34.8 94.9-2.6 2.4-9 0-10.1-3.4l-16.5-51c-0.7-2.4-3.2-3.8-5.6-3.2z"/>
					<path id="&lt;Path&gt;" class="s44" d="m3077.4 2478.6c0 0 17-50.4 34.8-32 17.7 18.3-9.6 53-32.2 58.1z"/>
				</g>
				<path id="&lt;Path&gt;" class="s45" d="m2334.2 3246.8c-26.3 1.6-78.2 1.1-109.8 0.6-4.1-0.1-7.7-2.9-8.7-6.9-1.1-3.9 0.6-8.1 4.1-10.2 16.2-9.7 40.2-19.2 68.1-14.9l32-8.6c0 0 34.4 15.1 42.6 15 17.1 23.8 11.1 22.7-28.3 25z"/>
				<path id="&lt;Path&gt;" class="s46" d="m2627.6 2889.1l-92.1-10.2c-7.4-0.8-13.8-5.8-16.3-12.9l-77.4-220.5c-3.2-8.9 3.9-18.2 13.4-17.6l93.5 6.4c9.8 0.7 18.1 7.4 21 16.8l69.2 230.9z"/>
				<path id="&lt;Path&gt;" class="s47" d="m2618.8 2880.8c-0.2-4.9 3.5-9 8.3-9.3l196.2-9.9c4.8-0.3 8.9 3.5 9.2 8.4 0.2 4.8-3.5 8.9-8.3 9.2l-196.2 9.9q-0.2 0-0.4 0c-4.7 0-8.6-3.6-8.8-8.3z"/>
				<path id="&lt;Path&gt;" class="s48" d="m2979.3 2971c-179.4 0-265.1-104.1-265.1-104.1l-61.8 1.3c0 0 23.2-43.6 55.2-46.8 32-3.2 63.1 25.4 63.1 25.4 110.1 64 148.5 14.5 148.5 14.5 24.1 36 65.1 69.8 60.1 109.7z"/>
				<path id="&lt;Path&gt;" class="s49" d="m3247.9 2883c0 0-15.2 209.5-114.6 282.7-109.2-25.5-199.3-115-199.3-115 0 0 18.1-15.6 26.8-93.8 0 0-7.8-21.5-53.9-87 20.4-9.1 51.2-103.4 65.2-151.6 6.3-21.5 16.9-40.9 31.7-57.7 18.3-20.8 44.3-45.6 67.7-50.7 69.5-15.3 184.2 24.8 176.4 273.1z"/>
				<path id="&lt;Path&gt;" class="s50" d="m2960 2959.5c-0.7 0-1.3-0.3-1.7-0.8-0.8-0.9-0.7-2.4 0.2-3.2 0.9-0.7 90.5-79 114.6-179.4 0.3-1.2 1.5-2 2.7-1.7 1.3 0.3 2 1.5 1.7 2.7-24.5 101.9-115.1 181-116.1 181.8-0.4 0.4-0.9 0.6-1.4 0.6z"/>
				<path id="&lt;Path&gt;" class="s51" d="m3133.3 3165.7c0 0-44.8 133-265.7 58.4-107.1-36.1-257.1-245.8-257.1-245.8 0 0-37 101.4-230.3 237.5l-43-38.6c0 0 195.7-337.4 296-302.4 100.3 35 530.7 204.5 500.1 290.9z"/>
				<path id="&lt;Path&gt;" class="s1" d="m2556.2 2651.1l63.8 201.5-80 2.1-75.4-210.1z"/>
			</g>
		</g>
	</g>
</svg>