<svg version="1.2" xmlns="http://www.w3.org/2000/svg" viewBox="0 0 3710 3710" width="3710" height="3710">
	<title>20945365-ai</title>
	<defs>
		<linearGradient id="g1" x1="2401.3" y1="4575.4" x2="513.9" y2="2566.3" gradientUnits="userSpaceOnUse">
			<stop offset="0" stop-color="#dae3fe"/>
			<stop offset="1" stop-color="#e9effd"/>
		</linearGradient>
		<linearGradient id="g2" x1="701.5" y1="1451" x2="3237.5" y2="1451" gradientUnits="userSpaceOnUse">
			<stop offset="0" stop-color="#09005d"/>
			<stop offset="1" stop-color="#1a0f91"/>
		</linearGradient>
		<linearGradient id="g3" x1="3277.9" y1="1746" x2="3102" y2="3443.8" gradientUnits="userSpaceOnUse">
			<stop offset="0" stop-color="#4f52ff"/>
			<stop offset="1" stop-color="#4042e2"/>
		</linearGradient>
		<linearGradient id="g4" x1="889.2" y1="3180.3" x2="954.7" y2="3369.9" gradientUnits="userSpaceOnUse">
			<stop offset="0" stop-color="#09005d"/>
			<stop offset="1" stop-color="#1a0f91"/>
		</linearGradient>
		<linearGradient id="g5" x1="867.9" y1="3058.7" x2="822.6" y2="3048.7" gradientUnits="userSpaceOnUse">
			<stop offset="0" stop-color="#febbba"/>
			<stop offset="1" stop-color="#ff928e"/>
		</linearGradient>
		<linearGradient id="g6" x1="810.8" y1="2764.7" x2="1060.4" y2="2764.7" gradientUnits="userSpaceOnUse">
			<stop offset="0" stop-color="#e1473d"/>
			<stop offset="1" stop-color="#e9605a"/>
		</linearGradient>
		<linearGradient id="g7" x1="928.7" y1="2665.7" x2="898" y2="2931.4" gradientUnits="userSpaceOnUse">
			<stop offset="0" stop-color="#09005d"/>
			<stop offset="1" stop-color="#1a0f91"/>
		</linearGradient>
		<linearGradient id="g8" x1="866" y1="3161.6" x2="745.7" y2="3135" gradientUnits="userSpaceOnUse">
			<stop offset="0" stop-color="#4f52ff"/>
			<stop offset="1" stop-color="#4042e2"/>
		</linearGradient>
		<linearGradient id="g9" x1="891.7" y1="3111" x2="849.7" y2="3101.7" gradientUnits="userSpaceOnUse">
			<stop offset="0" stop-color="#febbba"/>
			<stop offset="1" stop-color="#ff928e"/>
		</linearGradient>
		<linearGradient id="g10" x1="846.1" y1="2751.7" x2="1192.7" y2="2751.7" gradientUnits="userSpaceOnUse">
			<stop offset="0" stop-color="#e1473d"/>
			<stop offset="1" stop-color="#e9605a"/>
		</linearGradient>
		<linearGradient id="g11" x1="1257.1" y1="2019.3" x2="1075.7" y2="2427.4" gradientUnits="userSpaceOnUse">
			<stop offset="0" stop-color="#ff928e"/>
			<stop offset="1" stop-color="#fe7062"/>
		</linearGradient>
		<linearGradient id="g12" x1="841.9" y1="2605.7" x2="692.3" y2="2572.6" gradientUnits="userSpaceOnUse">
			<stop offset="0" stop-color="#febbba"/>
			<stop offset="1" stop-color="#ff928e"/>
		</linearGradient>
		<linearGradient id="g13" x1="1441.4" y1="2194.2" x2="1284.8" y2="2546.6" gradientUnits="userSpaceOnUse">
			<stop offset="0" stop-color="#ff928e"/>
			<stop offset="1" stop-color="#fe7062"/>
		</linearGradient>
		<linearGradient id="g14" x1="1068.5" y1="2362.5" x2="970" y2="2340.7" gradientUnits="userSpaceOnUse">
			<stop offset="0" stop-color="#febbba"/>
			<stop offset="1" stop-color="#ff928e"/>
		</linearGradient>
		<linearGradient id="g15" x1="1506" y1="2147.2" x2="1323.1" y2="2558.7" gradientUnits="userSpaceOnUse">
			<stop offset="0" stop-color="#ff928e"/>
			<stop offset="1" stop-color="#fe7062"/>
		</linearGradient>
		<linearGradient id="g16" x1="1430.7" y1="2381.9" x2="1153.4" y2="3027.3" gradientUnits="userSpaceOnUse">
			<stop offset="0" stop-color="#febbba"/>
			<stop offset="1" stop-color="#ff928e"/>
		</linearGradient>
		<linearGradient id="g17" x1="874" y1="2347.6" x2="998.4" y2="2533" gradientUnits="userSpaceOnUse">
			<stop offset="0" stop-color="#febbba"/>
			<stop offset="1" stop-color="#ff928e"/>
		</linearGradient>
		<linearGradient id="g18" x1="1016.3" y1="2251.1" x2="870.7" y2="2242.9" gradientUnits="userSpaceOnUse">
			<stop offset="0" stop-color="#09005d"/>
			<stop offset="1" stop-color="#1a0f91"/>
		</linearGradient>
		<linearGradient id="g19" x1="1098.1" y1="2411.1" x2="1022.4" y2="2324.1" gradientUnits="userSpaceOnUse">
			<stop offset="0" stop-color="#febbba"/>
			<stop offset="1" stop-color="#ff928e"/>
		</linearGradient>
		<linearGradient id="g20" x1="994.3" y1="1830.9" x2="989.8" y2="2138.7" gradientUnits="userSpaceOnUse">
			<stop offset="0" stop-color="#09005d"/>
			<stop offset="1" stop-color="#1a0f91"/>
		</linearGradient>
		<linearGradient id="g21" x1="849.6" y1="1824.4" x2="845.1" y2="2133.7" gradientUnits="userSpaceOnUse">
			<stop offset="0" stop-color="#09005d"/>
			<stop offset="1" stop-color="#1a0f91"/>
		</linearGradient>
		<linearGradient id="g22" x1="2413" y1="2010" x2="1881.3" y2="1583.3" gradientUnits="userSpaceOnUse">
			<stop offset="0" stop-color="#febbba"/>
			<stop offset="1" stop-color="#ff928e"/>
		</linearGradient>
		<linearGradient id="g23" x1="2216.2" y1="1596" x2="2379.5" y2="1991.4" gradientUnits="userSpaceOnUse">
			<stop offset="0" stop-color="#09005d"/>
			<stop offset="1" stop-color="#1a0f91"/>
		</linearGradient>
		<linearGradient id="g24" x1="2280.3" y1="1222.5" x2="1031.9" y2="441" gradientUnits="userSpaceOnUse">
			<stop offset="0" stop-color="#febbba"/>
			<stop offset="1" stop-color="#ff928e"/>
		</linearGradient>
		<linearGradient id="g25" x1="2271.7" y1="1684" x2="2511.5" y2="2037.8" gradientUnits="userSpaceOnUse">
			<stop offset="0" stop-color="#09005d"/>
			<stop offset="1" stop-color="#1a0f91"/>
		</linearGradient>
		<linearGradient id="g26" x1="2944.9" y1="1549.7" x2="2658.3" y2="1141.1" gradientUnits="userSpaceOnUse">
			<stop offset="0" stop-color="#4f52ff"/>
			<stop offset="1" stop-color="#4042e2"/>
		</linearGradient>
		<linearGradient id="g27" x1="2317.4" y1="891" x2="2727.7" y2="1412" gradientUnits="userSpaceOnUse">
			<stop offset="0" stop-color="#09005d"/>
			<stop offset="1" stop-color="#1a0f91"/>
		</linearGradient>
		<linearGradient id="g28" x1="2370.3" y1="1100.6" x2="2410.8" y2="1250.7" gradientUnits="userSpaceOnUse">
			<stop offset="0" stop-color="#febbba"/>
			<stop offset="1" stop-color="#ff928e"/>
		</linearGradient>
		<linearGradient id="g29" x1="-2265.6" y1="-9383.4" x2="-2170.9" y2="-9177.1" gradientUnits="userSpaceOnUse">
			<stop offset="0" stop-color="#ff928e"/>
			<stop offset="1" stop-color="#fe7062"/>
		</linearGradient>
		<linearGradient id="g30" x1="2527.4" y1="1114.6" x2="2535.4" y2="989.8" gradientUnits="userSpaceOnUse">
			<stop offset="0" stop-color="#febbba"/>
			<stop offset="1" stop-color="#ff928e"/>
		</linearGradient>
		<linearGradient id="g31" x1="2535.5" y1="1028" x2="2402.7" y2="773.7" gradientUnits="userSpaceOnUse">
			<stop offset="0" stop-color="#febbba"/>
			<stop offset="1" stop-color="#ff928e"/>
		</linearGradient>
		<linearGradient id="g32" x1="2403.2" y1="846.3" x2="2773.8" y2="1317" gradientUnits="userSpaceOnUse">
			<stop offset="0" stop-color="#09005d"/>
			<stop offset="1" stop-color="#1a0f91"/>
		</linearGradient>
		<linearGradient id="g33" x1="2617.2" y1="995.3" x2="2476.9" y2="726.7" gradientUnits="userSpaceOnUse">
			<stop offset="0" stop-color="#febbba"/>
			<stop offset="1" stop-color="#ff928e"/>
		</linearGradient>
		<linearGradient id="g34" x1="2557.4" y1="1142.3" x2="2297.4" y2="1142.3" gradientUnits="userSpaceOnUse">
			<stop offset="0" stop-color="#febbba"/>
			<stop offset="1" stop-color="#ff928e"/>
		</linearGradient>
		<linearGradient id="g35" x1="2479.4" y1="1143.3" x2="2445.4" y2="1209.6" gradientUnits="userSpaceOnUse">
			<stop offset="0" stop-color="#09005d"/>
			<stop offset="1" stop-color="#1a0f91"/>
		</linearGradient>
		<linearGradient id="g36" x1="-248.2" y1="-8335.9" x2="-177.3" y2="-8181.4" gradientUnits="userSpaceOnUse">
			<stop offset="0" stop-color="#ff928e"/>
			<stop offset="1" stop-color="#fe7062"/>
		</linearGradient>
		<linearGradient id="g37" x1="2345.1" y1="1091.2" x2="2376.9" y2="1208.8" gradientUnits="userSpaceOnUse">
			<stop offset="0" stop-color="#febbba"/>
			<stop offset="1" stop-color="#ff928e"/>
		</linearGradient>
		<linearGradient id="g38" x1="3037.4" y1="2727.3" x2="3011" y2="2978.2" gradientUnits="userSpaceOnUse">
			<stop offset="0" stop-color="#febbba"/>
			<stop offset="1" stop-color="#ff928e"/>
		</linearGradient>
		<linearGradient id="g39" x1="3043.1" y1="2419.1" x2="2963" y2="2898.3" gradientUnits="userSpaceOnUse">
			<stop offset="0" stop-color="#febbba"/>
			<stop offset="1" stop-color="#ff928e"/>
		</linearGradient>
		<linearGradient id="g40" x1="2872.7" y1="2565.8" x2="2903.2" y2="2621.6" gradientUnits="userSpaceOnUse">
			<stop offset="0" stop-color="#febbba"/>
			<stop offset="1" stop-color="#ff928e"/>
		</linearGradient>
		<linearGradient id="g41" x1="2670.7" y1="3178.4" x2="2600.6" y2="3266.4" gradientUnits="userSpaceOnUse">
			<stop offset="0" stop-color="#09005d"/>
			<stop offset="1" stop-color="#1a0f91"/>
		</linearGradient>
		<linearGradient id="g42" x1="2655.1" y1="3137.9" x2="2671.4" y2="3175.1" gradientUnits="userSpaceOnUse">
			<stop offset="0" stop-color="#febbba"/>
			<stop offset="1" stop-color="#ff928e"/>
		</linearGradient>
		<linearGradient id="g43" x1="2477.1" y1="3144.3" x2="2497.2" y2="3190.2" gradientUnits="userSpaceOnUse">
			<stop offset="0" stop-color="#febbba"/>
			<stop offset="1" stop-color="#ff928e"/>
		</linearGradient>
		<linearGradient id="g44" x1="3024.7" y1="2629.9" x2="3022.4" y2="2756.4" gradientUnits="userSpaceOnUse">
			<stop offset="0" stop-color="#febbba"/>
			<stop offset="1" stop-color="#ff928e"/>
		</linearGradient>
		<linearGradient id="g45" x1="2985.2" y1="2460.2" x2="2871.3" y2="2588.1" gradientUnits="userSpaceOnUse">
			<stop offset="0" stop-color="#febbba"/>
			<stop offset="1" stop-color="#ff928e"/>
		</linearGradient>
		<linearGradient id="g46" x1="2979" y1="2242.2" x2="2849.9" y2="2486" gradientUnits="userSpaceOnUse">
			<stop offset="0" stop-color="#09005d"/>
			<stop offset="1" stop-color="#1a0f91"/>
		</linearGradient>
		<linearGradient id="g47" x1="3058.9" y1="2539.3" x2="3026.8" y2="2575.4" gradientUnits="userSpaceOnUse">
			<stop offset="0" stop-color="#febbba"/>
			<stop offset="1" stop-color="#ff928e"/>
		</linearGradient>
		<linearGradient id="g48" x1="3040.7" y1="2733" x2="3103" y2="3143.7" gradientUnits="userSpaceOnUse">
			<stop offset="0" stop-color="#febbba"/>
			<stop offset="1" stop-color="#ff928e"/>
		</linearGradient>
		<linearGradient id="g49" x1="3686.8" y1="2723.2" x2="3524" y2="2849.5" gradientUnits="userSpaceOnUse">
			<stop offset="0" stop-color="#ff928e"/>
			<stop offset="1" stop-color="#fe7062"/>
		</linearGradient>
		<linearGradient id="g50" x1="2459.9" y1="3134.3" x2="2484.6" y2="3220.9" gradientUnits="userSpaceOnUse">
			<stop offset="0" stop-color="#09005d"/>
			<stop offset="1" stop-color="#1a0f91"/>
		</linearGradient>
		<linearGradient id="g51" x1="3100.9" y1="1996.3" x2="3199.6" y2="2954.8" gradientUnits="userSpaceOnUse">
			<stop offset="0" stop-color="#e1473d"/>
			<stop offset="1" stop-color="#e9605a"/>
		</linearGradient>
		<linearGradient id="g52" x1="2716.1" y1="2600.6" x2="3022.9" y2="2785.3" gradientUnits="userSpaceOnUse">
			<stop offset="0" stop-color="#09005d"/>
			<stop offset="1" stop-color="#1a0f91"/>
		</linearGradient>
		<linearGradient id="g53" x1="2810.5" y1="2522.2" x2="2825.9" y2="2529.2" gradientUnits="userSpaceOnUse">
			<stop offset="0" stop-color="#8d55d1"/>
			<stop offset="1" stop-color="#1c2873"/>
		</linearGradient>
		<linearGradient id="g54" x1="2839.8" y1="2758.7" x2="2902.3" y2="3170.6" gradientUnits="userSpaceOnUse">
			<stop offset="0" stop-color="#febbba"/>
			<stop offset="1" stop-color="#ff928e"/>
		</linearGradient>
		<linearGradient id="g55" x1="3054.7" y1="2103.7" x2="3139.7" y2="2928.8" gradientUnits="userSpaceOnUse">
			<stop offset="0" stop-color="#e1473d"/>
			<stop offset="1" stop-color="#e9605a"/>
		</linearGradient>
		<linearGradient id="g56" x1="2895.3" y1="2591.3" x2="2912.5" y2="2591.3" gradientUnits="userSpaceOnUse">
			<stop offset="0" stop-color="#febbba"/>
			<stop offset="1" stop-color="#ff928e"/>
		</linearGradient>
	</defs>
	<style>
		.s0 { fill: url(#g1) } 
		.s1 { fill: #91b3fa } 
		.s2 { opacity: .2;fill: #ffffff } 
		.s3 { fill: #ffffff } 
		.s4 { mix-blend-mode: soft-light;fill: #ffffff } 
		.s5 { fill: url(#g2) } 
		.s6 { fill: url(#g3) } 
		.s7 { opacity: .1;fill: #ffffff } 
		.s8 { opacity: .7;fill: #ffffff } 
		.s9 { fill: #bdd0fb } 
		.s10 { fill: #7d97f4 } 
		.s11 { fill: url(#g4) } 
		.s12 { fill: url(#g5) } 
		.s13 { fill: url(#g6) } 
		.s14 { fill: url(#g7) } 
		.s15 { fill: url(#g8) } 
		.s16 { fill: url(#g9) } 
		.s17 { fill: url(#g10) } 
		.s18 { fill: url(#g11) } 
		.s19 { fill: url(#g12) } 
		.s20 { fill: url(#g13) } 
		.s21 { fill: url(#g14) } 
		.s22 { fill: url(#g15) } 
		.s23 { fill: url(#g16) } 
		.s24 { fill: url(#g17) } 
		.s25 { fill: url(#g18) } 
		.s26 { fill: url(#g19) } 
		.s27 { fill: url(#g20) } 
		.s28 { fill: url(#g21) } 
		.s29 { fill: url(#g22) } 
		.s30 { fill: url(#g23) } 
		.s31 { fill: url(#g24) } 
		.s32 { fill: url(#g25) } 
		.s33 { fill: url(#g26) } 
		.s34 { fill: url(#g27) } 
		.s35 { fill: url(#g28) } 
		.s36 { fill: url(#g29) } 
		.s37 { fill: url(#g30) } 
		.s38 { fill: url(#g31) } 
		.s39 { fill: url(#g32) } 
		.s40 { fill: url(#g33) } 
		.s41 { fill: url(#g34) } 
		.s42 { fill: url(#g35) } 
		.s43 { fill: url(#g36) } 
		.s44 { opacity: .4;fill: #ffffff } 
		.s45 { fill: url(#g37) } 
		.s46 { fill: url(#g38) } 
		.s47 { fill: url(#g39) } 
		.s48 { fill: url(#g40) } 
		.s49 { fill: url(#g41) } 
		.s50 { fill: url(#g42) } 
		.s51 { fill: url(#g43) } 
		.s52 { fill: url(#g44) } 
		.s53 { fill: url(#g45) } 
		.s54 { fill: url(#g46) } 
		.s55 { fill: url(#g47) } 
		.s56 { fill: url(#g48) } 
		.s57 { fill: url(#g49) } 
		.s58 { fill: url(#g50) } 
		.s59 { fill: url(#g51) } 
		.s60 { fill: url(#g52) } 
		.s61 { fill: url(#g53) } 
		.s62 { fill: url(#g54) } 
		.s63 { fill: url(#g55) } 
		.s64 { fill: url(#g56) } 
	</style>
	<g id="Illustration">
		<g id="&lt;Group&gt;">
			<path id="&lt;Path&gt;" class="s0" d="m2918.3 2849.3c-73.1 75.4-138.6 119.8-188.7 153.2-488.7 326.3-1047.3 232.3-1220 200.1-278.7-51.8-513.9-88.4-716-271-459.2-414.9-436.9-1280.4-86-1816.6 41.6-63.5 392-582.9 951.8-656.1 13.7-1.8 23.9-2.8 32.9-3.7 86.6-9.2 623.3-57.6 1060.9 309 62.6 52.5 163.4 147.2 256.9 291.5 341.8 528 342.9 1345.6-91.8 1793.6z"/>
			<g id="&lt;Group&gt;">
				<path id="&lt;Path&gt;" class="s1" d="m2402.3 1560.9c-21.6 493.2-470.7 874.1-1003.1 850.7-532.4-23.4-946.4-442.1-924.7-935.3 21.6-493.2 470.7-874.1 1003.1-850.7 532.4 23.3 946.4 442.1 924.7 935.3z"/>
				<path id="&lt;Path&gt;" class="s2" d="m2143.3 1454.1c0 395-339 715.2-757.1 715.2-418.2 0-757.1-320.2-757.1-715.2 0-395 338.9-715.2 757.1-715.2 418.1 0 757.1 320.2 757.1 715.2z"/>
				<g id="&lt;Group&gt;" style="opacity: .7">
					<g id="&lt;Group&gt;" style="mix-blend-mode: soft-light">
						<path id="&lt;Compound Path&gt;" fill-rule="evenodd" class="s3" d="m1685.5 1522.9c0 0 0 14.8-0.4 42.5-0.3 27.7-1.2 68.4-3.9 120.1-2.7 51.7-7.3 114.4-16.2 186-8.9 71.6-21.6 152.1-43.4 238.3-11 43-24.3 87.5-42.1 132.1-9 22.3-19.2 44.6-31.4 66.2-12.3 21.6-26.5 42.9-45.3 60.9-9.4 9-20 17-32.2 22.6-12.1 5.7-25.9 8.4-39.5 6.9-13.7-1.3-26.7-6.7-38-14.2-11.4-7.4-21.4-16.8-30.3-27-17.9-20.5-32-44-44.3-68.4-12.4-24.5-22.8-50.1-32.2-76.3-18.7-52.4-33.1-107.1-45-163-11.9-55.8-21.2-112.9-28.6-170.7-14.7-115.6-21.6-234-22.3-352.3-0.1-59.1 1.9-118.3 5.1-177.1 3.3-58.9 8.1-117.4 14.8-175.2 6.7-57.9 15.1-115.1 26.1-171.1 11-56 24.3-111 42-163.7 8.8-26.3 18.8-52.1 30.6-76.7 11.9-24.6 25.4-48.4 42.9-69 8.8-10.2 18.5-19.7 29.8-27.1 11.1-7.4 24-12.6 37.4-13.8 3.2-0.3 6.7-0.4 9.9-0.3 3.4 0.2 6.7 0.6 10 1.2 6.5 1.1 12.8 3.2 18.8 5.9 12.1 5.3 22.7 13.1 32.2 21.7 18.9 17.5 33.7 38.3 46.5 59.5 12.8 21.3 23.5 43.2 33 65.2 19 44.1 33.3 88.2 45.2 131 23.7 85.6 37.7 166 47.6 237.4 4.9 35.7 8.7 69.2 11.7 100.3 2.8 31.1 4.9 59.7 6.5 85.5 3 51.7 4.1 92.4 4.5 120.1 0.5 27.7 0.5 42.5 0.5 42.5zm-12.9 0c0 0 0.2-14.7-0.2-42.3-0.3-27.6-1.2-68.1-4-119.6-1.4-25.7-3.4-54.2-6.1-85.2-2.6-30.9-6-64.3-10.5-99.9-4.6-35.6-10.2-73.4-17.4-113-7.3-39.6-16.1-81.1-27.4-123.7-11.3-42.7-25-86.7-43.3-130.6-9.1-21.9-19.5-43.8-31.9-64.9-12.4-21.1-26.7-41.7-44.9-58.9-9.1-8.6-19.3-16.1-30.7-21.4-11.5-5.3-24.1-8.1-36.8-6.7-12.6 1.3-24.7 6.4-35.3 13.6-10.7 7.3-20.1 16.5-28.5 26.6-16.8 20.3-29.9 43.9-41.4 68.3-11.3 24.6-20.9 50.2-29.4 76.4-16.8 52.5-29.5 107.4-39.7 163.2-10.3 55.9-18 113-24 170.7-12 115.3-16.4 233.3-16 351.1-0.3 117.8 5.6 235.7 19.3 350.8 6.8 57.6 15.6 114.5 26.9 170.1 11.4 55.7 25.2 110.1 43.3 162.2 9.1 26 19.2 51.4 31.2 75.5 11.9 24.2 25.6 47.3 42.6 67.2 8.5 9.9 18 18.9 28.6 26 10.6 7 22.4 12 34.8 13.3 12.3 1.4 24.7-1.2 35.9-6.5 11.1-5.2 21.1-12.9 30-21.5 17.8-17.3 31.5-38.2 43.4-59.5 11.8-21.4 21.6-43.4 30.3-65.5 17.3-44.2 30-88.5 40.6-131.3 10.5-42.9 18.6-84.4 25.3-124.1 6.7-39.7 11.8-77.5 16-113.2 4.2-35.6 7.3-69.1 9.7-100.1 2.5-30.9 4.3-59.4 5.6-85.1 2.6-51.5 3.4-92 3.8-119.6 0.3-27.7 0.2-42.4 0.2-42.4z"/>
					</g>
					<g id="&lt;Group&gt;" style="mix-blend-mode: soft-light">
						<path id="&lt;Compound Path&gt;" fill-rule="evenodd" class="s3" d="m2083.3 1523c0 0-0.1 4.8-0.3 14q-0.2 6.8-0.4 17c-0.1 6.8-0.2 14.6-0.9 23.5q-0.7 13.5-1.7 30c-0.7 11-2.2 22.8-3.3 35.7-1.1 12.9-3.2 26.7-5.2 41.4-1.8 14.8-4.8 30.3-7.7 46.7-0.7 4.1-1.4 8.3-2.2 12.4q-1.4 6.3-2.8 12.7-2.8 12.9-5.7 26.4-3.5 13.4-7.1 27.4-1.8 7-3.6 14.1-2.2 7.1-4.3 14.3c-11.2 38.6-26.2 79.5-45 122-18.8 42.4-41.9 86.3-70.4 129.9-28.4 43.6-62.4 87-102.7 127.5-40.1 40.8-87.5 77.7-140.8 108.5-6.5 4.1-13.5 7.4-20.4 11.1q-5.2 2.7-10.4 5.3l-5.2 2.7c-1.7 0.9-3.5 1.6-5.3 2.4q-10.8 4.8-21.6 9.6c-1.8 0.8-3.6 1.6-5.4 2.4l-5.6 2q-5.6 2.1-11.2 4.2c-14.7 6-30.3 10-45.7 14.8-7.8 2-15.8 3.7-23.7 5.6-4 0.9-7.9 2-11.9 2.6q-6 1-12.1 2-6.1 1.1-12.2 2.1c-4 0.6-8.1 1.4-12.2 1.7q-12.3 1.2-24.7 2.4c-4.1 0.5-8.3 0.5-12.4 0.7q-6.3 0.2-12.5 0.4-6.3 0.2-12.6 0.4c-4.4 0-8.4-0.3-12.6-0.4-8.3-0.3-16.7-0.3-25.1-0.9q-12.7-1.2-25.4-2.5l-6.4-0.6-6.3-1q-6.3-1.1-12.6-2.1-6.4-1-12.7-2.1c-4.2-0.7-8.4-1.9-12.6-2.8-33.7-7-66.8-18.4-99-32.3l-12-5.3-6.1-2.7-5.8-3q-11.8-6.1-23.6-12.2c-15.3-9-30.8-17.7-45.5-28-7.4-4.9-14.9-9.8-22-15.3-7.2-5.4-14.5-10.7-21.5-16.2q-10.4-8.7-20.8-17.4l-5.2-4.3-5-4.6-10-9.3-10-9.2c-3.3-3.2-6.4-6.5-9.6-9.7-6.3-6.6-12.9-12.9-19.1-19.7q-9.1-10.2-18.2-20.5c-3.1-3.4-6-7-8.8-10.6l-8.7-10.7-8.7-10.7c-2.8-3.7-5.5-7.4-8.2-11.1-5.4-7.5-11-14.9-16.3-22.4-10.3-15.4-20.9-30.7-30.2-46.8-9.9-15.7-18.5-32.3-27.6-48.7-4.3-8.2-8.3-16.7-12.5-25.1l-6.2-12.6-5.7-12.8c-3.8-8.6-7.7-17.2-11.4-25.8q-5.2-13.1-10.4-26.3c-3.6-8.7-6.6-17.6-9.7-26.5l-4.7-13.4c-1.6-4.5-3.2-8.9-4.5-13.4-5.5-18.1-11.2-36.2-15.7-54.6l-3.6-13.8-1.8-6.8-1.5-7-6.1-27.8-1.6-7-1.2-7-2.6-14-2.5-14c-0.8-4.7-1.6-9.4-2.2-14.1-2.6-18.9-5.5-37.7-7-56.7-4.2-37.9-5.3-76.1-5.9-114.2l0.6-28.5 0.3-14.2c0.1-4.8 0.5-9.6 0.7-14.3l1.7-28.7c0.7-9.5 1.8-19 2.7-28.5 1.5-19 4.5-37.8 7-56.6 0.6-4.8 1.4-9.4 2.3-14.1l2.5-14.1 2.5-14 1.3-7 1.5-7 6.1-27.8 1.6-6.9 1.8-6.9 3.6-13.7c4.5-18.5 10.2-36.5 15.8-54.6 1.3-4.5 2.9-8.9 4.5-13.4l4.6-13.4c3.2-8.9 6.2-17.8 9.8-26.5q5.2-13.1 10.4-26.2c3.7-8.7 7.6-17.2 11.4-25.8l5.7-12.9 6.2-12.6c4.2-8.3 8.3-16.8 12.6-25.1 9-16.3 17.7-32.8 27.6-48.6 9.3-16 19.9-31.3 30.2-46.7 5.3-7.5 10.9-14.9 16.3-22.3 2.8-3.7 5.4-7.5 8.2-11.1l8.7-10.8 8.7-10.7c2.8-3.6 5.7-7.1 8.8-10.5q9.2-10.3 18.3-20.5c6.1-6.7 12.7-13.1 19-19.6 3.2-3.3 6.3-6.6 9.6-9.7l10-9.3 10-9.2 5-4.6 5.2-4.3q10.4-8.7 20.8-17.4c7-5.5 14.3-10.8 21.5-16.2 7-5.5 14.6-10.3 22-15.3 14.6-10.2 30.2-18.9 45.4-27.8q11.9-6.1 23.6-12.1l5.9-3 6-2.7 12.1-5.3c32.1-13.8 65.2-25.2 98.8-32.3 33.5-7.2 67.4-11.9 101-12.1 4.2-0.1 8.3-0.3 12.6-0.3q6.3 0.2 12.5 0.4 6.2 0.2 12.4 0.4c4.1 0.2 8.2 0.2 12.4 0.7q12.4 1.2 24.7 2.5c4.1 0.3 8.2 1 12.2 1.7q6.1 1 12.1 2 6.1 1 12.1 2c4 0.7 8 1.8 11.9 2.7 7.9 1.8 15.8 3.6 23.7 5.6 15.3 4.8 30.9 8.8 45.6 14.8q5.6 2 11.2 4.1l5.5 2c1.9 0.8 3.7 1.6 5.5 2.4q10.8 4.8 21.5 9.5c1.8 0.8 3.6 1.5 5.4 2.4l5.2 2.7q5.2 2.7 10.3 5.3c6.9 3.6 13.9 6.9 20.4 11 53.4 30.8 100.7 67.6 140.8 108.3 40.3 40.5 74.2 83.8 102.7 127.3 28.5 43.6 51.6 87.5 70.5 129.9 18.8 42.4 33.9 83.3 45 121.9q2.2 7.2 4.3 14.2 1.9 7.2 3.7 14.2 3.6 14 7.1 27.3 2.9 13.5 5.7 26.4 1.4 6.4 2.8 12.7c0.9 4.2 1.5 8.4 2.3 12.5 2.8 16.4 5.9 31.9 7.7 46.6 2 14.7 4.1 28.5 5.2 41.4 1.2 12.9 2.6 24.8 3.3 35.7q1 16.5 1.8 29.9c0.7 8.9 0.7 16.8 0.9 23.6q0.2 10.2 0.4 17.1c0.2 9.2 0.3 14 0.3 14zm-14.7-0.3q0 0 0 0.1 0 0.1 0 0.1zm-0.3-13.7q-0.1-6.9-0.2-16.9c-0.2-6.8-0.2-14.6-0.8-23.4q-0.7-13.2-1.6-29.4c-0.6-10.9-2-22.6-3.1-35.3-1-12.8-3.1-26.4-5-40.9-1.6-14.6-4.6-29.9-7.3-46.2-0.8-4-1.4-8.1-2.2-12.3q-1.3-6.2-2.7-12.5-2.7-12.7-5.6-26.1-3.3-13.2-6.8-27.1-1.7-6.9-3.5-13.9-2.1-7-4.2-14.2c-10.7-38.2-25-78.8-43.1-120.9-18.2-42.1-40.5-85.7-68.2-129.1-27.6-43.4-60.7-86.6-100.1-127.1-39.2-40.6-85.5-77.8-138.2-108.5-6.4-4.1-13.3-7.4-20.1-11q-5.1-2.6-10.2-5.3l-5.1-2.7c-1.8-0.9-3.5-1.6-5.3-2.4q-10.6-4.8-21.3-9.6c-1.8-0.8-3.5-1.6-5.3-2.3l-5.5-2.1q-5.5-2.1-11-4.2c-14.6-6-30-9.9-45.2-14.7-7.7-2-15.5-3.7-23.3-5.6-4-0.9-7.9-2-11.8-2.7q-6-1-12-2-6-1-12-2c-4-0.7-8-1.4-12-1.7q-12.2-1.2-24.4-2.5c-4-0.5-8.2-0.5-12.3-0.7q-6.2-0.2-12.4-0.4-6.2-0.2-12.5-0.4c-3.9 0-8.2 0.2-12.3 0.3-33.2 0.3-66.7 5.1-99.9 12.4-33.2 7-65.8 18.4-97.5 32.4l-11.9 5.4-5.9 2.6-5.8 3.1q-11.6 6-23.2 12.1c-15 9-30.3 17.7-44.7 28-7.3 4.9-14.6 9.8-21.6 15.4-7 5.4-14.1 10.7-21 16.3q-10.1 8.7-20.3 17.4l-5.1 4.3-4.9 4.6-9.7 9.3-9.8 9.2c-3.1 3.2-6.2 6.5-9.3 9.7-6.2 6.6-12.5 13-18.5 19.7q-8.9 10.2-17.8 20.5c-3 3.4-5.8 6.9-8.6 10.5l-8.4 10.7-8.4 10.7c-2.8 3.6-5.3 7.4-8 11.1-5.2 7.4-10.6 14.7-15.8 22.3-9.9 15.3-20.1 30.5-29.1 46.5-9.6 15.6-17.9 32.1-26.6 48.3-4.2 8.3-8 16.6-12.1 25l-6 12.5-5.4 12.7c-3.6 8.5-7.4 17-10.9 25.6q-4.9 13-9.9 26c-3.5 8.6-6.3 17.5-9.3 26.3l-4.4 13.2c-1.5 4.4-3 8.8-4.3 13.3-5.1 17.9-10.7 35.7-15 54l-3.4 13.5-1.7 6.8-1.5 6.9-5.8 27.5-1.5 6.8-1.2 7-2.3 13.8-2.4 13.9c-0.8 4.6-1.6 9.2-2.1 13.9-2.5 18.6-5.3 37.1-6.8 55.8-0.8 9.4-1.9 18.7-2.5 28.1l-1.5 28c-0.3 4.7-0.7 9.3-0.8 14.1l-0.2 14.2-0.5 28.2c0.3 75.2 7.3 150.4 21.9 223.8l5.9 27.5 1.4 6.8 1.8 6.8 3.4 13.6c4.3 18.2 9.9 36 15.1 53.9 1.2 4.5 2.8 8.9 4.2 13.3l4.5 13.2c3 8.8 5.8 17.7 9.3 26.3q5 13 9.9 26c3.5 8.6 7.3 17 10.9 25.6l5.5 12.7 6 12.5c4 8.3 7.9 16.7 12 24.9 8.7 16.2 17 32.7 26.7 48.3 9 16 19.2 31.1 29.1 46.5 5.2 7.5 10.6 14.8 15.8 22.2 2.7 3.7 5.3 7.5 8 11.1l8.5 10.7 8.4 10.7c2.7 3.5 5.5 7.1 8.6 10.5q8.8 10.2 17.7 20.4c6 6.8 12.4 13.1 18.5 19.7 3.1 3.2 6.2 6.5 9.4 9.6l9.7 9.3 9.8 9.2 4.8 4.6 5.1 4.4q10.2 8.7 20.3 17.3c6.9 5.6 14 10.9 21 16.3 6.9 5.5 14.3 10.4 21.6 15.4 14.4 10.2 29.7 18.8 44.7 27.8q11.6 6.1 23.1 12.1l5.8 3 6 2.7 11.8 5.3c31.7 13.9 64.2 25.3 97.4 32.4 4.2 0.9 8.2 2.1 12.4 2.8q6.3 1.1 12.5 2.2 6.2 1 12.4 2.1l6.3 1 6.2 0.7q12.5 1.3 24.9 2.5c8.3 0.7 16.7 0.7 25 1.1 4.2 0.1 8.5 0.4 12.4 0.4q6.2-0.2 12.4-0.5 6.2-0.2 12.3-0.4c4.1-0.2 8.2-0.2 12.3-0.7q12.2-1.3 24.4-2.5c4-0.3 8-1 12-1.7q6-1 12-2 6-1 11.9-2c4-0.7 7.9-1.8 11.8-2.7 7.8-1.9 15.6-3.6 23.3-5.6 15.2-4.8 30.5-8.8 45.1-14.7q5.5-2.1 11-4.2l5.5-2c1.8-0.8 3.5-1.6 5.3-2.4q10.7-4.8 21.3-9.5c1.7-0.8 3.5-1.5 5.2-2.4l5.1-2.7q5.2-2.6 10.3-5.3c6.7-3.6 13.6-6.9 20.1-11 52.6-30.5 98.9-67.7 138.1-108.2 39.4-40.5 72.5-83.6 100.1-126.9 27.7-43.4 50.1-87 68.2-129 18.2-42.1 32.5-82.7 43.3-120.9q2.1-7.1 4.1-14.1 1.8-7.1 3.6-14 3.5-13.8 6.9-27 2.8-13.4 5.5-26.1 1.4-6.4 2.7-12.5c0.8-4.2 1.5-8.3 2.2-12.4 2.8-16.2 5.7-31.5 7.4-46.1 1.9-14.5 4-28.1 5-40.8 1.1-12.8 2.5-24.6 3.1-35.4q0.9-16.1 1.7-29.3c0.6-8.8 0.6-16.6 0.7-23.4q0.2-10.1 0.3-17c0.2-8.4 0.3-13 0.3-13.8 0-0.4-0.1-5.1-0.3-13.8z"/>
					</g>
					<g id="&lt;Group&gt;" style="mix-blend-mode: soft-light">
						<path id="&lt;Path&gt;" class="s3" d="m631.6 1176.3c0 0 25.1-0.2 69.1-0.7 44-0.3 106.8-0.8 182.3-1.3 75.4-0.4 163.3-0.8 257.6-1.2 94.3-0.1 194.8-0.2 295.4-0.4 100.5 0.2 201.1 0.4 295.3 0.5 47.2 0.2 92.7 0.4 135.9 0.6 43.2 0.2 84.1 0.4 121.8 0.6 75.4 0.4 138.2 1.2 182.2 1.5 44 0.5 69.2 0.7 69.2 0.7 0.3 0 0.6 0.3 0.6 0.7 0 0.3-0.3 0.6-0.6 0.6 0 0-25.2 0.3-69.2 0.8-44 0.3-106.8 1.1-182.2 1.4-37.7 0.2-78.6 0.5-121.8 0.7-43.2 0.2-88.7 0.3-135.9 0.5-94.2 0.2-194.8 0.4-295.3 0.6-100.6-0.2-201.1-0.3-295.4-0.5-94.3-0.4-182.2-0.8-257.6-1.1-75.5-0.6-138.3-1-182.3-1.3-44-0.5-69.1-0.8-69.1-0.8-0.5 0-1-0.4-1-0.9 0-0.6 0.5-1 1-1z"/>
					</g>
					<g id="&lt;Group&gt;" style="mix-blend-mode: soft-light">
						<path id="&lt;Path&gt;" class="s3" d="m864.9 839.5c0 0 17.8-0.3 49.1-0.7 31.2-0.3 75.8-0.8 129.3-1.4 26.8-0.1 55.8-0.3 86.5-0.6 30.7-0.1 63-0.5 96.5-0.5 66.9-0.1 138.3-0.3 209.7-0.4 71.4 0.2 142.7 0.3 209.7 0.5 33.4 0 65.8 0.3 96.4 0.5 30.7 0.3 59.7 0.5 86.5 0.7 53.5 0.3 98.1 1.1 129.4 1.5 31.2 0.4 49.1 0.7 49.1 0.7 0.3 0 0.6 0.3 0.6 0.7 0 0.3-0.3 0.6-0.6 0.6 0 0-17.9 0.3-49.1 0.8-31.3 0.3-75.9 1.1-129.4 1.4-26.8 0.2-55.8 0.4-86.5 0.7-30.6 0.2-63 0.5-96.4 0.5-67 0.2-138.3 0.4-209.7 0.5-71.4-0.1-142.8-0.3-209.7-0.4-33.5 0-65.8-0.3-96.5-0.5-30.7-0.2-59.7-0.4-86.5-0.6-53.5-0.6-98.1-1-129.3-1.4-31.3-0.4-49.1-0.7-49.1-0.7-0.6 0-1-0.4-1-1 0-0.5 0.5-0.9 1-0.9z"/>
					</g>
					<g id="&lt;Group&gt;" style="mix-blend-mode: soft-light">
						<path id="&lt;Path&gt;" class="s3" d="m561.7 1513.1c0 0 27.3-0.2 75.1-0.7 47.8-0.3 116.1-0.8 198.1-1.3 82-0.4 177.6-0.7 280-1.1 102.5-0.2 211.8-0.3 321.1-0.5 109.3 0.2 218.5 0.4 321 0.5 51.2 0.2 100.7 0.4 147.7 0.6 47 0.2 91.3 0.4 132.3 0.6 82 0.6 150.3 1.1 198.1 1.5 47.8 0.5 75.1 0.8 75.1 0.8 0.4 0 0.7 0.2 0.7 0.6 0 0.4-0.3 0.6-0.7 0.6 0 0-27.3 0.3-75.1 0.8-47.8 0.4-116.1 0.9-198.1 1.5-41 0.2-85.3 0.4-132.3 0.6-47 0.2-96.5 0.4-147.7 0.6-102.5 0.1-211.7 0.3-321 0.5-109.3-0.2-218.6-0.3-321.1-0.5-102.4-0.4-198-0.8-280-1.1-82-0.5-150.3-1-198.1-1.3-47.8-0.5-75.1-0.7-75.1-0.7-0.5 0-1-0.5-1-1 0.1-0.5 0.5-1 1-1z"/>
					</g>
					<g id="&lt;Group&gt;" style="mix-blend-mode: soft-light">
						<path id="&lt;Path&gt;" class="s3" d="m631.6 1850c0 0 25.1-0.3 69.1-0.8 44-0.3 106.8-0.8 182.3-1.3 75.4-0.3 163.3-0.7 257.6-1.1 94.3-0.2 194.8-0.3 295.4-0.5 100.5 0.2 201.1 0.4 295.3 0.6 47.2 0.1 92.7 0.3 135.9 0.5 43.2 0.2 84.1 0.5 121.8 0.7 75.4 0.3 138.2 1.1 182.2 1.4 44 0.5 69.2 0.8 69.2 0.8 0.3 0 0.6 0.3 0.6 0.6 0 0.4-0.3 0.7-0.6 0.7 0 0-25.2 0.2-69.2 0.7-44 0.3-106.8 1.1-182.2 1.5-37.7 0.2-78.6 0.4-121.8 0.6-43.2 0.2-88.7 0.4-135.9 0.6-94.2 0.1-194.8 0.3-295.3 0.5-100.6-0.2-201.1-0.3-295.4-0.4-94.3-0.5-182.2-0.8-257.6-1.2-75.5-0.5-138.3-1-182.3-1.3-44-0.5-69.1-0.7-69.1-0.7-0.5 0-1-0.5-1-1 0-0.5 0.5-0.9 1-0.9z"/>
					</g>
					<path id="&lt;Path&gt;" class="s4" d="m2035.8 2191.1h-1142.1c-1.9 0-3.4-1.5-3.4-3.4 0-1.8 1.5-3.4 3.4-3.4h1142.1c1.9 0 3.4 1.6 3.4 3.4 0 1.9-1.5 3.4-3.4 3.4z"/>
				</g>
			</g>
			<g id="&lt;Group&gt;">
				<path id="&lt;Path&gt;" class="s5" d="m823.3 1454.5c392.8-9.8 1923.5 29.2 2269.4 41.4 62.4 2.2 114.5 53.4 124.1 121.8 45.5 324.9 33.2 1024.7 25.7 1315.8-2 74.8-56.7 134.7-124.3 135.8-392.9 6.4-1836.8-22.2-2249.7-34-92.9-2.6-167-86.9-167-190v-1252.7c0-75.1 54.1-136.4 121.8-138.1z"/>
				<path id="&lt;Path&gt;" class="s6" d="m850.9 1501.6l2243.6 50.3c38.5 1 69.1 35.9 69 78.6l-3.7 1179.5c-0.2 59.7-44.3 107.7-98.1 106.8l-2191.4-30c-54.3-0.9-97.9-49.9-97.9-110.1v-1190.2c0-47.7 35.5-86 78.5-84.9z"/>
				<path id="&lt;Path&gt;" class="s7" d="m926.9 1550.2l2107.3 45.5c36.2 1 65 32.6 64.8 71.2l-3.4 1068.4c-0.2 54-41.6 97.5-92.2 96.7l-2058.3-27.2c-51-0.8-91.9-45.2-91.9-99.7v-1078c0-43.2 33.3-77.9 73.7-76.9z"/>
				<path id="&lt;Path&gt;" class="s8" d="m3176.3 2965.2q0 0 0 0l-2403.9-45.4c-1.7 0-3.1-1.4-3-3.1 0-1.6 1.4-2.9 3.1-2.9l2403.9 45.4c1.7 0 3 1.4 3 3.1-0.1 1.6-1.4 2.9-3.1 2.9z"/>
			</g>
			<g id="&lt;Group&gt;">
				<path id="&lt;Path&gt;" class="s9" d="m1220.2 2384.7c-73-0.8-134.9-59-140.7-132.4l-13.4-166.8c-3.1-39.8 9.9-78.8 35.9-107 24.9-26.9 58.9-41.8 95.7-41.9l1302.4-2.4c40.8 0 76.4 16.3 100.6 45.9 24.7 30.3 34 71.4 25.6 112.9l-35.7 175c-14.8 72.7-85.6 129.6-161.2 129.6 0 0-1209.2-12.9-1209.2-12.9z"/>
				<path id="&lt;Path&gt;" class="s1" d="m2593.1 2086.2l-35.7 175c-11.9 58.4-69.6 103.2-129.3 102.6l-1207.5-13c-54.9-0.6-102.9-45.3-107.4-101.2l-13.3-166.8c-4.9-61 38.8-112.2 97.9-112.3l1302.4-2.4c64.5-0.2 105.9 54.1 92.9 118.1z"/>
				<g id="&lt;Group&gt;">
					<g id="&lt;Group&gt;">
						<path id="&lt;Compound Path&gt;" class="s3" d="m1500.2 2088.3l-60.1 183.7h-0.3c-2.8 8.9-9.9 15.3-17.7 17.2h-0.3c-0.2 0-0.7 0.3-0.9 0.3h-0.5c-0.2 0-0.5 0.2-0.7 0.2h-0.5-0.7-0.5-0.7-0.4-0.7-0.5-0.5-0.7-0.5c-0.2 0-0.4-0.2-0.7-0.2h-0.5c-0.2 0-0.7-0.3-0.9-0.3h-0.2c-7.8-1.9-14.9-8.3-18-17.2l-37.9-115.8-37.9 115.8c-2.8 8.9-9.9 15.3-17.7 17.2h-0.2c-0.5 0-0.7 0.3-1 0.3h-0.5c-0.2 0-0.4 0.2-0.7 0.2h-0.4-0.7-0.5-0.7-0.5-0.7-0.5-0.7-0.5-0.4c-0.3 0-0.5-0.2-0.8-0.2h-0.4c-0.5 0-0.7-0.3-1-0.3h-0.2c-8.1-1.9-14.9-8.3-18-17.2l-60.1-183.7v-0.5c-1-2.8-1.4-5.9-1.4-8.7 0-10.9 6.4-21.1 16.3-24.6 2.4-1 5-1.2 7.3-1.2 10.2 0 19.9 7.1 23.2 18.2 0.3 0.5 20.9 63.2 37.9 115.3 17-52.1 37.6-114.8 37.6-115.3 2.6-8 8.1-13.7 14.7-16.6l0.2-0.2c0.3 0 0.5-0.2 0.7-0.2h0.3c0.2 0 0.2-0.3 0.4-0.3h0.5c0.3-0.2 0.5-0.2 0.7-0.2l0.3-0.2c0.4 0 0.7 0 0.9-0.3h0.3c0.4 0 0.7 0 0.9-0.2h0.2 1 0.2c0.5 0 0.7 0 1-0.2h0.4 0.5 0.7 0.5c0.2 0.2 0.5 0.2 0.7 0.2h0.5 0.9c0.5 0.2 0.7 0.2 1.2 0.2 0.5 0.3 0.7 0.3 1 0.3 0.2 0 0.2 0 0.2 0.2 0.5 0 0.7 0 0.9 0.2h0.5c0 0 0.2 0.3 0.5 0.3h0.2c0.3 0 0.5 0.2 0.7 0.2l0.3 0.2c6.6 2.9 12 8.6 14.6 16.6 0 0.5 20.6 63.2 37.7 115.3 17-52.1 37.6-114.8 37.6-115.3 3.5-11.1 13.2-18.2 23.4-18.2 2.4 0 5 0.2 7.4 1.2 9.9 3.5 16.3 13.7 16.3 24.6 0 2.8-0.5 5.9-1.4 8.7z"/>
						<path id="&lt;Compound Path&gt;" class="s3" d="m1803.3 2088.3l-60.1 183.7h-0.2c-2.9 8.9-10 15.3-17.8 17.2h-0.2c-0.2 0-0.7 0.3-0.9 0.3h-0.5c-0.3 0-0.5 0.2-0.7 0.2h-0.5-0.7-0.5-0.7-0.5-0.7-0.5-0.4-0.7-0.5c-0.2 0-0.5-0.2-0.7-0.2h-0.5c-0.2 0-0.7-0.3-0.9-0.3h-0.3c-7.8-1.9-14.9-8.3-18-17.2l-37.8-115.8-37.9 115.8c-2.8 8.9-9.9 15.3-17.7 17.2h-0.3c-0.4 0-0.7 0.3-0.9 0.3h-0.5c-0.2 0-0.5 0.2-0.7 0.2h-0.5-0.7-0.5-0.7-0.4-0.8-0.4-0.7-0.5-0.5c-0.2 0-0.5-0.2-0.7-0.2h-0.5c-0.4 0-0.7-0.3-0.9-0.3h-0.3c-8-1.9-14.9-8.3-17.9-17.2l-60.1-183.7v-0.5c-1-2.8-1.5-5.9-1.5-8.7 0-10.9 6.4-21.1 16.4-24.6 2.3-1 4.9-1.2 7.3-1.2 10.2 0 19.9 7.1 23.2 18.2 0.2 0.5 20.8 63.2 37.9 115.3 17-52.1 37.6-114.8 37.6-115.3 2.6-8 8-13.7 14.7-16.6l0.2-0.2c0.2 0 0.5-0.2 0.7-0.2h0.2c0.3 0 0.3-0.3 0.5-0.3h0.5c0.2-0.2 0.5-0.2 0.7-0.2l0.2-0.2c0.5 0 0.7 0 1-0.3h0.2c0.5 0 0.7 0 1-0.2h0.2 0.9 0.3c0.5 0 0.7 0 0.9-0.2h0.5 0.5 0.7 0.5c0.2 0.2 0.4 0.2 0.7 0.2h0.4 1c0.5 0.2 0.7 0.2 1.2 0.2 0.4 0.3 0.7 0.3 0.9 0.3 0.3 0 0.3 0 0.3 0.2 0.4 0 0.7 0 0.9 0.2h0.5c0 0 0.2 0.3 0.4 0.3h0.3c0.2 0 0.5 0.2 0.7 0.2l0.2 0.2c6.7 2.9 12.1 8.6 14.7 16.6 0 0.5 20.6 63.2 37.6 115.3 17.1-52.1 37.7-114.8 37.7-115.3 3.5-11.1 13.2-18.2 23.4-18.2 2.3 0 5 0.2 7.3 1.2 10 3.5 16.3 13.7 16.3 24.6 0 2.8-0.4 5.9-1.4 8.7z"/>
						<path id="&lt;Compound Path&gt;" class="s3" d="m2106.5 2088.3l-60.1 183.7h-0.3c-2.8 8.9-9.9 15.3-17.7 17.2h-0.2c-0.3 0-0.7 0.3-1 0.3h-0.5c-0.2 0-0.4 0.2-0.7 0.2h-0.4-0.8-0.4-0.7-0.5-0.7-0.5-0.5-0.7-0.4c-0.3 0-0.5-0.2-0.8-0.2h-0.4c-0.3 0-0.7-0.3-1-0.3h-0.2c-7.8-1.9-14.9-8.3-18-17.2l-37.9-115.8-37.8 115.8c-2.9 8.9-10 15.3-17.8 17.2h-0.2c-0.5 0-0.7 0.3-1 0.3h-0.4c-0.3 0-0.5 0.2-0.7 0.2h-0.5-0.7-0.5-0.7-0.5-0.7-0.5-0.7-0.4-0.5c-0.3 0-0.5-0.2-0.7-0.2h-0.5c-0.5 0-0.7-0.3-0.9-0.3h-0.3c-8-1.9-14.9-8.3-18-17.2l-60.1-183.7v-0.5c-0.9-2.8-1.4-5.9-1.4-8.7 0-10.9 6.4-21.1 16.3-24.6 2.4-1 5-1.2 7.4-1.2 10.1 0 19.8 7.1 23.2 18.2 0.2 0.5 20.8 63.2 37.8 115.3 17.1-52.1 37.6-114.8 37.6-115.3 2.6-8 8.1-13.7 14.7-16.6l0.3-0.2c0.2 0 0.4-0.2 0.7-0.2h0.2c0.2 0 0.2-0.3 0.5-0.3h0.4c0.3-0.2 0.5-0.2 0.8-0.2l0.2-0.2c0.5 0 0.7 0 0.9-0.3h0.3c0.5 0 0.7 0 0.9-0.2h0.3 0.9 0.2c0.5 0 0.8 0 1-0.2h0.5 0.4 0.7 0.5c0.3 0.2 0.5 0.2 0.7 0.2h0.5 0.9c0.5 0.2 0.8 0.2 1.2 0.2 0.5 0.3 0.7 0.3 1 0.3 0.2 0 0.2 0 0.2 0.2 0.5 0 0.7 0 1 0.2h0.4c0 0 0.3 0.3 0.5 0.3h0.2c0.3 0 0.5 0.2 0.8 0.2l0.2 0.2c6.6 2.9 12.1 8.6 14.7 16.6 0 0.5 20.6 63.2 37.6 115.3 17-52.1 37.6-114.8 37.6-115.3 3.6-11.1 13.3-18.2 23.4-18.2 2.4 0 5 0.2 7.4 1.2 9.9 3.5 16.3 13.7 16.3 24.6 0 2.8-0.5 5.9-1.4 8.7z"/>
					</g>
					<path id="&lt;Path&gt;" class="s3" d="m2170.8 2293.3c0 5.6-4.5 10.2-10.1 10.2-5.6 0-10.2-4.6-10.2-10.2v-281.1c0-5.6 4.6-10.1 10.2-10.1 5.6 0 10.1 4.5 10.1 10.1z"/>
				</g>
				<path id="&lt;Path&gt;" class="s3" d="m2713.5 2546.7c-1 6.9-4.8 13.1-10.6 17l-45.3 30.8c-10.9 7.4-25.7 5.1-33.7-5.2l-141.2-181.1c-1.1-1.4-2.8-2.2-4.7-2.1-1.8 0.1-3.4 1.1-4.3 2.7l-74.1 124.4c-3 5-8.8 7.6-14.6 6.5-5.7-1.1-10.2-5.6-11.1-11.4l-79.4-479.5c-0.9-5.4 1.4-10.9 6-13.9 4.6-3 10.5-3.1 15.1-0.1l382 241.3c4.7 3 7.2 8.6 6.3 14.1-0.9 5.5-5 9.9-10.5 11.2l-133.9 32.2c-1.8 0.4-3.3 1.8-3.9 3.6-0.6 1.7-0.2 3.7 1 5.2l151.5 184.9c4.5 5.4 6.4 12.4 5.4 19.4z"/>
			</g>
			<g id="&lt;Group&gt;">
				<g id="&lt;Group&gt;">
					<path id="&lt;Path&gt;" class="s10" d="m1084.4 3188.2h-26.7v-289.1h26.7z"/>
					<path id="&lt;Path&gt;" class="s10" d="m1188.1 3193.8h-234.1v-9.1c0-4.6 3.7-8.3 8.3-8.3h216.8c5 0 9 4 9 9z"/>
					<path id="&lt;Path&gt;" class="s10" d="m1232.4 2888.5c0 16.8-13.8 30.5-30.6 30.5h-251.7c-16.8 0-30.6-13.7-30.6-30.5v-27.7c0-16.8 13.8-30.5 30.6-30.5h251.7c16.8 0 30.6 13.7 30.6 30.5z"/>
				</g>
				<g id="&lt;Group&gt;">
					<path id="&lt;Path&gt;" class="s11" d="m865.1 3093.6c0 0 8.8 14.8-7.2 40.3-16 25.6-105.3 42.7-105.3 42.7-4.9-39 81.5-76.2 81.5-76.2z"/>
					<path id="&lt;Path&gt;" class="s12" d="m855.2 3057.9l4.4 37.9c0.7 5.7-2.5 11.4-7.9 13.3-2.7 1-6.3 1.7-11 1.7-6.5 0-12.4-4.3-14.1-10.6l-8.5-30.7z"/>
					<path id="&lt;Path&gt;" class="s13" d="m1044.5 2772l15.9 75.6c0 0-85.8-7.7-168.7 24-73.7 28.2-31.3 190.2-31.3 190.2-29.7 15.9-50.4 11.5-50.4 11.5 0 0-83.1-221.4-4-267.5 79.1-46.1 238-38.8 238-38.8z"/>
					<path id="&lt;Path&gt;" class="s14" d="m770 3159.5c18.1-4 71.6-26.2 79.8-25.9 8.1 0.3 19.7 12.5 19.7 12.5 0 0 1.9 6.7-3.9 16.3-13.8 10.7-43.5 30.5-78.1 32.7-25.5 1.6-40.8-8.6-49.5-18.4 7.6-7.4 19.9-14.6 32-17.2z"/>
					<path id="&lt;Path&gt;" class="s15" d="m787.5 3195.1c34.6-2.2 64.3-22 78.1-32.7-3.9 6.4-11.4 14.2-25.5 22.2-34.9 19.7-92.7 16.9-104.2 12.4-9.1-3.5-6.3-12.1 2.1-20.3 8.7 9.8 24 20 49.5 18.4z"/>
					<path id="&lt;Path&gt;" class="s16" d="m888.4 3126.3c-1.1 4.5-13.8 17.9-21.1 25.4-3.5 3.6-8.6 5.1-13.4 4-3.1-0.6-6.6-1.7-9.6-3.3-4.5-2.5-6.1-8.2-3.6-12.8l18.5-33.6z"/>
					<path id="&lt;Path&gt;" class="s17" d="m1201.6 2753.7c0 0 13.8 98.4-26.3 118.5-40.1 20.2-128.1 33.3-158.4 84.4-30.3 51-84.7 151.2-134.3 180 0 0-28.3-9.2-36.5-23.1 0 0 58.8-154.5 83.3-192.1 21.2-32.5 52.3-79.4 96.4-99.7 12.7-5.8 13.7-19.2 11.4-32.9l-4-25z"/>
					<path id="&lt;Path&gt;" class="s18" d="m829.8 2642.1c56.2 16.1 81.4-142.2 81.1-146.1l86.3 100.9c0 0-51.4 90.4-129 100-19.6 2.4-36.3-1-50.3-7.4 10.3-16.9 12.7-33.6 11.9-47.4z"/>
					<path id="&lt;Path&gt;" class="s19" d="m725.6 2590.3c24.5-10.1 45.3 10 45.3 10 24.3 24.9 43.6 37.5 58.9 41.8 0.8 13.8-1.6 30.5-11.9 47.4-30.3-13.9-48-41.9-55.3-55.9-2.6-5.1-8.7-7.2-13.8-4.7-5.2 2.5-10.6 6.3-10.9 11.5-0.7 10.3-12.9 10.9-13 7.1-0.1-3.8 9.5-24.1 9.5-24.1 0 0-28.2 18.1-39.1 25-11 6.9-20.3-4.5-20.3-4.5 0 0 26.1-43.5 50.6-53.6z"/>
					<path id="&lt;Path&gt;" class="s20" d="m1203.4 2764.2c-96.1 43.2-170.2-0.4-170.2-0.4-4.2-68.3-112.6-213.6-121.4-240.5-8.8-26.9 10-50.7 10-50.7 182.5-93.3 258.1-41.7 258.1-41.7 55.8 153 23.5 333.3 23.5 333.3z"/>
					<path id="&lt;Path&gt;" class="s21" d="m1004 2350.2l48.4 73.3c2.9 5.8 2.3 12.9-1.7 18-8.3 10.3-25.4 24.1-54.7 15.2-8.8-2.7-15.4-9.8-17.5-18.6l-15.5-65.4z"/>
					<path id="&lt;Path&gt;" class="s22" d="m1235.9 2635.3c5.1-35.6-88.9-104.6-88.9-104.6l32.9-99.8c0 0 179.4 128 141.7 232.6-5.4 15-13.5 25.9-23.3 33.6-19-38.9-44.8-55.1-62.4-61.8z"/>
					<path id="&lt;Path&gt;" class="s23" d="m1104.7 2645.2c0 0 106.4 29.7 128.4-2.7 1.5-2.2 2.4-4.6 2.8-7.2 17.6 6.7 43.4 22.9 62.4 61.8-50.5 39.7-147.9-4.8-174.3-18.1-4.4-2.2-9.4-2.7-14.1-1.2-9.4 2.9-25.7 7.5-34.8 7-13.2-0.7-27.5 47.3-50.1 35.1 0 0 10.3-82 79.7-74.7z"/>
					<g id="&lt;Group&gt;">
						<path id="&lt;Path&gt;" class="s24" d="m993.3 2304.3l3.9 92.1c-1.1 12.8-22 28.2-33.9 33.2l-8.7 3.6c-11.4 4.8-24.3-1.4-27.8-13.3-11.2-38.8-33.2-114.9-33.2-116.2 1.6-28.1 99.7 0.6 99.7 0.6z"/>
						<path id="&lt;Path&gt;" class="s25" d="m998.4 2288.5c20.9 4.9 18.5 21.3 16.3 28.5-0.6 2-2 3.7-3.9 4.6-5.8 3-19 10.9-19.3 22.2 0 1.6 0 3.8 0.2 6.4-8.4-1.7-16.7-3.2-25.2-4l-7.6-34.2c-0.5-2.3-2-4.3-4.2-5.3-6.7-3.3-22-9.3-32.7-1.4-14.2 10.4-43.3 19.8-52.1 2.5-8.9-17.4-8.5-48.3 18.8-55.4 15.4-4.1 23.9 3.6 28.4 11.1 2.3 3.9 7.5 5.1 11.2 2.4 2.7-2.1 5.1-1.9 7-0.9 3.4 1.8 7.5 1 9.9-2 5.8-7.5 17-17 33.5-11.3 16.3 5.7 16.2 18.5 13.9 27.1-1.2 4.4 1.5 8.7 5.8 9.7z"/>
						<path id="&lt;Path&gt;" class="s26" d="m995.8 2363.9c0 0-14.2-30.9-3.2-39.7 11-8.8 28.7-6.3 26.9 17.1-2.2 29.1-23.7 22.6-23.7 22.6z"/>
					</g>
				</g>
				<g id="&lt;Group&gt;">
					<path id="&lt;Path&gt;" class="s27" d="m968.9 2712.9q-0.3 0-0.6 0l-248.4-0.3c-6.1 0-11.1-5-11.1-11.1 0-6.2 5-11.2 11.1-11.1l248.5 0.2c6.1 0 11.1 5 11.1 11.2 0 5.9-4.7 10.8-10.6 11.1z"/>
					<path id="&lt;Path&gt;" class="s28" d="m496.6 2487.3h206.9c15.2 0 29.1 8.8 35.6 22.6l95.7 202.8h-257.2c-9.8 0-18.6-6-22.2-15.1l-74.2-187.7c-4.3-10.9 3.7-22.6 15.4-22.6z"/>
				</g>
				<g id="&lt;Group&gt;">
					<g id="&lt;Group&gt;">
						<path id="&lt;Path&gt;" class="s1" d="m530.1 3245.7c-1.4 0-2.8-0.2-4.1-0.8-5.3-2.2-7.8-8.1-5.5-13.3l219-492.8c2.2-5.1 8.4-7.5 13.7-5.3 5.3 2.3 7.7 8.2 5.5 13.3l-219 492.8c-1.7 3.8-5.6 6.1-9.6 6.1z"/>
						<path id="&lt;Path&gt;" class="s1" d="m776.8 3245.7c-4.1 0-7.9-2.3-9.6-6.1l-219-492.8c-2.3-5.1 0.2-11 5.5-13.3 5.3-2.2 11.4 0.2 13.7 5.3l219 492.8c2.2 5.2-0.2 11.1-5.5 13.3-1.4 0.6-2.8 0.8-4.1 0.8z"/>
						<path id="&lt;Path&gt;" class="s1" d="m1207.9 3245.7c-1.4 0-2.8-0.2-4.1-0.8-5.3-2.2-7.8-8.1-5.5-13.3l219-492.8c2.2-5.1 8.4-7.5 13.7-5.3 5.3 2.3 7.7 8.2 5.4 13.3l-218.9 492.8c-1.7 3.8-5.6 6.1-9.6 6.1z"/>
						<path id="&lt;Path&gt;" class="s1" d="m1454.5 3245.7c-4 0-7.9-2.3-9.6-6.1l-218.9-492.8c-2.3-5.1 0.2-11 5.5-13.3 5.2-2.2 11.4 0.2 13.7 5.3l218.9 492.8c2.3 5.2-0.1 11.1-5.4 13.3-1.4 0.6-2.8 0.8-4.2 0.8z"/>
					</g>
					<path id="&lt;Path&gt;" class="s1" d="m1475 2754.1c-1.1 6-5.8 10.4-11.3 10.4h-975c-5.9 0-11.3-3.8-13.8-9.8l-10.8-26.2c-1.6-3.9-1.3-8.5 0.8-12.1 2.1-3.7 5.7-5.9 9.5-5.9h996.2c2.9 0 5.7 1.5 7.6 4 1.8 2.6 2.6 5.9 2 9.1z"/>
				</g>
			</g>
			<g id="&lt;Group&gt;">
				<path id="&lt;Path&gt;" class="s9" d="m2928.6 573.2l-5.2 183.1c-0.4 15.1-12.2 27.8-26.5 28.5l-211.2 10.4c-17.1 0.8-31.6-11.9-32.1-28.6l-5.7-204.5c-0.5-18.3 14-32.5 32.1-31.5l222.4 11.5c15 0.8 26.6 14.7 26.2 31.1z"/>
				<g id="&lt;Group&gt;">
					<path id="&lt;Compound Path&gt;" fill-rule="evenodd" class="s3" d="m2784.5 745.9c-46.2 0-83.8-37.6-83.8-83.8 0-46.1 37.6-83.7 83.8-83.7 46.2 0 83.7 37.6 83.7 83.7 0 46.2-37.5 83.8-83.7 83.8zm0-153.5c-38.4 0-69.7 31.3-69.7 69.7 0 38.5 31.3 69.8 69.7 69.8 38.4 0 69.7-31.3 69.7-69.8 0-38.4-31.3-69.7-69.7-69.7z"/>
					<path id="&lt;Path&gt;" class="s3" d="m2758.3 694.4v-60.2c0-6.4 7-10.4 12.5-7.1l50.7 30.1c5.4 3.2 5.4 11 0 14.2l-50.7 30.1c-5.5 3.3-12.5-0.7-12.5-7.1z"/>
				</g>
			</g>
			<g id="&lt;Group&gt;">
				<path id="&lt;Path&gt;" class="s1" d="m746.6 2190.9l-4.3 153.2c-0.4 12.6-10.2 23.2-22.2 23.8l-176.7 8.7c-14.3 0.7-26.4-10-26.8-23.9l-4.8-171.1c-0.4-15.3 11.7-27.2 26.9-26.4l186 9.7c12.5 0.7 22.3 12.3 21.9 26z"/>
				<g id="&lt;Group&gt;">
					<path id="&lt;Path&gt;" class="s3" d="m691.2 2323.8h-99.2c-3.8 0-7.1-2.5-8.1-6.1l-28.2-96.2-28.5-5c-4.6-0.8-7.7-5.2-6.9-9.8 0.8-4.6 5.2-7.7 9.8-6.9l33.7 5.9c3.2 0.5 5.8 2.8 6.7 5.9l27.8 95.3h85.9l12.7-68.6c0.8-4.6 5.2-7.6 9.8-6.8 4.6 0.9 7.7 5.3 6.8 9.9l-14 75.5c-0.7 4-4.2 6.9-8.3 6.9z"/>
					<path id="&lt;Path&gt;" class="s3" d="m700.9 2245.9h-132.1c-4.7 0-8.4-3.8-8.4-8.5 0-4.6 3.7-8.4 8.4-8.4h132.1c4.7 0 8.5 3.8 8.5 8.4 0 4.7-3.8 8.5-8.5 8.5z"/>
					<g id="&lt;Group&gt;">
						<path id="&lt;Path&gt;" class="s3" d="m614.5 2312c-4.6 0-8.4-3.8-8.4-8.5v-64.4c0-4.6 3.8-8.4 8.4-8.4 4.7 0 8.5 3.8 8.5 8.4v64.4c0 4.7-3.8 8.5-8.5 8.5z"/>
						<path id="&lt;Path&gt;" class="s3" d="m662 2312c-4.7 0-8.5-3.8-8.5-8.5v-64.4c0-4.6 3.8-8.4 8.5-8.4 4.6 0 8.4 3.8 8.4 8.4v64.4c0 4.7-3.8 8.5-8.4 8.5z"/>
					</g>
					<path id="&lt;Path&gt;" class="s3" d="m694.1 2279.8h-111.7c-4.7 0-8.5-3.8-8.5-8.5 0-4.7 3.8-8.5 8.5-8.5h111.7c4.7 0 8.5 3.8 8.5 8.5 0 4.7-3.8 8.5-8.5 8.5z"/>
					<g id="&lt;Group&gt;">
						<path id="&lt;Path&gt;" class="s3" d="m619.8 2340.7c0 6.5-5.2 11.7-11.7 11.7-6.5 0-11.7-5.2-11.7-11.7 0-6.5 5.2-11.7 11.7-11.7 6.5 0 11.7 5.2 11.7 11.7z"/>
						<path id="&lt;Path&gt;" class="s3" d="m691.3 2340.7c0 6.5-5.3 11.7-11.7 11.7-6.5 0-11.8-5.2-11.8-11.7 0-6.5 5.3-11.7 11.8-11.7 6.4 0 11.7 5.2 11.7 11.7z"/>
					</g>
				</g>
			</g>
			<g id="&lt;Group&gt;">
				<path id="&lt;Path&gt;" class="s1" d="m3140.7 2133.1l-4.3 154.3c-0.4 12.7-10.4 23.4-22.4 24l-177.9 8.8c-14.4 0.7-26.6-10.1-27-24.1l-4.9-172.3c-0.4-15.4 11.8-27.4 27.1-26.6l187.3 9.8c12.7 0.6 22.5 12.4 22.1 26.1z"/>
				<g id="&lt;Group&gt;">
					<path id="&lt;Compound Path&gt;" fill-rule="evenodd" class="s3" d="m3088.6 2273h-131.9c-11.2 0-20.4-9.2-20.4-20.4v-94.6c0-11.3 9.2-20.5 20.4-20.5h131.9c11.3 0 20.4 9.2 20.4 20.5v94.6c0 11.2-9.1 20.4-20.4 20.4zm-131.9-118.5c-1.9 0-3.5 1.5-3.5 3.5v94.6c0 1.9 1.6 3.5 3.5 3.5h131.9c1.9 0 3.5-1.6 3.5-3.5v-94.6c0-2-1.6-3.5-3.5-3.5z"/>
					<path id="&lt;Path&gt;" class="s3" d="m3021.4 2214.4c-1.7 0-3.4-0.5-4.9-1.5l-73.5-52.2c-3.8-2.7-4.7-8-2-11.8 2.7-3.8 8-4.7 11.8-2l68.6 48.7 67.7-48.1c3.8-2.7 9.1-1.8 11.8 2 2.8 3.8 1.9 9.1-2 11.8l-72.6 51.6c-1.4 1-3.2 1.5-4.9 1.5z"/>
					<path id="&lt;Path&gt;" class="s3" d="m2949.2 2274l-2.5-16.7 1.2 8.3-7.1-4.5c1.5-2.5 27.9-48.7 45.3-79.2 2.3-4 7.5-5.4 11.5-3.1 4.1 2.3 5.5 7.5 3.2 11.5 0 0-11.4 19.9-22.7 39.8-5.7 9.9-11.4 19.9-15.7 27.3-9.1 16-9.1 16-13.2 16.6z"/>
					<path id="&lt;Path&gt;" class="s3" d="m3093.1 2274c-4-0.7-4-0.7-13.1-16.6-4.3-7.4-10-17.4-15.7-27.3-11.3-19.9-22.7-39.8-22.7-39.8-2.3-4-0.9-9.2 3.2-11.5 4-2.4 9.2-0.9 11.5 3.1 17.4 30.5 43.8 76.7 45.4 79.2l-7.2 4.5z"/>
				</g>
			</g>
			<g id="&lt;Group&gt;">
				<path id="&lt;Path&gt;" class="s1" d="m3177.2 820.5l-4.3 154.3c-0.4 12.7-10.3 23.4-22.4 24l-177.9 8.7c-14.4 0.8-26.6-10-27-24.1l-4.8-172.2c-0.5-15.5 11.7-27.4 27-26.6l187.4 9.8c12.6 0.6 22.4 12.3 22 26.1z"/>
				<path id="&lt;Path&gt;" class="s3" d="m3113.5 870.4c0.3 4.4-5.4 6.3-7.8 2.6-5.7-8.8-15.3-19.6-29.5-21.8v85.5q0 0.2 0 0.4c0 15.8-16.1 28.7-35.9 28.7-19.8 0-35.8-12.9-35.8-28.7 0-15.8 16-28.7 35.8-28.7 10.1 0 19.2 3.4 25.7 8.7v-65.9-13.3-6.7c0-3.3 3.3-5.7 6.4-4.6 12.6 4.5 39.7 17.2 41.1 43.8z"/>
			</g>
			<g id="&lt;Group&gt;">
				<path id="&lt;Compound Path&gt;" fill-rule="evenodd" class="s3" d="m898.5 1371.8c-12.2 18.8-37.4 24.1-56.2 11.9-18.8-12.2-24.1-37.4-11.9-56.2 12.2-18.8 37.4-24.1 56.2-11.9 18.8 12.2 24.1 37.4 11.9 56.2zm-54.6-35.5c-7.4 11.3-4.1 26.5 7.2 33.9 11.3 7.4 26.5 4.1 33.9-7.2 7.4-11.3 4.1-26.5-7.2-33.9-11.3-7.4-26.5-4.1-33.9 7.2z"/>
				<g id="&lt;Group&gt;">
					<path id="&lt;Path&gt;" class="s3" d="m786.8 1311.3c-1.4 2.8-4.7 4.1-7.6 2.8l-11.4-4.9c-3.1-1.4-4.5-5-3-8.1q3-6.1 6.7-11.9c33.4-51.2 102.2-65.8 153.4-32.5q3.4 2.2 6.5 4.6c2.2 1.7 3 4.7 1.9 7.2l-5.3 11.6c-1.7 3.6-6.2 4.5-9.2 2.1q-3.4-2.8-7.1-5.2c-40-26.1-93.8-14.7-119.9 25.4q-2.8 4.3-5 8.9z"/>
					<path id="&lt;Path&gt;" class="s3" d="m729.4 1286.4c-1.3 2.9-4.7 4.1-7.6 2.9l-11.4-5c-3-1.3-4.5-4.8-3.1-7.8 3.4-7.3 7.3-14.4 11.9-21.4 51.8-79.6 158.3-102.6 238.2-51.7 0.9 2.8 1.4 4.6 2.2 7.5l-5.2 11.4c-1.5 3.2-5.5 4.3-8.5 2.4l-0.1-0.1c-68.9-44.8-161.5-25.2-206.4 43.7-3.8 5.9-7.1 11.9-10 18.1z"/>
					<path id="&lt;Path&gt;" class="s3" d="m672.1 1261.4c-1.3 3-4.7 4.3-7.7 3.1l-11.4-5c-3-1.3-4.4-4.8-3-7.8 4.8-10.5 10.3-20.7 16.8-30.7 68.8-105.8 208.8-138 316.6-74.9 2.6 1.5 3.6 4.8 2.4 7.6l-5.2 11.3c-1.5 3.2-5.4 4.3-8.4 2.5-96.9-57.3-223.1-28.5-285.1 66.7-5.8 8.8-10.7 18-15 27.2z"/>
				</g>
			</g>
			<g id="&lt;Group&gt;">
				<path id="&lt;Path&gt;" class="s1" d="m2982.6 1869.7l-4.4 155.8c-0.4 12.8-10.4 23.6-22.6 24.2l-179.6 8.9c-14.6 0.7-26.9-10.2-27.3-24.4l-4.8-173.9c-0.5-15.6 11.8-27.6 27.3-26.8l189.1 9.8c12.8 0.7 22.7 12.6 22.3 26.4z"/>
				<path id="&lt;Compound Path&gt;" fill-rule="evenodd" class="s3" d="m2953.2 1885v74.3c0 12.3-5.3 25.5-17.8 25.7l-20 23.4c-1.1 1.4-2.9 2.2-4.8 2.2-2.2 0-3.9-1.1-5-1.9-2.2-0.7-6.6-2.4-6.6-6.9v-11c0-3.2-2-9.1-5.2-9.1h-92c-12.2 0-28.1-10.1-28.1-22.4v-74.3c0-12.8 15.7-21.8 28.1-21.8h133.7c12.2 0 17.7 9.6 17.7 21.8zm-13.5 0c0-5.7 1.5-4.9-4.2-4.9h-133.7c-5.7 0-17.9-0.4-17.9 7.9v71.3c0 5.7 12.2 12.3 17.9 12.3h103.9c3.1 0 0.1 4.1 0.1 7.3v16.2l24.7-23.5h5c4.7 0 4.2-6.5 4.2-12.3z"/>
				<path id="&lt;Path&gt;" class="s3" d="m2926.1 1900.4c0 1.9-1.5 3.4-3.4 3.4h-121.9c-1.9 0-3.4-1.5-3.4-3.4 0-1.8 1.5-3.3 3.4-3.3h121.9c1.9 0 3.4 1.5 3.4 3.3z"/>
				<path id="&lt;Path&gt;" class="s3" d="m2926.1 1920.8c0 1.8-1.5 3.4-3.4 3.4h-121.9c-1.9 0-3.4-1.6-3.4-3.4 0-1.9 1.5-3.4 3.4-3.4h121.9c1.9 0 3.4 1.5 3.4 3.4z"/>
				<path id="&lt;Path&gt;" class="s3" d="m2926.1 1951.2c0 1.9-1.5 3.4-3.4 3.4h-121.9c-1.9 0-3.4-1.5-3.4-3.4 0-1.8 1.5-3.3 3.4-3.3h121.9c1.9 0 3.4 1.5 3.4 3.3z"/>
			</g>
			<g id="&lt;Group&gt;">
				<path id="&lt;Path&gt;" class="s29" d="m2143.8 1760.4c0.4-0.2 231.8-405.5 263.1-443.6 5.3-6.4 13.4-9.7 21.6-8.7l64.6 7.7 75.9 164.1-126.4-73.6c12.5 86.5-149.9 215.1-205.6 262-5.6 4.8-6.1 13.3-1 18.7l22.2 23.2c-36.5 37-78.6 60.8-126.1 71.8z"/>
				<path id="&lt;Path&gt;" class="s30" d="m2245.4 1697.7c0 0 14.2 4.6 19 17.2 2.3 6-0.2 12.9-5.5 16.7-23.3 16.7-100.4 70.8-136 81.3-2.9 0.9-5.7-1.7-5-4.7 1.8-8.3 7.7-24.8 26.7-48.9l-1.7 3.4c-2.1 4.4 2.6 8.9 6.9 6.6 23.7-13.5 72.2-42.9 95.6-71.6z"/>
				<path id="&lt;Path&gt;" class="s31" d="m2233.9 1859.8c0.4-0.2 35.1-83.9 35.5-84.1 31.8-193.8 109.5-359.9 132.4-403.5 3.9-7.4 11.2-12.2 19.5-12.9l64.8-5.6 107.5 145.4-138.7-46.5c29.8 82.2-103.3 241-148.3 298.2-4.6 5.8-3.3 14.3 2.8 18.5l26.5 18.3c-28.3 43.6-64.7 75.4-109.1 95.8z"/>
				<path id="&lt;Path&gt;" class="s32" d="m2320.7 1777.9c0 0 14.8 1.6 22.1 13 3.5 5.5 2.4 12.7-1.9 17.4-19.5 21.1-84.1 89.7-116.8 107.3-2.7 1.4-5.9-0.6-5.9-3.7 0.1-8.4 2.6-25.8 16.3-53.3l-0.9 3.7c-1.3 4.7 4.3 8.2 8 5 20.6-17.9 62.1-56.5 79.1-89.4z"/>
				<g id="&lt;Group&gt;">
					<path id="&lt;Path&gt;" class="s33" d="m2789.5 1323.1c0 0 58.6 87.2 63.4 127 4.8 39.8-16.2 53.5-77.6 58.6-182.6 15.1-272.6-39.6-272.6-39.6 13.7-38 30.2-117.7-74.2-161 0 0 86.2 13.8 112.8 3.5 26.5-10.3 248.2 11.5 248.2 11.5z"/>
				</g>
				<g id="&lt;Group&gt;">
					<path id="&lt;Path&gt;" class="s34" d="m2525 821.3c45.1 2.3 88 20.4 120.4 51.8 38.7 37.3 82.7 72.9 127.5 93.5l30.1 13.8c89.8 41.3 129.1 147.5 87.8 237.3-16.6 36.1-55.2 56.8-94.5 50.6l-203.7-31.9c0 0-133.2-370.4-134.2-378.1z"/>
					<path id="&lt;Path&gt;" class="s1" d="m2855.4 1184.7c-0.3 0-0.6-0.2-0.9-0.5-0.3-0.4-0.3-1.2 0.2-1.5 21.3-16.9 19.3-48.7 17.5-61.6-3.6-25.7-13.7-50.1-29.3-70.8-28.1-37.1-71.1-59.3-112.8-80.7l-8.6-4.5c-42.7-22-90.2-49.4-114.1-94.9-0.2-0.6 0-1.2 0.5-1.5 0.6-0.3 1.3-0.1 1.6 0.4 23.5 45 70.7 72.1 113 94l8.6 4.5c41.9 21.5 85.2 43.8 113.6 81.4 15.8 20.9 26.1 45.7 29.8 71.8 1.8 13.2 3.8 46-18.4 63.6q-0.3 0.3-0.7 0.3z"/>
					<path id="&lt;Path&gt;" class="s1" d="m2834 1144.7q0 0-0.1 0c-0.6-0.1-1.1-0.6-1-1.2 1.7-26.9-2.2-50.2-11.4-69.2-16.8-34.5-52.3-56.5-81.4-71.9-5.8-3.1-11.7-6.1-17.7-9.2-26.9-13.7-54.8-27.9-76.5-49.5-0.4-0.4-0.4-1.2 0-1.6 0.5-0.4 1.2-0.4 1.6 0 21.5 21.3 49.2 35.4 76 49.1 5.9 3.1 11.8 6.1 17.7 9.2 29.3 15.5 65.2 37.8 82.3 72.9 9.5 19.4 13.4 43 11.6 70.3 0 0.6-0.5 1.1-1.1 1.1z"/>
					<path id="&lt;Path&gt;" class="s35" d="m2401.5 1143.6c0 0 69.6 83.4 139.8 15.7l27 62.8c0 0-102.3 79.3-180-45.5z"/>
					<path id="&lt;Path&gt;" class="s36" d="m2630.9 1311.6c0 0-68.3-65.1-101.9-108.1-18.2-23.3-23.9-53.9-15.5-82.3 15.4-51.7 42.7-105.2 45.1-113.5 3.9-12.8 80.4-12.3 80.4-12.3 0 0 72.1 11.2 72.7 133.4 0.1 29 8.2 57.6 23.4 82.4 17.4 28.5 34.3 71.2 54.4 111.9z"/>
					<path id="&lt;Path&gt;" class="s37" d="m2586.4 903.4l51.5 95.7c-3.4 20.8-56 21.4-64.2 9-0.8-1.3-1.3-2.8-1.6-4.3l-30.8-63.9c-1.3-6.2 15.8-27.2 21.4-30.2l20.5-10.9c7.9-4.2-25-4.5 3.2 4.6z"/>
					<g id="&lt;Group&gt;">
						<path id="&lt;Path&gt;" class="s38" d="m2586.7 898.9c7 41-8.4 65.4-21.3 80-12.8 14.7-38.1 16.6-63.5-24.6-25.4-41.1-19.6-73.4-19.6-73.4 8.7-41.2 97.4-23 104.4 18z"/>
						<path id="&lt;Path&gt;" class="s39" d="m2555.9 903.3c0 0-41.1-54-72.7-6.9l0.5 16.3c0 0-41.1-2-36.6-39.8 4.5-37.9 38-63.7 84.5-50.8 46.5 12.9 73.6 27.7 78.9 59.9 5.2 32.3-21.1 27-21.1 27 0 0-10.1-22.2-22.2-23.7-12.2-1.6-7.8 16.1-7.8 16.1z"/>
						<path id="&lt;Path&gt;" class="s40" d="m2565.4 901.9c0 0-21.4-27.7-2-33.4 19.4-5.8 18.7 27.1 17.5 39.3z"/>
					</g>
					<path id="&lt;Path&gt;" class="s41" d="m2712.4 1289.3c-93 0.7-190.3-83.1-190.3-83.1 0 0-18.5 8.6-31.6-14.3-13-22.9-0.2-31.6-12.2-32.8-6.2-0.7-13.3-4.8-18.7-8.6-2.9-2-1.2-6.4 2.2-6.2 7.5 0.6 17.8 1.6 26.9 3 16.9 2.7 40.3 24.8 40.3 24.8 48.3 45.2 195.1 65.7 195.1 65.7 11.2 44-11.7 51.5-11.7 51.5z"/>
					<g id="&lt;Group&gt;">
						<path id="&lt;Path&gt;" class="s42" d="m2355.7 1086.2l50.8-6.7c6-1 12.3 2.6 16 9.1l33.4 73.8c6.3 11 1.8 25.7-8.3 27.3l-40.8 5.3c-3.9 0.6-7.9-1.8-10.1-6.2l-45.1-90.1c-2.7-5.3-0.5-11.7 4.1-12.5z"/>
					</g>
					<path id="&lt;Path&gt;" class="s43" d="m2691.2 1037.5c0 0 138.3 204.8 21.2 251.8l-21.2-57.1c0 0 14-31.7-27.2-111.1-5.5-10.5-8.1-22.2-7.6-34 1.4-34.3 7.6-98.1 34.8-49.6z"/>
					<path id="&lt;Path&gt;" class="s44" d="m2690.2 1234.4c-1.2-0.5-1.8-2-1.3-3.2 0.2-0.3 12.8-32-27.1-109-0.7-1.2-0.2-2.7 1-3.3 1.2-0.6 2.7-0.2 3.4 1.1 41.3 79.5 27.9 111.8 27.3 113.2-0.4 0.9-1.3 1.4-2.3 1.4q-0.5 0-1-0.2z"/>
					<path id="&lt;Path&gt;" class="s45" d="m2390.4 1185.7c0 0-34.2-49.6-30.2-55.7 4-6.1 33.9-14.9 40.9-17 7-2 20.2 43-10.7 72.7z"/>
				</g>
			</g>
			<g id="&lt;Group&gt;">
				<g id="&lt;Group&gt;">
					<path id="&lt;Path&gt;" class="s46" d="m3010.4 2856.9c0 0 0 54.3 0 59.3 0 53.1-78.1 6.7-91.8 3.9-3.9-0.7 91.8-63.2 91.8-63.2z"/>
					<path id="&lt;Path&gt;" class="s47" d="m2898.5 2880.5c-37.2-4.3-3.9-201.5-5.7-201.5-1.8 0-2.9-39.3-2.9-39.3 0 0-6.9-1.9-10.3-20-3.4-18.2 16.4-34 16.4-34 0 0-11.4-19.6-10-38.5 1.4-18.8 32.7 43.9 39.1 60.4 6.4 16.5-0.5 41.4 3.8 98.2 4.3 56.8 38.6 114.7 38.6 114.7-1.8 90.7-31.8 64.3-69 60z"/>
					<path id="&lt;Path&gt;" class="s48" d="m2869.4 2605.7c-0.3-2.6-24.3-54.9-20-60.8 4.3-6 8.6-11.3 15.4 6.4 6.7 17.6 14.7 65.5 12.2 65.8-2.6 0.3-6.3-2-7.6-11.4z"/>
					<path id="&lt;Path&gt;" class="s49" d="m2651.3 3195.8c0 4.7-61.7 6.5-93.2 7.2-3 0.1-5.7-1.7-6.8-4.4-1.1-2.7-0.3-5.7 1.9-7.6 12.7-11.1 32.4-25.9 49.2-28.9 24.1-2.2 42.3 12.9 42.3 12.9 0 0 6.6 14.6 6.6 20.8z"/>
					<path id="&lt;Path&gt;" class="s50" d="m2657.2 3148.4l-14.5 27.4c0 0-32.7 2.7-31.6-10.2 1-12.9 9.1-28.4 9.1-28.4z"/>
					<path id="&lt;Path&gt;" class="s10" d="m3019.7 3192.5c-6 7-14.9 11-24.1 10.7-186.1-5.4-208.7-194.8-232.9-274.1-8.5 108.7-102.5 236-102.5 236l-49.2-13.4c0 0 73.8-270.7 99.5-310.3 25.7-39.7 277 122.4 277 122.4 0 0 16.5 79.5 39.1 203.3 1.7 9.1-0.9 18.4-6.9 25.4z"/>
					<path id="&lt;Path&gt;" class="s51" d="m2483.5 3164l-30 28.4-23.6-23.6 31.1-35.9z"/>
					<path id="&lt;Path&gt;" class="s52" d="m3092.7 2588.4l58.8 75.5c2.7 3.5 3.1 8.3 1.1 11.9-7.7 13-29.7 41.9-76.5 42.4-5.3 0-10.4-3.4-13-8.6l-36.5-71.9z"/>
					<g id="&lt;Group&gt;">
						<path id="&lt;Path&gt;" class="s53" d="m3086.5 2473.3l7.1 119.6c-41 55.4-108.8 54.5-132.3 18.9-23.5-35.6-8.5-121.8-8.5-121.8z"/>
						<path id="&lt;Path&gt;" class="s54" d="m3059.2 2547.3c-2.7 0-4.7-2.3-4.2-5 1.3-7.9 3.3-23.9 0.8-36.1 0 0 6.6-9.8-29.1-3.3-35.6 6.5-89 15.8-111.2-7.2-21.6-22.4-25.4-101.1 39.5-65.7 2.5 1.3 5.6 0 6.3-2.7 2.8-11.8 12.6-38 42.2-37.8 27.7 0.2 37.7 16 41.2 24.6 1 2.6 4.1 3.6 6.4 2 10.7-7.4 37.9-21.7 63.7 1.3 21.2 19 20.2 35.5 16.7 44.9-1.2 3 1.3 6.1 4.5 5.7 8.7-1 21.5 1.1 28.5 19.6 9.6 25.5-19.2 35.5-27.6 37.9-1.4 0.4-2.5 1.4-3 2.8-3.5 10.5-18.3 57.5-49.8 76-2.7 1.5-7.8-1.9-8.1-5l-4-48c-0.2-2.2-2.1-4-4.3-4z"/>
						<path id="&lt;Path&gt;" class="s55" d="m3054.2 2552.6c0 0 25.1-40.6 36.9-20.9 11.9 19.6-19.1 44.4-39.9 44.3z"/>
					</g>
					<path id="&lt;Path&gt;" class="s56" d="m3057.5 2864.4c0 0-139.5 86.1-212.6 59.7-100.7-36.5-41.4-280.5-41.4-280.5l48.2 12.9c0 0-11.8 138.2 9.6 162.9 21.5 24.6 136-23.6 136-23.6z"/>
					<path id="&lt;Path&gt;" class="s57" d="m3263.3 2874.3c0 0-13.6 188-102.9 253.8-98.1-22.9-179-103.2-179-103.2 0 0 4.2-54.4 12-124.7-8 2.1-12.8 3.1-12.8 3.1 0 0-22.4-22.3-63.9-81.2 23.6-10.4 58.7-38.7 98.6-82.4q0.2-1.3 0.4-2.5c4.5-26.1 16.6-50.3 34.7-69.6 15.8-17 36.1-34.6 54.5-38.6 62.4-13.8 165.4 22.2 158.4 245.3z"/>
					<path id="&lt;Path&gt;" class="s1" d="m3160.4 3128.1c0 0-40.2 119.5-238.6 52.5-96.2-32.5-230.9-220.8-230.9-220.8 0 0-33.2 91.1-206.9 213.3l-38.5-34.7c0 0 175.7-302.9 265.8-271.5 90 31.4 476.6 183.7 449.1 261.2z"/>
					<path id="&lt;Path&gt;" class="s58" d="m2442.8 3201c-23.6 1.4-70.2 0.9-98.6 0.5-3.7-0.1-6.9-2.6-7.9-6.2-0.9-3.5 0.6-7.3 3.8-9.2 14.5-8.7 36-17.2 61.1-13.4l28.7-7.6c0 0 30.9 13.5 38.2 13.4 15.4 21.4 10.1 20.4-25.3 22.5z"/>
					<path id="&lt;Path&gt;" class="s59" d="m3033 2889.7c-0.6 0-1.1-0.3-1.3-0.9-0.1-0.7 0.3-1.4 1-1.6 0.3 0 30.7-7.6 63.4-26.3 30.1-17.2 68.3-47.6 79.6-94.6 0.1-0.7 0.8-1.1 1.5-0.9 0.7 0.1 1.1 0.8 0.9 1.5-11.5 47.9-50.3 78.8-80.8 96.2-33 18.8-63.7 26.5-64 26.6q-0.2 0-0.3 0z"/>
					<g id="&lt;Group&gt;">
						<g id="&lt;Group&gt;">
							<path id="&lt;Path&gt;" class="s60" d="m2778 2531.9c-0.9-2.1-0.7-4.5 0.4-6.5 1.1-2 3-3.4 5.3-3.8l55.9-10.7c2.1-0.4 4.3 0.9 4.9 3l43 138.6c0.2 0.6 0.1 1.2-0.2 1.7-0.3 0.6-0.8 1-1.4 1.2l-46.7 14c-3.8 1.2-7.9-0.8-9.3-4.5z"/>
							<path id="&lt;Path&gt;" class="s1" d="m2795.6 2533.3c-0.5-1.2-0.3-2.6 0.3-3.7 0.7-1.1 1.8-1.9 3-2.1l37.1-6.3c2.2-0.3 4.3 0.9 4.9 3l36.5 118.1c0.2 0.6 0.1 1.2-0.2 1.8-0.3 0.6-0.9 1-1.5 1.1l-33.2 8c-1.2 0.3-2.4-0.3-2.8-1.4z"/>
							<path id="&lt;Path&gt;" class="s61" d="m2813.4 2521.4c-0.1-0.4 0.5-0.9 1.3-1.1l12.2-2.6c0.9-0.1 1.6 0.1 1.7 0.5l0.1 0.4c0.1 0.5-0.5 1-1.4 1.1l-12.1 2.6c-0.9 0.2-1.6 0-1.7-0.5z"/>
						</g>
					</g>
					<path id="&lt;Path&gt;" class="s62" d="m2802.8 2646.3c-0.7-6.2-21.3-45.3-13.3-60.3 8.1-15 11.3-40.7 19.1-33.5 7.7 7.2-1.9 32.4 1.6 39.9 3.4 7.5 16.8 26.6 18.6 41.4 1.7 14.9 11.6 36.1-9.3 39-20.9 3-16.7-26.5-16.7-26.5z"/>
					<path id="&lt;Path&gt;" class="s63" d="m3023.7 2734.9q-0.4 0-0.7-0.2c-0.6-0.4-0.7-1.2-0.3-1.8 2.3-3.4 58.3-84.3 90.5-70.6 0.6 0.2 0.9 1 0.7 1.6-0.3 0.7-1.1 1-1.7 0.7-30.3-12.9-86.9 68.9-87.4 69.8-0.3 0.3-0.7 0.5-1.1 0.5z"/>
					<path id="&lt;Compound Path&gt;" fill-rule="evenodd" class="s64" d="m2898.1 2659.3c-0.4 0-0.8-0.1-1.1-0.5-9.8-13.5-3.6-29-0.9-35.6 0.3-0.8 0.6-1.8 0.8-2.2-1.2-2.7-5.9-16.4-4.5-24.9 0.4-2 1.4-2.6 2.2-2.8 4.4-0.8 13.9 13.7 17.8 20 0.4 0.6 0.2 1.4-0.4 1.7-0.6 0.4-1.3 0.2-1.7-0.4-6.4-10.2-13.3-18.8-15.2-18.8q0 0 0 0c0 0-0.1 0.2-0.2 0.7-1.3 8.2 3.6 22.3 4.3 23.6 0.5 0.8 0.2 1.6-0.8 4-2.5 6.2-8.3 20.8 0.7 33.2 0.4 0.6 0.3 1.4-0.3 1.8q-0.4 0.2-0.7 0.2zm-1.1-37.9z"/>
				</g>
				<path id="&lt;Path&gt;" class="s1" d="m2923.3 2490.6c-0.8 0-1.5-0.4-1.9-1.1-10-17-13.1-31.5-9.3-43 3.7-11.3 12.7-15.3 13.1-15.5 1.1-0.5 2.4 0 2.9 1.2 0.5 1.1 0 2.4-1.1 2.9-0.4 0.2-7.7 3.6-10.7 12.9-3.3 10.3-0.3 23.4 9 39.2 0.6 1.1 0.2 2.5-0.9 3.1q-0.5 0.3-1.1 0.3z"/>
			</g>
		</g>
	</g>
</svg>