<svg version="1.2" xmlns="http://www.w3.org/2000/svg" viewBox="0 0 3710 3710" width="3710" height="3710">
	<title>20943752-ai</title>
	<defs>
		<linearGradient id="g1" x1="2463.8" y1="4222.2" x2="562.3" y2="2558.4" gradientUnits="userSpaceOnUse">
			<stop offset="0" stop-color="#dae3fe"/>
			<stop offset="1" stop-color="#e9effd"/>
		</linearGradient>
		<linearGradient id="g2" x1="818.9" y1="453" x2="1207.9" y2="453" gradientUnits="userSpaceOnUse">
			<stop offset="0" stop-color="#febbba"/>
			<stop offset="1" stop-color="#ff928e"/>
		</linearGradient>
		<linearGradient id="g3" x1="1137.5" y1="480.9" x2="706" y2="2419.4" gradientUnits="userSpaceOnUse">
			<stop offset="0" stop-color="#ff928e"/>
			<stop offset="1" stop-color="#fe7062"/>
		</linearGradient>
		<linearGradient id="g4" x1="3141.2" y1="1247" x2="3192.8" y2="3267.1" gradientUnits="userSpaceOnUse">
			<stop offset="0" stop-color="#09005d"/>
			<stop offset="1" stop-color="#1a0f91"/>
		</linearGradient>
		<linearGradient id="g5" x1="4004.2" y1="2125.5" x2="-860.9" y2="6928.8" gradientUnits="userSpaceOnUse">
			<stop offset="0" stop-color="#4f52ff"/>
			<stop offset="1" stop-color="#4042e2"/>
		</linearGradient>
		<linearGradient id="g6" x1="3405.2" y1="1850.6" x2="3300.8" y2="2985.9" gradientUnits="userSpaceOnUse">
			<stop offset="0" stop-color="#09005d"/>
			<stop offset="1" stop-color="#1a0f91"/>
		</linearGradient>
		<linearGradient id="g7" x1="2446" y1="811.8" x2="2579.6" y2="811.8" gradientUnits="userSpaceOnUse">
			<stop offset="0" stop-color="#dae3fe"/>
			<stop offset="1" stop-color="#e9effd"/>
		</linearGradient>
		<linearGradient id="g8" x1="2342.6" y1="709.3" x2="2681.6" y2="709.3" gradientUnits="userSpaceOnUse">
			<stop offset="0" stop-color="#dae3fe"/>
			<stop offset="1" stop-color="#e9effd"/>
		</linearGradient>
		<linearGradient id="g9" x1="2966.2" y1="1042.3" x2="3058.3" y2="1042.3" gradientUnits="userSpaceOnUse">
			<stop offset="0" stop-color="#dae3fe"/>
			<stop offset="1" stop-color="#e9effd"/>
		</linearGradient>
		<linearGradient id="g10" x1="2895.4" y1="971" x2="3129.3" y2="971" gradientUnits="userSpaceOnUse">
			<stop offset="0" stop-color="#dae3fe"/>
			<stop offset="1" stop-color="#e9effd"/>
		</linearGradient>
		<linearGradient id="g11" x1="1109.1" y1="1205" x2="2431.2" y2="1205" gradientUnits="userSpaceOnUse">
			<stop offset="0" stop-color="#dae3fe"/>
			<stop offset="1" stop-color="#e9effd"/>
		</linearGradient>
		<linearGradient id="g12" x1="1134.1" y1="1367.8" x2="2013.2" y2="1367.8" gradientUnits="userSpaceOnUse">
			<stop offset="0" stop-color="#dae3fe"/>
			<stop offset="1" stop-color="#e9effd"/>
		</linearGradient>
		<linearGradient id="g13" x1="1088.3" y1="1582.2" x2="2410.4" y2="1582.2" gradientUnits="userSpaceOnUse">
			<stop offset="0" stop-color="#dae3fe"/>
			<stop offset="1" stop-color="#e9effd"/>
		</linearGradient>
		<linearGradient id="g14" x1="1113.3" y1="1745" x2="1992.4" y2="1745" gradientUnits="userSpaceOnUse">
			<stop offset="0" stop-color="#dae3fe"/>
			<stop offset="1" stop-color="#e9effd"/>
		</linearGradient>
		<linearGradient id="g15" x1="2310.5" y1="1987.6" x2="1854" y2="2859.5" gradientUnits="userSpaceOnUse">
			<stop offset="0" stop-color="#09005d"/>
			<stop offset="1" stop-color="#1a0f91"/>
		</linearGradient>
		<linearGradient id="g16" x1="2216.7" y1="2106.1" x2="2331.1" y2="2106.1" gradientUnits="userSpaceOnUse">
			<stop offset="0" stop-color="#09005d"/>
			<stop offset="1" stop-color="#1a0f91"/>
		</linearGradient>
		<linearGradient id="g17" x1="2857.3" y1="3233.7" x2="2682.9" y2="3233.7" gradientUnits="userSpaceOnUse">
			<stop offset="0" stop-color="#09005d"/>
			<stop offset="1" stop-color="#1a0f91"/>
		</linearGradient>
		<linearGradient id="g18" x1="2910.2" y1="3155" x2="2832.1" y2="3284.1" gradientUnits="userSpaceOnUse">
			<stop offset="0" stop-color="#4f52ff"/>
			<stop offset="1" stop-color="#4042e2"/>
		</linearGradient>
		<linearGradient id="g19" x1="2841" y1="3129.4" x2="2791.5" y2="3129.4" gradientUnits="userSpaceOnUse">
			<stop offset="0" stop-color="#febbba"/>
			<stop offset="1" stop-color="#ff928e"/>
		</linearGradient>
		<linearGradient id="g20" x1="3206.3" y1="3226" x2="3140.4" y2="3226" gradientUnits="userSpaceOnUse">
			<stop offset="0" stop-color="#09005d"/>
			<stop offset="1" stop-color="#1a0f91"/>
		</linearGradient>
		<linearGradient id="g21" x1="3295.2" y1="3001.4" x2="3200.5" y2="3248.3" gradientUnits="userSpaceOnUse">
			<stop offset="0" stop-color="#4f52ff"/>
			<stop offset="1" stop-color="#4042e2"/>
		</linearGradient>
		<linearGradient id="g22" x1="3154.8" y1="3083.5" x2="3096.7" y2="3083.5" gradientUnits="userSpaceOnUse">
			<stop offset="0" stop-color="#febbba"/>
			<stop offset="1" stop-color="#ff928e"/>
		</linearGradient>
		<linearGradient id="g23" x1="3340.7" y1="2557.3" x2="3100.8" y2="3270.1" gradientUnits="userSpaceOnUse">
			<stop offset="0" stop-color="#09005d"/>
			<stop offset="1" stop-color="#1a0f91"/>
		</linearGradient>
		<linearGradient id="g24" x1="3287.5" y1="1516.3" x2="2840.1" y2="2608.7" gradientUnits="userSpaceOnUse">
			<stop offset="0" stop-color="#e1473d"/>
			<stop offset="1" stop-color="#e9605a"/>
		</linearGradient>
		<linearGradient id="g25" x1="2922.1" y1="2434.7" x2="2784.1" y2="2734.9" gradientUnits="userSpaceOnUse">
			<stop offset="0" stop-color="#4f52ff"/>
			<stop offset="1" stop-color="#4042e2"/>
		</linearGradient>
		<linearGradient id="g26" x1="2323.6" y1="-1700.6" x2="2270.9" y2="-2010.1" gradientUnits="userSpaceOnUse">
			<stop offset="0" stop-color="#febbba"/>
			<stop offset="1" stop-color="#ff928e"/>
		</linearGradient>
		<linearGradient id="g27" x1="3293.6" y1="1476.3" x2="2823" y2="2625.1" gradientUnits="userSpaceOnUse">
			<stop offset="0" stop-color="#e1473d"/>
			<stop offset="1" stop-color="#e9605a"/>
		</linearGradient>
		<linearGradient id="g28" x1="2987.3" y1="1345.6" x2="2516.8" y2="2494.4" gradientUnits="userSpaceOnUse">
			<stop offset="0" stop-color="#e1473d"/>
			<stop offset="1" stop-color="#e9605a"/>
		</linearGradient>
		<linearGradient id="g29" x1="2533.1" y1="2222.5" x2="2363.9" y2="2265.2" gradientUnits="userSpaceOnUse">
			<stop offset="0" stop-color="#febbba"/>
			<stop offset="1" stop-color="#ff928e"/>
		</linearGradient>
		<linearGradient id="g30" x1="2587.9" y1="1832.1" x2="2589.6" y2="2135.7" gradientUnits="userSpaceOnUse">
			<stop offset="0" stop-color="#febbba"/>
			<stop offset="1" stop-color="#ff928e"/>
		</linearGradient>
		<linearGradient id="g31" x1="2498.2" y1="1821.2" x2="2609.4" y2="2023" gradientUnits="userSpaceOnUse">
			<stop offset="0" stop-color="#febbba"/>
			<stop offset="1" stop-color="#ff928e"/>
		</linearGradient>
		<linearGradient id="g32" x1="2671.2" y1="1723.8" x2="2500.4" y2="1699.2" gradientUnits="userSpaceOnUse">
			<stop offset="0" stop-color="#09005d"/>
			<stop offset="1" stop-color="#1a0f91"/>
		</linearGradient>
		<linearGradient id="g33" x1="2749" y1="1921.7" x2="2670.3" y2="1813.6" gradientUnits="userSpaceOnUse">
			<stop offset="0" stop-color="#febbba"/>
			<stop offset="1" stop-color="#ff928e"/>
		</linearGradient>
		<linearGradient id="g34" x1="1840.2" y1="2691.3" x2="4051.3" y2="2628" gradientUnits="userSpaceOnUse">
			<stop offset="0" stop-color="#09005d"/>
			<stop offset="1" stop-color="#1a0f91"/>
		</linearGradient>
		<linearGradient id="g35" x1="1960.1" y1="2619.6" x2="1654.1" y2="2602.3" gradientUnits="userSpaceOnUse">
			<stop offset="0" stop-color="#09005d"/>
			<stop offset="1" stop-color="#1a0f91"/>
		</linearGradient>
		<linearGradient id="g36" x1="1606.4" y1="2681.6" x2="2775.5" y2="2846.6" gradientUnits="userSpaceOnUse">
			<stop offset="0" stop-color="#febbba"/>
			<stop offset="1" stop-color="#ff928e"/>
		</linearGradient>
		<linearGradient id="g37" x1="2228.9" y1="-1213.6" x2="2182.3" y2="-1487.4" gradientUnits="userSpaceOnUse">
			<stop offset="0" stop-color="#febbba"/>
			<stop offset="1" stop-color="#ff928e"/>
		</linearGradient>
		<linearGradient id="g38" x1="2428.3" y1="2319.6" x2="2384.3" y2="2319.6" gradientUnits="userSpaceOnUse">
			<stop offset="0" stop-color="#febbba"/>
			<stop offset="1" stop-color="#ff928e"/>
		</linearGradient>
	</defs>
	<style>
		.s0 { fill: url(#g1) } 
		.s1 { fill: url(#g2) } 
		.s2 { mix-blend-mode: soft-light;fill: #ffffff } 
		.s3 { fill: url(#g3) } 
		.s4 { fill: url(#g4) } 
		.s5 { fill: url(#g5) } 
		.s6 { fill: #91b3fa } 
		.s7 { fill: url(#g6) } 
		.s8 { fill: #bdd0fb } 
		.s9 { fill: url(#g7) } 
		.s10 { fill: url(#g8) } 
		.s11 { fill: url(#g9) } 
		.s12 { fill: url(#g10) } 
		.s13 { fill: #7d97f4 } 
		.s14 { fill: url(#g11) } 
		.s15 { fill: url(#g12) } 
		.s16 { fill: url(#g13) } 
		.s17 { fill: url(#g14) } 
		.s18 { fill: url(#g15) } 
		.s19 { fill: url(#g16) } 
		.s20 { fill: url(#g17) } 
		.s21 { fill: url(#g18) } 
		.s22 { fill: url(#g19) } 
		.s23 { fill: url(#g20) } 
		.s24 { fill: url(#g21) } 
		.s25 { fill: url(#g22) } 
		.s26 { fill: url(#g23) } 
		.s27 { fill: url(#g24) } 
		.s28 { fill: url(#g25) } 
		.s29 { fill: url(#g26) } 
		.s30 { fill: url(#g27) } 
		.s31 { fill: url(#g28) } 
		.s32 { fill: url(#g29) } 
		.s33 { fill: url(#g30) } 
		.s34 { fill: url(#g31) } 
		.s35 { fill: url(#g32) } 
		.s36 { fill: url(#g33) } 
		.s37 { fill: url(#g34) } 
		.s38 { fill: url(#g35) } 
		.s39 { fill: url(#g36) } 
		.s40 { fill: url(#g37) } 
		.s41 { fill: url(#g38) } 
	</style>
	<g id="Illustration">
		<g id="&lt;Group&gt;">
			<path id="&lt;Path&gt;" class="s0" d="m3062.3 2363.6c-264.1 621.8-967.6 970.2-1577.7 876.2-99.2-15.3-371.4-60.8-612.3-275.7-463.9-413.7-563.1-1232.8-188.9-1810 272.3-420.1 760.5-658.3 1224.4-646.4 99.9 2.6 482.8 18.4 819.4 295.9 49.4 40.7 158.4 137.6 256.7 291.3 230.7 360.8 250.5 863.4 78.4 1268.7z"/>
			<g id="&lt;Group&gt;">
				<path id="&lt;Path&gt;" class="s1" d="m733 469c-2.5-10.8 10.4-18.4 18.7-11.1 84.7 74.2 289.5 298.1 254.1 702.8-44.4 507.7 67.2 688.6 202.1 796.7 0 0-181.9-46.9-301.5-230.2-293.7-450.2-127.6-1066.5-173.4-1258.2z"/>
				<path id="&lt;Path&gt;" class="s2" d="m803 621.3c1.5-0.4 3.2 0.5 3.6 2.1 14.7 55.5 27.2 111.5 38.3 167.9 10.7 56.4 19.7 113.1 27 170.1q2.7 21.4 5.1 42.9c1.4 14.3 2.9 28.5 4.1 42.9q3.9 42.9 6.2 86c3.3 57.4 4.2 115 4.7 172.3 0.4 57.2 0.5 114.3 6.4 170.5 2.9 28.1 7.4 55.9 14 83.1 6.6 27.3 15.3 53.9 25.9 79.9 21.9 51.6 50 101.1 84.6 145.2 17.2 22.2 36 43.1 56.3 62.6 5 4.9 10.3 9.5 15.4 14.3 5.3 4.6 10.5 9.3 16 13.8 10.7 9.1 21.8 17.8 33.1 26.3v0.1c4.8 3.6 5.8 10.3 2.3 15.2-3.5 5-10.4 6.1-15.4 2.6-47.2-33.8-90.4-74.1-126.7-120-18.1-23-34.4-47.3-49-72.5-7.3-12.7-14.3-25.5-20.8-38.5-6.6-13-12.6-26.4-18.3-39.8-22.7-54.1-35.2-112.1-40.7-169.9-5.6-57.9-5.3-115.6-5.3-172.9 0.3-57.3 0.4-114.4-1.9-171.4-2.1-57-6.6-114-12.2-170.8-5.8-56.8-13.4-113.5-22.7-169.9-9-56.5-20-112.6-32.2-168.6-0.3-1.5 0.6-3.1 2.2-3.5z"/>
			</g>
			<g id="&lt;Group&gt;">
				<g id="&lt;Group&gt;">
					<path id="&lt;Path&gt;" class="s3" d="m886.2 2114c-5.1 19.8-28.7 27.9-45.1 15.7-90.1-67.6-327.8-281.8-343-670.5-12.9-328.2-51.1-505-74-584.1-4.8-16.7 14.5-29.9 28.3-19.3 152.5 116.7 619.5 541.9 433.8 1258.2z"/>
					<path id="&lt;Path&gt;" class="s2" d="m858.7 2116.8q-0.6 0.5-1.3 0.9c-3.8 2-8.7 0.5-10.7-3.4-2.4-4.4-234-446.4-272.5-902-0.4-4.4 2.8-8.2 7.2-8.6 4.4-0.4 8.3 2.9 8.6 7.3 38.3 452.3 268.4 891.5 270.8 895.9 1.8 3.4 0.8 7.6-2.1 9.9z"/>
				</g>
			</g>
			<g id="&lt;Group&gt;">
				<path id="&lt;Path&gt;" class="s4" d="m581.7 1658c-0.8-30.9 11.2-60.8 33.1-82.6 21.9-21.8 51.9-33.7 82.8-32.9l2369.6 61.3c53.2-3.6 82.3 44.4 82.3 69.1l-20.2 1393.4c0 24.6-20.2 44.8-44.8 44.8h-2424.7c-24.7 0-44.8-20.2-44.8-44.8z"/>
				<path id="&lt;Path&gt;" class="s5" d="m625.5 1676.8c-0.6-21.7 7.9-42.7 23.3-58.1 15.4-15.3 36.4-23.7 58.1-23.1l2271.1 60.9c40.5-1.6 107.2 25.7 109.4 101.9l-19 1264.9c0 23.3-19.1 42.4-42.4 42.4h-2324.4c-23.3 0-42.4-19.1-42.4-42.4z"/>
				<g id="&lt;Group&gt;" style="opacity: .7">
					<path id="&lt;Path&gt;" class="s6" d="m3043.3 2422.4q-0.1 0-0.1 0c-3.4-0.1-6.2-2.9-6.1-6.3l1.5-102.6c0-3.4 2.8-6.2 6.2-6.2q0 0 0.1 0c3.4 0.1 6.2 2.9 6.1 6.4l-1.5 102.5c-0.1 3.4-2.8 6.2-6.2 6.2z"/>
					<path id="&lt;Path&gt;" class="s6" d="m3047 2171c0 0-0.1 0-0.1 0-3.4-0.1-6.2-2.9-6.1-6.3l5.7-392.9c-0.1-23.4-7.2-42-21-55.3-25.9-24.8-67-23.5-68.7-23.4l-725.9-19.5c-3.5-0.1-6.2-2.9-6.1-6.4 0.1-3.4 2.8-6.3 6.4-6l725.5 19.4c4.5-0.2 48.2-1 77.4 26.9 16.4 15.7 24.7 37.4 24.9 64.3l-5.8 393.1c-0.1 3.4-2.8 6.1-6.2 6.1z"/>
				</g>
				<path id="&lt;Path&gt;" class="s7" d="m418.3 3221.1v-111.1c0-3.2 2.5-5.7 5.6-5.7h2847.3c3.1 0 5.6 2.5 5.6 5.7v111.1c0 3.1-2.5 5.6-5.6 5.6h-2847.3c-3.1 0-5.6-2.5-5.6-5.6z"/>
			</g>
			<g id="&lt;Group&gt;">
				<g id="&lt;Group&gt;">
					<g id="&lt;Group&gt;" style="opacity: .3">
						<path id="&lt;Compound Path&gt;" class="s8" d="m2907.8 913.3c-5.6-0.2-9.9-5-9.7-10.6 0.5-10.8 0.4-21.9 0-32.8-0.3-5.6 3.9-10.3 9.5-10.6q0.1 0 0.2 0c5.6-0.3 10.3 4.1 10.5 9.7 0.6 11.5 0.6 23.1 0.1 34.6-0.2 5.2-4.4 9.4-9.5 9.7q-0.5 0-1.1 0zm-15.8-96.5c-1.9-10.8-4.4-21.6-7.2-32.1-1.5-5.4 1.7-11 7.1-12.4 5.4-1.5 11 1.7 12.4 7.1 3.1 11 5.6 22.4 7.7 33.7 1 5.5-2.6 10.8-8.1 11.8q-0.6 0.1-1.2 0.2c-5.1 0.3-9.7-3.2-10.7-8.3zm-24.8-82.5c-4.3-10-9.1-20-14.3-29.6-2.6-4.9-0.8-11.1 4.2-13.7 4.9-2.7 11.1-0.8 13.7 4.1 5.4 10.1 10.5 20.6 15 31.2 2.2 5.2-0.1 11.1-5.3 13.3q-1.7 0.7-3.4 0.8c-4.1 0.3-8.2-2-9.9-6.1zm-42.7-74.8c-6.5-8.8-13.4-17.5-20.5-25.7-3.7-4.2-3.3-10.7 0.9-14.3 4.3-3.7 10.7-3.3 14.4 0.9 7.5 8.7 14.8 17.8 21.6 27.1 3.3 4.5 2.3 10.9-2.2 14.2-1.7 1.2-3.5 1.8-5.4 1.9-3.3 0.2-6.7-1.2-8.8-4.1zm-58.3-63.5c-8.3-7.1-16.9-14-25.7-20.5-4.6-3.3-5.5-9.7-2.2-14.2 3.3-4.5 9.6-5.5 14.1-2.2 9.3 6.8 18.4 14.1 27.1 21.6 4.2 3.7 4.7 10.1 1 14.3-1.9 2.2-4.4 3.3-7 3.5-2.6 0.2-5.2-0.7-7.3-2.5zm-70.9-49c-9.6-5.1-19.6-9.9-29.6-14.3-5.2-2.2-7.5-8.2-5.3-13.3 2.2-5.2 8.2-7.5 13.3-5.3 10.6 4.6 21.1 9.6 31.2 15.1 4.9 2.6 6.8 8.8 4.1 13.7-1.7 3.2-4.9 5.1-8.3 5.3-1.8 0.2-3.7-0.2-5.4-1.2zm-376.9-4.7c-2.7-4.9-0.8-11.1 4.1-13.7 10.2-5.4 20.7-10.4 31.3-15 5.1-2.2 11.1 0.2 13.3 5.4 2.2 5.1-0.2 11.1-5.3 13.3-10.1 4.3-20.1 9.1-29.7 14.2-1.3 0.7-2.7 1.1-4.1 1.2-3.9 0.2-7.7-1.8-9.6-5.4zm296.9-27.3c-10.5-2.9-21.2-5.3-32-7.3-5.5-1-9.1-6.3-8.1-11.9 1-5.5 6.3-9.1 11.8-8.1 11.3 2.1 22.7 4.7 33.7 7.8 5.4 1.4 8.6 7 7.1 12.4-1.1 4.3-4.9 7.2-9.1 7.5q-1.7 0.1-3.4-0.4zm-215.5-7.3c-1.5-5.5 1.7-11 7.1-12.5 11.1-3 22.5-5.6 33.8-7.6 5.5-1 10.8 2.7 11.8 8.2 1 5.5-2.7 10.8-8.2 11.8-10.8 1.9-21.6 4.4-32.1 7.2q-1 0.3-2 0.3c-4.7 0.3-9.2-2.7-10.4-7.4zm130.5-6c-10.9-0.5-22-0.5-32.9 0-5.6 0.2-10.3-4.1-10.6-9.8-0.2-5.5 4-10.2 9.5-10.5q0.1 0 0.2 0c11.5-0.5 23.2-0.5 34.7 0 5.6 0.2 9.9 5 9.7 10.6-0.3 5.2-4.4 9.3-9.5 9.7q-0.6 0-1.1 0z"/>
						<path id="&lt;Path&gt;" class="s8" d="m2259.8 583c-3.5-4.4-2.8-10.8 1.6-14.3 4.3-3.4 8.8-6.8 13.2-10.1 4.6-3.3 10.9-2.3 14.2 2.2 3.3 4.6 2.3 10.9-2.2 14.2-4.2 3.1-8.5 6.3-12.6 9.6-1.7 1.3-3.6 2-5.6 2.2-3.2 0.2-6.5-1.1-8.6-3.8z"/>
					</g>
					<g id="&lt;Group&gt;" style="opacity: .3">
						<path id="&lt;Path&gt;" class="s8" d="m2118.8 858.5c-5.6-0.5-9.7-5.4-9.2-11 0.6-5.5 1.2-11.1 2-16.6 0.7-5.5 5.8-9.4 11.4-8.6 5.5 0.7 9.4 5.8 8.7 11.4-0.7 5.2-1.4 10.5-1.9 15.7-0.4 5-4.5 8.9-9.4 9.2q-0.8 0-1.6-0.1z"/>
						<path id="&lt;Compound Path&gt;" class="s8" d="m2518.6 1291.9c-5.6 0.1-10.2-4.4-10.3-10-0.1-5.6 4.4-10.2 10-10.3 10.7-0.1 21.5-0.7 32.3-1.8 5.6-0.6 10.5 3.5 11.1 9.1 0.5 5.6-3.6 10.6-9.1 11.1q-7.1 0.7-14.1 1.1c-6.6 0.5-13.3 0.7-19.9 0.8zm76.3-18.5c-1.3-5.5 2.1-10.9 7.6-12.2 10.4-2.5 20.9-5.5 31.1-8.8 5.3-1.8 11.1 1.2 12.8 6.5 1.8 5.3-1.1 11-6.5 12.8-10.7 3.5-21.7 6.6-32.8 9.2q-0.8 0.2-1.7 0.3c-4.8 0.3-9.3-2.9-10.5-7.8zm-131.6 15.5c-11.2-1.4-22.5-3.2-33.6-5.6-5.4-1.1-9-6.5-7.8-12 1.2-5.5 6.5-9 12-7.8 10.6 2.2 21.3 4 31.9 5.3 5.6 0.7 9.5 5.7 8.9 11.3-0.6 4.9-4.7 8.6-9.5 8.9q-0.9 0-1.9-0.1zm214.3-42.7c-2.4-5-0.3-11.1 4.7-13.5 9.7-4.8 19.2-9.9 28.4-15.5 4.9-2.8 11.1-1.3 14 3.6 2.8 4.8 1.3 11-3.5 13.9-9.7 5.8-19.8 11.2-30 16.2-1.2 0.6-2.5 0.9-3.8 1-4 0.3-7.9-1.9-9.8-5.7zm-301 22.1c-10.7-3.9-21.3-8.2-31.6-12.9-5.1-2.3-7.3-8.3-5-13.4 2.4-5.1 8.4-7.4 13.5-5 9.8 4.4 19.8 8.5 29.9 12.2 5.3 1.8 8 7.7 6.1 12.9-1.4 4-4.9 6.5-8.9 6.7-1.3 0.1-2.7-0.1-4-0.5zm-80.2-39.2c-9.5-6.1-18.9-12.6-27.9-19.4-4.5-3.4-5.4-9.8-2-14.3 3.4-4.4 9.7-5.3 14.2-1.9 8.6 6.5 17.5 12.7 26.6 18.4 4.7 3 6.1 9.3 3.1 14-1.8 2.9-4.8 4.5-7.9 4.7-2.1 0.2-4.2-0.3-6.1-1.5zm-69.7-55.8c-8-8-15.8-16.4-23.1-25-3.6-4.3-3-10.7 1.2-14.3 4.3-3.6 10.7-3.1 14.3 1.2 7 8.2 14.3 16.2 22 23.8 3.9 3.9 3.9 10.4 0 14.3-1.8 1.8-4.2 2.8-6.6 3-2.8 0.2-5.6-0.8-7.8-3zm-55.9-69.6c-6-9.5-11.8-19.4-17-29.5-2.6-4.9-0.7-11.1 4.3-13.7 5-2.6 11.1-0.6 13.7 4.3 5 9.5 10.4 19 16.2 28 3 4.8 1.6 11.1-3.1 14.1-1.5 0.9-3.2 1.4-4.8 1.5-3.6 0.2-7.2-1.4-9.3-4.7zm-39.2-80.2c-3.8-10.6-7.2-21.6-10.1-32.5-1.4-5.4 1.8-11 7.2-12.4 5.4-1.4 11 1.8 12.4 7.2 2.8 10.4 6 20.8 9.6 30.9 1.9 5.2-0.8 11.1-6.1 12.9q-1.4 0.5-2.8 0.6c-4.4 0.3-8.6-2.3-10.2-6.7zm-20.6-86.8c-1.1-8.2-1.9-16.6-2.4-24.9q-0.3-4.5-0.5-9c-0.2-5.6 4.1-10.5 9.8-10.6 5.6-0.2 10.3 4.1 10.5 9.7q0.2 4.3 0.5 8.6c0.5 7.9 1.2 15.8 2.2 23.7 0.7 5.6-3.2 10.6-8.8 11.3q-0.3 0.1-0.6 0.1c-5.3 0.3-10.1-3.5-10.7-8.9z"/>
						<path id="&lt;Path&gt;" class="s8" d="m2752.5 1201.4c-3.5-4.4-2.8-10.8 1.6-14.3 4.1-3.3 8.1-6.7 12.1-10.1 4.3-3.7 10.7-3.3 14.3 0.9 3.7 4.3 3.3 10.7-0.9 14.4-4.2 3.6-8.5 7.2-12.8 10.6-1.7 1.4-3.7 2.1-5.7 2.2-3.2 0.2-6.4-1.1-8.6-3.7z"/>
					</g>
					<g id="&lt;Group&gt;">
						<path id="&lt;Compound Path&gt;" class="s8" d="m2740 1088.5c-1.2 1.7-3.3 2.4-5.2 1.8l-55.4-16.5c-20.3 17.8-43.5 32.5-69.1 43.1l-9.7 56.9c-0.3 2-1.9 3.6-3.9 3.9l-68.3 11.4c-2 0.3-4-0.7-5-2.5l-27.4-50.7c-27.7-1.8-54.5-8.2-79.4-18.5l-47.1 33.5c-1.6 1.1-3.8 1.1-5.5 0l-56.3-40.3c-1.7-1.2-2.4-3.3-1.8-5.3l16.5-55.3c-17.8-20.3-32.5-43.5-43.2-69.2l-56.9-9.6c-1.9-0.3-3.5-1.9-3.8-3.9l-11.4-68.3c-0.3-2 0.7-4 2.5-5l50.7-27.5c1.8-27.6 8.2-54.4 18.5-79.3l-33.5-47.1c-1.1-1.6-1.1-3.9 0-5.5l40.3-56.3c1.2-1.7 3.3-2.4 5.2-1.8l55.4 16.4c20.3-17.7 43.5-32.4 69.2-43.1l9.6-56.9c0.3-2 1.9-3.5 3.9-3.9l68.3-11.3c2-0.3 4 0.7 5 2.4l27.4 50.8c27.7 1.8 54.5 8.2 79.4 18.4l47.1-33.4c1.6-1.2 3.9-1.2 5.5 0l56.3 40.3c1.7 1.2 2.4 3.3 1.8 5.2l-16.4 55.4c17.7 20.3 32.4 43.5 43.1 69.1l56.9 9.7c2 0.3 3.5 1.9 3.8 3.9l11.4 68.3c0.3 2-0.7 4-2.4 4.9l-50.8 27.5c-1.8 27.7-8.2 54.5-18.5 79.4l33.5 47.1c1.2 1.6 1.2 3.8 0 5.5z"/>
						<path id="&lt;Compound Path&gt;" fill-rule="evenodd" class="s9" d="m2507 952.8c-38.2-3.2-66.8-36.9-63.6-75.2 1.6-18.5 10.2-35.3 24.4-47.4 14.2-12 32.2-17.7 50.8-16.2 38.2 3.2 66.8 36.9 63.6 75.2-2.9 34.8-31.1 61.5-64.9 63.7q-5.1 0.3-10.3-0.1zm-28.7-110.2c-10.9 9.3-17.5 22.2-18.7 36.4-2.4 29.3 19.5 55.1 48.8 57.6 29.3 2.4 55.2-19.5 57.6-48.8 2.4-29.3-19.4-55.2-48.8-57.6q-4-0.3-7.9-0.1c-11.3 0.7-22.1 5.1-31 12.5z"/>
						<path id="&lt;Path&gt;" class="s10" d="m2412.1 1021.7c-37.2-26.7-61.8-66.1-69.3-111.3q-1.4-8.7-2-17.5c-2.5-39.2 8.5-77.7 31.7-110.1 26.6-37.2 66.1-61.8 111.2-69.2 93.1-15.5 181.4 47.7 196.9 140.8q1.4 8.6 1.9 17.3c1.6 25-2.3 50.1-11.5 73.4-0.8 2.1-3.2 3.1-5.3 2.3-1.5-0.6-2.4-2-2.5-3.5q-0.1-0.9 0.3-1.8c8.7-22.2 12.4-46.1 10.9-69.9q-0.5-8.2-1.9-16.4c-14.7-88.7-98.8-148.9-187.5-134.2-43 7.1-80.6 30.5-105.9 65.9-22.1 30.9-32.6 67.6-30.2 104.9q0.5 8.4 1.9 16.7c5.3 31.7 19.4 59.8 39.4 82.1 36 40.1 91.2 61.6 148.2 52.1 11.4-1.9 22.7-5 33.4-9.3 2.1-0.8 4.5 0.2 5.3 2.3q0.2 0.6 0.3 1.3c0.1 1.7-0.9 3.3-2.6 4q-0.9 0.4-1.9 0.7-0.5 0.2-1 0.4-0.2 0.1-0.3 0.1c-8.6 3.2-17.4 5.7-26.4 7.5q-2.8 0.6-5.5 1-8.8 1.5-17.5 2c-39.2 2.5-77.8-8.5-110.1-31.6z"/>
					</g>
				</g>
				<g id="&lt;Group&gt;">
					<g id="&lt;Group&gt;" style="opacity: .3">
						<path id="&lt;Path&gt;" class="s8" d="m3269.8 1158.2c-3.4-0.8-5.5-4.1-4.8-7.5 1.2-5 2.1-10 3-15 0.5-3.5 3.7-5.8 7.2-5.2 3.4 0.6 5.7 3.8 5.1 7.2-0.8 5.2-1.8 10.5-3 15.7-0.6 2.8-3 4.7-5.7 4.9q-0.9 0.1-1.8-0.1z"/>
						<path id="&lt;Compound Path&gt;" class="s8" d="m3277.2 1110.5c-3.5-0.1-6.2-3-6-6.5 0.3-8.7 0.2-17.6-0.4-26.3q-0.2-2.8-0.4-5.5c-0.3-3.5 2.3-6.5 5.7-6.8 3.3-0.2 6.5 2.3 6.8 5.7q0.3 2.9 0.4 5.8c0.6 9.1 0.7 18.4 0.4 27.6-0.1 3.2-2.7 5.8-5.9 6q-0.3 0-0.6 0zm-11.4-69.8c-2.2-10.4-5-20.7-8.4-30.7-1.1-3.3 0.6-6.9 3.9-8 3.3-1.1 6.8 0.6 8 3.9 3.5 10.5 6.5 21.3 8.8 32.2 0.7 3.4-1.5 6.7-4.9 7.4q-0.4 0.1-0.9 0.1c-3 0.2-5.8-1.9-6.5-4.9zm-20.6-60.2c-4.6-9.5-9.9-18.8-15.7-27.7-1.9-2.9-1.1-6.8 1.8-8.6 3-1.9 6.8-1.1 8.7 1.8 6.1 9.3 11.6 19.1 16.5 29 1.5 3.1 0.2 6.9-2.9 8.4q-1.1 0.6-2.3 0.6c-2.5 0.2-4.9-1.1-6.1-3.5zm-34.7-53.2c-6.8-8.1-14.2-15.8-22-23-2.5-2.4-2.7-6.3-0.3-8.9 2.3-2.5 6.3-2.7 8.8-0.3 8.2 7.5 15.9 15.6 23.1 24.1 2.2 2.6 1.9 6.6-0.8 8.8-1 0.9-2.3 1.4-3.6 1.5-1.9 0.1-3.9-0.6-5.2-2.2zm-46.7-43.2c-8.6-6.1-17.6-11.8-26.9-16.9-3-1.7-4.1-5.5-2.5-8.5 1.7-3.1 5.5-4.2 8.5-2.5 9.8 5.3 19.3 11.3 28.3 17.8 2.8 2 3.4 5.9 1.4 8.7-1.1 1.6-2.9 2.5-4.7 2.6-1.4 0.1-2.8-0.3-4.1-1.2zm-55.7-30.5c-9.8-3.9-20-7.2-30.2-9.8-3.4-0.9-5.4-4.3-4.5-7.7 0.9-3.3 4.3-5.3 7.6-4.5 10.8 2.8 21.4 6.3 31.8 10.4 3.2 1.3 4.7 4.9 3.5 8.1-1 2.3-3.1 3.8-5.5 4-0.9 0-1.8-0.1-2.7-0.5zm-61.4-15.9c-10.5-1.4-21.2-2.1-31.8-2.2-3.5 0-6.3-2.8-6.2-6.3 0-3.4 2.8-6.2 6.3-6.2 11.1 0.1 22.3 0.8 33.3 2.2 3.4 0.5 5.8 3.6 5.4 7.1-0.4 3-2.9 5.2-5.8 5.4q-0.6 0.1-1.2 0zm-102.5 0.6c-0.8-3.3 1.2-6.7 4.6-7.6 9.3-2.2 18.9-4 28.5-5.3q2.2-0.3 4.4-0.6c3.4-0.5 6.5 2.1 6.9 5.6 0.4 3.4-2.1 6.5-5.5 6.9q-2 0.2-4.1 0.5c-9.2 1.2-18.4 3-27.2 5.1q-0.6 0.2-1.1 0.2c-3 0.2-5.8-1.8-6.5-4.8z"/>
					</g>
					<g id="&lt;Group&gt;" style="opacity: .3">
						<path id="&lt;Compound Path&gt;" class="s8" d="m3026.5 1364.3c-10.9 0.5-22 0.4-32.8-0.4-3.5-0.2-6.1-3.2-5.9-6.7 0.3-3.4 3.3-6 6.7-5.8 10.4 0.7 20.9 0.9 31.3 0.3 3.5-0.1 6.4 2.5 6.6 6 0.2 3.4-2.4 6.3-5.8 6.5q-0.1 0-0.1 0.1zm25.4-8.8c-0.6-3.4 1.7-6.6 5.1-7.2 10.2-1.8 20.5-4.2 30.5-7.2 3.3-1 6.8 0.9 7.8 4.2 1 3.3-0.9 6.8-4.2 7.8-10.5 3.2-21.2 5.7-32 7.5q-0.3 0.1-0.7 0.1c-3.1 0.2-6-2-6.5-5.2zm-90.8 4.1c-10.7-2.1-21.4-4.9-31.8-8.2-3.3-1.1-5.1-4.7-4-8 1.1-3.2 4.6-5 7.9-4 9.9 3.2 20.1 5.9 30.3 7.9 3.4 0.7 5.6 4 5 7.4-0.6 2.8-3 4.8-5.8 5q-0.8 0.1-1.6-0.1zm152.5-21c-1.3-3.2 0.1-6.9 3.3-8.3 9.5-4.2 18.9-9 27.8-14.3 3-1.7 6.9-0.8 8.6 2.2 1.8 3 0.8 6.8-2.2 8.6-9.4 5.6-19.2 10.6-29.2 15q-1 0.5-2.1 0.5c-2.6 0.2-5.1-1.2-6.2-3.7zm-214.8 0.7c-9.9-4.6-19.6-9.9-28.9-15.7-2.9-1.8-3.8-5.7-2-8.6 1.9-2.9 5.7-3.8 8.7-2 8.8 5.5 18.1 10.5 27.5 14.9 3.1 1.5 4.5 5.2 3 8.4-1 2.1-3 3.4-5.3 3.6-1 0-2-0.1-3-0.6zm-55.6-34.7c-8.5-6.8-16.7-14.3-24.3-22.1-2.4-2.4-2.4-6.4 0.1-8.8 2.5-2.4 6.5-2.4 8.9 0.1 7.2 7.4 15 14.5 23.2 21.1 2.7 2.2 3.1 6.1 0.9 8.8-1.1 1.4-2.8 2.2-4.5 2.3-1.5 0.1-3-0.3-4.3-1.4zm-45.7-46.9c-6.7-8.7-12.8-17.9-18.3-27.3-1.8-3-0.7-6.9 2.2-8.6 3-1.8 6.9-0.7 8.6 2.2 5.3 9 11.1 17.8 17.4 26.1 2.1 2.7 1.6 6.7-1.1 8.7-1.1 0.8-2.2 1.2-3.4 1.3-2.1 0.1-4.1-0.7-5.4-2.4z"/>
						<path id="&lt;Path&gt;" class="s8" d="m3169.8 1307.1c-2.2-2.8-1.7-6.7 1.1-8.8 4-3.2 8-6.4 11.8-9.7 2.6-2.3 6.6-2 8.8 0.6 2.3 2.6 2 6.5-0.6 8.8-3.9 3.5-8.1 6.9-12.4 10.2-1 0.8-2.2 1.2-3.4 1.3-2 0.1-4-0.7-5.3-2.4z"/>
					</g>
					<g id="&lt;Group&gt;">
						<path id="&lt;Compound Path&gt;" class="s8" d="m3164.8 1229c-0.8 1.1-2.2 1.6-3.5 1.2l-37-11c-13.6 11.9-29.2 21.7-46.3 28.8l-6.5 38.1c-0.2 1.3-1.2 2.4-2.6 2.6l-45.7 7.6c-1.3 0.2-2.7-0.5-3.3-1.7l-18.4-33.9c-18.5-1.2-36.4-5.5-53.1-12.4l-31.5 22.4c-1.1 0.8-2.6 0.8-3.7 0l-37.7-27c-1.1-0.8-1.6-2.2-1.2-3.5l11-37c-11.9-13.6-21.7-29.1-28.8-46.3l-38.1-6.4c-1.3-0.2-2.4-1.3-2.6-2.6l-7.6-45.7c-0.2-1.4 0.5-2.7 1.6-3.4l34-18.3c1.2-18.6 5.5-36.5 12.4-53.2l-22.4-31.5c-0.8-1.1-0.8-2.5 0-3.6l27-37.7c0.8-1.1 2.2-1.6 3.4-1.2l37.1 11c13.6-11.9 29.1-21.7 46.3-28.9l6.4-38c0.2-1.4 1.3-2.4 2.6-2.6l45.7-7.6c1.4-0.2 2.7 0.4 3.4 1.6l18.3 34c18.6 1.2 36.5 5.4 53.2 12.3l31.5-22.4c1.1-0.7 2.5-0.7 3.6 0l37.7 27c1.1 0.8 1.6 2.2 1.2 3.5l-11 37c11.9 13.6 21.7 29.2 28.9 46.3l38 6.5c1.4 0.2 2.4 1.2 2.6 2.6l7.6 45.7c0.2 1.3-0.4 2.7-1.6 3.3l-34 18.4c-1.2 18.5-5.4 36.4-12.3 53.1l22.4 31.5c0.7 1.1 0.7 2.6 0 3.7z"/>
						<path id="&lt;Compound Path&gt;" fill-rule="evenodd" class="s11" d="m3008.8 1139c-12.6-1.1-24-7-32.2-16.6-8.2-9.7-12.1-22-11.1-34.6 2.2-26.1 25.1-45.5 51.2-43.3 26.1 2.1 45.5 25.1 43.3 51.1-1 12.7-6.9 24.1-16.6 32.3-7.8 6.7-17.4 10.5-27.5 11.2q-3.5 0.2-7.1-0.1zm-30.8-50.2c-0.8 9.3 2.1 18.3 8.1 25.5 6.1 7.1 14.5 11.4 23.8 12.2 9.3 0.7 18.3-2.1 25.4-8.2 7.1-6 11.5-14.4 12.2-23.7 1.6-19.2-12.7-36-31.8-37.6q-2.6-0.3-5.2-0.1c-16.9 1.1-31 14.5-32.5 31.9z"/>
						<path id="&lt;Path&gt;" class="s12" d="m2895.5 1110.4q-1-6-1.4-12.1c-1.7-27 5.9-53.6 21.9-75.9 18.3-25.7 45.6-42.7 76.7-47.8 31.1-5.2 62.4 2.1 88 20.4 25.7 18.4 42.7 45.6 47.8 76.8q1 5.9 1.4 11.9c1.1 17.2-1.6 34.5-8 50.6-1.2 3.3-4.9 4.8-8.1 3.6-2.3-1-3.8-3.1-4-5.5q0-1.3 0.5-2.7c5.6-14.3 8.1-29.8 7.1-45.2q-0.4-5.4-1.2-10.7c-4.6-27.8-19.8-52.2-42.8-68.6-22.9-16.4-50.9-22.9-78.7-18.3-27.8 4.7-52.1 19.8-68.5 42.8-14.3 19.9-21.1 43.7-19.6 67.9q0.4 5.4 1.3 10.8c4.6 27.8 19.8 52.1 42.7 68.5q0.3 0.2 0.6 0.5 0.1 0 0.2 0.1c7.9 5.5 16.3 9.9 25.2 13.1 16.3 5.8 33.9 7.6 51.5 4.8q0.6-0.1 1.2-0.2c7.4-1.2 14.7-3.2 21.7-6 3.2-1.2 6.8 0.3 8.1 3.5q0.4 1 0.4 2c0.2 2.6-1.3 5.2-3.9 6.2q-0.5 0.2-1 0.4c-7.5 2.9-15.3 5-23.3 6.3q-5.9 1-11.9 1.4c-59.7 3.7-113.9-38.3-123.9-98.6z"/>
					</g>
				</g>
			</g>
			<g id="&lt;Group&gt;">
				<path id="&lt;Path&gt;" class="s6" d="m2711.2 1129.9l-91.8 1887c-1.6 32.5-28.4 58.1-60.9 58.1h-1589.2c-32.4 0-59.1-25.5-60.7-57.8l-102.6-2119.2c-2.5-50.3 37.8-92.4 88.1-92.1l1532.3 9.4z"/>
				<path id="&lt;Path&gt;" class="s13" d="m2490.1 1120.6c-49.9-1.7-88.2-44.8-84.3-94.6l16.4-207.8 289.3 310.5z"/>
				<g id="&lt;Group&gt;">
					<g id="&lt;Group&gt;">
						<path id="&lt;Path&gt;" class="s14" d="m1153.1 1207c212.3 5.9 1027.5 28 1233.4 33.5 26 0.7 46.6 17.4 45.6 36.8-0.9 18.5-21.3 32.7-46 32.1l-1232.8-29.1c-23.8-0.5-43.6-14.5-45.7-32.3l-0.6-4.5c-2.4-20.3 18.9-37.3 46.1-36.5z"/>
						<path id="&lt;Path&gt;" class="s15" d="m1171.1 1369.7l822.9 19.3c11.1 0.2 20 7.3 19.5 15.6l-2.1 41.7c-0.4 8-9.2 14-19.9 13.6l-846-29.6c-7-0.3-13.5-3.3-16.8-8.1-17.6-24.5 5.7-53.3 42.4-52.5z"/>
					</g>
					<g id="&lt;Group&gt;">
						<path id="&lt;Path&gt;" class="s16" d="m1132.3 1584.2c212.3 6 1027.5 28 1233.4 33.5 26 0.7 46.6 17.4 45.6 36.8-0.9 18.5-21.3 32.7-46 32.1l-1232.8-29c-23.8-0.6-43.6-14.6-45.7-32.4l-0.6-4.5c-2.4-20.3 18.9-37.3 46.1-36.5z"/>
						<path id="&lt;Path&gt;" class="s17" d="m1150.3 1747l822.9 19.2c11.1 0.2 20 7.3 19.5 15.6l-2.1 41.7c-0.4 8-9.2 14-19.9 13.7l-846-29.7c-7-0.3-13.5-3.3-16.8-8-17.6-24.5 5.7-53.4 42.4-52.5z"/>
					</g>
					<path id="&lt;Path&gt;" class="s18" d="m1209.3 2485.6c7.2-92.3 38.5-182.7 87.5-262 24.7-39.6 53.7-76.7 86.9-109.8 8.5-8 16.8-16.3 25.6-24.1 8.9-7.6 17.7-15.4 26.9-22.7 9.4-7 18.7-14.3 28.3-21l14.7-9.7 7.4-4.8 3.7-2.4c1.3-0.9 3.1-1.9 4.7-2.8 25.9-14.3 63-14.9 88 10.3 6.2 6 10.4 13.3 13.6 20.4 1.4 3.6 2.8 7.3 3.7 10.8 1 3.6 1.6 7.1 2.2 10.6 2.2 14 1.6 26.9 0.3 39.5-0.7 6.2-1.7 12.4-2.8 18.4l-3.3 16.9c-2.2 11.3-4.7 22.5-7.2 33.7-4.9 22.5-10.6 44.8-16.5 67-24 88.7-55.7 175.4-95 258.5l-15.1 31c-5.3 10.2-10.4 20.5-15.8 30.6l-8.1 15.2-4.1 7.6-4.5 7.9c-6.2 10.5-13.2 20.8-21.3 30.5-8.1 9.7-17.3 19-28.7 26.8-11.4 7.8-25.7 14.1-41.5 14.9-4 0.4-7.9-0.1-11.8-0.5-4-0.2-7.6-1.5-11.4-2.4-7.5-2-14.6-5.6-20.9-10.1-12.5-8.9-21.6-21.2-27.2-34.5-5.4-13.2-7.7-26.9-7.8-40.2-0.2-13.4 1.8-26.1 4.5-38 2.8-12 6.3-23.3 10.1-34.3l5.7-16.6 6.3-16.3c17.1-43.5 39.7-84.7 66-123.1 26.3-38.5 57.3-73.6 91.5-105.2l6.4-5.9 6.6-5.7 13.3-11.2c4.6-3.7 9.2-7.2 13.8-10.7 4.6-3.5 9.2-7.2 14-10.4 9.5-6.7 19-13.5 28.9-19.5l7.4-4.7 3.7-2.3c0.6-0.4 1.1-0.7 1.9-1.2l2.4-1.4c6.6-3.4 13.8-5.7 21.2-6.5 14.7-1.7 30.6 2.7 42.1 13.1 5.9 5.2 10.7 12.7 12.8 20.4 2.3 7.7 2.2 15.1 1.5 21.8-0.7 6.7-2.1 12.8-3.6 18.6l-4.7 16.5-9.2 32.8c-12.1 43.7-24.8 87.3-37.2 130.9v0.1l-19.2-3.4c1.5-14.7 5.4-29.5 13.5-42.8 4.1-6.7 9.2-12.8 15.5-17.9 6.4-5.2 13.7-8.8 21.5-11.1 7.7-2.1 16.1-2.9 24.4-1.6 4.2 0.7 8.3 1.9 12.2 3.7 2 0.8 3.9 2 5.7 3.1l3.9 2.4c9.4 5.3 21.1 6.3 30.7 2.1 2.4-1 4.7-2.4 6.8-3.9 1-0.9 2.1-1.6 3-2.6l1.4-1.4 1.8-1.9 13.9-14.9 27.9-29.7 28-29.8 13.9-14.9c3.4-3.6 8.4-6.8 13.8-7.9 5.5-1.2 11.2-0.4 16 1.8 4.9 2.2 9 5.8 11.9 10.5 2.9 4.6 4.1 10.5 3.5 15.9-0.1 1.3-0.4 2.6-0.8 3.9-0.3 1.2-0.7 2.7-1 3.3l-1.6 4.7-3.2 9.4c-4.1 12.7-7.6 25.6-10.5 38.5-2.8 13-5.1 26.1-6.7 39.3-0.2 1.7-0.5 3.4-0.6 4.9l-0.1 4.1c-0.2 1.3 0 2.6 0.2 3.9 0.3 1.3 0.2 2.7 0.7 3.9 1.1 5.1 3.8 9.7 7.1 13.7 3.4 4.1 8.1 7.1 12.9 9.2 2.4 1.2 5.1 1.6 7.7 2.3 2.6 0.2 5.2 0.6 7.9 0.3 5.2-0.4 10.3-1.8 14.8-4.7l1.7-1 1.5-1.3 3.2-2.6 7.2-7c19.2-18.9 37.6-38.6 55-59.1 34.8-41.1 66-85.2 93-131.8l9.9-17.6 4.8-8.9 2.3-4.5 0.6-1.1c0.1-0.1 0 0 0 0 0.1-0.1 0 0.1 0 0.2 0 0.7 0.3 0.9 0.2 0.8 0 0 0.2 0.1 0.5 0.1 0.3-0.1 0.7-0.2 0.7-0.2 0 0 0 0-0.1 0l-0.8 0.8-1.7 1.8q-1.8 1.7-3.4 3.5c-2.3 2.4-4.4 4.8-6.6 7.3-8.5 9.9-16.3 20.5-23.1 31.6q-5.1 8.4-9.6 17.2-2.2 4.3-4.3 8.8l-2 4.5-1 2.2-0.6 2c-3.9 10.6-4 22.2 0.8 32.2 4.7 9.9 13.3 18.4 23.8 22.2 5.1 2.2 10.6 2.7 16.1 2.8 5.4-0.5 10.9-1.4 15.9-4l3.9-1.7 4.3-2.5c2.9-1.7 5.8-3.3 8.6-5.1 5.7-3.5 11.4-7.1 17-10.7 44.5-29.5 84.4-65.9 117.6-107.7 3.4-4.3 9.5-5 13.8-1.6 4.2 3.3 4.9 9.5 1.5 13.7-34.5 43.5-75.9 81.3-122.2 111.9-5.8 3.8-11.6 7.5-17.6 11.1-2.9 1.8-5.9 3.5-8.9 5.3l-4.5 2.6-5.4 2.5c-7.2 3.6-15.3 5.1-23.4 5.7-8.1 0-16.3-0.9-23.8-4.1-15.2-5.7-27.5-17.6-34.4-32.2-7.1-14.6-7-32.4-1.4-47.2l0.9-2.8 1.1-2.4 2.2-4.9q2.2-4.8 4.6-9.5 4.8-9.4 10.3-18.5c7.4-12 15.8-23.5 25-34.2 2.4-2.6 4.7-5.3 7.1-7.9q1.8-1.9 3.7-3.8l1.9-1.9 0.9-0.9c0.6-0.6 1.3-1.1 1.9-1.7 2.7-2 6.4-3.6 10.1-3.7 3.7-0.2 7.2 0.7 10.2 2.4 5.9 3.2 10.3 10 9.7 17.6-0.2 1.8-0.5 3.7-1.2 5.2-0.3 0.8-0.6 1.6-1 2.3l-0.6 1.1-2.4 4.6-4.9 9-10.1 18c-27.6 47.6-59.4 92.8-95 134.7-17.8 21-36.6 41.1-56.2 60.4l-7.4 7.2-4.7 3.9-2.4 2-2.7 1.5c-7 4.6-15.4 7-23.6 7.6-4.2 0.4-8.4-0.1-12.5-0.6-4-0.9-8.1-1.7-11.9-3.5-7.5-3.2-14.6-7.9-20-14.3-5.4-6.3-9.7-13.8-11.5-22-0.7-2-0.7-4.1-1.1-6.2-0.2-2-0.5-4.1-0.4-6.2l0.3-6.1 0.6-5.3c1.7-13.8 4.1-27.5 7.1-41.1 3-13.6 6.6-27 10.9-40.3l3.3-9.9 1.8-4.9c0.4-1 0.3-1.1 0.4-1.5 0.2-0.4 0.3-0.8 0.2-1.1 0.2-1.4 0-2.6-0.7-3.7-0.7-1.2-1.9-2.2-3.2-2.8-2.9-1.1-5.1-0.7-7.5 1.6l-14 14.9-27.9 29.8-27.9 29.8-14 14.9-1.7 1.8-2.2 2.2c-1.5 1.5-3.2 2.8-4.8 4.1-3.4 2.4-7 4.6-10.9 6.2-15.4 6.8-33.6 5.1-47.9-3l-4.8-3c-1.1-0.6-2.1-1.3-3.3-1.7-2.2-1.1-4.7-1.8-7.2-2.2-5.1-0.9-10.7-0.4-16 1.1-10.7 3-19.5 10.3-25.7 20.4-6.1 10-9.5 22.1-10.6 34.4l-19.2-3.4v-0.1c11-44 21.7-88.1 32.9-132.1l8.4-33 4.1-16.3c1.2-5.2 2.2-10.2 2.6-14.8 0.3-4.6 0.1-8.8-1-11.9-1.1-3.2-2.7-5.6-5.4-7.9-5.5-4.8-13.4-6.9-21.1-5.7-3.9 0.5-7.7 1.9-11.1 3.8l-1.2 0.7-1.7 1.1-3.4 2.3-6.9 4.6c-9.4 6-18.2 12.7-27.1 19.3-4.5 3.2-8.7 6.8-13 10.2-4.3 3.5-8.6 7-12.8 10.5l-12.4 11.1-6.2 5.5-6 5.7c-31.9 30.5-60.8 64.3-85.1 101.2-24.4 36.7-45.1 76-60.5 117.2l-5.7 15.5-5.1 15.7c-3.5 10.5-6.5 21-8.7 31.1-4.4 20.3-4.6 39.7 2.3 55.6 3.3 7.5 8.4 13.9 14.5 18 3.1 2.1 6.2 3.7 9.7 4.5 3.5 0.9 7 1.4 10.4 1 6.9-0.3 14.3-3.2 21.5-8.2 7.3-5.1 14.3-12 20.6-19.8 6.4-7.7 12.2-16.4 17.4-25.4l3.8-6.9 3.9-7.5 7.9-14.8c5.1-9.9 10-20 15.1-30l14.4-30.3c37.5-81.4 68.3-165.7 91.4-252.2 5.7-21.7 11.1-43.4 15.9-65.2 2.3-11 4.8-21.9 6.8-32.9l3.3-16.5c0.9-5.1 1.7-10.2 2.2-15.2 1-10 1.3-19.9-0.1-28.4-1.4-8.5-4.2-15.3-8.1-19.1-1.8-2.2-4.3-3.5-7.1-5-3.1-1.1-6.3-2.3-9.8-2.5-6.9-0.6-14.5 1-21.3 4.7-0.9 0.5-1.5 0.8-2.6 1.5l-3.4 2.2-6.9 4.5-13.7 8.9c-9.1 6.2-17.7 13-26.6 19.3-8.7 6.6-17 13.8-25.5 20.6-8.3 7.2-16.3 14.8-24.4 22.1-31.5 30.5-60.1 64.3-84.6 100.9-49.3 73.1-83.2 156.9-98.3 245-0.9 5.3-5.9 8.9-11.2 8-5-0.9-8.5-5.5-8.1-10.4z"/>
					<path id="&lt;Path&gt;" class="s19" d="m2225.2 2188.7c-3.3 0-6.4-1.6-8.3-4.6-2.9-4.5-1.5-10.5 3.1-13.4l97.5-61.1c4.6-2.9 10.6-1.5 13.5 3.1 2.8 4.5 1.5 10.6-3.1 13.4l-97.5 61.1c-1.7 1-3.4 1.5-5.2 1.5z"/>
				</g>
			</g>
			<g id="&lt;Group&gt;">
				<g id="&lt;Group&gt;">
					<g id="&lt;Group&gt;">
						<path id="&lt;Path&gt;" class="s20" d="m2686.4 3235.5c30.1 2.6 82.4 6.8 123.6 8.7 24.8 1.1 39-1.4 47.3-4.7q-0.1 1.4-0.1 2.7c-0.2 4.3-3.7 7.8-8.1 8-77.9 4.3-139.8 1.5-161.9 0.2-4.5-0.3-7.2-5.3-4.9-9.2 1.2-1.9 2.6-3.8 4.1-5.7z"/>
						<path id="&lt;Path&gt;" class="s21" d="m2810 3244.2c-41.2-1.9-93.5-6.1-123.6-8.7 29.6-36.3 123.6-60.8 123.6-60.8h26.6c18.2 26.3 20.9 51.4 20.7 64.8-8.3 3.3-22.5 5.8-47.3 4.7z"/>
						<path id="&lt;Path&gt;" class="s22" d="m2841 3131.4l-2.5 49.1c-0.2 5.3-4.2 9.8-9.5 10.6-5.3 0.7-12.5 0.8-20-1.7-4.6-1.5-8.1-5.4-8.9-10.2l-8.6-47.8z"/>
					</g>
					<g id="&lt;Group&gt;">
						<g id="&lt;Group&gt;">
							<path id="&lt;Path&gt;" class="s23" d="m3185.8 3243.8c13.1-1.8 19-8.6 21.4-15.9q0.1 0.1 0.1 0.2c1.9 7.7-2.5 15.6-11.4 19.4-10.8 4.5-22.6 5.3-31.7 4.9-9.8-0.4-18.8-4.4-23.8-10.9v-0.1c9.8 4.9 23.6 5.4 45.4 2.4z"/>
							<path id="&lt;Path&gt;" class="s24" d="m3124.2 3131.1h21.9c33.4-0.7 54.3 69.6 61.1 96.8-2.4 7.3-8.3 14.1-21.4 15.9-21.8 3-35.6 2.5-45.4-2.4-18-23.7-27-58.4-31.3-78.7-4.9-23 15.1-31.6 15.1-31.6z"/>
						</g>
						<path id="&lt;Path&gt;" class="s25" d="m3143.3 3085.4l12.2 48.4c1.4 5.9-1.4 12-6.9 14.8-6.8 3.5-16.3 7.2-25.1 6.1-4.2-0.5-7.6-3.4-9-7.3l-17.8-50.8z"/>
					</g>
					<path id="&lt;Path&gt;" class="s26" d="m3157.8 3099.4c-15.1 13.4-64.3 15.2-64.3 15.2-177.2-425.3-249.7-485.7-249.7-485.7 25.6 160.5 4.1 515.9 4.1 515.9-29.2 12.9-66.9 0-66.9 0-2.4-262.8-42.8-492-90.5-672.7 119.8-2.7 183.5-43.7 204.3-60.1 99.8 160.9 263 687.4 263 687.4z"/>
					<path id="&lt;Path&gt;" class="s27" d="m2864.3 1922.9c22.7 113.1 14.6 315.5 9.2 407.8-1.5 25.9 16.7 61.9 31.3 86.4 2.3 3.9 0.9 8.8-3.1 10.9-24.5 12.5-107.6 51.6-203.8 56.4-6.4 0.4-12.1-4-13.8-10.2-71.4-266.5-154.3-436.9-154.3-436.9 91.5-146.1 334.5-114.4 334.5-114.4z"/>
					<path id="&lt;Path&gt;" class="s28" d="m2826.9 2616.1c-0.3-0.4-22.3-35.8-65.5-56.7-2.9-1.3-4-4.7-2.7-7.6 1.4-2.8 4.8-4 7.6-2.6 46.4 22.4 69.3 59.4 70.3 61 1.6 2.7 0.7 6.2-1.9 7.8-1 0.5-2 0.8-3 0.8-1.9 0-3.8-1-4.8-2.7z"/>
					<g id="&lt;Group&gt;">
						<path id="&lt;Path&gt;" class="s29" d="m3006.5 2247.4c-7.3 52.7-28.8 110.2-71.8 171.2l-16.4-13.3c0 0 18.9-76.7 8.2-163.6 26.5-5.2 57.9 0.1 80 5.7z"/>
						<path id="&lt;Path&gt;" class="s30" d="m2839 2062.4l25.3-139.5c0 0 169.2 129.3 142.2 324.5-22.1-5.6-53.5-10.9-80-5.7-7.8-62.7-30.9-130.7-87.5-179.3z"/>
					</g>
					<g id="&lt;Group&gt;">
						<path id="&lt;Path&gt;" class="s31" d="m2527.2 2038.5l97.7 120.3c10.6 84.9-24.7 131.7-68.9 157.4-12.4-36.8-29.6-64.7-43.7-83.4 45.1-78.3 14.9-194.3 14.9-194.3z"/>
						<path id="&lt;Path&gt;" class="s32" d="m2512.3 2232.8c14.1 18.7 31.3 46.6 43.7 83.4-114.7 81.5-172.1 31.1-172.1 31.1v-16.1c0-14.3 9.4-27 23.2-30.6 46.2-12.1 88.8-39.3 105.2-67.8z"/>
					</g>
					<path id="&lt;Path&gt;" class="s33" d="m2642.3 1832.5l65.5 97.7c10 14.9 5 35.1-10.7 43.7-14.8 7.9-31.9 15.3-45.5 20.7-12.5 5-26.6-2-30.1-15l-31.5-115.9z"/>
				</g>
				<g id="&lt;Group&gt;">
					<path id="&lt;Path&gt;" class="s34" d="m2614.5 1764l6.8 127.2-74 16.7c0 0-26.6-130.2-26.3-132.2 4.8-33.3 93.5-11.7 93.5-11.7z"/>
					<path id="&lt;Path&gt;" class="s35" d="m2593.4 1785.5c-7.6-4.6-25.3-13.2-38.9-5-17.8 10.9-53.5 19.1-62.2-2.5-8.8-21.5-5-58.3 28.2-64 18.7-3.2 28 6.9 32.6 16.3 2.4 4.9 8.5 6.8 13.1 3.9 3.4-2.1 6.2-1.6 8.4-0.2 3.9 2.4 8.9 1.9 12-1.5 7.7-8.2 22-18.4 41.1-9.9 18.8 8.5 17.3 23.8 13.7 33.8-1.8 5 0.8 10.5 5.9 12.1 24.3 7.9 19.7 27.2 16.4 35.5-0.9 2.4-2.8 4.3-5.1 5.2-7.2 2.9-23.7 11-25.3 24.4-1.6 14.4 0.3 65.5 1 82.4 0.2 3.4-1.6 6.6-4.5 8.4-21.9 13.2-51.3 22.6-65.3 26.7-4.7 1.4-9.6-1-11.4-5.5-8.7-22.3-14.6-48.9-17-60.7-1-4.7 1.8-9.4 6.4-10.9 10.3-3.1 25.3 0.9 41.6 5.5 17.9 5.1 21.8-12.7 22.6-18q0.2-1.2 0-2.5l-8.9-66.7c-0.3-2.8-1.9-5.3-4.4-6.8z"/>
					<path id="&lt;Path&gt;" class="s36" d="m2636.3 1857.9c0 0-13.6-38.2 0.4-47.5 14-9.4 34.7-4.5 30.2 23.2-5.7 34.4-30.6 24.3-30.6 24.3z"/>
				</g>
				<g id="&lt;Group&gt;">
					<g id="&lt;Group&gt;">
						<path id="&lt;Path&gt;" class="s37" d="m3239.8 2109.6c34.9 46.4 47.7 85.4 51.4 113.8 3.7 27.7-12.9 54-39.5 62.5l-1252.6 398.7-59.4-183.5 1245.3-408.7c20.1-6.5 42.2 0.3 54.8 17.2z"/>
						<g id="&lt;Group&gt;">
							<path id="&lt;Path&gt;" class="s38" d="m1608.9 2697.9l147.7-87.8c14.2 18.6 26.7 47.4 27.5 90.8l-170.2 12.9c-9 0.7-12.8-11.2-5-15.9z"/>
							<path id="&lt;Path&gt;" class="s39" d="m1939.7 2501.1c75.8 85.2 59.4 183.5 59.4 183.5l-215 16.3c-0.8-43.4-13.3-72.2-27.5-90.8z"/>
						</g>
					</g>
					<path id="&lt;Path&gt;" class="s6" d="m3205.9 2146.4l-1189.8 393.1c-1.9 0.6-4-0.4-4.6-2.3-0.6-1.9 0.4-3.9 2.3-4.6l1189.8-393.1c1.9-0.6 4 0.4 4.6 2.3 0.5 1.5 0 3.1-1.2 4q-0.5 0.4-1.1 0.6z"/>
					<path id="&lt;Path&gt;" class="s6" d="m3233.4 2215.2l-1189.8 393.1c-1.9 0.6-4-0.4-4.6-2.3-0.7-1.9 0.4-4 2.3-4.6l1189.8-393.1c1.9-0.6 4 0.4 4.6 2.3 0.5 1.5 0 3.1-1.2 4q-0.5 0.4-1.1 0.6z"/>
				</g>
				<path id="&lt;Path&gt;" class="s40" d="m2940.1 2410.8c-0.4 28.5-34.2 13.2-34.2 13.2 0 0-33.5 1.6-58 7.8-24.4 6.2-32.3-4.6-32.3-4.6l33.1-30.5 76.4 6.2z"/>
				<path id="&lt;Path&gt;" class="s41" d="m2434.6 2379.2c-6.6 5.2-29.2-5.6-43-13.1-6.8-3.6-10-11.5-7.7-18.8 3.3-10.5 8.9-24.1 15.7-25.8 11.3-2.8 62.3 36.4 35 57.7z"/>
			</g>
		</g>
	</g>
</svg>