<svg version="1.2" xmlns="http://www.w3.org/2000/svg" viewBox="0 0 2475 1650" width="2475" height="1650">
	<title>20944787-ai</title>
	<defs>
		<linearGradient id="g1" x1="158" y1="144.4" x2="2276.9" y2="144.4" gradientUnits="userSpaceOnUse">
			<stop offset="0" stop-color="#dae3fe"/>
			<stop offset="1" stop-color="#e9effd"/>
		</linearGradient>
		<linearGradient id="g2" x1="1291.3" y1="-239.9" x2="822.1" y2="329.5" gradientUnits="userSpaceOnUse">
			<stop offset="0" stop-color="#ff928e"/>
			<stop offset="1" stop-color="#feb3b1"/>
		</linearGradient>
		<linearGradient id="g3" x1="1173" y1="-433.9" x2="667.7" y2="179.3" gradientUnits="userSpaceOnUse">
			<stop offset="0" stop-color="#ff928e"/>
			<stop offset="1" stop-color="#feb3b1"/>
		</linearGradient>
		<linearGradient id="g4" x1="1409.2" y1="-244.2" x2="903.9" y2="368.9" gradientUnits="userSpaceOnUse">
			<stop offset="0" stop-color="#ff928e"/>
			<stop offset="1" stop-color="#feb3b1"/>
		</linearGradient>
		<linearGradient id="g5" x1="1242.3" y1="-389.8" x2="737.1" y2="223.3" gradientUnits="userSpaceOnUse">
			<stop offset="0" stop-color="#ff928e"/>
			<stop offset="1" stop-color="#feb3b1"/>
		</linearGradient>
		<linearGradient id="g6" x1="1297.9" y1="-327.8" x2="792.6" y2="285.4" gradientUnits="userSpaceOnUse">
			<stop offset="0" stop-color="#ff928e"/>
			<stop offset="1" stop-color="#feb3b1"/>
		</linearGradient>
		<linearGradient id="g7" x1="1171.7" y1="-448.9" x2="661.6" y2="170.2" gradientUnits="userSpaceOnUse">
			<stop offset="0" stop-color="#ff928e"/>
			<stop offset="1" stop-color="#feb3b1"/>
		</linearGradient>
		<linearGradient id="g8" x1="1404.6" y1="-252.6" x2="894.5" y2="366.4" gradientUnits="userSpaceOnUse">
			<stop offset="0" stop-color="#ff928e"/>
			<stop offset="1" stop-color="#feb3b1"/>
		</linearGradient>
		<linearGradient id="g9" x1="1315.4" y1="-335.2" x2="805.2" y2="283.8" gradientUnits="userSpaceOnUse">
			<stop offset="0" stop-color="#ff928e"/>
			<stop offset="1" stop-color="#feb3b1"/>
		</linearGradient>
		<linearGradient id="g10" x1="1242.9" y1="-378.9" x2="732.8" y2="240.2" gradientUnits="userSpaceOnUse">
			<stop offset="0" stop-color="#ff928e"/>
			<stop offset="1" stop-color="#feb3b1"/>
		</linearGradient>
		<linearGradient id="g11" x1="1211.9" y1="-418.5" x2="700" y2="202.7" gradientUnits="userSpaceOnUse">
			<stop offset="0" stop-color="#ff928e"/>
			<stop offset="1" stop-color="#feb3b1"/>
		</linearGradient>
		<linearGradient id="g12" x1="1381.1" y1="-288.2" x2="869.1" y2="333" gradientUnits="userSpaceOnUse">
			<stop offset="0" stop-color="#ff928e"/>
			<stop offset="1" stop-color="#feb3b1"/>
		</linearGradient>
		<linearGradient id="g13" x1="1372.4" y1="-290.4" x2="860.5" y2="330.8" gradientUnits="userSpaceOnUse">
			<stop offset="0" stop-color="#ff928e"/>
			<stop offset="1" stop-color="#feb3b1"/>
		</linearGradient>
		<linearGradient id="g14" x1="1199.9" y1="-439.7" x2="687.9" y2="181.5" gradientUnits="userSpaceOnUse">
			<stop offset="0" stop-color="#ff928e"/>
			<stop offset="1" stop-color="#feb3b1"/>
		</linearGradient>
		<linearGradient id="g15" x1="2299.2" y1="1106.5" x2="2230.5" y2="1106.5" gradientUnits="userSpaceOnUse">
			<stop offset="0" stop-color="#ff928e"/>
			<stop offset="1" stop-color="#feb3b1"/>
		</linearGradient>
		<linearGradient id="g16" x1="2229" y1="1475.3" x2="2178.6" y2="1475.3" gradientUnits="userSpaceOnUse">
			<stop offset="0" stop-color="#09005d"/>
			<stop offset="1" stop-color="#1a0f91"/>
		</linearGradient>
		<linearGradient id="g17" x1="2283.6" y1="1244.5" x2="2302.4" y2="1117.5" gradientUnits="userSpaceOnUse">
			<stop offset="0" stop-color="#4042e2"/>
			<stop offset="1" stop-color="#4f52ff"/>
		</linearGradient>
		<linearGradient id="g18" x1="2202.9" y1="1440.4" x2="2212.7" y2="1525.8" gradientUnits="userSpaceOnUse">
			<stop offset="0" stop-color="#ff928e"/>
			<stop offset="1" stop-color="#feb3b1"/>
		</linearGradient>
		<linearGradient id="g19" x1="2205" y1="1168.8" x2="2228.3" y2="1011.6" gradientUnits="userSpaceOnUse">
			<stop offset="0" stop-color="#4042e2"/>
			<stop offset="1" stop-color="#4f52ff"/>
		</linearGradient>
		<linearGradient id="g20" x1="2151.7" y1="1478.8" x2="2077.5" y2="1478.8" gradientUnits="userSpaceOnUse">
			<stop offset="0" stop-color="#09005d"/>
			<stop offset="1" stop-color="#1a0f91"/>
		</linearGradient>
		<linearGradient id="g21" x1="2122.7" y1="1449.4" x2="2132.5" y2="1534.6" gradientUnits="userSpaceOnUse">
			<stop offset="0" stop-color="#ff928e"/>
			<stop offset="1" stop-color="#feb3b1"/>
		</linearGradient>
		<linearGradient id="g22" x1="1909.7" y1="1130" x2="2220.9" y2="1612.9" gradientUnits="userSpaceOnUse">
			<stop offset="0" stop-color="#09005d"/>
			<stop offset="1" stop-color="#1a0f91"/>
		</linearGradient>
		<linearGradient id="g23" x1="3277.9" y1="1896.9" x2="3701.5" y2="2152.1" gradientUnits="userSpaceOnUse">
			<stop offset="0" stop-color="#fe7062"/>
			<stop offset="1" stop-color="#ff928e"/>
		</linearGradient>
		<linearGradient id="g24" x1="2165.9" y1="880.9" x2="2199.7" y2="1027" gradientUnits="userSpaceOnUse">
			<stop offset="0" stop-color="#ff928e"/>
			<stop offset=".2" stop-color="#ff9a96"/>
			<stop offset="1" stop-color="#feb3b1"/>
		</linearGradient>
		<linearGradient id="g25" x1="2169.7" y1="859.7" x2="2153.1" y2="957.2" gradientUnits="userSpaceOnUse">
			<stop offset="0" stop-color="#ff928e"/>
			<stop offset="1" stop-color="#feb3b1"/>
		</linearGradient>
		<linearGradient id="g26" x1="2257.4" y1="874.6" x2="2204.6" y2="818.5" gradientUnits="userSpaceOnUse">
			<stop offset="0" stop-color="#09005d"/>
			<stop offset="1" stop-color="#1a0f91"/>
		</linearGradient>
		<linearGradient id="g27" x1="2229.3" y1="958.3" x2="2231.9" y2="899.6" gradientUnits="userSpaceOnUse">
			<stop offset="0" stop-color="#ff928e"/>
			<stop offset="1" stop-color="#feb3b1"/>
		</linearGradient>
		<linearGradient id="g28" x1="2487.7" y1="824.1" x2="2211.7" y2="1075.5" gradientUnits="userSpaceOnUse">
			<stop offset="0" stop-color="#e1473d"/>
			<stop offset="1" stop-color="#e9605a"/>
		</linearGradient>
		<linearGradient id="g29" x1="3459" y1="1720.5" x2="3940.7" y2="2010.8" gradientUnits="userSpaceOnUse">
			<stop offset="0" stop-color="#fe7062"/>
			<stop offset="1" stop-color="#ff928e"/>
		</linearGradient>
		<linearGradient id="g30" x1="3338.8" y1="2024.9" x2="3228.4" y2="1947" gradientUnits="userSpaceOnUse">
			<stop offset="0" stop-color="#ff928e"/>
			<stop offset="1" stop-color="#feb3b1"/>
		</linearGradient>
		<linearGradient id="g31" x1="3470.5" y1="2007.7" x2="3351.7" y2="1923.9" gradientUnits="userSpaceOnUse">
			<stop offset="0" stop-color="#ff928e"/>
			<stop offset="1" stop-color="#feb3b1"/>
		</linearGradient>
		<linearGradient id="g32" x1="1841.1" y1="1349.5" x2="1758.9" y2="1720.4" gradientUnits="userSpaceOnUse">
			<stop offset="0" stop-color="#09005d"/>
			<stop offset="1" stop-color="#1a0f91"/>
		</linearGradient>
		<linearGradient id="g33" x1="1953.4" y1="1423" x2="1875.6" y2="1774.3" gradientUnits="userSpaceOnUse">
			<stop offset="0" stop-color="#09005d"/>
			<stop offset="1" stop-color="#1a0f91"/>
		</linearGradient>
		<linearGradient id="g34" x1="1948.3" y1="1439.9" x2="1948.3" y2="1946.9" gradientUnits="userSpaceOnUse">
			<stop offset="0" stop-color="#4042e2"/>
			<stop offset="1" stop-color="#4f52ff"/>
		</linearGradient>
		<linearGradient id="g35" x1="1816.8" y1="1073.9" x2="1843.8" y2="1694.9" gradientUnits="userSpaceOnUse">
			<stop offset="0" stop-color="#4042e2"/>
			<stop offset="1" stop-color="#4f52ff"/>
		</linearGradient>
		<linearGradient id="g36" x1="977.6" y1="1010.8" x2="1133.6" y2="1352.9" gradientUnits="userSpaceOnUse">
			<stop offset="0" stop-color="#4042e2"/>
			<stop offset="1" stop-color="#4f52ff"/>
		</linearGradient>
		<linearGradient id="g37" x1="690.3" y1="525.8" x2="1202.6" y2="367.8" gradientUnits="userSpaceOnUse">
			<stop offset="0" stop-color="#e92556"/>
			<stop offset="1" stop-color="#f9c342"/>
		</linearGradient>
		<linearGradient id="g38" x1="1346.6" y1="364" x2="1829.2" y2="250.5" gradientUnits="userSpaceOnUse">
			<stop offset="0" stop-color="#fe7062"/>
			<stop offset="1" stop-color="#ff928e"/>
		</linearGradient>
		<linearGradient id="g39" x1="798.6" y1="1018" x2="1023.4" y2="816.5" gradientUnits="userSpaceOnUse">
			<stop offset="0" stop-color="#a22b25"/>
			<stop offset="1" stop-color="#c0423c"/>
		</linearGradient>
		<linearGradient id="g40" x1="561.3" y1="916.2" x2="886.6" y2="624.5" gradientUnits="userSpaceOnUse">
			<stop offset="0" stop-color="#a22b25"/>
			<stop offset="1" stop-color="#c0423c"/>
		</linearGradient>
		<linearGradient id="g41" x1="879.6" y1="1368.6" x2="522.6" y2="2185.4" gradientUnits="userSpaceOnUse">
			<stop offset="0" stop-color="#e1473d"/>
			<stop offset="1" stop-color="#e9605a"/>
		</linearGradient>
		<linearGradient id="g42" x1="1683.3" y1="1349.7" x2="1366.5" y2="1634.2" gradientUnits="userSpaceOnUse">
			<stop offset="0" stop-color="#4042e2"/>
			<stop offset="1" stop-color="#4f52ff"/>
		</linearGradient>
		<linearGradient id="g43" x1="1911.7" y1="385" x2="1399.4" y2="227.1" gradientUnits="userSpaceOnUse">
			<stop offset="0" stop-color="#e92556"/>
			<stop offset="1" stop-color="#f9c342"/>
		</linearGradient>
		<linearGradient id="g44" x1="111" y1="1083.6" x2="1629.8" y2="288.7" gradientUnits="userSpaceOnUse">
			<stop offset="0" stop-color="#fe7062"/>
			<stop offset="1" stop-color="#ff928e"/>
		</linearGradient>
		<linearGradient id="g45" x1="1577.4" y1="970.5" x2="1469.1" y2="714.4" gradientUnits="userSpaceOnUse">
			<stop offset="0" stop-color="#a22b25"/>
			<stop offset="1" stop-color="#c0423c"/>
		</linearGradient>
		<linearGradient id="g46" x1="1820.2" y1="958.9" x2="1679.4" y2="625.8" gradientUnits="userSpaceOnUse">
			<stop offset="0" stop-color="#a22b25"/>
			<stop offset="1" stop-color="#c0423c"/>
		</linearGradient>
		<linearGradient id="g47" x1="1497.1" y1="696.9" x2="1330.4" y2="302.5" gradientUnits="userSpaceOnUse">
			<stop offset="0" stop-color="#e1473d"/>
			<stop offset="1" stop-color="#e9605a"/>
		</linearGradient>
		<linearGradient id="g48" x1="1912.9" y1="1102.7" x2="1379.7" y2="1465.4" gradientUnits="userSpaceOnUse">
			<stop offset="0" stop-color="#4042e2"/>
			<stop offset="1" stop-color="#4f52ff"/>
		</linearGradient>
		<linearGradient id="g49" x1="454.5" y1="696.5" x2="335.4" y2="848.1" gradientUnits="userSpaceOnUse">
			<stop offset="0" stop-color="#09005d"/>
			<stop offset="1" stop-color="#1a0f91"/>
		</linearGradient>
		<linearGradient id="g50" x1="309.9" y1="1467.8" x2="274.3" y2="1467.8" gradientUnits="userSpaceOnUse">
			<stop offset="0" stop-color="#4042e2"/>
			<stop offset="1" stop-color="#4f52ff"/>
		</linearGradient>
		<linearGradient id="g51" x1="493.6" y1="1627.9" x2="440.6" y2="1009" gradientUnits="userSpaceOnUse">
			<stop offset="0" stop-color="#ff928e"/>
			<stop offset="1" stop-color="#feb3b1"/>
		</linearGradient>
		<linearGradient id="g52" x1="479.7" y1="1453.8" x2="422.5" y2="1453.8" gradientUnits="userSpaceOnUse">
			<stop offset="0" stop-color="#4042e2"/>
			<stop offset="1" stop-color="#4f52ff"/>
		</linearGradient>
		<linearGradient id="g53" x1="425.1" y1="1627.4" x2="374.5" y2="1035.6" gradientUnits="userSpaceOnUse">
			<stop offset="0" stop-color="#ff928e"/>
			<stop offset="1" stop-color="#feb3b1"/>
		</linearGradient>
		<linearGradient id="g54" x1="386.4" y1="1299.3" x2="259.5" y2="1566.8" gradientUnits="userSpaceOnUse">
			<stop offset="0" stop-color="#fe7062"/>
			<stop offset="1" stop-color="#ff928e"/>
		</linearGradient>
		<linearGradient id="g55" x1="229.6" y1="1076.1" x2="358.3" y2="1282" gradientUnits="userSpaceOnUse">
			<stop offset="0" stop-color="#09005d"/>
			<stop offset="1" stop-color="#1a0f91"/>
		</linearGradient>
		<linearGradient id="g56" x1="502.4" y1="877.2" x2="475.3" y2="998.1" gradientUnits="userSpaceOnUse">
			<stop offset="0" stop-color="#ff928e"/>
			<stop offset="1" stop-color="#feb3b1"/>
		</linearGradient>
		<linearGradient id="g57" x1="596.7" y1="645.6" x2="559.8" y2="707.1" gradientUnits="userSpaceOnUse">
			<stop offset="0" stop-color="#ff928e"/>
			<stop offset="1" stop-color="#feb3b1"/>
		</linearGradient>
		<linearGradient id="g58" x1="507.8" y1="795.9" x2="430.7" y2="862.2" gradientUnits="userSpaceOnUse">
			<stop offset="0" stop-color="#09005d"/>
			<stop offset="1" stop-color="#1a0f91"/>
		</linearGradient>
		<linearGradient id="g59" x1="565.4" y1="624.3" x2="527.1" y2="688.3" gradientUnits="userSpaceOnUse">
			<stop offset="0" stop-color="#ff928e"/>
			<stop offset="1" stop-color="#feb3b1"/>
		</linearGradient>
		<linearGradient id="g60" x1="428.6" y1="736.3" x2="461.5" y2="860" gradientUnits="userSpaceOnUse">
			<stop offset="0" stop-color="#ff928e"/>
			<stop offset="1" stop-color="#feb3b1"/>
		</linearGradient>
		<linearGradient id="g61" x1="460.1" y1="838.3" x2="484.6" y2="930.5" gradientUnits="userSpaceOnUse">
			<stop offset="0" stop-color="#ff928e"/>
			<stop offset="1" stop-color="#feb3b1"/>
		</linearGradient>
	</defs>
	<style>
		.s0 { fill: url(#g1) } 
		.s1 { fill: url(#g2) } 
		.s2 { fill: url(#g3) } 
		.s3 { fill: url(#g4) } 
		.s4 { fill: url(#g5) } 
		.s5 { fill: url(#g6) } 
		.s6 { fill: url(#g7) } 
		.s7 { fill: url(#g8) } 
		.s8 { fill: url(#g9) } 
		.s9 { fill: url(#g10) } 
		.s10 { fill: url(#g11) } 
		.s11 { fill: url(#g12) } 
		.s12 { fill: url(#g13) } 
		.s13 { fill: url(#g14) } 
		.s14 { fill: #bdd0fb } 
		.s15 { fill: #91b3fa } 
		.s16 { fill: #7d97f4 } 
		.s17 { fill: url(#g15) } 
		.s18 { fill: url(#g16) } 
		.s19 { fill: url(#g17) } 
		.s20 { fill: url(#g18) } 
		.s21 { fill: url(#g19) } 
		.s22 { fill: url(#g20) } 
		.s23 { fill: url(#g21) } 
		.s24 { fill: url(#g22) } 
		.s25 { fill: url(#g23) } 
		.s26 { fill: url(#g24) } 
		.s27 { fill: url(#g25) } 
		.s28 { fill: url(#g26) } 
		.s29 { fill: url(#g27) } 
		.s30 { fill: url(#g28) } 
		.s31 { fill: url(#g29) } 
		.s32 { fill: url(#g30) } 
		.s33 { fill: url(#g31) } 
		.s34 { fill: url(#g32) } 
		.s35 { fill: url(#g33) } 
		.s36 { fill: url(#g34) } 
		.s37 { fill: url(#g35) } 
		.s38 { fill: url(#g36) } 
		.s39 { fill: url(#g37) } 
		.s40 { fill: url(#g38) } 
		.s41 { fill: url(#g39) } 
		.s42 { fill: url(#g40) } 
		.s43 { fill: url(#g41) } 
		.s44 { opacity: .5;fill: #ffffff } 
		.s45 { fill: url(#g42) } 
		.s46 { fill: url(#g43) } 
		.s47 { fill: url(#g44) } 
		.s48 { fill: url(#g45) } 
		.s49 { fill: url(#g46) } 
		.s50 { fill: url(#g47) } 
		.s51 { fill: url(#g48) } 
		.s52 { fill: #ffffff } 
		.s53 { fill: url(#g49) } 
		.s54 { fill: url(#g50) } 
		.s55 { fill: url(#g51) } 
		.s56 { fill: url(#g52) } 
		.s57 { fill: url(#g53) } 
		.s58 { fill: url(#g54) } 
		.s59 { fill: url(#g55) } 
		.s60 { fill: url(#g56) } 
		.s61 { fill: url(#g57) } 
		.s62 { fill: url(#g58) } 
		.s63 { fill: url(#g59) } 
		.s64 { fill: url(#g60) } 
		.s65 { fill: url(#g61) } 
	</style>
	<g id="Illustration">
		<path id="&lt;Path&gt;" class="s0" d="m2286.8 1110.9c-12 56.4-31.6 113.5-71.5 155-55.5 57.8-139.7 75.8-219 87.2-44.5 6.5-90.5 11.7-134.1 0.6-71.2-18.1-124.1-74.5-189-105.9-67.8-32.8-146.6-39.2-220.6-29.3-180.1 24.2-332.5 136.1-509.6 170.5-225.8 43.9-470.7-39.4-546.6-269.8-29.7-90.2-21.1-181.4-39.7-272.2-17.5-85.1-86.2-73.4-149.7-107.9-42.9-23.4-62.7-76.1-53.7-122.9 7.6-39.8 33-74.5 64.3-100.2 47.2-38.5 111.1-67.6 172-73.5 56.4-5.4 131.6 0.3 161.3-59.6 12.9-25.9 12.6-56.2 20.5-84 30.2-106.1 170.3-130.2 264.3-115.1 136.2 22 231.8 135.4 361 169.4 148 39 355.7-32.8 475.8-120.9 87.5-64.1 178.8-102.7 287.9-78.9 86 18.8 166.2 69.9 217.3 141.9 57.9 81.8 34.5 196.6 10.3 286.4-21.9 81.4-18.5 145.4 23.9 219.9 60.2 106 101.4 184.1 74.9 309.3z"/>
		<g id="&lt;Group&gt;">
			<path id="&lt;Path&gt;" class="s1" d="m669.1 309.7c52.2 23.1 75.8 84.1 52.7 136.3-23.1 52.3-84.1 75.9-136.3 52.8-52.3-23.1-75.9-84.2-52.8-136.4 23.1-52.2 84.2-75.8 136.4-52.7z"/>
			<g id="&lt;Group&gt;">
				<g id="&lt;Group&gt;">
					<g id="&lt;Group&gt;">
						<path id="&lt;Path&gt;" class="s2" d="m511.8 339.8c3.8 1.7 5.6 6.2 3.8 10l-0.6 1.5c-1.7 3.9-6.2 5.6-10.1 3.9l-46.1-20.4c-3.9-1.7-5.6-6.2-3.9-10.1l0.7-1.4c1.7-3.9 6.2-5.6 10-3.9z"/>
						<path id="&lt;Path&gt;" class="s3" d="m800.1 467.3c3.9 1.7 5.7 6.3 3.9 10.1l-0.6 1.5c-1.7 3.8-6.2 5.6-10.1 3.9l-46.1-20.4c-3.9-1.7-5.6-6.2-3.9-10.1l0.7-1.5c1.7-3.8 6.2-5.6 10-3.9z"/>
					</g>
					<g id="&lt;Group&gt;">
						<path id="&lt;Path&gt;" class="s4" d="m707.3 227.2c3.8 1.7 5.6 6.2 3.9 10l-20.4 46.1c-1.7 3.9-6.2 5.7-10.1 3.9l-1.5-0.6c-3.8-1.7-5.6-6.2-3.9-10.1l20.4-46.1c1.7-3.9 6.3-5.6 10.1-3.9z"/>
						<path id="&lt;Path&gt;" class="s5" d="m579 517.3c3.8 1.7 5.6 6.2 3.9 10.1l-20.4 46.1c-1.7 3.8-6.3 5.6-10.1 3.9l-1.5-0.7c-3.9-1.7-5.6-6.2-3.9-10.1l20.4-46.1c1.7-3.8 6.2-5.6 10.1-3.9z"/>
					</g>
				</g>
				<g id="&lt;Group&gt;">
					<path id="&lt;Path&gt;" class="s6" d="m529.8 246.5l29 41.5c2.4 3.5 1.6 8.3-1.9 10.7l-0.4 0.3c-3.5 2.4-8.2 1.5-10.6-1.9l-29-41.5c-2.4-3.5-1.6-8.3 1.9-10.7l0.4-0.2c3.4-2.5 8.2-1.6 10.6 1.8z"/>
					<path id="&lt;Path&gt;" class="s7" d="m711 506.1l29 41.5c2.4 3.5 1.6 8.3-1.9 10.7l-0.4 0.2c-3.5 2.5-8.2 1.6-10.6-1.8l-29-41.5c-2.4-3.5-1.6-8.3 1.9-10.7l0.4-0.3c3.4-2.4 8.2-1.5 10.6 1.9z"/>
					<path id="&lt;Path&gt;" class="s8" d="m785.1 291.9l0.3 0.4c2.4 3.5 1.6 8.3-1.9 10.7l-41.5 28.9c-3.5 2.5-8.2 1.6-10.6-1.8l-0.3-0.4c-2.4-3.5-1.6-8.3 1.9-10.7l41.5-28.9c3.4-2.5 8.2-1.6 10.6 1.8z"/>
					<path id="&lt;Path&gt;" class="s9" d="m525.5 473.1l0.3 0.4c2.4 3.5 1.6 8.3-1.9 10.7l-41.5 28.9c-3.5 2.5-8.2 1.6-10.6-1.8l-0.3-0.4c-2.4-3.5-1.6-8.3 1.9-10.7l41.5-28.9c3.5-2.5 8.2-1.6 10.6 1.8z"/>
				</g>
				<g id="&lt;Group&gt;">
					<path id="&lt;Path&gt;" class="s10" d="m495.5 410.8c4.2-0.5 8.1 2.4 8.6 6.6l0.1 0.5c0.5 4.2-2.4 8-6.6 8.5l-50.2 6.5c-4.2 0.6-8-2.4-8.6-6.6v-0.4c-0.6-4.2 2.4-8.1 6.6-8.6z"/>
					<path id="&lt;Path&gt;" class="s11" d="m809.5 370.3c4.2-0.6 8 2.4 8.6 6.6v0.4c0.6 4.2-2.4 8.1-6.6 8.6l-50.2 6.5c-4.2 0.5-8-2.4-8.5-6.6l-0.1-0.5c-0.5-4.2 2.4-8 6.6-8.5z"/>
					<path id="&lt;Path&gt;" class="s12" d="m644.7 525.9c4.2-0.6 8 2.4 8.6 6.6l6.5 50.2c0.5 4.2-2.4 8-6.6 8.5l-0.5 0.1c-4.2 0.5-8-2.4-8.6-6.6l-6.4-50.2c-0.6-4.2 2.4-8 6.6-8.6z"/>
					<path id="&lt;Path&gt;" class="s13" d="m612.7 218.5l6.5 50.2c0.6 4.2-2.4 8-6.6 8.6h-0.5c-4.1 0.6-8-2.4-8.5-6.6l-6.5-50.2c-0.5-4.2 2.4-8 6.6-8.5l0.5-0.1c4.2-0.5 8 2.4 8.5 6.6z"/>
				</g>
			</g>
		</g>
		<g id="&lt;Group&gt;">
			<g id="&lt;Group&gt;">
				<g id="&lt;Group&gt;">
					<path id="&lt;Path&gt;" class="s14" d="m685.8 608.5c83.8 23.1 89.1 160.8 113.6 228 32.2 87.9 77.7 170.2 109.3 258.3 18.8 52.4 31.6 110.2 17.8 165.5-17.4 69.3-137.4 113.1-191.5 57.5-28.7-29.4-44-70.6-52.5-109.8-16.5-76.3-13.1-151.1-3.2-227.7 9.2-70.7-5.9-142.3-35.4-206.7-17.2-37.5-61.5-92.4-41.1-136.4 4.5-9.8 18-18.8 31.8-24.6 14.7-6.1 35.8-8.3 51.2-4.1z"/>
					<path id="&lt;Path&gt;" class="s15" d="m830.9 1450.3q-0.2 0-0.4 0c-1.4-0.2-2.4-1.5-2.2-2.9 13.8-105.1 12.8-212.9-2.9-320.5-12.5-86-34.5-172.2-65.3-255.9-41.9-114.1-92.6-200.9-113.5-230.9-0.8-1.2-0.5-2.8 0.6-3.6 1.2-0.8 2.9-0.6 3.7 0.6 0.6 0.9 61.5 88.8 114.1 232.1 30.9 84.1 53 170.6 65.6 257 15.8 108 16.7 216.3 2.9 321.9-0.2 1.3-1.3 2.2-2.6 2.2z"/>
				</g>
				<g id="&lt;Group&gt;">
					<path id="&lt;Path&gt;" class="s15" d="m739.2 1367.9c-17.7 26-50.2 37.3-80.2 27.8-31.2-9.9-56.4-35.2-73.1-81.6-10.1-28-14.2-59.2-21.2-88.2-11.5-48-32.3-107.4-22.7-155.1 8.3-41.1 39.7-79.2 76.4-48.8 18.2 15.2 19.7 40.8 26.4 61.8 6.8 21.1 18 39.6 31.2 57.4 24.8 33.5 57.6 67 69.9 104.4 19.8 60.3 9.2 98.7-6.7 122.3z"/>
					<path id="&lt;Path&gt;" class="s16" d="m734.3 1454.6c-0.8 0-1.6-0.4-2.1-1.1-0.4-0.4-36-49-73.2-122.1-34.3-67.4-77.1-170.1-86-276.5-0.2-1.4 0.9-2.7 2.4-2.8 1.4-0.1 2.6 0.9 2.8 2.4 8.8 105.5 51.4 207.5 85.5 274.6 37 72.6 72.3 120.9 72.7 121.3 0.8 1.2 0.6 2.8-0.6 3.7-0.4 0.3-1 0.5-1.5 0.5z"/>
				</g>
			</g>
			<g id="&lt;Group&gt;">
				<g id="&lt;Group&gt;">
					<g id="&lt;Group&gt;">
						<path id="&lt;Path&gt;" class="s14" d="m1919.7 1159.7c2.7 64.2-30.5 124.5-80.2 163.8-56.3 44.4-134.2 49.1-195.5 11.9-38.8-23.6-70.8-62.6-64.3-126.9 15.1-150.3 53.9-125.8 119.4-209.2 46.9-59.6 21.6-151.5 37.7-220.7 13.6-58.4 86.4-108.5 143.8-107.3 72.1 1.5 50 63.6 24.5 104.3-27.8 44.2-64.2 90.7-65.8 145.2-0.7 21.5 3.8 41.9 11 61.6 21.3 59.1 66.6 112.5 69.4 177.3z"/>
						<path id="&lt;Path&gt;" class="s15" d="m1753.8 1461.6c-1.2-0.1-2.1-1-2.3-2.2-21.3-145.2-27.7-275.5-19.1-387.3 6.9-89.6 23.4-167.6 49-231.9 22.9-57.3 48.9-92.9 66.8-112.6 19.4-21.6 33.3-29.5 33.9-29.8 1.3-0.7 2.9-0.2 3.6 1 0.7 1.3 0.2 2.9-1.1 3.6-0.5 0.3-55.5 32-98.6 140.4-25.3 63.8-41.6 141.3-48.4 230.3-8.5 111.3-2.1 241 19.1 385.5 0.2 1.4-0.8 2.7-2.2 3q-0.4 0-0.7 0z"/>
					</g>
					<path id="&lt;Path&gt;" class="s14" d="m1936.5 853.8c-2.4 22.5-24.4 46.7-39 62.4-12.9 13.8-27.3 0.2-28.7-14.8-1.3-13.9 5.5-28.6 11.3-40.8 6.7-14.2 15.9-32.2 33.9-32.5 3.3 0 6.3 0.5 9 1.5 9.3 3.6 14.7 13 13.5 24.2z"/>
				</g>
				<g id="&lt;Group&gt;">
					<path id="&lt;Path&gt;" class="s15" d="m1981.6 1385c-39.6 17.1-85.7 6.2-113.4-27-28.8-34.5-39.3-82.5-24.3-148.5 9-39.9 27.2-79.1 40.6-117.8 22.2-64.1 42-148.3 88.4-196.4 39.9-41.5 104.4-62.5 124.4-0.1 10 31-7.3 61.8-15 91.1-7.8 29.5-8.4 59.2-6.3 89.5 4 57.2 17.2 120.2 3.8 172.5-21.7 84.5-62.4 121.2-98.2 136.7z"/>
					<path id="&lt;Path&gt;" class="s16" d="m1913.5 1481.4c-1.2-0.1-2.2-1.1-2.3-2.4-0.1-0.8-5.4-83.3 5.5-195.3 10.1-103.4 36.4-253.9 104.6-383.5 0.7-1.3 2.3-1.8 3.6-1.1 1.2 0.7 1.7 2.2 1.1 3.5-67.9 128.9-94 278.6-104.1 381.5-10.8 111.6-5.6 193.8-5.5 194.6 0.1 1.4-1 2.7-2.4 2.7q-0.3 0.1-0.5 0z"/>
				</g>
			</g>
		</g>
		<g id="&lt;Group&gt;">
			<path id="&lt;Path&gt;" class="s17" d="m2274.5 1108.5c7 7.5 17.4 14 24.7 18-10.9 13.5-25.7 27-45.2 40.2l-5.6 12.6-17.9-21.5c0 0 32.1-16 44-49.3z"/>
			<path id="&lt;Path&gt;" class="s18" d="m2178.6 1515.7q0-0.5 0.1-1.1c5.8-23 34.6-37.4 34.6-37.4l11.4 0.9c6.6 20.3 5.7 32.7 4.7 38.3q-0.1 0.2-0.1 0.4c-9.4 0.9-28.8 1.4-50.7-1.1z"/>
			<path id="&lt;Path&gt;" class="s19" d="m2229.3 1516.8c-0.5 1.9-1.9 3.3-3.7 3.7-13.3 2.8-34.6 0.5-43.6-0.6-1.9-0.3-3.4-2.1-3.4-4.2 21.9 2.5 41.3 2 50.7 1.1z"/>
			<path id="&lt;Path&gt;" class="s20" d="m2229.3 1461.1l-4.8 23.3c-0.4 1.7-1.7 3-3.3 3.1-1.9 0.2-4.7 0.3-7.5-0.1-2.5-0.4-4.2-2.9-3.7-5.6l3.3-20.7z"/>
			<path id="&lt;Path&gt;" class="s21" d="m2129.2 1516.6c12.6-0.4 19.1-1.8 22.5-3.2q0 1.9-0.1 3.8c0 1.4-1.1 2.6-2.4 2.6l-69.2-0.5c-2.2 0-3.5-2.6-2.5-4.6 9.1 0.8 32.2 2.4 51.7 1.9z"/>
			<path id="&lt;Path&gt;" class="s22" d="m2077.5 1514.7q0.1-0.3 0.3-0.5c6.1-8.5 21.6-25.6 52.4-32.9l14.8-0.5c0 0 6.5 11.4 6.7 32.6-3.4 1.4-9.9 2.8-22.5 3.2-19.5 0.5-42.6-1.1-51.7-1.9z"/>
			<path id="&lt;Path&gt;" class="s23" d="m2147.7 1458.4c-0.2 1.1-2.2 17.9-3 24.3-0.2 1.6-1.3 2.8-2.7 2.9-2.5 0.3-6.6 0.6-10.1-0.1-1.9-0.4-3.3-2.3-3.3-4.4v-26.2z"/>
			<path id="&lt;Path&gt;" class="s24" d="m2237.4 1153.3c0 0 15.8 26.1 15.9 32.1 0.8 106.2-19.6 253.6-23.2 278.4-0.3 2.2-2.1 3.9-4.3 4.1-5.8 0.6-10.4 0.4-13.2 0-1.9-0.2-3.3-1.8-3.2-3.7 3.4-76.2-7.3-223.1-7.3-223.1-16.3 26.8-45 191.7-50 221-0.5 2.8-2.9 5-5.8 5.1-5.4 0.1-12-1-16.5-2-3-0.6-5.2-3.3-5.2-6.4-0.7-170.2 34.9-305.5 34.9-305.5z"/>
			<path id="&lt;Path&gt;" class="s25" d="m2110 989.6c5.8-7.2 10.9-15 15.1-23 5.9-11.1 0.5 7.3 2.1-5.3 44.3-32 110.9-15.8 136.7-12.6 8.5 1.1 16.2 5.3 21.8 11.7 22.1 25.6 70.6 95.6 13.5 166.1-7.3-4-17.7-10.5-24.7-18 6.3-17.8 6.8-40.6-6.4-68.5q-0.7 3.3-1.7 6.6c-18.3 57.8-19.2 105.8-19.2 116.9 0 1.5-0.9 2.9-2.3 3.4-24 9.7-70.2 3.9-85.7 1.6-2.9-0.4-4.8-3-4.4-5.9 7.6-55.1-31.4-145.9-41.8-168.6-0.7-1.6-1.7-3.1-3-4.4z"/>
			<path id="&lt;Path&gt;" class="s26" d="m2222.4 902.3l4.7 47.2c0 0-26.6 8.1-46-5.6l13.6-42.9z"/>
			<g id="&lt;Group&gt;">
				<path id="&lt;Path&gt;" class="s27" d="m2226.7 869.9l-32.2 45.3-29.9-14.4c0 0 26.3-51.8 27-52.4 10.7-10.1 35.1 21.5 35.1 21.5z"/>
				<path id="&lt;Path&gt;" class="s28" d="m2201.7 859.2c-9-1.2-23.5-8-20.6-17.8 2.9-9.8 14.2-21.3 27.1-14.2 7 3.9 7.7 9.6 6.8 14-0.5 2.5 1.2 4.9 3.7 5.4 1.4 0.3 2.1 1.1 2.5 1.9 0.8 2.1 3 3.2 5.2 2.9 4.9-0.6 12.1 0.1 16.1 7.9 4 7.7-0.2 12.5-4 15-2.2 1.4-2.9 4.3-1.5 6.5 5.5 8.7-0.5 13.9-4 15.9-1.1 0.7-2.5 0.9-3.8 0.5-3.4-0.9-10.9-2.5-15 1.6-4.4 4.4-17.2 21.9-21.8 28.1-1.1 1.4-2.8 2.2-4.5 1.9-10.6-1.4-22.6-5.9-28.6-8.3-2.3-0.9-3.6-3.5-2.8-5.8 3-9.4 7.7-19.4 10.2-24.2 1.2-2.4 4.1-3.4 6.4-2.2 4 2.1 7.8 7.2 11.8 12.8 4.7 6.5 10.8 1.7 12.5 0.1q0.5-0.5 0.9-1.1l14.9-24.8c0.7-1.3 0.9-2.8 0.3-4.2-1.5-3.8-5.1-11.1-11.8-11.9z"/>
				<path id="&lt;Path&gt;" class="s29" d="m2208.6 907.9c0 0 5.7-16.7 13.1-16.1 7.3 0.6 13.1 7.9 4 16.1-11.3 10.2-17.1 0-17.1 0z"/>
			</g>
			<path id="&lt;Path&gt;" class="s30" d="m2270.9 1034.7c-0.1 0.2-0.3 0.5-0.6 0.6-0.3 0.1-0.6 0.1-0.8 0l-0.5-0.2c-0.6-0.2-0.9-0.8-0.7-1.3 8.1-23 6.2-49.9 5.8-55.5-0.1-0.6 0.3-1.1 0.9-1.2h0.5c0.3-0.1 0.6 0 0.8 0.2 0.3 0.2 0.4 0.4 0.4 0.7 0.5 5.8 2.4 33.2-5.8 56.7z"/>
			<g id="&lt;Group&gt;">
				<path id="&lt;Path&gt;" class="s31" d="m2020.2 1004.5c50 7.5 82.7-24.1 107-43.2 32.1-25.4 57.1-13 57.1-13l-34.3 65.3c-51.1 48.2-103.5 37.5-136.6 21.9-0.5-12.6 2.9-23.2 6.8-31z"/>
				<path id="&lt;Path&gt;" class="s32" d="m1949.8 974.6l16.6 9c19.9 12.1 37.7 18.5 53.8 20.9-3.9 7.8-7.3 18.4-6.8 31-21-10-34.2-21.9-34.2-21.9-37.6-22.4-29.4-39-29.4-39z"/>
			</g>
			<path id="&lt;Path&gt;" class="s33" d="m1900.9 998c1-3.5 3.7-6.4 7.1-7.8l33.7-13.6c0 0 0.5-4.3-7.1-7.2-7.6-3-5.8-11.5-5.8-11.5 0 0 10.4 4.8 25.6 12.3 8.8 4.3 13.7 11.9 16.3 17.7l-8.7 11.4c-20.8 6.2-41.8 7.4-63 4.9z"/>
		</g>
		<g id="&lt;Group&gt;">
			<path id="&lt;Path&gt;" class="s34" d="m1807 1494.1h-1069.5v-152.2h1069.5z"/>
			<path id="&lt;Path&gt;" class="s35" d="m1935.6 1494.1h-1324.5v-75h1324.5z"/>
			<path id="&lt;Path&gt;" class="s36" d="m1946.3 1427.7c0 4.7-3.8 8.5-8.4 8.5h-1331.2c-4.7 0-8.5-3.8-8.5-8.5v-0.2c0-4.6 3.8-8.4 8.5-8.4h1331.2c4.6 0 8.4 3.8 8.4 8.4z"/>
			<path id="&lt;Path&gt;" class="s37" d="m1826.3 1344.7c0 4.7-0.1 7.9-3.9 7.9h-1094.2c-3.8 0-10-3.2-10-7.9v-0.2c0-4.7 6.2-9 10-9h1094.2c3.8 0 3.9 4.3 3.9 9z"/>
		</g>
		<g id="&lt;Group&gt;">
			<path id="&lt;Path&gt;" class="s38" d="m769.6 947c0 0 30.8-36.2 73.7-42.7 42.8-6.4 93.6-29.3 93.6-29.3l-61.8 69.6 61.8 21.9c0 0-185.7 2.7-113.6 99.2 0 0-102.3-31.7-53.7-118.7z"/>
			<g id="&lt;Group&gt;">
				<g id="&lt;Group&gt;">
					<path id="&lt;Path&gt;" class="s39" d="m945 470.2c0 0 0.2-33 48-16.8-40.4 40.4-24 101.4-24 101.4 0 0-24.3-50.4-24-84.6z"/>
					<path id="&lt;Path&gt;" class="s40" d="m952.1 1161.1c-310.3-117.2-48.2-588.6 0-707.7 19.2 156.8 452 202.1 452 202.1 0 38.2-201.4 600.3-452 505.6z"/>
				</g>
				<g id="&lt;Group&gt;">
					<path id="&lt;Path&gt;" class="s41" d="m1210.4 858.3c-41.5 22.8-150.6 71.7-134.4-55.5 0.2-1.4 1.3-2.5 2.7-2.6 1.4-0.2 2.7 0.7 3.1 2.1 7.6 24.9 34 66.8 126.6 50.5 1.5-0.3 2.9 0.5 3.4 1.9 0.4 1.4-0.1 2.9-1.4 3.6z"/>
					<path id="&lt;Path&gt;" class="s42" d="m937.7 745.4c0.4 1.3-0.3 2.8-1.5 3.5-28.5 14.4-89.5 35.5-86.5-51.9l10.1-28c0 0-4.4 81.8 74.7 74.2 1.5-0.1 2.8 0.8 3.2 2.2z"/>
				</g>
				<path id="&lt;Path&gt;" class="s43" d="m1013 1029.2c-36.8 2-78.1-66.5-100.1-76.8-12.8-6-54.8 1.2-81.1-4.5-10.4-2.2-18.2-11-19.2-21.6-0.9-10.6 5.2-20.6 15-24.7 24.2-9.9 79.6-26.7 122.8 5.6 56.8 42.6 99.4 120.1 62.6 122z"/>
			</g>
			<path id="&lt;Path&gt;" class="s44" d="m1048.2 1130.4c-1 0-1.9-0.7-2.1-1.7-0.3-1.1 0.4-2.3 1.6-2.5 50.4-11.4 103.6-52 158.2-120.8 0.8-0.9 2.1-1.1 3.1-0.4 0.9 0.8 1 2.1 0.3 3-55.2 69.6-109.3 110.8-160.7 122.3q-0.2 0.1-0.4 0.1z"/>
			<path id="&lt;Path&gt;" class="s44" d="m1250.3 949.7q-0.6 0-1.2-0.4c-1-0.6-1.3-2-0.6-3 51-77.3 83.6-151 83.9-151.7 0.5-1.1 1.8-1.6 2.9-1.1 1 0.5 1.5 1.7 1.1 2.8-0.4 0.8-33.1 74.8-84.3 152.4-0.4 0.6-1.1 1-1.8 1z"/>
			<path id="&lt;Path&gt;" class="s45" d="m1814.8 1215.1c0 0-44 18.1-85 4.2-41.1-14-96.6-17-96.6-17l86.8-33.4-44.9-47.8c0 0 166.2 82.7 146.4-36.1 0 0 76.4 75.1-6.7 130.1z"/>
			<g id="&lt;Group&gt;">
				<g id="&lt;Group&gt;">
					<g id="&lt;Group&gt;">
						<path id="&lt;Path&gt;" class="s46" d="m1633 414.1c0 0 16.4-61-24-101.4 47.8-16.2 48 16.8 48 16.8 0.3 34.2-24 84.6-24 84.6z"/>
						<path id="&lt;Path&gt;" class="s47" d="m1197.9 514.8c0 0 450.2-29.1 451.9-202.1 48.3 119 310.3 590.4 0 707.6-250.6 94.7-451.9-467.3-451.9-505.5z"/>
					</g>
					<g id="&lt;Group&gt;">
						<path id="&lt;Path&gt;" class="s48" d="m1568.1 659.9c0.7 1.2 0.6 2.8-0.5 3.8-1 0.9-2.5 1.1-3.7 0.3-21.6-14.6-68.5-30.4-130.1 40.7-0.9 1.1-2.5 1.4-3.8 0.6-1.2-0.8-1.7-2.3-1.2-3.7 17.8-43.9 71.6-150.5 139.3-41.7z"/>
						<path id="&lt;Path&gt;" class="s49" d="m1761.6 589.7c-0.7 0.9-1.8 1.3-2.9 0.9-21.1-8.1-67.1-17.8-88.9 38.2-0.6 1.4-2 2.1-3.4 1.9-1.4-0.3-2.4-1.5-2.4-2.9-0.1-29.8 7.4-87.3 70.3-61.1 8.8 3.6 16.6 9 23.2 15.9l3.8 4.1c0.8 0.8 0.9 2 0.3 3z"/>
					</g>
					<path id="&lt;Path&gt;" class="s50" d="m1555 804.7c24.8-27.3 101.9-13.8 124.5-22.7 42.1-16.6 38.8-32.7 61.4-47.2 9-5.7 20.7-5 28.8 1.9 8.2 6.9 10.9 18.3 6.8 28.1-10.2 24.1-26.6 77.2-80 84.6-70.3 9.7-166.2-17.4-141.5-44.7z"/>
				</g>
				<path id="&lt;Path&gt;" class="s44" d="m1498.8 961.5c-0.5 0-0.9-0.2-1.3-0.5-34.8-25.8-68-59.5-98.8-100.3-0.7-0.9-0.5-2.3 0.4-3 1-0.7 2.3-0.5 3 0.4 30.6 40.5 63.5 73.9 97.9 99.5 1 0.7 1.2 2 0.5 3-0.4 0.6-1.1 0.9-1.7 0.9z"/>
				<path id="&lt;Path&gt;" class="s44" d="m1369 816.1c-0.7 0-1.4-0.3-1.8-1-77.5-121.6-112-253.2-112.3-254.5-0.3-1.2 0.4-2.3 1.5-2.6 1.2-0.3 2.3 0.4 2.6 1.5 0.4 1.3 34.7 132.3 111.8 253.3 0.6 1 0.3 2.3-0.7 3q-0.5 0.3-1.1 0.3z"/>
			</g>
			<path id="&lt;Path&gt;" class="s51" d="m769.6 947c6.9-11-75.2 166.6 259.9 136.6 124.5-11.1 200-56.2 356.9-115.8 98.8-37.5 252.8-59 349.5 1 55.9 34.6 105.2 117.7 118.6 181.3-35.1-50.1-117.3-89-174-104-106.4-28.1-210.1 27.5-306.5 65.4-80.7 31.7-162.1 64.5-246.2 86.6-87.8 23.1-191.6 33.2-281.5 14.4-119.2-25-130.9-177.6-76.7-265.5z"/>
		</g>
		<g id="&lt;Group&gt;">
			<g id="&lt;Group&gt;">
				<path id="&lt;Path&gt;" class="s52" d="m561 1011.7l-4-5.1c-0.9-1.1-0.7-2.6 0.4-3.5 1-0.8 2.6-0.6 3.4 0.4l0.1 0.1 3.9 5v0.1c0.8 1 0.6 2.6-0.4 3.4-1.1 0.8-2.6 0.6-3.4-0.4z"/>
				<path id="&lt;Path&gt;" class="s52" d="m548.1 994.3l-3.6-5.5c-0.7-1.1-0.4-2.7 0.8-3.5 1.1-0.7 2.7-0.4 3.5 0.8l3.5 5.4c0.8 1.2 0.4 2.7-0.7 3.5-1.2 0.7-2.7 0.4-3.5-0.7z"/>
				<path id="&lt;Path&gt;" class="s52" d="m536.7 975.9l-3.1-5.7c-0.7-1.3-0.2-2.9 1-3.6 1.3-0.7 2.9-0.2 3.6 1.1l3.1 5.6v0.1c0.7 1.3 0.2 2.8-1.1 3.5-1.2 0.7-2.8 0.2-3.5-1z"/>
				<path id="&lt;Path&gt;" class="s52" d="m526.9 956.6l-2.7-5.9c-0.6-1.4 0-3 1.4-3.6 1.3-0.6 2.9 0 3.6 1.4l2.5 5.9h0.1c0.6 1.4-0.1 3-1.4 3.6-1.4 0.5-2.9-0.1-3.5-1.4z"/>
				<path id="&lt;Path&gt;" class="s52" d="m518.6 936.6l-2.2-6.1c-0.5-1.4 0.2-3 1.7-3.6 1.4-0.5 3 0.3 3.5 1.7l0.1 0.1 2.1 6v0.1c0.5 1.4-0.3 3-1.7 3.5-1.4 0.5-3-0.3-3.5-1.7z"/>
				<path id="&lt;Path&gt;" class="s52" d="m511.8 916.1l-1.7-6.3c-0.4-1.5 0.5-3.1 2-3.5 1.5-0.5 3.1 0.4 3.5 2l0.1 0.1 1.6 6.1v0.1c0.4 1.5-0.5 3-2 3.5-1.5 0.4-3.1-0.5-3.5-2z"/>
				<path id="&lt;Path&gt;" class="s52" d="m506.6 895.1l-1.3-6.4c-0.3-1.6 0.7-3.2 2.3-3.5 1.6-0.3 3.2 0.7 3.5 2.3v0.1l1.2 6.3h0.1c0.3 1.6-0.8 3.2-2.4 3.5-1.6 0.3-3.1-0.8-3.4-2.3z"/>
				<path id="&lt;Path&gt;" class="s52" d="m502.9 873.8l-0.9-6.5c-0.2-1.7 1-3.2 2.7-3.4 1.6-0.2 3.2 1 3.4 2.6v0.1l0.8 6.3v0.1c0.2 1.7-1 3.2-2.7 3.4-1.6 0.2-3.1-1-3.3-2.6z"/>
				<path id="&lt;Path&gt;" class="s52" d="m500.6 852.2l-0.4-6.4c-0.1-1.8 1.2-3.3 3-3.4 1.7-0.1 3.2 1.2 3.3 3v0.1l0.3 6.3v0.1c0.1 1.7-1.2 3.2-2.9 3.2-1.7 0.1-3.2-1.2-3.3-2.9z"/>
				<path id="&lt;Path&gt;" class="s52" d="m499.8 830.6v-6.5c0.1-1.8 1.5-3.2 3.3-3.2 1.8 0 3.2 1.5 3.2 3.3l-0.1 6.4v0.1c0 1.7-1.5 3.1-3.2 3.1-1.8 0-3.2-1.4-3.2-3.2z"/>
				<path id="&lt;Path&gt;" class="s52" d="m500.4 809l0.5-6.5c0.1-1.8 1.7-3.2 3.5-3.1 1.8 0.2 3.2 1.7 3.1 3.6l-0.1 0.1-0.4 6.3v0.1c-0.2 1.8-1.8 3.1-3.6 3-1.8-0.2-3.1-1.7-3-3.5z"/>
				<path id="&lt;Path&gt;" class="s52" d="m502.4 787.4l0.9-6.4c0.2-1.9 1.9-3.2 3.8-2.9 1.8 0.2 3.1 1.9 2.9 3.8v0.1l-0.9 6.3c-0.3 1.9-2 3.2-3.8 2.9-1.9-0.3-3.1-1.9-2.9-3.8z"/>
				<path id="&lt;Path&gt;" class="s52" d="m505.7 766l1.3-6.3c0.4-1.9 2.2-3.1 4.1-2.7 1.9 0.3 3.1 2.1 2.7 4v0.1l-1.3 6.2v0.1c-0.4 1.9-2.2 3.1-4.1 2.7-1.8-0.4-3-2.2-2.7-4.1z"/>
				<path id="&lt;Path&gt;" class="s52" d="m510.5 744.9l1.6-6.3c0.5-1.8 2.5-3 4.3-2.5 1.9 0.5 3 2.5 2.5 4.3v0.1l-1.7 6.2c-0.5 1.9-2.4 3-4.3 2.5-1.8-0.5-2.9-2.4-2.4-4.3z"/>
				<path id="&lt;Path&gt;" class="s52" d="m516.5 724.1l2.1-6.1c0.6-1.9 2.6-2.9 4.5-2.3 1.8 0.6 2.8 2.7 2.2 4.5v0.1l-2.1 6v0.1c-0.6 1.8-2.6 2.8-4.5 2.2-1.8-0.6-2.8-2.6-2.2-4.5z"/>
				<path id="&lt;Path&gt;" class="s52" d="m523.8 703.7l2.5-6c0.8-1.8 2.9-2.7 4.7-1.9 1.8 0.7 2.7 2.8 2 4.6v0.1h-0.1l-2.4 5.9v0.1c-0.8 1.8-2.9 2.7-4.7 1.9-1.8-0.8-2.7-2.8-2-4.7z"/>
				<path id="&lt;Path&gt;" class="s52" d="m532.5 683.9l2.8-5.9c0.9-1.8 3.1-2.5 4.9-1.7 1.8 0.9 2.6 3.1 1.7 4.9l-0.1 0.1-2.8 5.7v0.1c-0.9 1.8-3.1 2.5-4.8 1.6-1.8-0.9-2.6-3-1.7-4.8z"/>
				<path id="&lt;Path&gt;" class="s52" d="m542.4 664.6l3.3-5.6c1-1.8 3.2-2.4 5-1.4 1.7 1 2.4 3.2 1.4 5h-0.1v0.1l-3.2 5.5v0.1c-1 1.7-3.3 2.3-5 1.3-1.8-1-2.4-3.2-1.4-5z"/>
				<path id="&lt;Path&gt;" class="s52" d="m553.6 646l3.7-5.4c1.1-1.7 3.4-2.2 5.1-1 1.7 1.1 2.2 3.4 1.1 5.2h-0.1l-3.5 5.3-0.1 0.1c-1.1 1.7-3.4 2.1-5.1 1-1.7-1.2-2.2-3.5-1.1-5.2z"/>
				<path id="&lt;Path&gt;" class="s52" d="m566.1 628.3l3.9-5.2c1.3-1.6 3.7-1.9 5.3-0.7 1.7 1.3 2 3.7 0.7 5.3v0.1l-3.9 5v0.1c-1.3 1.6-3.7 1.9-5.3 0.6-1.7-1.2-2-3.6-0.7-5.2z"/>
				<path id="&lt;Path&gt;" class="s52" d="m579.6 611.4l4.3-4.9c1.4-1.6 3.8-1.8 5.4-0.4 1.6 1.4 1.7 3.8 0.4 5.4h-0.1l-4.2 4.8v0.1c-1.4 1.6-3.8 1.7-5.4 0.3-1.6-1.3-1.8-3.7-0.4-5.3z"/>
				<path id="&lt;Path&gt;" class="s52" d="m594.2 595.3l4.5-4.6c1.5-1.5 4-1.6 5.5-0.1 1.5 1.5 1.5 4 0 5.5v0.1l-4.5 4.5c-1.5 1.5-4 1.6-5.5 0.1-1.5-1.5-1.5-4 0-5.5z"/>
				<path id="&lt;Path&gt;" class="s52" d="m609.6 580.2l4.8-4.4c1.6-1.4 4.1-1.3 5.6 0.3 1.4 1.6 1.3 4-0.3 5.5h-0.1l-4.7 4.3c-1.6 1.5-4.1 1.4-5.5-0.2-1.5-1.6-1.4-4.1 0.2-5.5z"/>
				<path id="&lt;Path&gt;" class="s52" d="m626 565.9l5-4c1.7-1.4 4.2-1.2 5.6 0.5 1.3 1.7 1.1 4.2-0.6 5.6h-0.1l-5 4v0.1c-1.7 1.3-4.2 1.1-5.5-0.6-1.4-1.7-1.1-4.2 0.6-5.6z"/>
				<path id="&lt;Path&gt;" class="s52" d="m643 552.6l5.3-3.8c1.8-1.3 4.3-0.9 5.6 0.9 1.3 1.8 0.9 4.3-0.9 5.6l-0.1 0.1-5.2 3.7c-1.8 1.3-4.3 0.9-5.6-0.9-1.3-1.8-0.9-4.3 0.9-5.6z"/>
				<path id="&lt;Path&gt;" class="s52" d="m660.8 540.3l5.5-3.5c1.8-1.2 4.3-0.7 5.6 1.2 1.2 1.9 0.6 4.4-1.3 5.6l-5.4 3.4v0.1c-1.9 1.2-4.4 0.6-5.6-1.3-1.2-1.8-0.7-4.3 1.2-5.5z"/>
				<path id="&lt;Path&gt;" class="s52" d="m679.2 528.9l5.7-3.2c1.9-1.1 4.4-0.5 5.5 1.5 1.1 2 0.5 4.5-1.5 5.6h-0.1l-5.5 3.2h-0.1c-1.9 1.1-4.4 0.4-5.5-1.5-1.1-2-0.4-4.5 1.5-5.6z"/>
				<path id="&lt;Path&gt;" class="s52" d="m698.2 518.5l5.8-2.9c2-1 4.5-0.2 5.5 1.8 1 2 0.2 4.5-1.8 5.5h-0.1l-5.7 2.9c-2 1-4.5 0.2-5.5-1.8-1-2-0.2-4.5 1.8-5.5z"/>
				<path id="&lt;Path&gt;" class="s52" d="m717.7 509.1l5.9-2.7c2.1-0.9 4.5 0.1 5.4 2.1 0.9 2.1 0 4.5-2.1 5.5l-5.8 2.6h-0.1c-2.1 0.9-4.5 0-5.4-2.1-0.9-2.1 0-4.5 2.1-5.4z"/>
				<path id="&lt;Path&gt;" class="s52" d="m737.6 500.6l6-2.3c2.1-0.9 4.5 0.2 5.3 2.3 0.9 2.1-0.2 4.5-2.3 5.4h-0.1l-5.9 2.3h-0.1c-2.1 0.8-4.5-0.2-5.3-2.4-0.8-2.1 0.2-4.5 2.4-5.3z"/>
				<path id="&lt;Path&gt;" class="s52" d="m757.8 493.1l6.2-2c2.2-0.8 4.5 0.4 5.2 2.6 0.8 2.1-0.4 4.5-2.6 5.2l-6.1 2c-2.2 0.8-4.5-0.4-5.3-2.6-0.7-2.1 0.5-4.5 2.6-5.2z"/>
				<path id="&lt;Path&gt;" class="s52" d="m778.5 486.6l6.2-1.8c2.2-0.6 4.5 0.7 5.1 2.9 0.6 2.2-0.6 4.4-2.8 5.1h-0.1l-6.1 1.7h-0.1c-2.2 0.7-4.5-0.6-5.1-2.8-0.6-2.2 0.7-4.5 2.9-5.1z"/>
				<path id="&lt;Path&gt;" class="s52" d="m799.3 481l6.4-1.5c2.2-0.5 4.4 0.9 5 3.1 0.5 2.2-0.9 4.5-3.1 5h-0.1l-6.2 1.5h-0.1c-2.2 0.5-4.4-0.9-4.9-3.1-0.6-2.3 0.8-4.5 3-5z"/>
				<path id="&lt;Path&gt;" class="s52" d="m820.5 476.4l6.4-1.2c2.2-0.5 4.4 1 4.8 3.3 0.4 2.2-1.1 4.4-3.3 4.8l-0.1 0.1-6.2 1.1h-0.1c-2.2 0.5-4.4-1-4.8-3.3-0.5-2.2 1-4.4 3.3-4.8z"/>
				<path id="&lt;Path&gt;" class="s52" d="m841.8 472.7l6.4-0.9c2.3-0.3 4.4 1.3 4.7 3.5 0.3 2.3-1.2 4.4-3.5 4.7l-0.1 0.1-6.3 0.8v0.1c-2.3 0.3-4.4-1.3-4.8-3.6-0.3-2.3 1.3-4.4 3.6-4.7z"/>
				<path id="&lt;Path&gt;" class="s52" d="m863.2 470l6.5-0.6c2.3-0.2 4.3 1.4 4.5 3.7 0.3 2.3-1.4 4.4-3.7 4.6h-0.1l-6.3 0.6h-0.1c-2.3 0.2-4.3-1.4-4.5-3.7-0.2-2.3 1.4-4.4 3.7-4.6z"/>
				<path id="&lt;Path&gt;" class="s52" d="m884.8 468.3l6.5-0.4c2.3-0.1 4.2 1.7 4.4 4 0.1 2.3-1.7 4.3-4 4.4h-0.1l-6.3 0.3h-0.1c-2.3 0.1-4.3-1.6-4.4-3.9-0.1-2.3 1.7-4.3 4-4.4z"/>
				<path id="&lt;Path&gt;" class="s52" d="m906.4 467.5h6.5c2.3 0 4.2 1.9 4.2 4.2 0 2.3-1.8 4.2-4.2 4.2h-6.4-0.1c-2.3 0-4.2-1.8-4.2-4.2 0-2.3 1.9-4.2 4.2-4.2z"/>
				<path id="&lt;Path&gt;" class="s52" d="m928 467.7l6.5 0.3c2.3 0.1 4.1 2 4 4.4 0 2.3-2 4.1-4.3 4h-0.1l-6.3-0.2h-0.1c-2.3-0.1-4.1-2.1-4-4.4 0-2.3 2-4.1 4.3-4.1z"/>
				<path id="&lt;Path&gt;" class="s52" d="m949.6 468.9l6.5 0.5c2.3 0.2 4 2.2 3.8 4.5-0.2 2.3-2.2 4.1-4.5 3.9h-0.1l-6.3-0.5h-0.1c-2.3-0.2-4-2.2-3.8-4.6 0.1-2.3 2.2-4 4.5-3.8z"/>
				<path id="&lt;Path&gt;" class="s52" d="m971.1 470.9l6.4 0.7c2.4 0.3 4 2.4 3.7 4.7-0.2 2.3-2.3 4-4.7 3.7l-6.3-0.8h-0.1c-2.3-0.2-4-2.3-3.7-4.7 0.3-2.3 2.4-3.9 4.7-3.6z"/>
				<path id="&lt;Path&gt;" class="s52" d="m992.5 473.7l6.4 1c2.3 0.4 3.9 2.5 3.5 4.8-0.3 2.3-2.5 3.9-4.8 3.6h-0.1l-6.3-1v-0.1c-2.3-0.3-3.9-2.5-3.5-4.8 0.3-2.3 2.5-3.9 4.8-3.5z"/>
				<path id="&lt;Path&gt;" class="s52" d="m1013.8 477.3l6.3 1.3c2.3 0.4 3.8 2.6 3.4 5-0.5 2.3-2.7 3.8-5 3.3l-6.3-1.2v-0.1c-2.3-0.4-3.8-2.6-3.4-4.9 0.5-2.3 2.7-3.8 5-3.4z"/>
				<path id="&lt;Path&gt;" class="s52" d="m1034.9 481.7l6.3 1.5c2.3 0.6 3.7 2.8 3.2 5.1-0.5 2.3-2.8 3.7-5.1 3.2h-0.1l-6.2-1.5c-2.3-0.5-3.7-2.8-3.2-5.1 0.5-2.3 2.8-3.7 5.1-3.2z"/>
				<path id="&lt;Path&gt;" class="s52" d="m1055.9 486.9l6.2 1.7c2.3 0.6 3.6 3 3 5.2-0.6 2.3-2.9 3.7-5.2 3h-0.1l-6.1-1.6-0.1-0.1c-2.2-0.6-3.6-2.9-3-5.2 0.7-2.3 3-3.6 5.3-3z"/>
				<path id="&lt;Path&gt;" class="s52" d="m1076.6 492.8l6.2 1.9c2.3 0.7 3.5 3.1 2.8 5.4-0.7 2.2-3 3.5-5.3 2.8l-6.2-1.9c-2.2-0.7-3.5-3.1-2.8-5.4 0.7-2.2 3.1-3.5 5.3-2.8z"/>
				<path id="&lt;Path&gt;" class="s52" d="m1097.2 499.4l6.1 2.1c2.2 0.8 3.4 3.2 2.6 5.4-0.7 2.3-3.2 3.5-5.4 2.7l-6.1-2.1c-2.3-0.8-3.4-3.2-2.7-5.5 0.8-2.2 3.2-3.4 5.5-2.6z"/>
				<path id="&lt;Path&gt;" class="s52" d="m1117.5 506.7l6 2.3c2.2 0.8 3.3 3.3 2.5 5.5-0.8 2.2-3.3 3.3-5.5 2.4h-0.1l-5.9-2.2h-0.1c-2.2-0.9-3.3-3.4-2.4-5.6 0.8-2.2 3.3-3.3 5.5-2.5z"/>
				<path id="&lt;Path&gt;" class="s52" d="m1137.5 514.6l6 2.4c2.2 0.9 3.2 3.4 2.3 5.6-0.9 2.2-3.4 3.2-5.6 2.3l-5.9-2.5c-2.2-0.9-3.2-3.4-2.3-5.5 0.9-2.2 3.4-3.2 5.5-2.3z"/>
				<path id="&lt;Path&gt;" class="s52" d="m1157.3 523.1l5.9 2.6c2.2 1 3.1 3.5 2.1 5.6-0.9 2.1-3.4 3.1-5.6 2.1l-5.8-2.6c-2.2-1-3.1-3.5-2.2-5.6 1-2.2 3.5-3.1 5.6-2.2z"/>
				<path id="&lt;Path&gt;" class="s52" d="m1176.9 532.1l5.8 2.9c2.1 1 3 3.5 1.9 5.6-1 2.1-3.5 2.9-5.6 1.9l-5.8-2.8c-2.1-1-3-3.5-2-5.6 1.1-2.1 3.6-3 5.7-2z"/>
				<path id="&lt;Path&gt;" class="s52" d="m1196.2 541.8l5.7 3c2.1 1 2.8 3.5 1.8 5.6-1.1 2-3.6 2.8-5.7 1.8l-5.7-3c-2.1-1.1-2.9-3.6-1.8-5.7 1.1-2 3.6-2.8 5.7-1.7z"/>
				<path id="&lt;Path&gt;" class="s52" d="m1215.2 551.9l5.6 3.2c2 1.1 2.8 3.6 1.6 5.6-1.1 2-3.6 2.7-5.6 1.6l-5.6-3.1h-0.1c-2-1.1-2.7-3.7-1.6-5.7 1.1-2 3.7-2.7 5.7-1.6z"/>
				<path id="&lt;Path&gt;" class="s52" d="m1233.9 562.6l5.6 3.3c1.9 1.1 2.6 3.7 1.4 5.6-1.1 2-3.7 2.7-5.6 1.5h-0.1l-5.5-3.3c-2-1.2-2.6-3.7-1.5-5.7 1.2-1.9 3.7-2.6 5.7-1.4z"/>
				<path id="&lt;Path&gt;" class="s52" d="m1252.4 573.7l5.4 3.4c2 1.2 2.5 3.8 1.3 5.7-1.2 1.9-3.7 2.5-5.6 1.3h-0.1l-5.4-3.4c-1.9-1.2-2.5-3.8-1.3-5.7 1.2-1.9 3.7-2.5 5.6-1.3z"/>
				<path id="&lt;Path&gt;" class="s52" d="m1270.5 585.3l5.4 3.6c1.9 1.2 2.4 3.8 1.2 5.6-1.3 1.9-3.8 2.5-5.7 1.2l-5.4-3.5c-1.9-1.3-2.4-3.8-1.2-5.7 1.3-1.9 3.8-2.4 5.7-1.2z"/>
				<path id="&lt;Path&gt;" class="s52" d="m1288.4 597.3l5.3 3.7c1.8 1.3 2.3 3.9 1 5.7-1.3 1.9-3.9 2.3-5.7 1l-5.3-3.6v-0.1c-1.8-1.2-2.3-3.8-1-5.6 1.3-1.9 3.8-2.3 5.7-1.1z"/>
				<path id="&lt;Path&gt;" class="s52" d="m1305.9 609.8l5.2 3.8c1.8 1.3 2.2 3.8 0.9 5.6-1.3 1.9-3.8 2.2-5.6 0.9h-0.1l-5.1-3.7-0.1-0.1c-1.8-1.3-2.2-3.8-0.9-5.6 1.4-1.8 3.9-2.2 5.7-0.9z"/>
				<path id="&lt;Path&gt;" class="s52" d="m1323.2 622.6l5.1 3.8c1.8 1.4 2.2 3.9 0.8 5.7-1.3 1.8-3.8 2.1-5.6 0.8l-5.1-3.9h-0.1c-1.7-1.3-2.1-3.9-0.8-5.7 1.4-1.7 3.9-2.1 5.7-0.7z"/>
				<path id="&lt;Path&gt;" class="s52" d="m1340.3 635.6l5.1 4c1.7 1.3 2 3.8 0.7 5.6-1.4 1.7-3.9 2-5.7 0.7l-5-3.9-0.1-0.1c-1.7-1.3-2-3.8-0.7-5.6 1.4-1.7 3.9-2.1 5.7-0.7z"/>
				<path id="&lt;Path&gt;" class="s52" d="m1357.2 648.9l5 4c1.7 1.4 2 3.9 0.6 5.6-1.4 1.7-3.9 2-5.6 0.6l-5-4c-1.7-1.4-2-3.9-0.7-5.6 1.4-1.7 3.9-2 5.6-0.6z"/>
				<path id="&lt;Path&gt;" class="s52" d="m1373.9 662.3l5 4.1c1.7 1.3 2 3.8 0.6 5.5-1.4 1.7-3.9 2-5.6 0.6l-5-4c-1.7-1.4-2-3.9-0.6-5.6 1.4-1.7 3.9-2 5.6-0.6z"/>
				<path id="&lt;Path&gt;" class="s52" d="m1390.5 675.8l5 4.1c1.7 1.4 1.9 3.9 0.6 5.6-1.4 1.6-3.9 1.9-5.6 0.5l-5-4c-1.7-1.4-1.9-3.9-0.5-5.6 1.3-1.7 3.8-1.9 5.5-0.6z"/>
				<path id="&lt;Path&gt;" class="s52" d="m1407.1 689.4l5 4.1c1.7 1.4 1.9 3.9 0.5 5.5-1.4 1.7-3.8 2-5.5 0.6l-5-4.1c-1.6-1.4-1.9-3.8-0.5-5.5 1.4-1.7 3.8-1.9 5.5-0.6z"/>
				<path id="&lt;Path&gt;" class="s52" d="m1423.7 703l4.9 4.1c1.7 1.4 2 3.8 0.6 5.5-1.4 1.7-3.8 1.9-5.5 0.5l-5-4c-1.6-1.4-1.9-3.8-0.5-5.5 1.3-1.7 3.8-1.9 5.5-0.6z"/>
				<path id="&lt;Path&gt;" class="s52" d="m1440.3 716.6l5 4c1.6 1.4 1.9 3.8 0.5 5.5-1.3 1.6-3.7 1.9-5.4 0.6l-5-4.1c-1.7-1.3-1.9-3.8-0.6-5.4 1.3-1.7 3.8-2 5.5-0.6z"/>
				<path id="&lt;Path&gt;" class="s52" d="m1456.9 730l5 4h0.1c1.6 1.4 1.9 3.8 0.6 5.5-1.4 1.6-3.8 1.9-5.4 0.6l-5.1-4c-1.7-1.4-1.9-3.8-0.6-5.5 1.3-1.6 3.7-1.9 5.4-0.6z"/>
				<path id="&lt;Path&gt;" class="s52" d="m1473.7 743.3l5.1 4c1.6 1.3 1.9 3.7 0.6 5.3-1.3 1.7-3.7 2-5.3 0.7l-5.1-3.9c-1.7-1.3-2-3.7-0.7-5.4 1.3-1.7 3.7-2 5.4-0.7z"/>
				<path id="&lt;Path&gt;" class="s52" d="m1490.6 756.4l5.1 3.9h0.1c1.6 1.2 2 3.6 0.7 5.3-1.3 1.7-3.7 2-5.3 0.7l-5.2-3.8c-1.7-1.3-2-3.7-0.7-5.4 1.2-1.7 3.6-2 5.3-0.7z"/>
				<path id="&lt;Path&gt;" class="s52" d="m1507.7 769.2l5.2 3.7v0.1c1.7 1.2 2.1 3.6 0.9 5.2-1.3 1.7-3.6 2.1-5.3 0.9l-5.2-3.8c-1.7-1.2-2.1-3.6-0.9-5.3 1.2-1.7 3.6-2.1 5.3-0.8z"/>
				<path id="&lt;Path&gt;" class="s52" d="m1525.1 781.6l5.2 3.7h0.1c1.7 1.2 2.1 3.5 0.9 5.2-1.2 1.7-3.5 2.2-5.2 1l-5.3-3.7c-1.8-1.2-2.2-3.5-1-5.2 1.2-1.8 3.5-2.2 5.3-1z"/>
				<path id="&lt;Path&gt;" class="s52" d="m1542.7 793.7l5.3 3.5h0.1c1.7 1.2 2.1 3.5 1 5.2-1.1 1.7-3.4 2.2-5.2 1.1l-5.4-3.6c-1.7-1.1-2.2-3.4-1-5.2 1.1-1.7 3.4-2.2 5.2-1z"/>
				<path id="&lt;Path&gt;" class="s52" d="m1560.6 805.3l5.4 3.4c1.8 1.1 2.3 3.4 1.2 5.1-1.1 1.8-3.4 2.3-5.1 1.2l-5.5-3.4c-1.7-1.1-2.2-3.4-1.2-5.1 1.1-1.7 3.4-2.3 5.1-1.2z"/>
				<path id="&lt;Path&gt;" class="s52" d="m1578.8 816.5l5.5 3.2c1.7 1 2.3 3.3 1.3 5-1 1.7-3.2 2.3-5 1.3l-5.5-3.2c-1.8-1.1-2.4-3.3-1.4-5 1-1.8 3.3-2.4 5-1.4z"/>
				<path id="&lt;Path&gt;" class="s52" d="m1597.3 827l5.6 3.1c1.8 0.9 2.4 3.1 1.5 4.8-1 1.8-3.1 2.4-4.9 1.5l-5.7-3.1c-1.7-0.9-2.4-3.1-1.5-4.8 1-1.8 3.2-2.4 4.9-1.5z"/>
				<path id="&lt;Path&gt;" class="s52" d="m1616.1 836.9l5.8 2.9c1.7 0.9 2.5 3 1.6 4.7-0.9 1.8-3 2.5-4.7 1.6l-5.8-2.8c-1.8-0.9-2.5-3-1.7-4.8 0.9-1.7 3-2.5 4.8-1.6z"/>
				<path id="&lt;Path&gt;" class="s52" d="m1635.3 846.1l5.9 2.6c1.8 0.8 2.6 2.9 1.8 4.7-0.8 1.7-2.9 2.5-4.6 1.7l-5.9-2.6c-1.8-0.8-2.6-2.8-1.8-4.6 0.7-1.8 2.8-2.6 4.6-1.8z"/>
				<path id="&lt;Path&gt;" class="s52" d="m1654.9 854.5l5.9 2.4h0.1c1.7 0.7 2.6 2.7 1.9 4.4-0.7 1.8-2.7 2.7-4.5 2l-6-2.4c-1.8-0.7-2.6-2.7-1.9-4.4 0.7-1.8 2.7-2.7 4.4-2z"/>
				<path id="&lt;Path&gt;" class="s52" d="m1674.8 862l6 2.1h0.1c1.7 0.6 2.7 2.5 2.1 4.3-0.6 1.8-2.6 2.7-4.3 2.1l-6.2-2c-1.7-0.6-2.7-2.6-2.1-4.4 0.6-1.7 2.5-2.7 4.3-2.1z"/>
				<path id="&lt;Path&gt;" class="s52" d="m1695 868.6l6.1 1.7 0.1 0.1c1.7 0.5 2.8 2.3 2.3 4.1-0.6 1.8-2.4 2.8-4.2 2.3l-6.2-1.8c-1.8-0.5-2.8-2.3-2.3-4.1 0.5-1.8 2.4-2.8 4.1-2.3h0.1z"/>
				<path id="&lt;Path&gt;" class="s52" d="m1715.5 874.1l6.2 1.4h0.1c1.8 0.4 2.9 2.2 2.5 4-0.5 1.7-2.2 2.8-4 2.4l-6.3-1.4c-1.8-0.4-2.9-2.2-2.5-3.9 0.4-1.8 2.2-2.9 4-2.5z"/>
				<path id="&lt;Path&gt;" class="s52" d="m1736.3 878.4l6.3 1.1h0.1c1.7 0.3 2.9 2 2.6 3.7-0.3 1.8-1.9 3-3.7 2.7l-6.4-1.1c-1.8-0.3-3-1.9-2.7-3.7 0.3-1.8 2-3 3.7-2.7h0.1z"/>
				<path id="&lt;Path&gt;" class="s52" d="m1757.3 881.5l6.4 0.7c1.8 0.2 3 1.8 2.8 3.5-0.1 1.7-1.7 3-3.4 2.8l-6.5-0.6c-1.8-0.2-3-1.8-2.9-3.5 0.2-1.8 1.8-3.1 3.6-2.9z"/>
				<path id="&lt;Path&gt;" class="s52" d="m1778.5 883.3l6.3 0.3h0.1c1.7 0.1 3.1 1.5 3 3.3-0.1 1.7-1.5 3-3.3 3l-6.4-0.3c-1.8-0.1-3.1-1.5-3.1-3.3 0.1-1.7 1.6-3.1 3.3-3z"/>
				<path id="&lt;Path&gt;" class="s52" d="m1799.7 883.8l6.4-0.1c1.7-0.1 3.1 1.3 3.2 3 0 1.7-1.3 3.1-3 3.1l-6.5 0.2c-1.7 0-3.1-1.3-3.2-3 0-1.7 1.3-3.2 3-3.2h0.1z"/>
				<path id="&lt;Path&gt;" class="s52" d="m1820.9 882.9l6.4-0.5c1.7-0.2 3.2 1.1 3.3 2.7 0.1 1.7-1.1 3.2-2.7 3.3l-6.5 0.6c-1.7 0.1-3.2-1.1-3.3-2.8-0.2-1.7 1.1-3.1 2.7-3.3h0.1z"/>
				<path id="&lt;Path&gt;" class="s52" d="m1842 880.6l6.3-1h0.1c1.6-0.2 3.1 0.9 3.4 2.5 0.2 1.6-0.9 3.1-2.5 3.4l-6.4 1c-1.6 0.3-3.2-0.8-3.4-2.5-0.3-1.6 0.8-3.1 2.4-3.4h0.1z"/>
				<path id="&lt;Path&gt;" class="s52" d="m1862.9 876.8l6.2-1.4h0.1c1.5-0.4 3.1 0.6 3.5 2.2 0.3 1.5-0.6 3.1-2.2 3.5l-6.3 1.5c-1.6 0.3-3.2-0.6-3.6-2.2-0.3-1.6 0.6-3.2 2.2-3.6z"/>
				<path id="&lt;Path&gt;" class="s52" d="m1883.4 871.5l6.1-1.9h0.1c1.5-0.5 3.1 0.3 3.6 1.8 0.4 1.6-0.4 3.2-1.9 3.6l-6.2 2c-1.5 0.5-3.2-0.3-3.6-1.8-0.5-1.6 0.3-3.2 1.8-3.7h0.1z"/>
				<path id="&lt;Path&gt;" class="s52" d="m1903.5 864.6l5.8-2.4 0.1-0.1c1.5-0.5 3.1 0.2 3.7 1.6 0.6 1.4-0.1 3.1-1.6 3.7l-6 2.5c-1.4 0.6-3.1-0.1-3.7-1.6-0.6-1.4 0.1-3.1 1.6-3.7z"/>
				<path id="&lt;Path&gt;" class="s52" d="m1922.8 856l5.7-2.9h0.1c1.3-0.7 3-0.1 3.7 1.2 0.6 1.4 0.1 3-1.2 3.7l-5.8 3c-1.3 0.7-3 0.2-3.7-1.2-0.7-1.4-0.2-3 1.2-3.7z"/>
				<path id="&lt;Path&gt;" class="s52" d="m1941.4 845.8l5.4-3.3 0.1-0.1c1.2-0.8 2.8-0.4 3.6 0.9 0.8 1.2 0.4 2.8-0.8 3.6l-5.5 3.5c-1.2 0.8-2.9 0.4-3.7-0.8-0.8-1.3-0.4-2.9 0.8-3.7h0.1z"/>
				<path id="&lt;Path&gt;" class="s52" d="m1959 834l5-3.9h0.1c1.1-0.9 2.7-0.7 3.6 0.4 0.8 1.2 0.6 2.8-0.5 3.6l-5.1 4c-1.1 0.9-2.8 0.7-3.6-0.4-0.9-1.1-0.7-2.8 0.4-3.6v-0.1z"/>
				<path id="&lt;Path&gt;" class="s52" d="m1975.2 820.5l4.6-4.4 0.1-0.1c1-0.9 2.5-0.9 3.5 0.1 0.9 1 0.9 2.5-0.1 3.5l-4.6 4.5c-1 1-2.6 1-3.6 0-1-1-0.9-2.6 0.1-3.6z"/>
				<path id="&lt;Path&gt;" class="s52" d="m1990 805.3l4.1-4.9c0.9-1 2.4-1.2 3.4-0.3 1 0.9 1.2 2.4 0.3 3.4l-4.1 5c-0.9 1-2.4 1.1-3.5 0.3-1-0.9-1.1-2.4-0.3-3.5z"/>
				<path id="&lt;Path&gt;" class="s52" d="m2003.1 788.7l3.7-5.3c0.7-1.1 2.2-1.3 3.2-0.6 1.1 0.7 1.3 2.1 0.6 3.2l-3.6 5.4c-0.8 1-2.2 1.3-3.3 0.6-1.1-0.7-1.3-2.2-0.6-3.3z"/>
				<path id="&lt;Path&gt;" class="s52" d="m2014.6 770.8l3.1-5.6c0.6-1.1 2-1.5 3-0.9 1.1 0.6 1.5 2 0.9 3l-3.1 5.8c-0.6 1-2 1.5-3.1 0.9-1-0.6-1.5-2-0.9-3.1h0.1z"/>
				<path id="&lt;Path&gt;" class="s52" d="m2024.2 751.9l2.5-5.8 0.1-0.1c0.4-1.1 1.7-1.6 2.8-1.1 1.1 0.5 1.6 1.7 1.1 2.8l-2.5 6c-0.5 1.1-1.7 1.6-2.9 1.1-1.1-0.4-1.6-1.7-1.1-2.8z"/>
				<path id="&lt;Path&gt;" class="s52" d="m2031.9 732.2l1.9-6.1v-0.1c0.4-1.1 1.5-1.7 2.6-1.3 1.1 0.3 1.7 1.5 1.4 2.5l-1.9 6.3c-0.3 1.1-1.5 1.7-2.6 1.3-1.1-0.3-1.8-1.5-1.4-2.6z"/>
				<path id="&lt;Path&gt;" class="s52" d="m2037.5 711.7l1.3-6.2v-0.1c0.2-1.1 1.2-1.8 2.3-1.6 1.1 0.3 1.8 1.3 1.6 2.4l-1.3 6.3c-0.2 1.1-1.2 1.8-2.3 1.6-1.1-0.2-1.8-1.2-1.6-2.3z"/>
				<path id="&lt;Path&gt;" class="s52" d="m2040.9 690.8l0.5-6.4c0.1-1.1 1-1.9 2.1-1.8 1 0.1 1.8 1 1.7 2.1l-0.5 6.4c-0.1 1.1-1 1.9-2.1 1.8-1-0.1-1.8-1-1.7-2.1z"/>
				<path id="&lt;Path&gt;" class="s52" d="m2041.8 669.6l-0.2-6.4c-0.1-1 0.7-1.9 1.7-1.9 1-0.1 1.9 0.7 1.9 1.7l0.3 6.5c0 1-0.8 1.9-1.8 1.9-1 0.1-1.8-0.7-1.9-1.7v-0.1z"/>
				<path id="&lt;Path&gt;" class="s52" d="m2040.1 648.4l-1-6.2v-0.1c-0.2-0.9 0.5-1.8 1.4-2 1-0.1 1.9 0.5 2 1.4l1.1 6.4c0.2 1-0.5 1.9-1.4 2.1-1 0.1-1.9-0.5-2-1.5h-0.1z"/>
				<path id="&lt;Path&gt;" class="s52" d="m2035.7 627.7l-1.8-6.1c-0.3-0.9 0.2-1.8 1.1-2.1 0.8-0.2 1.7 0.2 2 1.1l2 6.2c0.2 0.9-0.3 1.8-1.1 2.1-0.9 0.3-1.9-0.2-2.1-1.1z"/>
			</g>
			<g id="&lt;Group&gt;">
				<path id="&lt;Path&gt;" class="s16" d="m2042.2 576.7l-22.3 23.9-6.5-25.4z"/>
				<path id="&lt;Path&gt;" class="s15" d="m2086.9 564.9c1.1 0.8 1.6 2.1 1.3 3.5-0.4 1.3-1.4 2.2-2.8 2.4l-116.6 16c-2.2 0.3-4.5-0.3-6.3-1.7-1.7-1.4-2.8-3.4-3.1-5.6l-11.5-116.6z"/>
				<path id="&lt;Path&gt;" class="s16" d="m2017.5 586.2l5.9-6.8-75.5-116.5 94.3 113.8z"/>
				<path id="&lt;Path&gt;" class="s16" d="m2023.4 579.4l-3.5 21.2-7.7-19.8z"/>
			</g>
		</g>
		<g id="&lt;Group&gt;">
			<path id="&lt;Path&gt;" class="s53" d="m504.8 901l-63.6 173.4c0 0-86.7 84.5-134.8 37.7-21.5-20.9-20.9-39.2-13.6-53 7.5-14.4 1.8-32.1-12.2-40.2-19.2-11.2-34.5-31.6-17.7-68.5 22-48.4 71.3-50.3 101.7-46.2 12.2 1.6 23.7-5.2 28.6-16.5 9.5-21.9 38.4-15 45.6-25.5 9-13 38.4-17.9 38.4-17.9z"/>
			<path id="&lt;Path&gt;" class="s54" d="m310.2 1476.3l-2.1 17.2c-0.4 3.3-3 5.9-6.2 6.2-5.6 0.7-14.4 1.3-23.1 0.4-3.8-0.4-6.2-4.3-5.1-7.9 2.1-6.6 6-16.6 11.6-22.5h19c3.6 0 6.3 3.1 5.9 6.6z"/>
			<path id="&lt;Path&gt;" class="s55" d="m459.7 1274.8l3.2 18.9c0 0-10.8 109.3-12.7 153-0.3 6.8 1.5 13.6 5.1 19.5l18.7 30.4-47.7-28.1-0.9-5.8 7.8-10.8-10.2-122.4c-0.6-7.2 0.9-14.4 4.2-20.7l9.9-18.6z"/>
			<path id="&lt;Path&gt;" class="s56" d="m477.2 1501h-15.3c-2.8 0-5.5-1.3-7.2-3.5-4.8-6.2-14.6-18.2-19.3-18.5-6.3-0.5-5.5 22-5.5 22h-3.6l-4.5-27.9c-1.1-7 2.4-14 8.7-17.3 0 0 1.5 10.7 9.3 15.4 7.9 4.8 31.9 21.7 31.9 21.7 0 0 3-0.4 6.2 0.2 4.8 0.8 4.1 7.9-0.7 7.9z"/>
			<path id="&lt;Path&gt;" class="s57" d="m394.4 1283.8c0 0-63.2 119.8-73.3 147.2-10 27.4-13.5 50.2-13.7 52.4-0.2 3.4-4.4 6.6-16 6.6-6 0-8.9-2.4-10.3-4.7-1.2-2-1.3-4.5-0.3-6.6 3.7-7.4 15.3-31 19.6-41.7 5.1-12.8 16.2-70.8 22.2-91 6.1-20.2 12.9-42.1 39.3-62.2 0 0 18-17.8 32.5 0z"/>
			<path id="&lt;Path&gt;" class="s58" d="m434.3 1087.3c16.3-69.1-25-108.1-25-108.1 26.1-25 73.5-36.4 73.5-36.4 0 0 45.3 33.1 40 59-3.2 15.2-31.9 91-31.9 91 0 0-26.5 12.6-56.6-5.5z"/>
			<path id="&lt;Path&gt;" class="s59" d="m398.2 1121.5c6.6-20 36.1-34.2 36.1-34.2 30.1 18.1 56.6 5.5 56.6 5.5 0 0 6 22.8 1.9 43.9-4.1 21.2-29.9 157-29.9 157-40.6 8.2-103.1-8.3-103.1-8.3 25.9-45.9 31.7-143.9 38.4-163.9z"/>
			<path id="&lt;Path&gt;" class="s60" d="m475.5 890.3l11 4.9c3 1.3 4.8 4.5 4.3 7.8l-5.7 41.3c-0.1 0.8-1 7.4-1.4 8.1-3.7 6.7-14.2 4.3-22.9 5.9-5.3 1-10.1 1.8-8.8-3.4l13.3-59.5c1-4.5 5.9-6.9 10.2-5.1z"/>
			<g id="&lt;Group&gt;">
				<path id="&lt;Path&gt;" class="s61" d="m502.2 847.5c0 0 10.9 13.2 9.8 38.2-1 25.1-13 30.7-22.5 27.3-9.5-3.4-22.7-10.5-29.9-30.8-7.3-20.4 28.2-51.1 42.6-34.7z"/>
				<path id="&lt;Path&gt;" class="s62" d="m472.5 876.4c0 0-2.5-9.1-7.6-5.3-5.1 3.7-4 16.4-4 16.4 0 0-10.6 9-16.4-6.9-5.8-15.9 2.7-29.5 20.5-47.2 17.7-17.6 39.5-14.4 51.1 1.6 11.6 15.9-6.5 27.3-6.5 27.3l-3.9-7.5c-26.2-13.3-31.1 21.6-31.1 21.6z"/>
				<path id="&lt;Path&gt;" class="s63" d="m466.8 889.6c-3.7-5.2-12.3-19.9-2.1-22.2 10.2-2.4 7.6 15.6 7.6 15.6z"/>
			</g>
			<path id="&lt;Path&gt;" class="s64" d="m442.7 1018.9c-20.7 89.2 74.9 131 74.9 131l-13.5 9.6c-131.7-29-94.8-180.3-94.8-180.3 32.6-3.4 33.4 39.7 33.4 39.7z"/>
			<path id="&lt;Path&gt;" class="s65" d="m504.7 1151.6c0 0 17.4-13.1 32.8-4.1 15.4 9 17 20 13 20.5-4 0.5-13.6-7.4-24.1-4.2-10.5 3.2-35.9 7.1-21.7-12.2z"/>
		</g>
	</g>
</svg>