<svg version="1.2" xmlns="http://www.w3.org/2000/svg" viewBox="0 0 2475 1650" width="2475" height="1650">
	<title>20944675-ai</title>
	<defs>
		<linearGradient id="g1" x1="2301.7" y1="200.1" x2="229.5" y2="200.1" gradientUnits="userSpaceOnUse">
			<stop offset="0" stop-color="#dae3fe"/>
			<stop offset="1" stop-color="#e9effd"/>
		</linearGradient>
		<linearGradient id="g2" x1="1984" y1="1605.8" x2="2040.5" y2="1329.7" gradientUnits="userSpaceOnUse">
			<stop offset="0" stop-color="#4042e2"/>
			<stop offset="1" stop-color="#4f52ff"/>
		</linearGradient>
		<linearGradient id="g3" x1="245.8" y1="1605.8" x2="302.3" y2="1329.7" gradientUnits="userSpaceOnUse">
			<stop offset="0" stop-color="#4042e2"/>
			<stop offset="1" stop-color="#4f52ff"/>
		</linearGradient>
		<linearGradient id="g4" x1="1339.6" y1="728.4" x2="1463" y2="491.8" gradientUnits="userSpaceOnUse">
			<stop offset="0" stop-color="#09005d"/>
			<stop offset="1" stop-color="#1a0f91"/>
		</linearGradient>
		<linearGradient id="g5" x1="912.6" y1="605.8" x2="818.1" y2="755.3" gradientUnits="userSpaceOnUse">
			<stop offset="0" stop-color="#09005d"/>
			<stop offset="1" stop-color="#1a0f91"/>
		</linearGradient>
		<linearGradient id="g6" x1="1221.5" y1="720.3" x2="1092.9" y2="926.5" gradientUnits="userSpaceOnUse">
			<stop offset="0" stop-color="#ff928e"/>
			<stop offset="1" stop-color="#feb3b1"/>
		</linearGradient>
		<linearGradient id="g7" x1="-1765" y1="3850.6" x2="-2144.5" y2="4247.4" gradientUnits="userSpaceOnUse">
			<stop offset="0" stop-color="#fe7062"/>
			<stop offset="1" stop-color="#ff928e"/>
		</linearGradient>
		<linearGradient id="g8" x1="1020.1" y1="812" x2="995.2" y2="756.8" gradientUnits="userSpaceOnUse">
			<stop offset="0" stop-color="#ff928e"/>
			<stop offset="1" stop-color="#feb3b1"/>
		</linearGradient>
		<linearGradient id="g9" x1="965.7" y1="693.2" x2="900.9" y2="777.6" gradientUnits="userSpaceOnUse">
			<stop offset="0" stop-color="#ff928e"/>
			<stop offset="1" stop-color="#feb3b1"/>
		</linearGradient>
		<linearGradient id="g10" x1="979.7" y1="650.3" x2="893.5" y2="786.5" gradientUnits="userSpaceOnUse">
			<stop offset="0" stop-color="#09005d"/>
			<stop offset="1" stop-color="#1a0f91"/>
		</linearGradient>
		<linearGradient id="g11" x1="962.8" y1="705.9" x2="908.9" y2="776.2" gradientUnits="userSpaceOnUse">
			<stop offset="0" stop-color="#ff928e"/>
			<stop offset="1" stop-color="#feb3b1"/>
		</linearGradient>
		<linearGradient id="g12" x1="1008.4" y1="1452.1" x2="670.1" y2="1613.3" gradientUnits="userSpaceOnUse">
			<stop offset="0" stop-color="#ff928e"/>
			<stop offset="1" stop-color="#feb3b1"/>
		</linearGradient>
		<linearGradient id="g13" x1="882.3" y1="1405.3" x2="940.6" y2="1404.7" gradientUnits="userSpaceOnUse">
			<stop offset="0" stop-color="#09005d"/>
			<stop offset="1" stop-color="#1a0f91"/>
		</linearGradient>
		<linearGradient id="g14" x1="1217.3" y1="1242.1" x2="1064.5" y2="1410.5" gradientUnits="userSpaceOnUse">
			<stop offset="0" stop-color="#ff928e"/>
			<stop offset="1" stop-color="#feb3b1"/>
		</linearGradient>
		<linearGradient id="g15" x1="943.8" y1="1421.8" x2="1007.9" y2="1421.2" gradientUnits="userSpaceOnUse">
			<stop offset="0" stop-color="#09005d"/>
			<stop offset="1" stop-color="#1a0f91"/>
		</linearGradient>
		<linearGradient id="g16" x1="-1545" y1="3526.1" x2="-1973.6" y2="3881.3" gradientUnits="userSpaceOnUse">
			<stop offset="0" stop-color="#fe7062"/>
			<stop offset="1" stop-color="#ff928e"/>
		</linearGradient>
		<linearGradient id="g17" x1="800.7" y1="963.3" x2="1061.3" y2="576.8" gradientUnits="userSpaceOnUse">
			<stop offset="0" stop-color="#ff928e"/>
			<stop offset="1" stop-color="#feb3b1"/>
		</linearGradient>
		<linearGradient id="g18" x1="935.4" y1="1094.3" x2="901.4" y2="1094.3" gradientUnits="userSpaceOnUse">
			<stop offset="0" stop-color="#09005d"/>
			<stop offset="1" stop-color="#1a0f91"/>
		</linearGradient>
		<linearGradient id="g19" x1="993.2" y1="1090.6" x2="928.3" y2="1090.6" gradientUnits="userSpaceOnUse">
			<stop offset="0" stop-color="#09005d"/>
			<stop offset="1" stop-color="#1a0f91"/>
		</linearGradient>
		<linearGradient id="g20" x1="914.8" y1="1136.9" x2="994.1" y2="1136.9" gradientUnits="userSpaceOnUse">
			<stop offset="0" stop-color="#ff928e"/>
			<stop offset="1" stop-color="#feb3b1"/>
		</linearGradient>
		<linearGradient id="g21" x1="952.9" y1="1288.4" x2="924.2" y2="1487" gradientUnits="userSpaceOnUse">
			<stop offset="0" stop-color="#4042e2"/>
			<stop offset="1" stop-color="#4f52ff"/>
		</linearGradient>
		<linearGradient id="g22" x1="822.1" y1="1436.7" x2="850.8" y2="1436.7" gradientUnits="userSpaceOnUse">
			<stop offset="0" stop-color="#ff928e"/>
			<stop offset="1" stop-color="#feb3b1"/>
		</linearGradient>
		<linearGradient id="g23" x1="1086.7" y1="1313" x2="1058.7" y2="1506" gradientUnits="userSpaceOnUse">
			<stop offset="0" stop-color="#4042e2"/>
			<stop offset="1" stop-color="#4f52ff"/>
		</linearGradient>
		<linearGradient id="g24" x1="938.7" y1="1246.4" x2="820" y2="1476.4" gradientUnits="userSpaceOnUse">
			<stop offset="0" stop-color="#09005d"/>
			<stop offset="1" stop-color="#1a0f91"/>
		</linearGradient>
		<linearGradient id="g25" x1="958.3" y1="1431.9" x2="992.6" y2="1431.9" gradientUnits="userSpaceOnUse">
			<stop offset="0" stop-color="#ff928e"/>
			<stop offset="1" stop-color="#feb3b1"/>
		</linearGradient>
		<linearGradient id="g26" x1="1039.7" y1="1133.9" x2="1021.7" y2="1234.1" gradientUnits="userSpaceOnUse">
			<stop offset="0" stop-color="#09005d"/>
			<stop offset="1" stop-color="#1a0f91"/>
		</linearGradient>
		<linearGradient id="g27" x1="827.9" y1="932.5" x2="724.4" y2="1049.5" gradientUnits="userSpaceOnUse">
			<stop offset="0" stop-color="#ff928e"/>
			<stop offset="1" stop-color="#feb3b1"/>
		</linearGradient>
		<linearGradient id="g28" x1="869.2" y1="1043.9" x2="1050.4" y2="1341.3" gradientUnits="userSpaceOnUse">
			<stop offset="0" stop-color="#fe7062"/>
			<stop offset="1" stop-color="#ff928e"/>
		</linearGradient>
		<linearGradient id="g29" x1="753.4" y1="1024.6" x2="777.8" y2="1024.6" gradientUnits="userSpaceOnUse">
			<stop offset="0" stop-color="#e1473d"/>
			<stop offset="1" stop-color="#e9605a"/>
		</linearGradient>
		<linearGradient id="g30" x1="468.3" y1="-37.6" x2="511.1" y2="67.9" gradientUnits="userSpaceOnUse">
			<stop offset="0" stop-color="#ff928e"/>
			<stop offset="1" stop-color="#feb3b1"/>
		</linearGradient>
		<linearGradient id="g31" x1="812.9" y1="793.2" x2="895" y2="898.9" gradientUnits="userSpaceOnUse">
			<stop offset="0" stop-color="#e1473d"/>
			<stop offset="1" stop-color="#e9605a"/>
		</linearGradient>
		<linearGradient id="g32" x1="483.2" y1="130.8" x2="519.3" y2="219.9" gradientUnits="userSpaceOnUse">
			<stop offset="0" stop-color="#ff928e"/>
			<stop offset="1" stop-color="#feb3b1"/>
		</linearGradient>
		<linearGradient id="g33" x1="811.1" y1="810.9" x2="826.6" y2="810.9" gradientUnits="userSpaceOnUse">
			<stop offset="0" stop-color="#ff928e"/>
			<stop offset="1" stop-color="#feb3b1"/>
		</linearGradient>
		<linearGradient id="g34" x1="1328.1" y1="1181.4" x2="1446.3" y2="1181.4" gradientUnits="userSpaceOnUse">
			<stop offset="0" stop-color="#ff928e"/>
			<stop offset="1" stop-color="#feb3b1"/>
		</linearGradient>
		<linearGradient id="g35" x1="1443.7" y1="1412.7" x2="1427.3" y2="1664.3" gradientUnits="userSpaceOnUse">
			<stop offset="0" stop-color="#4042e2"/>
			<stop offset="1" stop-color="#4f52ff"/>
		</linearGradient>
		<linearGradient id="g36" x1="1188" y1="1190.8" x2="1438.7" y2="1190.8" gradientUnits="userSpaceOnUse">
			<stop offset="0" stop-color="#ff928e"/>
			<stop offset="1" stop-color="#feb3b1"/>
		</linearGradient>
		<linearGradient id="g37" x1="1342.7" y1="1147.5" x2="1621" y2="1147.5" gradientUnits="userSpaceOnUse">
			<stop offset="0" stop-color="#4042e2"/>
			<stop offset="1" stop-color="#4f52ff"/>
		</linearGradient>
		<linearGradient id="g38" x1="1286.4" y1="1410.9" x2="1271.3" y2="1642.3" gradientUnits="userSpaceOnUse">
			<stop offset="0" stop-color="#4042e2"/>
			<stop offset="1" stop-color="#4f52ff"/>
		</linearGradient>
		<linearGradient id="g39" x1="1616.2" y1="1072.7" x2="1749.2" y2="1362.3" gradientUnits="userSpaceOnUse">
			<stop offset="0" stop-color="#fe7062"/>
			<stop offset="1" stop-color="#ff928e"/>
		</linearGradient>
		<linearGradient id="g40" x1="1446.3" y1="1012.5" x2="1429.8" y2="906.5" gradientUnits="userSpaceOnUse">
			<stop offset="0" stop-color="#ff928e"/>
			<stop offset="1" stop-color="#feb3b1"/>
		</linearGradient>
		<linearGradient id="g41" x1="-1292.7" y1="-5500.9" x2="-1405.1" y2="-5731" gradientUnits="userSpaceOnUse">
			<stop offset="0" stop-color="#ff928e"/>
			<stop offset="1" stop-color="#feb3b1"/>
		</linearGradient>
		<linearGradient id="g42" x1="-1478" y1="-5380.3" x2="-1588" y2="-5605.4" gradientUnits="userSpaceOnUse">
			<stop offset="0" stop-color="#09005d"/>
			<stop offset="1" stop-color="#1a0f91"/>
		</linearGradient>
		<linearGradient id="g43" x1="-1148.3" y1="-4840.9" x2="-1249.5" y2="-5048" gradientUnits="userSpaceOnUse">
			<stop offset="0" stop-color="#ff928e"/>
			<stop offset="1" stop-color="#feb3b1"/>
		</linearGradient>
		<linearGradient id="g44" x1="1540.8" y1="1106.9" x2="1775" y2="1106.9" gradientUnits="userSpaceOnUse">
			<stop offset="0" stop-color="#ff928e"/>
			<stop offset="1" stop-color="#feb3b1"/>
		</linearGradient>
		<linearGradient id="g45" x1="1640" y1="1620.2" x2="1638.6" y2="1767.5" gradientUnits="userSpaceOnUse">
			<stop offset="0" stop-color="#09005d"/>
			<stop offset="1" stop-color="#1a0f91"/>
		</linearGradient>
		<linearGradient id="g46" x1="1742.9" y1="1458.6" x2="1750.9" y2="1396.5" gradientUnits="userSpaceOnUse">
			<stop offset="0" stop-color="#ff928e"/>
			<stop offset="1" stop-color="#feb3b1"/>
		</linearGradient>
		<linearGradient id="g47" x1="1869.5" y1="1630.8" x2="1868" y2="1785" gradientUnits="userSpaceOnUse">
			<stop offset="0" stop-color="#09005d"/>
			<stop offset="1" stop-color="#1a0f91"/>
		</linearGradient>
		<linearGradient id="g48" x1="1917.5" y1="1479.8" x2="1925.2" y2="1419.7" gradientUnits="userSpaceOnUse">
			<stop offset="0" stop-color="#ff928e"/>
			<stop offset="1" stop-color="#feb3b1"/>
		</linearGradient>
		<linearGradient id="g49" x1="1930.9" y1="1042.5" x2="1716.3" y2="1042.5" gradientUnits="userSpaceOnUse">
			<stop offset="0" stop-color="#09005d"/>
			<stop offset="1" stop-color="#1a0f91"/>
		</linearGradient>
		<linearGradient id="g50" x1="1913.6" y1="1205.6" x2="1905" y2="1188.5" gradientUnits="userSpaceOnUse">
			<stop offset="0" stop-color="#53d8ff"/>
			<stop offset="1" stop-color="#3840f7"/>
		</linearGradient>
		<linearGradient id="g51" x1="1841.1" y1="1179.8" x2="1615.6" y2="1401.3" gradientUnits="userSpaceOnUse">
			<stop offset="0" stop-color="#fe7062"/>
			<stop offset="1" stop-color="#ff928e"/>
		</linearGradient>
		<linearGradient id="g52" x1="1709.9" y1="923.8" x2="1657.6" y2="979.7" gradientUnits="userSpaceOnUse">
			<stop offset="0" stop-color="#e1473d"/>
			<stop offset="1" stop-color="#e9605a"/>
		</linearGradient>
		<linearGradient id="g53" x1="1842.9" y1="1018" x2="1733.6" y2="1018" gradientUnits="userSpaceOnUse">
			<stop offset="0" stop-color="#ff928e"/>
			<stop offset="1" stop-color="#feb3b1"/>
		</linearGradient>
		<linearGradient id="g54" x1="1742.2" y1="846.9" x2="1538.1" y2="846.9" gradientUnits="userSpaceOnUse">
			<stop offset="0" stop-color="#ff928e"/>
			<stop offset="1" stop-color="#feb3b1"/>
		</linearGradient>
		<linearGradient id="g55" x1="1842.8" y1="802.8" x2="1771.8" y2="729.9" gradientUnits="userSpaceOnUse">
			<stop offset="0" stop-color="#ff928e"/>
			<stop offset="1" stop-color="#feb3b1"/>
		</linearGradient>
		<linearGradient id="g56" x1="1706.3" y1="703.1" x2="1711" y2="842.7" gradientUnits="userSpaceOnUse">
			<stop offset="0" stop-color="#ff928e"/>
			<stop offset="1" stop-color="#feb3b1"/>
		</linearGradient>
		<linearGradient id="g57" x1="1829.5" y1="697.5" x2="1740.9" y2="635.1" gradientUnits="userSpaceOnUse">
			<stop offset="0" stop-color="#09005d"/>
			<stop offset="1" stop-color="#1a0f91"/>
		</linearGradient>
		<linearGradient id="g58" x1="1817.9" y1="824.2" x2="1804.6" y2="741.3" gradientUnits="userSpaceOnUse">
			<stop offset="0" stop-color="#ff928e"/>
			<stop offset="1" stop-color="#feb3b1"/>
		</linearGradient>
		<linearGradient id="g59" x1="1791.5" y1="1004.5" x2="1832.4" y2="1125" gradientUnits="userSpaceOnUse">
			<stop offset="0" stop-color="#e1473d"/>
			<stop offset="1" stop-color="#e9605a"/>
		</linearGradient>
		<linearGradient id="g60" x1="1833.5" y1="1249.3" x2="1834.3" y2="1202.7" gradientUnits="userSpaceOnUse">
			<stop offset="0" stop-color="#fe7062"/>
			<stop offset="1" stop-color="#ff928e"/>
		</linearGradient>
		<linearGradient id="g61" x1="1399.3" y1="1094.3" x2="1433.4" y2="1094.3" gradientUnits="userSpaceOnUse">
			<stop offset="0" stop-color="#4042e2"/>
			<stop offset="1" stop-color="#4f52ff"/>
		</linearGradient>
		<linearGradient id="g62" x1="1340" y1="1090.6" x2="1404.6" y2="1090.6" gradientUnits="userSpaceOnUse">
			<stop offset="0" stop-color="#4042e2"/>
			<stop offset="1" stop-color="#4f52ff"/>
		</linearGradient>
		<linearGradient id="g63" x1="1105" y1="1094.3" x2="1139" y2="1094.3" gradientUnits="userSpaceOnUse">
			<stop offset="0" stop-color="#4042e2"/>
			<stop offset="1" stop-color="#4f52ff"/>
		</linearGradient>
		<linearGradient id="g64" x1="1131.9" y1="1090.6" x2="1196.8" y2="1090.6" gradientUnits="userSpaceOnUse">
			<stop offset="0" stop-color="#4042e2"/>
			<stop offset="1" stop-color="#4f52ff"/>
		</linearGradient>
		<linearGradient id="g65" x1="1696.9" y1="1094.3" x2="1730.9" y2="1094.3" gradientUnits="userSpaceOnUse">
			<stop offset="0" stop-color="#09005d"/>
			<stop offset="1" stop-color="#1a0f91"/>
		</linearGradient>
		<linearGradient id="g66" x1="1637.5" y1="1090.6" x2="1702.1" y2="1090.6" gradientUnits="userSpaceOnUse">
			<stop offset="0" stop-color="#09005d"/>
			<stop offset="1" stop-color="#1a0f91"/>
		</linearGradient>
	</defs>
	<style>
		.s0 { fill: url(#g1) } 
		.s1 { fill: #91b3fa } 
		.s2 { fill: #bdd0fb } 
		.s3 { fill: #7d97f4 } 
		.s4 { fill: url(#g2) } 
		.s5 { fill: url(#g3) } 
		.s6 { fill: url(#g4) } 
		.s7 { fill: url(#g5) } 
		.s8 { fill: url(#g6) } 
		.s9 { fill: url(#g7) } 
		.s10 { fill: url(#g8) } 
		.s11 { fill: url(#g9) } 
		.s12 { fill: url(#g10) } 
		.s13 { fill: url(#g11) } 
		.s14 { fill: url(#g12) } 
		.s15 { fill: url(#g13) } 
		.s16 { fill: url(#g14) } 
		.s17 { fill: url(#g15) } 
		.s18 { fill: url(#g16) } 
		.s19 { fill: url(#g17) } 
		.s20 { fill: url(#g18) } 
		.s21 { fill: url(#g19) } 
		.s22 { fill: url(#g20) } 
		.s23 { fill: url(#g21) } 
		.s24 { fill: url(#g22) } 
		.s25 { fill: url(#g23) } 
		.s26 { fill: url(#g24) } 
		.s27 { fill: url(#g25) } 
		.s28 { fill: url(#g26) } 
		.s29 { fill: url(#g27) } 
		.s30 { fill: url(#g28) } 
		.s31 { fill: url(#g29) } 
		.s32 { fill: url(#g30) } 
		.s33 { fill: url(#g31) } 
		.s34 { fill: url(#g32) } 
		.s35 { fill: url(#g33) } 
		.s36 { fill: url(#g34) } 
		.s37 { fill: url(#g35) } 
		.s38 { fill: url(#g36) } 
		.s39 { fill: url(#g37) } 
		.s40 { fill: url(#g38) } 
		.s41 { fill: url(#g39) } 
		.s42 { fill: url(#g40) } 
		.s43 { fill: url(#g41) } 
		.s44 { fill: url(#g42) } 
		.s45 { fill: url(#g43) } 
		.s46 { fill: url(#g44) } 
		.s47 { fill: url(#g45) } 
		.s48 { fill: url(#g46) } 
		.s49 { fill: url(#g47) } 
		.s50 { fill: url(#g48) } 
		.s51 { fill: url(#g49) } 
		.s52 { fill: url(#g50) } 
		.s53 { fill: url(#g51) } 
		.s54 { fill: url(#g52) } 
		.s55 { fill: url(#g53) } 
		.s56 { fill: url(#g54) } 
		.s57 { fill: url(#g55) } 
		.s58 { fill: url(#g56) } 
		.s59 { fill: url(#g57) } 
		.s60 { fill: url(#g58) } 
		.s61 { fill: url(#g59) } 
		.s62 { fill: url(#g60) } 
		.s63 { fill: url(#g61) } 
		.s64 { fill: url(#g62) } 
		.s65 { fill: url(#g63) } 
		.s66 { fill: url(#g64) } 
		.s67 { fill: url(#g65) } 
		.s68 { fill: url(#g66) } 
		.s69 { fill: #ffffff } 
		.s70 { opacity: .6;fill: #ffffff } 
	</style>
	<g id="Illustration">
		<g id="&lt;Group&gt;">
			<path id="&lt;Path&gt;" class="s0" d="m603.7 1363.5c-279.9-43.8-224.8-351-163.3-444.4 61.5-93.4 79.2-86.9-85.4-182-164.5-95-197.1-254.5-122.1-372.9 75-118.5 217.7-128.8 392.2-54.2 174.4 74.6 157.1-123 326.7-107.1 169.6 15.8 123.1 190.5 334 130.5 211-60 147.5 26.9 307.9 52.7 160.5 25.8 365.3-168.5 544.8-33.2 179.5 135.2 71.4 269.8-13.8 335.4-85.1 65.5-58.1 114.1 100.1 160.9 158.2 46.7 236 211.7 29.4 377.2-206.6 165.5-948.4 158.1-948.4 158.1 0 0-422.1 22.9-702.1-21z"/>
			<path id="&lt;Path&gt;" class="s1" d="m2044.3 928.7c-60.5-28.1-1.7-67.1 35.2-63.8 36.9 3.3-48.1-67-48.1-67-56.6-50.3-20.6-62.6 32.3-34.9 52.9 27.7 9.9-14.3-22.2-51.9-32-37.6-25.3-102.2 6.5-151.8 31.7-49.6 56.4 116.6 63.6 148.5 7.2 31.9 5.1-29.8 21.6-92.4 16.6-62.6 29.4-0.3 35.3 46.2 5.9 46.6-15.8 113.6-2.5 125 13.3 11.3 13.8-68.9 46.6-41.3 32.8 27.6-72.9 213.1-72.9 213.1-9.3-17.2-95.4-29.7-95.4-29.7z"/>
			<path id="&lt;Path&gt;" class="s2" d="m2095.8 1127.6c0 0-206-9.8-196.9-57.5 9.1-47.7 76.4-15.7 106.3-12.7 29.9 3 12.3-17.4-48.6-60.4-61-42.9-94.5-105.7-29.9-76.4 64.5 29.3 90.3 84.3 85.9 45.5-4.3-38.8-87.3-148-17.1-103.3 70.1 44.7 65.3 86.1 67.4 118.8 2.2 32.6 11.5-63.2 33.4-48.9 22 14.2 9.5 28.9 1.7 66.9-7.9 37.9 14.1 7.3 21.4-5.1 7.2-12.5 25.1 17.4 7.6 58.6-17.5 41.3-31.2 74.5-31.2 74.5z"/>
			<path id="&lt;Path&gt;" class="s3" d="m2136.8 1344.8q-0.2 0.2-0.2 0.4c0 0-0.1 0.3 0 0.1v-0.6l0.1-2.4 0.2-4.7 0.3-9.7 0.5-19.4 0.7-38.9q0.5-39 0.3-77.9c-0.1-51.9-1-103.8-3-155.6q-1.6-38.9-4-77.7c-1.7-25.9-3.8-51.7-6.4-77.5-2.7-25.7-6.1-51.4-10.5-76.8-4.6-25.4-10.1-50.7-19.2-74.5l-0.1-0.1c-0.8-2.3 0.3-5 2.7-5.9 2.3-0.8 4.9 0.3 5.8 2.6 9.8 24.7 15.7 50.4 20.7 76 4.9 25.7 8.6 51.6 11.7 77.5 3 25.9 5.4 51.8 7.5 77.8q3 39 5.1 78c2.7 52 4.3 104 5.2 156.1q0.6 39 0.7 78.1l-0.2 39-0.2 19.6-0.2 9.8-0.1 4.9-0.1 2.6v0.6c0 0.2-0.1 0.9-0.1 1.3q-0.2 1.4-0.5 2.8c-1.5 4.6-6.5 7.1-11.1 5.6-4.6-1.5-7.1-6.5-5.6-11.1z"/>
			<path id="&lt;Path&gt;" class="s3" d="m2135.7 1354.8q-0.1 0.3-0.1 0.7c0 0.1 0 0.4 0 0.2v-0.3l-0.2-1.5-0.5-3-1-6.2-2-12.3-4.3-24.6q-4.3-24.6-9.1-49.2c-6.2-32.7-13-65.4-20.3-97.9-7.3-32.6-15.2-64.9-24.3-96.9-4.6-16-9.6-31.9-15.1-47.5-5.6-15.5-11.7-31-19.7-45l-0.1-0.1c-1.2-2.2-0.5-5 1.7-6.2 2.2-1.2 4.9-0.5 6.1 1.6 8.9 14.8 15.4 30.5 21.5 46.2 6 15.8 11.3 31.7 16.3 47.8 9.9 32.1 18.5 64.5 26.6 97 8 32.5 15.5 65.2 22.5 97.9q5.2 24.6 10.1 49.2l4.9 24.7 2.3 12.4 1.1 6.2 0.5 3.2 0.3 1.6 0.1 0.4 0.1 1q0.1 1.2 0.1 2.3c-0.5 4.8-4.8 8.3-9.6 7.9-4.8-0.5-8.4-4.8-7.9-9.6z"/>
			<path id="&lt;Path&gt;" class="s1" d="m2143 954.7c-26.6-36.1-16.2-69.3-6.2-58.9 9.9 10.5 38.4 35.1 22 0-16.5-35.1-32-46.5-13.9-65.4 18-19 49.3 72.1 43.8 39.8-5.5-32.2 1.6-83.1 59.4-142.9 57.9-59.8-16.9 88.2-12.2 127 4.8 38.8-14.6-1.6 41.4-45 56-43.5 51.4 14.5 2 70.3-49.3 55.9-45.2 60.8-16.8 51 28.4-9.9 86.4-56.6 106.3-12.3 19.9 44.3-188.9 77.6-188.9 77.6 0 0-10.4-5.2-36.9-41.2z"/>
			<path id="&lt;Path&gt;" class="s3" d="m2164.1 1350.3q-0.3-1.2-0.4-2.5c-0.1-0.4-0.1-1-0.1-1.1v-0.5l-0.1-1.9-0.1-3.8-0.1-7.3-0.2-14.6v-29.3q0.1-29.2 0.7-58.4c0.7-38.9 2-77.9 4.1-116.8 2.2-38.9 5.1-77.8 9.7-116.6 2.3-19.4 5.2-38.7 8.9-58 3.8-19.2 8.2-38.4 15.7-57 0.9-2.3 3.6-3.5 5.9-2.5 2.3 0.9 3.4 3.5 2.5 5.8v0.1c-6.7 17.6-10.8 36.5-14.2 55.5-3.3 19-5.7 38.1-7.7 57.4-3.8 38.5-6 77.2-7.5 115.9-1.4 38.8-2 77.6-2 116.3q0 29.1 0.4 58.2l0.6 29.1 0.4 14.5 0.2 7.2 0.2 3.6 0.1 1.7v0.4c0 0.2 0-0.1 0-0.2q-0.1-0.4-0.3-0.7c1.5 4.6-1 9.6-5.6 11.1-4.6 1.5-9.5-1-11.1-5.6z"/>
			<g id="&lt;Group&gt;">
				<path id="&lt;Path&gt;" class="s4" d="m2064.1 1310.1h173c11.3 0 19.7 10.5 17.2 21.6-11.1 47.9-24.4 96.5-51.5 145.9-5 9.1-14.6 14.8-25 14.8h-56.4c-10.3 0-19.7-5.6-24.5-14.6-21.7-40.4-42.7-88.6-53-143.2-2.4-12.7 7.3-24.5 20.2-24.5z"/>
			</g>
			<path id="&lt;Path&gt;" class="s1" d="m326 924c-58.4-32.4 3-67 39.6-61.1 36.6 5.9-43.2-70.3-43.2-70.3-52.8-54.2-15.9-64 34.8-32.5 50.7 31.4 10.8-13.5-18.4-53.4-29.2-39.8-18-103.7 17.3-150.9 35.2-47.2 48 120.4 52.8 152.7 4.9 32.3 7.2-29.4 28.2-90.6 21-61.3 29.3 1.8 31.8 48.6 2.6 46.9-23.8 112.2-11.4 124.5 12.4 12.3 18.8-67.7 49.5-37.8 30.7 29.9-88 207.3-88 207.3-8.1-17.8-93-36.5-93-36.5z"/>
			<path id="&lt;Path&gt;" class="s3" d="m388.4 1345.6q-0.3 0.2-0.3 0.4c0 0-0.1 0.3 0 0.1v-0.6l0.3-2.3 0.5-4.8 1.1-9.6 1.8-19.3 3.5-38.8q3.3-38.8 6-77.6c3.5-51.8 6.3-103.6 8.1-155.4q1.2-38.9 1.6-77.8c0.1-26-0.1-51.9-0.9-77.8-0.8-25.8-2.3-51.7-4.9-77.4-2.7-25.6-6.4-51.3-13.8-75.6v-0.1c-0.8-2.4 0.6-4.9 3-5.7 2.3-0.7 4.8 0.6 5.6 3 8.1 25.3 12.1 51.4 15.2 77.3 3.1 26 4.9 52.1 6.1 78.1 1.1 26.1 1.7 52.1 1.9 78.2q0.2 39-0.5 78.1c-1.1 52.1-3.2 104.1-6 156.1q-2.2 39-4.9 77.9l-3 39-1.6 19.4-0.9 9.8-0.5 5-0.3 2.5v0.6c-0.1 0.2-0.2 0.9-0.2 1.3q-0.3 1.4-0.7 2.8c-1.9 4.5-7 6.6-11.5 4.7-4.5-1.8-6.6-7-4.7-11.5z"/>
			<path id="&lt;Path&gt;" class="s1" d="m437 1053.1c-17.5-41.2 0.3-71.1 7.6-58.6 7.2 12.4 29.2 43 21.4 5.1-7.9-38-20.3-52.7 1.6-66.9 21.9-14.3 31.3 81.5 33.4 48.9 2.1-32.7-2.7-74.1 67.5-118.8 70.2-44.7-12.8 64.5-17.2 103.3-4.3 38.8 21.4-16.2 86-45.5 64.5-29.3 31 33.5-29.9 76.4-61 43-78.5 63.4-48.6 60.4 29.9-3 97.1-35 106.3 12.7 9.1 47.7-196.9 57.5-196.9 57.5 0 0-13.8-33.2-31.2-74.5z"/>
			<path id="&lt;Path&gt;" class="s3" d="m420.4 1364.4c-4.9 0.4-9.2-3.1-9.6-7.9q0-1.1 0.1-2.3l0.1-1v-0.4l0.3-1.6 0.6-3.2 1.1-6.2 2.3-12.4 4.8-24.7q4.9-24.6 10.2-49.2c7-32.7 14.4-65.4 22.5-97.9 8-32.5 16.7-64.9 26.6-97 5-16.1 10.3-32 16.3-47.8 6-15.7 12.6-31.4 21.4-46.2 1.3-2.1 4-2.8 6.1-1.6 2.2 1.2 3 4 1.7 6.2v0.1c-8 14-14.1 29.5-19.7 45-5.6 15.6-10.5 31.5-15.1 47.5-9.1 32-17 64.3-24.4 96.9-7.3 32.5-14 65.2-20.3 97.9q-4.7 24.6-9.1 49.2l-4.2 24.6-2.1 12.3-0.9 6.2-0.5 3-0.2 1.5-0.1 0.3c0 0.2 0.1-0.1 0.1-0.2q0-0.4-0.1-0.7c0.4 4.8-3.1 9.1-7.9 9.6z"/>
			<path id="&lt;Path&gt;" class="s2" d="m345.5 1042.6c0 0-211.2-11-196.1-57.2 15.2-46.1 77.8-5.9 107.1 0.9 29.3 6.9 32.8 1.5-22.2-48.8-55-50.3-65.7-107.4-5.4-70.2 60.3 37.3 45.3 79.4 45.9 40.4 0.6-39.1-89.5-178.3-25.6-125 63.9 53.3 76.3 103.2 74.2 135.8-2 32.7 19.5-61.2 39.4-44.2 19.9 16.9 5.7 29.9-6.9 66.5-12.6 36.7 13.1 9.1 21.9-2.3 8.8-11.4 22.7 20.5 0.1 59.2-22.6 38.6-32.4 44.9-32.4 44.9z"/>
			<path id="&lt;Path&gt;" class="s3" d="m388.3 1400c-4.7-1-7.7-5.7-6.7-10.4q-0.2 0.3-0.2 0.7c0 0.1 0 0.4 0 0.3v-0.5l-0.1-1.7-0.3-3.6-0.5-7.2-1.1-14.4-2.5-29q-2.7-28.9-5.8-57.9c-4.1-38.5-8.8-77.1-14.3-115.4-5.6-38.4-11.9-76.7-19.8-114.5-4-19-8.4-37.8-13.7-56.3-5.4-18.5-11.4-36.8-20-53.6v-0.2c-1.1-2.2-0.3-4.9 1.9-6 2.2-1.2 4.9-0.3 6.1 1.9 9.4 17.7 15.9 36.3 21.7 55 5.7 18.8 10.6 37.7 14.9 56.8 8.7 38 15.7 76.4 22 114.9 6.2 38.4 11.7 77 16.5 115.6q3.7 29 6.9 58.1l3.1 29 1.4 14.6 0.6 7.3 0.3 3.7 0.2 2v0.4c0 0.2 0 0.8 0 1.2q0 1.3-0.1 2.5c-1.1 4.8-5.8 7.8-10.5 6.7z"/>
			<g id="&lt;Group&gt;">
				<path id="&lt;Path&gt;" class="s5" d="m325.9 1310.1h173c11.3 0 19.7 10.5 17.2 21.6-11.1 47.9-24.4 96.5-51.5 145.9-5 9.1-14.6 14.8-25 14.8h-56.4c-10.2 0-19.6-5.6-24.5-14.6-21.7-40.4-42.7-88.6-53-143.2-2.4-12.7 7.3-24.5 20.2-24.5z"/>
			</g>
			<path id="&lt;Path&gt;" class="s6" d="m1483.5 927.7c-21.9 24.8-34.5 14.6-23.3 68.7 11.1 54.1-28.8 95.4-64 130.3-35.1 34.9-63.3 1.4-70.4-39.7-7-41.2-23.6-25.4-53.9-49.2-30.4-23.8-50.4-95.7 17.2-122.1 67.6-26.3 91.8-45.7 96.4-62.8 4.6-17-5.2-51.2 52.7-58.7 57.9-7.6 38.3 42.2 38.3 42.2-17.5 42.5 28.8 66.5 7 91.3z"/>
			<g id="&lt;Group&gt;">
				<path id="&lt;Path&gt;" class="s3" d="m1108.2 1484.7h-16.7v-180.7h16.7z"/>
				<path id="&lt;Path&gt;" class="s3" d="m1173 1488.2h-146.4c0-6 4.9-10.9 10.9-10.9h124.6c6.1 0 10.9 4.9 10.9 10.9z"/>
				<path id="&lt;Path&gt;" class="s3" d="m1194.7 1297.7c0 9.9-8 18-17.9 18h-148.1c-9.9 0-18-8.1-18-18v-16.3c0-9.9 8.1-17.9 18-17.9h148.1c9.9 0 17.9 8 17.9 17.9z"/>
			</g>
			<g id="&lt;Group&gt;">
				<path id="&lt;Path&gt;" class="s7" d="m1008.9 970.6c-8 83.7-40.9 80.9-173.2 86.2-43.2 1.8-93.7-13.7-107.1-59.8-16.2-56.3 4.4-109.7 48.9-144.7 35.2-27.7 89.7-52.6 105.8-97.7 19.7-55.1 38.9-97.1 88.8-90.4 49.9 6.6 33.8 46.9 33.8 46.9 0 0 11 175.8 3 259.5z"/>
				<path id="&lt;Path&gt;" class="s8" d="m1131.1 778c0 0 31.8 62.3-16.2 105.1-48 42.8-89.3 12.4-89.3 12.4l-26.7-84.8c0 0 53.9 71.1 92.1 46.5 38.3-24.6 28.4-58.3 21.9-83.8-3.1-6.8-0.9-15.2 3.6-19 5.3-4.3 5.7-11.2 5.7-11.2 0 0 6.8 7.8 3 13.6-1.3 2-1.3 3.9-0.7 5.6q0.8-0.5 1.7-0.9c12.2-5.3 17.9-20.3 20.3-28.8 0.7-2.4 3.8-2.7 4.9-0.6 16.3 31.1-20.3 45.9-20.3 45.9z"/>
				<path id="&lt;Path&gt;" class="s9" d="m1001.7 806.1c10.1 15 50 76.8 34.6 99.2-22.3 32.5-39.2 106.5-39.2 106.5-37.9 30.9-72.6-7.4-72.6-7.4 19.7-40-2.7-132.6-11.3-163.9-1.9-7.1 0.3-14.6 5.7-19.6 31.7-29.2 65-22.9 76.4-19.5 2.6 0.8 4.9 2.5 6.4 4.7z"/>
				<path id="&lt;Path&gt;" class="s10" d="m986.4 745.9c-2.7 8.6-4.5 56.4-4.5 56.4-17.6 14.4-36.4 5.9-36.4 5.9 1.3-21.2 18.2-69 18.2-69z"/>
				<path id="&lt;Path&gt;" class="s11" d="m1002.3 701.7c0 0 29.6 70.1-0.1 81.8-29.8 11.8-50.9-38.1-50.9-38.1 0 0-2.6-35.3 10.4-44.2 13-8.8 40.6 0.5 40.6 0.5z"/>
				<path id="&lt;Path&gt;" class="s12" d="m985.6 682.7c0 0 18.8 9.2 19.5 18.8 0.8 9.6-32 10.9-40.7 9.4l-15.2 34.7c0 0-12.9-38.8-0.3-56.6 12.6-17.8 36.7-6.3 36.7-6.3z"/>
				<path id="&lt;Path&gt;" class="s13" d="m957.8 751.9c-9 4.5-28.6-9.9-19.1-21.1 9.6-11.2 22 12.1 22 12.1z"/>
				<path id="&lt;Path&gt;" class="s14" d="m1041.3 1167.2c-0.2 3.4 5.7 30.1 8.9 44.3 1.3 5.7 0.4 11.7-2.5 16.8l-111.2 187.1c-1.3 2.3-2.3 4.7-2.9 7.3-2 8.8-6.3 30.3-4.1 49.9l5.8 11.9-24.9-5.6-5.4-66.8 7-4.3c6.1-3.7 10.9-9.3 13.6-15.9 10-24.4 35-86.5 41.4-116.8 7.4-34.5 45.6-62.5 45.6-62.5l-6.7-15.8z"/>
				<path id="&lt;Path&gt;" class="s15" d="m882.8 1455.9c0 0 13.4-21.3 15-29.6 1.6-8.3 6-22.9 14.2-18.5 0 0 3.9 40.3 2.6 56-1.3 15.7 17.8 15.2 17.8 15.2 0 0 5.3 0.8 9.1 4.6 2.7 2.7 0.8 7.3-3 7.6-6.2 0.4-16.2 0.5-26.6-1.5-3.7-0.7-6.4-3.8-6.6-7.6l-2.8-46.3-16.9 21.4z"/>
				<path id="&lt;Path&gt;" class="s16" d="m974.8 1197.1c0 0-3.9 167.4-4.4 191.1-0.6 23.8 3.7 76.5 27.6 92.3l-10.4 7.6c0 0-13-11-25.6-32.2-14.3-23.8-18.6-28.1-18.6-28.1l4.8-9.7c2-4.2 2.6-9 1.7-13.6-5.2-25-22.3-107.9-27-125.7-5.6-21.1-6-49.3 13.3-72.8 19.2-23.6 38.6-8.9 38.6-8.9z"/>
				<path id="&lt;Path&gt;" class="s17" d="m952.8 1495.7c-0.7 0-1.4-0.5-1.5-1.3-0.8-5.6-4.1-27.9-6.8-33.7-3-6.7-13.2-34.6 0.1-37 0 0 32.8 48 39.1 54.5 6.3 6.5 14.3 2.3 14.3 2.3 0 0 6.1 1.8 10.7 7.7 2.2 2.8 0.2 7-3.4 7l-22.1 0.2c-6.4 0.1-12.2-3.8-14.6-9.8-3.9-9.7-10.6-24-18.4-30.3l4.1 38.8c0.1 0.8-0.6 1.6-1.5 1.6z"/>
				<path id="&lt;Path&gt;" class="s18" d="m1002.3 993.8c0 0-5 15.9 2.7 42l47.5 166c0.7 2.6-0.7 5.3-3.2 6.2-14.2 5.1-61 19.5-124.7 15.1-3.2-0.2-5.9-2.5-6.6-5.6-4.2-18.9-18.6-83.5-21.5-96.7-11.3-50.5-23.8-105 31.4-138 25.5 10.9 49.2 17.4 74.4 11z"/>
				<path id="&lt;Path&gt;" class="s19" d="m933.5 864.2c-1.7 4.3-4.5 8-8 11-61.3 51-46.5 84.6-22.5 95.5 24.7 11.1 16.6-2.6 34-2.7 17.5-0.1 31.2 29.4 16.3 24.4-14.9-5-27.4 9-27.4 9 0 0-92.4-6.5-79-67.9 13.4-61.4 67.5-106.3 67.5-106.3 21.6-12.6 31 7 19.1 37z"/>
				<path id="&lt;Path&gt;" class="s3" d="m800.5 1036.5q0 0 0 0c-11.8-0.7-25.7-5.6-34.6-12-9.7-7.1-18.5-23.5-23.5-36.6-10.6-27.4-7.9-54.7 8.2-81.2 11.9-19.8 31.3-39.5 59.3-60.2 12.1-9 25.2-18 38.8-26.7 0.3-0.2 0.6-0.1 0.8 0.2 0.1 0.2 0.1 0.6-0.2 0.7-13.6 8.7-26.6 17.7-38.8 26.7-27.8 20.6-47.1 40.2-59 59.8-15.8 26.3-18.5 53.3-8.1 80.3 5 12.9 13.7 29.1 23.1 36.1 8.8 6.3 22.4 11.1 34 11.8 0.3 0 0.6 0.3 0.6 0.6-0.1 0.3-0.3 0.5-0.6 0.5z"/>
				<path id="&lt;Path&gt;" class="s3" d="m1000.9 694.2c-0.2 0-0.5-0.2-0.5-0.5 0-0.1-3-14-20-17.8-0.3-0.1-0.5-0.4-0.4-0.7 0.1-0.3 0.4-0.5 0.7-0.4 17.7 4 20.8 18.6 20.8 18.7 0.1 0.3-0.1 0.6-0.4 0.7q-0.1 0-0.2 0z"/>
			</g>
			<g id="&lt;Group&gt;">
				<g id="&lt;Group&gt;">
					<path id="&lt;Path&gt;" class="s20" d="m907.9 1140c-6.5-7.3-9.1-17.6-7.1-28.4 1.4-8.1 4.9-13.1 10.3-14.8 10.3-3.3 22.1 7.7 24.3 9.9l-6.7 6.9c-4-3.9-11.3-8.7-14.7-7.6-2.3 0.7-3.3 4.8-3.8 7.2-1.3 7.8 0.5 15.4 4.9 20.3 3.9 4.5 9.7 6.6 16.7 6.1l0.5 9.6q-1.1 0.1-2.2 0.1c-9 0-16.8-3.3-22.2-9.3z"/>
				</g>
				<path id="&lt;Path&gt;" class="s21" d="m930.4 1092.6h61.6c1 0 1.2 1.1 1.2 2.2v46.7c0 9.3-6.8 15.9-16.1 15.9h-31.9c-9.2 0-16.9-6.6-16.9-15.9v-46.7c0-1.1 1-2.2 2.1-2.2z"/>
			</g>
			<g id="&lt;Group&gt;">
				<path id="&lt;Path&gt;" class="s3" d="m596.9 1286.7l-31.7 203.3c-0.5 3.1-3.1 5.4-6.3 5.4-3.6 0-6.6-3.1-6.4-6.7 2.7-54 20.1-200.2 24.4-206.6z"/>
				<path id="&lt;Path&gt;" class="s3" d="m716.3 1282.1c4.4 6.4 21.7 152.6 24.5 206.6 0.1 3.6-2.8 6.7-6.4 6.7-3.2 0-5.9-2.3-6.4-5.4l-31.7-203.3z"/>
				<path id="&lt;Path&gt;" class="s3" d="m573.7 1250l146.7 2.6c12.7 0.2 22.7 10.1 22 21.9v1.5c-0.6 11.2-10.8 20.1-23 19.9l-146.6-2.5c-12.3-0.3-22.2-9.7-22.1-21.1v-1.6c0.1-11.7 10.4-21 23-20.7z"/>
			</g>
			<g id="&lt;Group&gt;">
				<path id="&lt;Path&gt;" class="s3" d="m1877.6 1286.7l-31.7 203.3c-0.5 3.1-3.2 5.4-6.3 5.4-3.7 0-6.6-3.1-6.4-6.7 2.7-54 20-200.2 24.4-206.6z"/>
				<path id="&lt;Path&gt;" class="s3" d="m1997 1282.1c4.4 6.4 21.7 152.6 24.4 206.6 0.2 3.6-2.7 6.7-6.4 6.7-3.1 0-5.8-2.3-6.3-5.4l-31.7-203.3z"/>
				<path id="&lt;Path&gt;" class="s3" d="m1854.4 1250l146.6 2.6c12.7 0.2 22.7 10.1 22.1 21.9l-0.1 1.5c-0.6 11.2-10.7 20.1-22.9 19.9l-146.6-2.5c-12.4-0.3-22.3-9.7-22.2-21.1l0.1-1.6c0.1-11.7 10.4-21 23-20.7z"/>
			</g>
			<g id="&lt;Group&gt;">
				<path id="&lt;Path&gt;" class="s22" d="m914.8 1149.2l10.3-2.8 31.2-7.2c3.7-0.9 7.7-0.2 11 1.8l26.8 16.9-74.1-0.1z"/>
				<g id="&lt;Group&gt;">
					<path id="&lt;Path&gt;" class="s3" d="m922.9 1481.1c0.7 2.7-1.2 5.7-4.3 5.7h-92.2c-4.8 0-8.6-3.4-9.6-7.7 5.1 2 16.6 4.3 42.7 4.3 30.6 0 52.9-1.5 63.4-2.3z"/>
					<path id="&lt;Path&gt;" class="s23" d="m859.5 1483.4c-26.1 0-37.6-2.3-42.7-4.3-0.4-1.6-0.4-3.4 0.1-5.1l5.2-17.1c21.8 3.3 31.6 0.3 59.7-0.1 19.2-0.3 33.3 13.8 40.3 22.7 0.4 0.5 0.6 1.1 0.8 1.6-10.5 0.8-32.8 2.3-63.4 2.3z"/>
				</g>
				<path id="&lt;Path&gt;" class="s24" d="m850.8 1442.7l-2.4 18.6c-12.3 5.1-26.3-1.3-26.3-1.3l6.3-21.5z"/>
				<g id="&lt;Group&gt;">
					<path id="&lt;Path&gt;" class="s3" d="m1067.5 1428.4c2.2 1.6 2.5 5.1 0.1 7.1l-71.8 57.7c-3.8 3-8.9 2.8-12.3 0.1 5.3-1.7 15.6-7.1 36-23.5 23.8-19.1 40.3-34.2 48-41.4z"/>
					<path id="&lt;Path&gt;" class="s25" d="m1019.5 1469.8c-20.4 16.4-30.7 21.8-36 23.5-1.3-1-2.4-2.4-3.1-4.1l-6.6-16.4c19.1-11.2 24.8-19.7 46.5-37.6 14.8-12.2 34.5-10.1 45.6-7.6 0.6 0.1 1.1 0.4 1.6 0.8-7.7 7.2-24.2 22.3-48 41.4z"/>
				</g>
				<path id="&lt;Path&gt;" class="s26" d="m693.1 1193.4c0 0 156 12.7 188 27.8 32 15.1-26.1 226.2-26.1 226.2 0 0-8.7 4.2-28.1-1.8 0 0 19.9-155.8 5.1-189.6l-169-27.6z"/>
				<path id="&lt;Path&gt;" class="s27" d="m978.6 1433.9l14 25.6c-3.2 9.9-18.8 13.3-18.8 13.3 0 0-14.1-28.4-15.5-29.7z"/>
				<path id="&lt;Path&gt;" class="s28" d="m693.1 1193.4l157.2 40.2c10.5 2.7 19.6 9.4 25.2 18.7l107.4 183.4c0.9 1.6 0.4 3.6-1.1 4.6l-14.8 9.3c-3.2 2.1-7.5 1.6-10.3-1.1-103.5-102.8-124.7-154.2-129.1-171-0.9-3.8-4.2-6.5-8.1-6.7l-184.4-8.4c-22.5-1.1-40.6-19.3-40.9-41.8-0.2-16.3 4.9-28.5 4.9-28.5z"/>
				<path id="&lt;Path&gt;" class="s29" d="m813.4 932.9c-21.4 10.9-30.8 47.8-30.8 47.8l-41.6-23.2c20.1-16.9 39.9-51.9 39.9-51.9z"/>
				<path id="&lt;Path&gt;" class="s30" d="m744.3 952.6c2.3-1.4 5.3-1.2 7.4 0.5 3.9 3.1 11.5 8.8 24.2 17.2 20.4 13.4 29.4 35.4 51.8 86.9 22.4 51.5 95.1 85 95.1 85l-5.1 11.4c-91.4-9.2-132.4-73.9-132.4-73.9-25.7 24.3-92.2 113.7-92.2 113.7-47.5 12.1-97.3 0-97.3 0 25.1-158 126.9-227.6 148.5-240.8z"/>
				<path id="&lt;Path&gt;" class="s31" d="m774.6 1065.7c-1.1 0-2.2-0.5-2.9-1.4-11.7-15.3-18.2-32-18.5-32.8-0.7-1.8 0.2-3.9 2.1-4.7 1.9-0.7 4 0.2 4.7 2.1 0.1 0.2 6.5 16.6 17.5 30.9 1.2 1.6 0.9 3.9-0.7 5.1-0.7 0.5-1.4 0.8-2.2 0.8z"/>
				<g id="&lt;Group&gt;">
					<path id="&lt;Path&gt;" class="s32" d="m812.2 853.3c0 0 19.2 31.9 22.6 49.5 3.3 17.7 8.6 28.7-11.4 35-20.1 6.3-38.8-1.7-50.5-18.2 0 0-18.3-25.3-16.4-36.9 1.8-11.6 55.7-29.4 55.7-29.4z"/>
					<path id="&lt;Path&gt;" class="s33" d="m781.6 904.7c0 0-0.7 0-3.4 0-2.6 0-7.8 0.3-1 21.2-58.3-26.1-31.4-38.9-34.4-52.5-7.5-22.5 32.2-26.2 46.1-50.2 14-24.1 41-22.5 46.3 6 5.4 28.4-55.3 48.6-55.3 48.6-16 2.1 1.7 26.9 1.7 26.9z"/>
					<path id="&lt;Path&gt;" class="s34" d="m778.1 919c-7.9 0.2-25-16-16.1-23.4 8.9-7.3 17.3 13.6 17.3 13.6z"/>
					<path id="&lt;Path&gt;" class="s35" d="m818.8 849c-0.2 0-0.4-0.1-0.5-0.3-0.1-0.3 0-0.6 0.3-0.7 0.3-0.2 6.9-3.1 6.9-15.2 0-12.2-14.1-18.8-14.2-18.9-0.3-0.1-0.4-0.4-0.3-0.7 0.2-0.3 0.5-0.4 0.8-0.3 0.1 0.1 14.8 7 14.8 19.9 0 12.9-7.3 16.1-7.6 16.2q-0.1 0-0.2 0z"/>
				</g>
			</g>
			<g id="&lt;Group&gt;">
				<path id="&lt;Path&gt;" class="s3" d="m1518.3 1484.7h-16.8v-180.7h16.8z"/>
				<path id="&lt;Path&gt;" class="s3" d="m1583.1 1488.2h-146.4c0-6 4.9-10.9 10.9-10.9h124.6c6 0 10.9 4.9 10.9 10.9z"/>
				<path id="&lt;Path&gt;" class="s3" d="m1604.8 1297.7c0 9.9-8.1 18-18 18h-148.1c-9.8 0-17.9-8.1-17.9-18v-16.3c0-9.9 8.1-17.9 17.9-17.9h148.1c9.9 0 18 8 18 17.9z"/>
			</g>
			<g id="&lt;Group&gt;">
				<path id="&lt;Path&gt;" class="s36" d="m1446.3 1259.5l-60 2.9c0 0 20.9 22.3 19.8 54.7l1.3 72.8c0.1 8.7 5.8 16.3 14.1 18.9l10.7 3.4-25 67.8h-37.6l14.6-13.7 7.9-36.6c1-5 0.3-10.1-2.1-14.5-45.3-83.7-59-169.5-62.4-195.9-0.6-5.3 1.8-10.4 6.2-13.3 27.9-18.7 52.7-22.6 52.7-22.6z"/>
				<path id="&lt;Path&gt;" class="s37" d="m1374.1 1474.1c0 0 17.9 5.9 28-0.6 10-6.5 19.4-64.7 19.4-64.7 16.6-1.1 18.8 4 18.8 4 0 25.3-28.2 74.4-28.2 74.4-20.3 9.8-60.6 3.9-57.2-0.6 5-6.6 19.2-12.5 19.2-12.5z"/>
				<path id="&lt;Path&gt;" class="s38" d="m1438.7 1263.5c-0.3-0.6-64.6-7.8-64.6-7.8 0 0 2.1 19.6-4.5 46.5-6.6 27-101.1 143.7-101.1 143.7l9.9 31.4c-30.6 10.7-60.8 12.4-90.4 5.4l61.4-36.8c0 0 57.5-195.9 92.7-230.8l64.5-22.3z"/>
				<path id="&lt;Path&gt;" class="s39" d="m1583.1 1149.5c0 0 37.1 55.2 40.1 80.3 3.1 25.2-10.1 35.4-49.1 37.1-38.9 1.7-142.7 1.6-142.7 1.6l-88.7-75.7c0 0 64.6-23.1 81.4-29.6 16.8-6.5 159-13.7 159-13.7z"/>
				<path id="&lt;Path&gt;" class="s40" d="m1274.7 1466.7c0 0 10.6 10.4 3.4 21.9 0 0-84.5 14.9-107.4 8.1 0 0 4.7-10.8 30.6-23.2l-1.9 1.5c-2.5 1.8-1 5.7 2 5.5 17-1 52.3-4.1 73.3-13.8z"/>
			</g>
			<path id="&lt;Path&gt;" class="s41" d="m1482.8 1142.2c0 0-43.2-41.1-64.4-68.4-11.5-14.7-15.1-34.1-9.8-52 9.7-32.7 26.9-66.5 28.5-71.8 2.4-8.1 50.8-7.7 50.8-7.7 0 0 95.3 61.8 132.8 166.5l-42.1 13.1c0 0-24.9-41.7-49.5-68.2 0 0 42.6 56.2 44.1 79.2z"/>
			<path id="&lt;Path&gt;" class="s42" d="m1454.5 882l31.2 61c-12.6 8.6-39.3 7.2-40.3 6.3-1-0.9-13.7-42.8-14.2-44.5z"/>
			<g id="&lt;Group&gt;">
				<path id="&lt;Path&gt;" class="s43" d="m1450.6 828.8c0 0 22.6 10.2 37.2 43.6 14.7 33.4 2.7 48.3-11.9 50-14.6 1.7-36.4 0.8-58.8-21.1-22.5-21.9 4.2-84.7 33.5-72.5z"/>
				<path id="&lt;Path&gt;" class="s44" d="m1430.3 885.4c0 0-9.1-10.3-13.3-2.1-4.3 8.2 5.2 24 5.2 24 0 0-8 18.6-25.8 1.6-17.7-17.1-15.3-40.3-3.4-74.7 11.9-34.4 42.3-44.1 67.7-30.7 25.4 13.5 9 39.8 9 39.8l-9.9-7.3c-42.7-0.6-26.8 48.1-26.8 48.1z"/>
				<path id="&lt;Path&gt;" class="s45" d="m1425.1 901.5c-8.1-4.4-28.8-18.1-16.9-27.6 11.8-9.6 19.9 15.4 19.9 15.4z"/>
			</g>
			<path id="&lt;Path&gt;" class="s46" d="m1394.8 1145.2l31.8-30.5 43.8 18.5c0 0 43.7 6.8 68.7 0 25-6.8 25-6.8 25-6.8l56.6-17.6 8.8 25.1c2.3 6.4 0 13.5-5.5 17.4-4.9 3.5-10.6 7.3-14.3 8.9-7.4 3.2-183.4-2.3-183.4-2.3z"/>
			<g id="&lt;Group&gt;">
				<g id="&lt;Group&gt;">
					<path id="&lt;Path&gt;" class="s47" d="m1736.6 1447.2c0 0 1.8 10.1 2.5 22 0.3 5.1-3.5 9.5-8.6 10-17.6 1.7-57.8 4.8-83.4 1.1-3.6-0.5-5-4.9-2.4-7.4 10.6-9.8 36.1-29 78.2-33.2z"/>
					<path id="&lt;Path&gt;" class="s48" d="m1745.3 1424.6l-8.9 21.8c-1.2 3-4.3 4.9-7.5 4.6-2.2-0.3-4.7-0.7-7.3-1.5-5-1.5-7.8-6.8-6.3-11.9l6.7-22.5z"/>
					<path id="&lt;Path&gt;" class="s49" d="m1926.1 1499.4c0.9 5.3-3.2 10.2-8.6 10.2h-36.8c-5.6 0-9.6-5.6-7.7-10.9 7-19.1 24.8-34.1 24.8-34.1 19.2 0.1 25.9 21.6 28.3 34.8z"/>
					<path id="&lt;Path&gt;" class="s50" d="m1920 1445.2c0 0-3.7 15.9-6.4 26.5-0.5 1.9-2.6 3-4.4 2.3-5.6-2-10.1-2.9-13.4-2.4-1.5 0.2-2.9-1.1-2.9-2.6l-0.3-26.5z"/>
					<path id="&lt;Path&gt;" class="s51" d="m1939.3 1044.5c45.5 103.1-14.6 404.3-14.6 404.3l-36.9-2.8c10.9-117.9-11.7-282-11.7-282l-129 266.4c-10 0.5-30.8-13.1-30.8-13.1l108.7-331.5z"/>
					<path id="&lt;Path&gt;" class="s52" d="m1874.4 1160.2l-4.2-33.5c-0.1-0.5 0.3-1.1 0.9-1.1 0.6-0.1 1.1 0.3 1.2 0.9l4.2 33.4c0 0.6-0.4 1.1-0.9 1.2q-0.1 0-0.2 0c-0.5 0-0.9-0.4-1-0.9z"/>
				</g>
				<path id="&lt;Path&gt;" class="s53" d="m1804.6 794.2c0 0 88 7.8 75.6 70.5 0 0 48.6 91.6 71.4 199.4 0.7 3.5-1.6 7-5.2 7.6l-146.6 25.1c-4 0.7-7.9-1.9-8.9-5.8l-35.1-135.4-13.6 62.9-43.4-11.3 36.5-184.9c0 0 5.1-27 69.3-28.1z"/>
				<path id="&lt;Path&gt;" class="s54" d="m1754 948.7l-12.2-56.1c-0.1-0.6 0.2-1.2 0.8-1.3 0.6-0.1 1.2 0.2 1.3 0.8l12.3 56.1c0.1 0.6-0.3 1.2-0.9 1.3q-0.1 0.1-0.2 0c-0.5 0-1-0.3-1.1-0.8z"/>
				<path id="&lt;Path&gt;" class="s55" d="m1763.9 1116.5c4.7-2.5 10.1-3.2 15.2-2l10.2 2.6c2.1 0.5 4.3-1 4.5-3.2l10.6-93.9c13.2 6.2 32.2 5.5 38.5 5l-24.3 110.8h-85z"/>
				<path id="&lt;Path&gt;" class="s56" d="m1538.1 912.7l2.5-8.5c1.5-4.9 5.1-8.9 9.9-10.8l46.5-18.7c0 0 0.7-6-9.8-10-10.6-4.1-8.1-15.8-8.1-15.8 0 0 14.4 6.5 35.4 16.9 12 6 18.8 16.5 22.4 24.4l105.3 128.3-12.4 8.5c-16.2 11.2-38.6 5.7-47.8-11.7l-57.1-109.4c-28.6 8.6-57.6 10.3-86.8 6.8z"/>
				<g id="&lt;Group&gt;">
					<path id="&lt;Path&gt;" class="s57" d="m1776.1 734.3l27 75.7c0 0-23.9 18.8-41.4 12.5l-13.7-43.5c0 0 10.5-53.1 28.1-44.7z"/>
					<g id="&lt;Group&gt;">
						<path id="&lt;Path&gt;" class="s58" d="m1788.4 701.2l-32.1 72.7-46-11.6c0 0 22.1-80 22.8-81 12.1-17.2 55.3 19.9 55.3 19.9z"/>
						<path id="&lt;Path&gt;" class="s59" d="m1770.6 707.3c-2.9-4.8-10.3-14.6-20.2-13.8-13 1-35.1-4.5-33.9-19 1.2-14.5 13.7-33.9 33.8-27.6 11.3 3.5 13.6 11.7 13.5 18.2-0.1 3.4 2.8 6.2 6.2 5.9 2.5-0.2 3.9 0.9 4.8 2.3 1.4 2.4 4.3 3.6 7 2.6 6.7-2.4 17.5-4.1 25.7 6.1 8 10 2.9 18.1-2 22.6-2.4 2.3-2.5 6.1-0.1 8.5 11.3 11.3 3.3 20.7-0.9 24.4-1.2 1-2.8 1.5-4.3 1.4-4.9-0.4-16.3-0.6-21 6.4-5 7.5-18.4 36.6-22.7 46.1-0.9 2-2.8 3.3-5 3.4-15.9 1.2-34.9-1.9-43.8-3.6-3-0.5-5.1-3.3-4.8-6.3 1.5-14.8 5.7-31.3 7.7-38.6 0.8-2.9 3.7-4.7 6.7-4.2 6.6 1.2 13.8 7.6 21.5 14.8 8.6 7.9 15.8-0.9 17.7-3.6q0.4-0.6 0.7-1.4l14-39.6c0.5-1.7 0.4-3.5-0.6-5z"/>
						<path id="&lt;Path&gt;" class="s60" d="m1774 759.7c0 0 3.2-25.1 13.6-26.4 10.5-1.2 20.7 7.4 10.3 21.5-12.9 17.5-23.9 4.9-23.9 4.9z"/>
						<path id="&lt;Path&gt;" class="s3" d="m1736.4 684.3q0 0-0.1 0c-4.2-0.3-7.8-2.3-10-5.5-2.2-3-2.8-6.9-1.7-10.7 1.9-6.6 6.8-13.1 13.1-17.3 0.3-0.2 0.6-0.1 0.8 0.1 0.2 0.3 0.1 0.6-0.1 0.8-6.2 4.1-10.9 10.3-12.7 16.7-1 3.5-0.5 7 1.5 9.8 2 2.9 5.3 4.7 9.2 5 0.3 0 0.6 0.2 0.5 0.6 0 0.2-0.2 0.5-0.5 0.5z"/>
					</g>
				</g>
				<path id="&lt;Path&gt;" class="s61" d="m1798.5 1017.8l-0.5-0.5 27.9-130.4-5.4-10.2c-0.3-0.6-0.1-1.2 0.4-1.5 0.5-0.3 1.2-0.1 1.5 0.5l5.8 10.9-27.8 129.8c13.5 9.5 38.9 7.8 43.7 7.4l31.7-147.9c0.2-0.5 0.7-0.9 1.3-0.8 0.6 0.1 1 0.7 0.9 1.3l-32.1 149.4-0.8 0.1c-0.4 0.1-4.7 0.5-10.7 0.5-10.5 0-26.1-1.3-35.9-8.6z"/>
			</g>
			<g id="&lt;Group&gt;">
				<path id="&lt;Path&gt;" class="s3" d="m803.1 1502.6q-1.2 0-2.3-0.5c-3-1.4-4.4-5.3-3.1-8.6l125-317.3c1.3-3.3 4.8-4.8 7.9-3.4 3 1.4 4.4 5.2 3.1 8.5l-125.1 317.4c-1 2.4-3.2 3.9-5.5 3.9z"/>
				<path id="&lt;Path&gt;" class="s3" d="m944 1502.6c-2.3 0-4.5-1.5-5.5-3.9l-125-317.4c-1.3-3.3 0.1-7.1 3.1-8.5 3-1.4 6.5 0.1 7.8 3.4l125.1 317.3c1.3 3.3-0.1 7.2-3.1 8.6q-1.2 0.5-2.4 0.5z"/>
				<path id="&lt;Path&gt;" class="s3" d="m1651.9 1502.6q-1.2 0-2.3-0.5c-3.1-1.4-4.5-5.3-3.2-8.6l125.1-317.3c1.3-3.3 4.8-4.8 7.8-3.4 3.1 1.4 4.5 5.2 3.2 8.5l-125.1 317.4c-1 2.4-3.2 3.9-5.5 3.9z"/>
				<path id="&lt;Path&gt;" class="s3" d="m1792.8 1502.6c-2.3 0-4.5-1.5-5.5-3.9l-125-317.4c-1.3-3.3 0.1-7.1 3.1-8.5 3-1.4 6.5 0.1 7.8 3.4l125.1 317.3c1.3 3.3-0.1 7.2-3.1 8.6q-1.2 0.5-2.4 0.5z"/>
			</g>
			<g id="&lt;Group&gt;">
				<path id="&lt;Path&gt;" class="s1" d="m1633.8 1135.1h181.1v18.7h-181.1c3.8 0 3.8-18.7 0-18.7z"/>
				<path id="&lt;Path&gt;" class="s62" d="m1813.9 1153.8c0.6 0 1-0.5 1-1v-16.7c0-0.6-0.4-1-1-1h-184.7c-0.5 0-1-0.5-1-1v-2.2c0-0.6 0.5-1 1-1h196.1c4.3 0 7.8 3.5 7.8 7.8v11.9c0 4.1-3.3 7.4-7.4 7.4h-196.5c-0.5 0-1-0.4-1-1v-2.2c0-0.6 0.5-1 1-1z"/>
			</g>
			<path id="&lt;Path&gt;" class="s3" d="m1835.4 1186.1c-1.1 3.9-6.3 6.7-12.2 6.7h-1062.4c-6.5 0-12.3-2.5-15-6.4l-11.8-16.9c-1.7-2.5-1.4-5.4 0.9-7.8 2.2-2.4 6.1-3.8 10.4-3.8h1085.3c3.2 0 6.3 1 8.3 2.6 2 1.6 2.9 3.8 2.3 5.9z"/>
			<g id="&lt;Group&gt;">
				<g id="&lt;Group&gt;">
					<path id="&lt;Path&gt;" class="s63" d="m1404.7 1149.3q-1.1 0-2.3-0.1l0.6-9.6c7 0.5 12.8-1.6 16.7-6.1 4.4-4.9 6.2-12.5 4.8-20.3-0.4-2.4-1.5-6.5-3.7-7.2-3.5-1.1-10.8 3.7-14.7 7.6l-6.8-6.9c2.3-2.2 14.1-13.2 24.4-9.9 5.4 1.7 8.9 6.7 10.3 14.8 1.9 10.8-0.7 21.1-7.1 28.4-5.5 6-13.3 9.3-22.2 9.3z"/>
				</g>
				<path id="&lt;Path&gt;" class="s64" d="m1404.8 1094.8v46.7c0 9.3-6 15.9-15.3 15.9h-31.9c-9.2 0-17.6-6.6-17.6-15.9v-46.7c0-1.1 1.7-2.2 2.8-2.2h61.6c1 0 0.4 1.1 0.4 2.2z"/>
			</g>
			<g id="&lt;Group&gt;">
				<g id="&lt;Group&gt;">
					<path id="&lt;Path&gt;" class="s65" d="m1111.5 1140c-6.5-7.3-9.1-17.6-7.2-28.4 1.5-8.1 4.9-13.1 10.3-14.8 10.3-3.3 22.2 7.7 24.4 9.9l-6.8 6.9c-3.9-3.9-11.2-8.7-14.6-7.6-2.3 0.7-3.4 4.8-3.8 7.2-1.4 7.8 0.4 15.4 4.8 20.3 4 4.5 9.8 6.6 16.7 6.1l0.6 9.6q-1.1 0.1-2.3 0.1c-8.9 0-16.7-3.3-22.1-9.3z"/>
				</g>
				<path id="&lt;Path&gt;" class="s66" d="m1134 1092.6h61.5c1.1 0 1.3 1.1 1.3 2.2v46.7c0 9.3-6.8 15.9-16.1 15.9h-31.9c-9.3 0-16.9-6.6-16.9-15.9v-46.7c0-1.1 1-2.2 2.1-2.2z"/>
			</g>
			<g id="&lt;Group&gt;">
				<g id="&lt;Group&gt;">
					<path id="&lt;Path&gt;" class="s67" d="m1702.2 1149.3q-1.1 0-2.2-0.1l0.5-9.6c7 0.5 12.8-1.6 16.7-6.1 4.4-4.9 6.2-12.5 4.9-20.3-0.5-2.4-1.5-6.5-3.8-7.2-3.4-1.1-10.7 3.7-14.7 7.6l-6.7-6.9c2.2-2.2 14-13.2 24.3-9.9 5.4 1.7 8.9 6.7 10.3 14.8 1.9 10.8-0.7 21.1-7.1 28.4-5.4 6-13.2 9.3-22.2 9.3z"/>
				</g>
				<path id="&lt;Path&gt;" class="s68" d="m1702.4 1094.8v46.7c0 9.3-6.1 15.9-15.3 15.9h-31.9c-9.3 0-17.7-6.6-17.7-15.9v-46.7c0-1.1 1.8-2.2 2.8-2.2h61.6c1.1 0 0.5 1.1 0.5 2.2z"/>
			</g>
			<g id="&lt;Group&gt;" style="opacity: .7">
				<path id="&lt;Path&gt;" class="s1" d="m1361.2 893.5c-0.2 0-0.4-0.1-0.5-0.3-0.1-0.3 0-0.6 0.3-0.7 24.2-8.4 36.2-23.8 33.7-43.2-2.7-20.4 10.2-23.8 10.3-23.8 0.3-0.1 0.6 0.1 0.7 0.4 0 0.2-0.1 0.5-0.4 0.6-0.5 0.1-12.1 3.2-9.6 22.7 2.6 19.9-9.6 35.7-34.4 44.3q0 0-0.1 0z"/>
				<path id="&lt;Path&gt;" class="s1" d="m1310.4 1045.9q-0.1 0-0.3-0.1c-27.7-15.4-44.1-34.1-48.6-55.4-5.8-27.9 11.1-50.6 11.3-50.9 0.2-0.2 0.5-0.2 0.7-0.1 0.3 0.2 0.3 0.5 0.1 0.8-0.1 0.2-16.8 22.6-11 50 4.4 21 20.6 39.4 48.1 54.7 0.2 0.1 0.3 0.4 0.2 0.7-0.1 0.2-0.3 0.3-0.5 0.3z"/>
			</g>
			<g id="&lt;Group&gt;">
				<path id="&lt;Path&gt;" class="s69" d="m950 1087.5q-0.4 0-0.7-0.3c-0.4-0.3-9.6-7.5-10.4-15.8-0.3-3.3 0.7-6.3 2.9-8.9 1.5-1.7 3.1-3.1 4.6-4.4 4.3-3.8 7.4-6.5 4.8-12.6-1-2.3-2.2-4.3-3.4-6.3-3.9-6.8-7.5-13.2 1.4-21.5 0.5-0.4 1.2-0.4 1.6 0 0.4 0.5 0.4 1.2-0.1 1.6-7.6 7.1-4.8 12-0.9 18.8 1.1 2 2.4 4.1 3.4 6.5 3.3 7.6-1.1 11.4-5.3 15.1-1.5 1.3-3.1 2.7-4.4 4.3-1.8 2.1-2.6 4.5-2.4 7.1 0.8 7.4 9.5 14.3 9.6 14.4 0.5 0.3 0.5 1.1 0.2 1.5-0.3 0.3-0.6 0.5-0.9 0.5z"/>
				<path id="&lt;Path&gt;" class="s69" d="m965.6 1087.5q-0.3 0-0.6-0.3c-0.4-0.3-9.6-7.5-10.4-15.8-0.4-3.3 0.6-6.3 2.9-8.9 1.4-1.7 3-3.1 4.6-4.4 4.3-3.8 7.4-6.5 4.7-12.6-1-2.3-2.2-4.3-3.3-6.3-3.9-6.8-7.6-13.2 1.4-21.5 0.4-0.4 1.1-0.4 1.6 0 0.4 0.5 0.4 1.2-0.1 1.6-7.7 7.1-4.9 12-1 18.8 1.2 2 2.4 4.1 3.5 6.5 3.3 7.6-1.1 11.4-5.3 15.1-1.5 1.3-3.1 2.7-4.4 4.3-1.9 2.1-2.7 4.5-2.4 7.1 0.7 7.4 9.4 14.3 9.5 14.4 0.5 0.3 0.6 1.1 0.2 1.5-0.2 0.3-0.5 0.5-0.9 0.5z"/>
				<path id="&lt;Path&gt;" class="s69" d="m981.3 1087.5q-0.4 0-0.7-0.3c-0.4-0.3-9.5-7.5-10.4-15.8-0.3-3.3 0.7-6.3 2.9-8.9 1.5-1.7 3.1-3.1 4.6-4.4 4.3-3.8 7.5-6.5 4.8-12.6-1-2.3-2.2-4.3-3.4-6.3-3.8-6.8-7.5-13.2 1.4-21.5 0.5-0.4 1.2-0.4 1.6 0 0.4 0.5 0.4 1.2 0 1.6-7.7 7.1-4.9 12-1 18.8 1.2 2 2.4 4.1 3.4 6.5 3.4 7.6-1 11.4-5.3 15.1-1.5 1.3-3 2.7-4.4 4.3-1.8 2.1-2.6 4.5-2.4 7.1 0.8 7.4 9.5 14.3 9.6 14.4 0.5 0.3 0.6 1.1 0.2 1.5-0.2 0.3-0.6 0.5-0.9 0.5z"/>
			</g>
			<g id="&lt;Group&gt;">
				<path id="&lt;Path&gt;" class="s69" d="m1149.1 1087.5q-0.4 0-0.7-0.3c-0.4-0.3-9.6-7.5-10.4-15.8-0.3-3.3 0.6-6.3 2.9-8.9 1.4-1.7 3.1-3.1 4.6-4.4 4.3-3.8 7.4-6.5 4.8-12.6-1-2.3-2.2-4.3-3.4-6.3-3.9-6.8-7.5-13.2 1.4-21.5 0.5-0.4 1.2-0.4 1.6 0 0.4 0.5 0.4 1.2-0.1 1.6-7.6 7.1-4.8 12-0.9 18.8 1.1 2 2.4 4.1 3.4 6.5 3.3 7.6-1.1 11.4-5.3 15.1-1.5 1.3-3.1 2.7-4.4 4.3-1.8 2.1-2.6 4.5-2.4 7.1 0.8 7.4 9.5 14.3 9.6 14.4 0.5 0.3 0.5 1.1 0.2 1.5-0.3 0.3-0.6 0.5-0.9 0.5z"/>
				<path id="&lt;Path&gt;" class="s69" d="m1164.7 1087.5q-0.3 0-0.6-0.3c-0.4-0.3-9.6-7.5-10.4-15.8-0.4-3.3 0.6-6.3 2.9-8.9 1.4-1.7 3-3.1 4.6-4.4 4.3-3.8 7.4-6.5 4.7-12.6-1-2.3-2.2-4.3-3.3-6.3-3.9-6.8-7.6-13.2 1.4-21.5 0.4-0.4 1.1-0.4 1.6 0 0.4 0.5 0.4 1.2-0.1 1.6-7.7 7.1-4.9 12-1 18.8 1.2 2 2.4 4.1 3.5 6.5 3.3 7.6-1.1 11.4-5.3 15.1-1.5 1.3-3.1 2.7-4.4 4.3-1.9 2.1-2.7 4.5-2.4 7.1 0.7 7.4 9.4 14.3 9.5 14.4 0.5 0.3 0.6 1.1 0.2 1.5-0.2 0.3-0.5 0.5-0.9 0.5z"/>
				<path id="&lt;Path&gt;" class="s69" d="m1180.4 1087.5q-0.4 0-0.7-0.3c-0.4-0.3-9.5-7.5-10.4-15.8-0.3-3.3 0.7-6.3 2.9-8.9 1.5-1.7 3.1-3.1 4.6-4.4 4.3-3.8 7.5-6.5 4.8-12.6-1-2.3-2.2-4.3-3.4-6.3-3.8-6.8-7.5-13.2 1.4-21.5 0.5-0.4 1.2-0.4 1.6 0 0.4 0.5 0.4 1.2 0 1.6-7.7 7.1-4.9 12-1 18.8 1.2 2 2.4 4.1 3.4 6.5 3.4 7.6-1 11.4-5.3 15.1-1.5 1.3-3 2.7-4.4 4.3-1.8 2.1-2.6 4.5-2.4 7.1 0.8 7.4 9.5 14.3 9.6 14.4 0.5 0.3 0.6 1.1 0.2 1.5-0.2 0.3-0.6 0.5-0.9 0.5z"/>
			</g>
			<g id="&lt;Group&gt;">
				<path id="&lt;Path&gt;" class="s69" d="m1386.2 1087.5c-0.3 0-0.7-0.2-0.9-0.5-0.4-0.4-0.3-1.2 0.2-1.5 0.1-0.1 8.8-7 9.5-14.4 0.3-2.6-0.5-5-2.3-7.1-1.4-1.6-2.9-3-4.4-4.3-4.3-3.7-8.7-7.5-5.3-15.1 1-2.4 2.2-4.5 3.4-6.5 3.9-6.8 6.7-11.7-1-18.8-0.4-0.4-0.5-1.1 0-1.6 0.4-0.4 1.1-0.4 1.6 0 8.9 8.3 5.2 14.7 1.3 21.5-1.1 2-2.3 4-3.3 6.3-2.7 6.1 0.4 8.8 4.7 12.6 1.6 1.3 3.2 2.7 4.7 4.4 2.2 2.6 3.2 5.6 2.9 8.9-0.9 8.3-10 15.5-10.4 15.8q-0.3 0.3-0.7 0.3z"/>
				<path id="&lt;Path&gt;" class="s69" d="m1370.5 1087.5c-0.3 0-0.6-0.2-0.9-0.5-0.3-0.4-0.2-1.2 0.2-1.5 0.1-0.1 8.8-7 9.6-14.4 0.2-2.6-0.6-5-2.4-7.1-1.3-1.6-2.9-3-4.4-4.3-4.2-3.7-8.6-7.5-5.3-15.1 1.1-2.4 2.3-4.5 3.5-6.5 3.8-6.8 6.6-11.7-1-18.8-0.5-0.4-0.5-1.1-0.1-1.6 0.4-0.4 1.1-0.4 1.6 0 8.9 8.3 5.3 14.7 1.4 21.5-1.2 2-2.3 4-3.3 6.3-2.7 6.1 0.4 8.8 4.7 12.6 1.5 1.3 3.2 2.7 4.6 4.4 2.3 2.6 3.2 5.6 2.9 8.9-0.8 8.3-10 15.5-10.4 15.8q-0.3 0.3-0.7 0.3z"/>
				<path id="&lt;Path&gt;" class="s69" d="m1354.9 1087.5c-0.4 0-0.7-0.2-0.9-0.5-0.4-0.4-0.3-1.2 0.2-1.5 0.1-0.1 8.8-7 9.5-14.4 0.3-2.6-0.5-5-2.3-7.1-1.4-1.6-2.9-3-4.4-4.3-4.3-3.7-8.7-7.5-5.4-15.1 1.1-2.4 2.3-4.5 3.5-6.5 3.9-6.8 6.7-11.7-1-18.8-0.4-0.4-0.5-1.1 0-1.6 0.4-0.4 1.1-0.4 1.5 0 9 8.3 5.3 14.7 1.4 21.5-1.1 2-2.3 4-3.3 6.3-2.7 6.1 0.4 8.8 4.7 12.6 1.6 1.3 3.2 2.7 4.7 4.4 2.2 2.6 3.2 5.6 2.8 8.9-0.8 8.3-10 15.5-10.3 15.8q-0.4 0.3-0.7 0.3z"/>
			</g>
			<g id="&lt;Group&gt;">
				<path id="&lt;Path&gt;" class="s69" d="m1683.7 1087.5c-0.3 0-0.6-0.2-0.9-0.5-0.3-0.4-0.3-1.2 0.2-1.5 0.1-0.1 8.8-7 9.6-14.4 0.2-2.6-0.6-5-2.4-7.1-1.3-1.6-2.9-3-4.4-4.3-4.2-3.7-8.6-7.5-5.3-15.1 1-2.4 2.3-4.5 3.4-6.5 3.9-6.8 6.7-11.7-0.9-18.8-0.5-0.4-0.5-1.1-0.1-1.6 0.4-0.4 1.1-0.4 1.6 0 8.9 8.3 5.3 14.7 1.4 21.5-1.2 2-2.4 4-3.4 6.3-2.6 6.1 0.5 8.8 4.8 12.6 1.5 1.3 3.1 2.7 4.6 4.4 2.2 2.6 3.2 5.6 2.9 8.9-0.8 8.3-10 15.5-10.4 15.8q-0.3 0.3-0.7 0.3z"/>
				<path id="&lt;Path&gt;" class="s69" d="m1668.1 1087.5c-0.4 0-0.7-0.2-0.9-0.5-0.4-0.4-0.3-1.2 0.2-1.5 0.1-0.1 8.8-7 9.5-14.4 0.3-2.6-0.5-5-2.4-7.1-1.3-1.6-2.9-3-4.4-4.3-4.2-3.7-8.6-7.5-5.3-15.1 1.1-2.4 2.3-4.5 3.5-6.5 3.9-6.8 6.7-11.7-1-18.8-0.5-0.4-0.5-1.1-0.1-1.6 0.5-0.4 1.2-0.4 1.6 0 9 8.3 5.3 14.7 1.4 21.5-1.1 2-2.3 4-3.3 6.3-2.7 6.1 0.4 8.8 4.7 12.6 1.6 1.3 3.2 2.7 4.6 4.4 2.3 2.6 3.3 5.6 2.9 8.9-0.8 8.3-10 15.5-10.4 15.8q-0.3 0.3-0.6 0.3z"/>
				<path id="&lt;Path&gt;" class="s69" d="m1652.4 1087.5c-0.3 0-0.7-0.2-0.9-0.5-0.4-0.4-0.3-1.2 0.2-1.5 0.1-0.1 8.8-7 9.5-14.4 0.3-2.6-0.5-5-2.3-7.1-1.4-1.6-2.9-3-4.4-4.3-4.3-3.7-8.7-7.5-5.3-15.1 1-2.4 2.2-4.5 3.4-6.5 3.9-6.8 6.7-11.7-1-18.8-0.4-0.4-0.4-1.1 0-1.6 0.4-0.4 1.1-0.4 1.6 0 8.9 8.3 5.2 14.7 1.4 21.5-1.2 2-2.4 4-3.4 6.3-2.7 6.1 0.5 8.8 4.8 12.6 1.5 1.3 3.1 2.7 4.6 4.4 2.2 2.6 3.2 5.6 2.9 8.9-0.9 8.3-10 15.5-10.4 15.8q-0.3 0.3-0.7 0.3z"/>
			</g>
			<path id="&lt;Path&gt;" class="s1" d="m1756.5 533.1c-15.8 95.2-96.5 117.5-137.5 122.6-21.6 2.7-33.9 26.8-22.7 45.5 8.2 13.8 24 19.8 35.6 22.4 3.7 0.9 3.8 6.1 0.2 7-49.7 12.8-79.3-34.3-91.8-61.2-5.2-11.3-14.4-20.2-25.7-25.2-40.7-17.8-105.9-54.5-96.8-117.4 10.8-73.9 86.6-113.8 155.2-119.5 0 0 204.9-2.9 183.5 125.8z"/>
			<path id="&lt;Path&gt;" class="s70" d="m1456.8 481.8c-1 0-1.9-0.3-2.8-0.9-1.9-1.5-2.3-4.4-0.7-6.3 38-48.6 100.2-58.1 145.8-57.5 2.4 0 4.4 2 4.4 4.5-0.1 2.5-2.2 4.5-4.6 4.4-43.5-0.6-102.8 8.4-138.6 54.1-0.9 1.1-2.2 1.7-3.5 1.7z"/>
			<path id="&lt;Path&gt;" class="s70" d="m1432.6 535.3q-0.2 0-0.5-0.1c-2.4-0.3-4.2-2.5-3.9-4.9 0-0.4 1-8.5 5.4-20.4 0.8-2.3 3.4-3.5 5.7-2.6 2.4 0.8 3.5 3.4 2.7 5.7-4 10.8-4.9 18.2-4.9 18.3-0.3 2.3-2.2 4-4.5 4z"/>
			<path id="&lt;Path&gt;" class="s2" d="m1718 483.3c0 2.9-2.3 5.3-5.3 5.3h-213.1c-2.9 0-5.3-2.4-5.3-5.3v-0.6c0-3 2.4-5.3 5.3-5.3h213.1c3 0 5.3 2.3 5.3 5.3z"/>
			<path id="&lt;Path&gt;" class="s2" d="m1702.4 593.5c0 2.7-0.5 4.7-3.2 4.7h-199.3c-2.7 0-5.6-2-5.6-4.7v-0.6c0-2.8 2.9-5.9 5.6-5.9h199.3c2.7 0 3.2 3.1 3.2 5.9z"/>
			<path id="&lt;Path&gt;" class="s2" d="m1720.3 522.7c0 3.2-2 3.9-5.3 3.9h-234.4c-3.2 0-6.4-0.7-6.4-3.9v-0.7c0-3.1 3.2-6.6 6.4-6.6h234.4c3.3 0 5.3 3.5 5.3 6.6z"/>
			<path id="&lt;Path&gt;" class="s2" d="m1720.3 556.3c0 3.1-2 3.9-5.3 3.9h-234.4c-3.2 0-6.4-0.8-6.4-3.9v-0.7c0-3.2 3.2-6.6 6.4-6.6h234.4c3.3 0 5.3 3.4 5.3 6.6z"/>
			<g id="&lt;Group&gt;">
				<path id="&lt;Path&gt;" class="s69" d="m2032.4 1270.8l3.8-10.5c0.3-0.7 1-1.1 1.8-0.8 0.7 0.2 1 1 0.8 1.7l-4 10.5c-0.2 0.7-1 1-1.7 0.7-0.6-0.2-1-0.9-0.7-1.6z"/>
				<path id="&lt;Path&gt;" class="s69" d="m2041.2 1243.3l2.4-10.9c0.2-0.9 1-1.4 1.8-1.2 0.9 0.2 1.4 1 1.2 1.8l-2.5 10.9c-0.2 0.8-1 1.3-1.8 1.1-0.7-0.2-1.2-0.9-1.1-1.7z"/>
				<path id="&lt;Path&gt;" class="s69" d="m2045.8 1214.9l0.2-11.2c0-0.9 0.7-1.6 1.7-1.6 0.9 0 1.6 0.7 1.6 1.7l-0.3 11.2c0 0.9-0.7 1.6-1.6 1.6-0.9-0.1-1.6-0.8-1.6-1.7z"/>
				<path id="&lt;Path&gt;" class="s69" d="m2043.8 1186.4c0 0-0.7-2.7-1.4-5.4-0.8-2.5-1.6-5.1-1.6-5.1l-0.1-0.1c-0.3-1 0.2-2 1.2-2.4 1-0.3 2 0.3 2.3 1.2q0 0 0 0c0 0 0.9 2.8 1.7 5.6 0.7 2.7 1.4 5.4 1.4 5.4 0.2 0.9-0.4 1.9-1.3 2.1-1 0.3-1.9-0.3-2.2-1.3z"/>
				<path id="&lt;Path&gt;" class="s69" d="m2033.1 1160.3c0 0-1.6-2.3-3.2-4.6-1.7-2.1-3.4-4.2-3.4-4.2v-0.1c-0.7-0.9-0.6-2.1 0.3-2.8 0.8-0.7 2.1-0.6 2.8 0.3q0 0 0 0c0 0 1.8 2.3 3.5 4.6 1.6 2.3 3.2 4.6 3.2 4.6 0.6 0.9 0.3 2.1-0.6 2.7-0.8 0.6-2 0.4-2.6-0.5z"/>
				<path id="&lt;Path&gt;" class="s69" d="m2014 1139.4l-9.1-6.5c-0.9-0.7-1.2-2-0.5-3 0.7-0.9 2.1-1.2 3-0.5h0.1l9 6.6c0.9 0.7 1.1 2 0.4 3-0.7 0.9-2 1.1-2.9 0.4z"/>
				<path id="&lt;Path&gt;" class="s69" d="m1989.7 1124.5l-10.3-4.4c-1.2-0.5-1.7-1.8-1.2-3 0.5-1.2 1.9-1.7 3-1.2h0.1l10.2 4.5c1.1 0.5 1.6 1.8 1.1 3-0.5 1.1-1.8 1.6-2.9 1.1z"/>
				<path id="&lt;Path&gt;" class="s69" d="m1962.8 1114.5l-10.8-2.9c-1.3-0.4-2.1-1.7-1.8-3 0.4-1.4 1.7-2.1 3.1-1.8l10.8 3c1.2 0.4 2 1.7 1.6 3-0.3 1.3-1.6 2-2.9 1.7z"/>
				<path id="&lt;Path&gt;" class="s69" d="m1934.7 1107.9l-11-1.8c-1.4-0.2-2.4-1.6-2.2-3 0.3-1.4 1.6-2.4 3-2.2h0.1l11 2c1.4 0.2 2.3 1.5 2.1 2.9-0.3 1.4-1.6 2.3-3 2.1z"/>
				<path id="&lt;Path&gt;" class="s69" d="m1906.1 1103.9l-11.1-1c-1.5-0.2-2.7-1.5-2.5-3.1 0.1-1.5 1.5-2.6 3-2.5l11.2 1.2c1.5 0.1 2.5 1.5 2.4 3-0.2 1.4-1.5 2.5-3 2.4z"/>
				<path id="&lt;Path&gt;" class="s69" d="m1877.3 1101.7l-11.2-0.4c-1.6-0.1-2.8-1.4-2.8-3 0.1-1.6 1.4-2.9 3-2.8h0.1l11.1 0.5c1.6 0.1 2.8 1.4 2.8 3-0.1 1.6-1.4 2.8-3 2.7z"/>
				<path id="&lt;Path&gt;" class="s69" d="m1848.4 1101h-11.2c-1.7 0-3-1.3-3-3 0-1.7 1.3-3 3-3h11.2c1.6 0 2.9 1.4 2.9 3 0 1.6-1.3 3-2.9 3z"/>
				<path id="&lt;Path&gt;" class="s69" d="m1819.4 1101.3l-11.2 0.4c-1.7 0.1-3.1-1.2-3.2-2.9-0.1-1.7 1.3-3.2 3-3.2l11.2-0.4c1.7 0 3.1 1.3 3.1 3 0.1 1.7-1.2 3.1-2.9 3.1z"/>
				<path id="&lt;Path&gt;" class="s69" d="m1790.4 1102.6l-11.2 0.8c-1.7 0.1-3.2-1.3-3.3-3-0.1-1.8 1.2-3.3 2.9-3.4h0.1l11.1-0.6c1.8-0.1 3.3 1.2 3.4 2.9 0.1 1.8-1.3 3.2-3 3.3z"/>
				<path id="&lt;Path&gt;" class="s69" d="m1761.5 1104.7l-11.2 1c-1.8 0.1-3.3-1.2-3.5-3-0.2-1.8 1.2-3.4 3-3.5l11.1-0.9c1.8-0.2 3.4 1.1 3.5 2.9 0.2 1.8-1.2 3.4-2.9 3.5z"/>
				<path id="&lt;Path&gt;" class="s69" d="m1732.6 1107.4l-11.1 1.2c-1.9 0.2-3.5-1.2-3.7-3-0.2-1.8 1.1-3.5 3-3.7l11.1-1.1c1.8-0.2 3.5 1.1 3.6 3 0.2 1.8-1.1 3.4-2.9 3.6z"/>
				<path id="&lt;Path&gt;" class="s69" d="m1703.7 1110.6l-11.1 1.3c-1.9 0.3-3.6-1.1-3.8-3-0.2-1.9 1.1-3.6 3-3.8l11.1-1.3c1.9-0.2 3.6 1.2 3.8 3 0.2 1.9-1.1 3.6-3 3.8z"/>
				<path id="&lt;Path&gt;" class="s69" d="m1674.9 1114.2l-11.1 1.4c-1.9 0.3-3.7-1.1-4-3-0.2-1.9 1.2-3.7 3.1-4l11.1-1.4c1.9-0.2 3.7 1.2 3.9 3.1 0.3 1.9-1.1 3.6-3 3.9z"/>
				<path id="&lt;Path&gt;" class="s69" d="m1646.1 1118l-11.1 1.4c-2 0.3-3.8-1.1-4.1-3.1-0.3-2 1.1-3.8 3.1-4l11.1-1.4c2-0.3 3.8 1.1 4.1 3.1 0.2 1.9-1.2 3.7-3.1 4z"/>
				<path id="&lt;Path&gt;" class="s69" d="m1617.2 1121.7l-11.2 1.3c-2 0.2-3.8-1.3-4.1-3.3-0.2-2 1.3-3.9 3.3-4.1l11.1-1.2c2-0.3 3.9 1.2 4.1 3.2 0.2 2-1.2 3.8-3.2 4.1z"/>
				<path id="&lt;Path&gt;" class="s69" d="m1588.2 1124.9l-11.1 1.1c-2.1 0.2-4-1.3-4.2-3.4-0.2-2.1 1.3-3.9 3.4-4.1l11.2-1.1c2-0.2 3.9 1.3 4.1 3.4 0.2 2.1-1.3 3.9-3.4 4.1z"/>
				<path id="&lt;Path&gt;" class="s69" d="m1559.2 1127.7l-11.1 0.9c-2.2 0.2-4.1-1.4-4.3-3.5-0.1-2.1 1.4-4 3.6-4.2l11.2-0.9c2.1-0.2 3.9 1.4 4.1 3.5 0.2 2.2-1.4 4-3.5 4.2z"/>
				<path id="&lt;Path&gt;" class="s69" d="m1530.2 1130.1l-11.2 0.7c-2.2 0.2-4.1-1.4-4.3-3.6-0.1-2.2 1.5-4.1 3.7-4.3h0.1l11.1-0.7c2.2-0.2 4.1 1.5 4.2 3.7 0.1 2.1-1.5 4-3.6 4.2z"/>
				<path id="&lt;Path&gt;" class="s69" d="m1501.1 1132l-11.2 0.6c-2.2 0.1-4.1-1.6-4.2-3.8-0.1-2.2 1.6-4.1 3.8-4.2l11.2-0.6c2.2-0.1 4 1.6 4.2 3.8 0.1 2.2-1.6 4-3.8 4.2z"/>
				<path id="&lt;Path&gt;" class="s69" d="m1472 1133.4l-11.2 0.5c-2.2 0.1-4.1-1.7-4.2-3.9-0.1-2.2 1.7-4.1 3.9-4.2l11.2-0.4c2.2-0.1 4.1 1.6 4.1 3.8 0.1 2.3-1.6 4.1-3.8 4.2z"/>
				<path id="&lt;Path&gt;" class="s69" d="m1442.9 1134.5l-11.2 0.3c-2.3 0-4.1-1.8-4.2-4-0.1-2.2 1.7-4.1 4-4.2l11.2-0.2c2.2-0.1 4.1 1.7 4.1 3.9 0.1 2.3-1.7 4.1-3.9 4.2z"/>
				<path id="&lt;Path&gt;" class="s69" d="m1413.7 1135.1l-11.2 0.1c-2.2 0.1-4.1-1.7-4.1-4 0-2.3 1.8-4.1 4-4.2h0.1l11.1-0.1c2.3 0 4.1 1.8 4.2 4.1 0 2.2-1.8 4.1-4.1 4.1z"/>
				<path id="&lt;Path&gt;" class="s69" d="m1384.6 1135.3h-11.2c-2.3 0-4.1-1.8-4.1-4.1 0-2.3 1.8-4.1 4.1-4.1h11.2c2.3 0 4.1 1.9 4.1 4.1 0 2.3-1.8 4.1-4.1 4.1z"/>
				<path id="&lt;Path&gt;" class="s69" d="m1355.5 1135.1l-11.2-0.1c-2.3-0.1-4.2-1.9-4.1-4.2 0-2.3 1.9-4.2 4.2-4.1l11.2 0.2c2.3 0 4.1 1.9 4.1 4.2-0.1 2.3-2 4.1-4.2 4z"/>
				<path id="&lt;Path&gt;" class="s69" d="m1326.3 1134.6l-11.2-0.4c-2.3 0-4.1-2-4-4.3 0-2.3 2-4.1 4.3-4l11.2 0.3c2.3 0.1 4.1 2 4 4.3-0.1 2.3-2 4.1-4.3 4.1z"/>
				<path id="&lt;Path&gt;" class="s69" d="m1297.2 1133.6l-11.2-0.5c-2.3-0.1-4.1-2.1-4-4.4 0.1-2.3 2.1-4.1 4.4-4l11.2 0.5c2.3 0.1 4.1 2.1 4 4.4-0.1 2.3-2.1 4.1-4.4 4z"/>
				<path id="&lt;Path&gt;" class="s69" d="m1268.1 1132.2l-11.2-0.6c-2.3-0.1-4.1-2.2-4-4.5 0.2-2.3 2.2-4.1 4.5-4l11.2 0.7c2.3 0.1 4.1 2.1 4 4.4-0.2 2.4-2.2 4.2-4.5 4z"/>
				<path id="&lt;Path&gt;" class="s69" d="m1239 1130.4l-11.2-0.7c-2.3-0.2-4.1-2.2-3.9-4.6 0.2-2.4 2.2-4.1 4.5-4h0.1l11.1 0.8c2.4 0.2 4.1 2.3 4 4.6-0.2 2.3-2.2 4.1-4.6 3.9z"/>
				<path id="&lt;Path&gt;" class="s69" d="m1209.9 1128.3l-11.1-1c-2.4-0.2-4.1-2.2-3.9-4.6 0.2-2.4 2.3-4.1 4.6-3.9l11.2 0.9c2.3 0.2 4.1 2.3 3.9 4.7-0.2 2.3-2.3 4.1-4.7 3.9z"/>
				<path id="&lt;Path&gt;" class="s69" d="m1180.9 1125.7l-11.1-1.1c-2.4-0.2-4.1-2.3-3.9-4.7 0.2-2.4 2.3-4.1 4.7-3.9l11.2 1.1c2.3 0.3 4.1 2.4 3.8 4.8-0.2 2.3-2.3 4.1-4.7 3.8z"/>
				<path id="&lt;Path&gt;" class="s69" d="m1151.9 1122.8l-11.1-1.3c-2.4-0.2-4.1-2.4-3.8-4.8 0.2-2.4 2.4-4.1 4.8-3.8l11.1 1.2c2.4 0.3 4.1 2.5 3.8 4.8-0.2 2.4-2.4 4.1-4.8 3.9z"/>
				<path id="&lt;Path&gt;" class="s69" d="m1123 1119.4l-11.1-1.4c-2.4-0.3-4.1-2.5-3.8-4.9 0.3-2.4 2.5-4.1 4.9-3.8l11.1 1.4c2.4 0.4 4.1 2.5 3.8 4.9-0.3 2.4-2.5 4.1-4.9 3.8z"/>
				<path id="&lt;Path&gt;" class="s69" d="m1094.1 1115.7l-11.1-1.5c-2.4-0.4-4.1-2.6-3.8-5 0.4-2.4 2.6-4.1 5-3.8l11.1 1.6c2.4 0.3 4.1 2.5 3.7 4.9-0.3 2.5-2.5 4.1-4.9 3.8z"/>
				<path id="&lt;Path&gt;" class="s69" d="m1065.2 1111.6l-11-1.7c-2.5-0.4-4.1-2.7-3.8-5.1 0.4-2.4 2.7-4.1 5.1-3.7l11.1 1.7c2.4 0.4 4.1 2.6 3.7 5.1-0.4 2.4-2.6 4-5.1 3.7z"/>
				<path id="&lt;Path&gt;" class="s69" d="m1036.4 1107.1l-11-1.9c-2.4-0.4-4.1-2.7-3.7-5.1 0.4-2.5 2.7-4.1 5.2-3.7l11 1.8c2.4 0.5 4.1 2.8 3.7 5.2-0.4 2.4-2.7 4.1-5.2 3.7z"/>
				<path id="&lt;Path&gt;" class="s69" d="m1007.7 1102.1l-11-2c-2.4-0.5-4-2.8-3.6-5.2 0.5-2.4 2.8-4 5.2-3.6l11 2c2.4 0.5 4 2.8 3.6 5.2-0.4 2.4-2.7 4-5.2 3.6z"/>
				<path id="&lt;Path&gt;" class="s69" d="m979.1 1096.7l-11-2.1c-2.4-0.5-3.9-2.8-3.5-5.2 0.5-2.4 2.8-4 5.2-3.5l11 2.1c2.4 0.5 3.9 2.8 3.5 5.2-0.5 2.4-2.8 4-5.2 3.5z"/>
				<path id="&lt;Path&gt;" class="s69" d="m950.5 1091l-10.9-2.3c-2.4-0.5-3.9-2.9-3.4-5.2 0.5-2.4 2.8-3.9 5.2-3.4l10.9 2.3c2.4 0.5 3.9 2.8 3.4 5.2-0.5 2.4-2.8 3.9-5.2 3.4z"/>
				<path id="&lt;Path&gt;" class="s69" d="m922 1084.8l-10.9-2.5c-2.3-0.5-3.8-2.8-3.3-5.2 0.6-2.3 2.9-3.8 5.2-3.3l10.9 2.5c2.4 0.5 3.9 2.9 3.4 5.2-0.6 2.4-2.9 3.8-5.3 3.3z"/>
				<path id="&lt;Path&gt;" class="s69" d="m893.6 1078.3l-10.8-2.6c-2.4-0.6-3.8-2.9-3.3-5.2 0.6-2.4 2.9-3.8 5.2-3.3l10.9 2.6c2.4 0.6 3.8 2.9 3.3 5.2-0.6 2.4-2.9 3.8-5.3 3.3z"/>
				<path id="&lt;Path&gt;" class="s69" d="m865.3 1071.5l-10.8-2.7c-2.3-0.6-3.8-2.9-3.2-5.2 0.6-2.3 2.9-3.7 5.2-3.1l10.9 2.6c2.3 0.6 3.7 2.9 3.1 5.2-0.5 2.3-2.8 3.7-5.2 3.2z"/>
				<path id="&lt;Path&gt;" class="s69" d="m837.1 1064.5l-10.9-2.8c-2.3-0.6-3.6-2.9-3.1-5.2 0.6-2.3 2.9-3.6 5.2-3.1l10.9 2.8c2.3 0.5 3.7 2.9 3.1 5.2-0.6 2.3-2.9 3.7-5.2 3.1z"/>
				<path id="&lt;Path&gt;" class="s69" d="m808.9 1057.2l-10.9-2.9c-2.2-0.6-3.6-2.9-3-5.2 0.6-2.2 3-3.6 5.2-3l10.8 2.9c2.3 0.6 3.7 2.9 3.1 5.2-0.6 2.3-3 3.6-5.2 3z"/>
				<path id="&lt;Path&gt;" class="s69" d="m780.7 1049.6l-10.7-3c-2.3-0.6-3.6-2.9-3-5.2 0.7-2.2 3-3.5 5.2-2.9l10.8 3c2.2 0.6 3.6 2.9 2.9 5.2-0.6 2.2-2.9 3.5-5.2 2.9z"/>
				<path id="&lt;Path&gt;" class="s69" d="m752.7 1041.7l-10.7-3.2c-2.3-0.7-3.5-3-2.9-5.2 0.7-2.2 3-3.5 5.2-2.8l10.8 3.1c2.2 0.7 3.5 3 2.8 5.2-0.6 2.2-3 3.5-5.2 2.9z"/>
				<path id="&lt;Path&gt;" class="s69" d="m724.8 1033.3l-10.7-3.4c-2.2-0.7-3.4-3-2.7-5.2 0.7-2.2 3-3.4 5.2-2.7l10.7 3.3c2.2 0.7 3.4 3 2.7 5.2-0.7 2.2-3 3.5-5.2 2.8z"/>
				<path id="&lt;Path&gt;" class="s69" d="m697 1024.4l-10.6-3.5c-2.2-0.8-3.3-3.1-2.6-5.3 0.7-2.1 3-3.3 5.2-2.6l10.6 3.5c2.2 0.8 3.4 3.1 2.6 5.3-0.7 2.1-3 3.3-5.2 2.6z"/>
				<path id="&lt;Path&gt;" class="s69" d="m669.4 1015l-10.5-3.8c-2.2-0.7-3.3-3.1-2.5-5.2 0.7-2.1 3.1-3.3 5.2-2.5l10.5 3.7c2.2 0.8 3.3 3.2 2.5 5.3-0.7 2.1-3.1 3.3-5.2 2.5z"/>
				<path id="&lt;Path&gt;" class="s69" d="m642 1005l-10.5-4c-2.1-0.8-3.1-3.2-2.3-5.3 0.8-2.1 3.1-3.1 5.2-2.3l10.5 4c2.1 0.8 3.2 3.1 2.4 5.2-0.8 2.1-3.2 3.2-5.3 2.4z"/>
				<path id="&lt;Path&gt;" class="s69" d="m614.8 994.4l-10.3-4.3c-2.1-0.9-3.1-3.2-2.2-5.3 0.8-2 3.2-3 5.2-2.2l10.4 4.3c2.1 0.8 3.1 3.2 2.2 5.2-0.8 2.1-3.2 3.1-5.3 2.3z"/>
				<path id="&lt;Path&gt;" class="s69" d="m587.9 983l-10.2-4.5c-2-0.9-3-3.3-2.1-5.3 0.9-2 3.3-3 5.3-2.1l10.3 4.6c2 0.9 2.9 3.2 2 5.3-0.9 2-3.3 2.9-5.3 2z"/>
				<path id="&lt;Path&gt;" class="s69" d="m561.3 970.9l-10.1-4.8c-2-1-2.8-3.3-1.8-5.3 0.9-2 3.3-2.9 5.3-1.9l10.1 4.8c2 1 2.8 3.4 1.9 5.3-1 2-3.4 2.9-5.4 1.9z"/>
				<path id="&lt;Path&gt;" class="s69" d="m535.1 958l-9.9-5.1c-1.9-1.1-2.7-3.4-1.7-5.3 1-1.9 3.4-2.7 5.3-1.7l9.9 5.1c2 1 2.8 3.4 1.8 5.3-1 2-3.4 2.7-5.4 1.7z"/>
				<path id="&lt;Path&gt;" class="s69" d="m509.3 944.2l-9.7-5.5c-1.8-1-2.5-3.3-1.4-5.2 1-1.8 3.3-2.5 5.2-1.4l9.7 5.4c1.9 1 2.6 3.4 1.5 5.3-1 1.8-3.4 2.5-5.2 1.5z"/>
				<path id="&lt;Path&gt;" class="s69" d="m484 929.4l-9.3-6.2c-1.7-1.1-2.2-3.5-1-5.2 1.1-1.7 3.4-2.2 5.1-1l9.4 6.1c1.7 1.1 2.2 3.5 1.1 5.2-1.1 1.8-3.5 2.2-5.2 1.1z"/>
				<path id="&lt;Path&gt;" class="s69" d="m460 912.3l-8.6-7.1c-1.6-1.3-1.8-3.6-0.5-5.2 1.3-1.5 3.6-1.7 5.2-0.5l8.6 7.1c1.6 1.3 1.8 3.7 0.5 5.2-1.3 1.6-3.6 1.9-5.2 0.6z"/>
				<path id="&lt;Path&gt;" class="s69" d="m438 892.5l-7.4-8.3c-1.4-1.5-1.2-3.7 0.2-5.1 1.5-1.3 3.7-1.2 5.1 0.3l7.5 8.2c1.3 1.5 1.2 3.8-0.2 5.1-1.5 1.4-3.8 1.3-5.1-0.2z"/>
				<path id="&lt;Path&gt;" class="s69" d="m419.4 869.4l-5.9-9.6c-1-1.6-0.4-3.8 1.2-4.8 1.6-1 3.8-0.5 4.8 1.2l5.9 9.5c1 1.6 0.5 3.8-1.2 4.8-1.6 1.1-3.8 0.5-4.8-1.1z"/>
				<path id="&lt;Path&gt;" class="s69" d="m405.6 843l-3.6-10.6c-0.6-1.8 0.3-3.7 2.1-4.3 1.8-0.6 3.7 0.3 4.3 2.1l3.7 10.5c0.6 1.8-0.4 3.8-2.2 4.4-1.7 0.6-3.7-0.3-4.3-2.1z"/>
				<path id="&lt;Path&gt;" class="s69" d="m398.1 814.1l-1-11.1c-0.2-1.8 1.2-3.5 3-3.6 1.8-0.2 3.4 1.1 3.6 3l1.1 11.1c0.2 1.8-1.2 3.5-3 3.6-1.9 0.2-3.5-1.1-3.7-3z"/>
				<path id="&lt;Path&gt;" class="s69" d="m397.5 784.4l1.4-11.1c0.2-1.8 1.8-3 3.6-2.8 1.7 0.2 3 1.8 2.8 3.6l-1.3 11.1c-0.3 1.8-1.9 3.1-3.7 2.8-1.8-0.2-3-1.8-2.8-3.6z"/>
				<path id="&lt;Path&gt;" class="s69" d="m402.9 755.3l3.3-10.7c0.5-1.6 2.3-2.6 3.9-2.1 1.7 0.6 2.6 2.3 2.1 4l-3.2 10.7c-0.6 1.6-2.3 2.6-4 2.1-1.7-0.5-2.6-2.3-2.1-4z"/>
				<path id="&lt;Path&gt;" class="s69" d="m412.9 727.6l4.8-10.2c0.7-1.5 2.5-2.1 4-1.4 1.6 0.7 2.2 2.5 1.5 4l-4.7 10.2c-0.7 1.5-2.5 2.2-4.1 1.5-1.5-0.7-2.2-2.6-1.5-4.1z"/>
				<path id="&lt;Path&gt;" class="s69" d="m426.3 701.4l5.8-9.5c0.9-1.4 2.7-1.9 4.1-1 1.4 0.8 1.9 2.6 1 4l-5.7 9.6c-0.9 1.4-2.7 1.9-4.1 1.1-1.5-0.9-1.9-2.7-1.1-4.2z"/>
				<path id="&lt;Path&gt;" class="s69" d="m442.2 676.8l6.6-9.1c0.9-1.3 2.7-1.5 4-0.6 1.3 0.9 1.6 2.7 0.6 4l-6.5 9.1c-0.9 1.3-2.7 1.6-4 0.7-1.3-1-1.7-2.8-0.7-4.1z"/>
				<path id="&lt;Path&gt;" class="s69" d="m459.9 653.5l7.2-8.6c1-1.1 2.7-1.3 3.9-0.3 1.1 1 1.3 2.7 0.3 3.8l-7.1 8.7c-0.9 1.2-2.7 1.3-3.9 0.4-1.2-1-1.4-2.8-0.4-4z"/>
				<path id="&lt;Path&gt;" class="s69" d="m479.1 631.4l7.6-8.1c1-1.1 2.6-1.1 3.7-0.1 1 0.9 1.1 2.5 0.1 3.6l-7.5 8.2c-1 1.1-2.7 1.2-3.8 0.2-1-1-1.1-2.7-0.1-3.7z"/>
				<path id="&lt;Path&gt;" class="s69" d="m499.4 610.4l8-7.8c1-0.9 2.5-0.9 3.4 0.1 0.9 0.9 0.9 2.5 0 3.4l-7.9 7.9c-1 0.9-2.6 0.9-3.6 0-0.9-1-0.9-2.6 0.1-3.5z"/>
				<path id="&lt;Path&gt;" class="s69" d="m520.5 590.4l8.4-7.5c0.9-0.8 2.3-0.8 3.2 0.2 0.8 0.9 0.7 2.3-0.2 3.2l-8.2 7.5c-1 0.9-2.4 0.8-3.3-0.1-0.9-1-0.8-2.4 0.1-3.3z"/>
				<path id="&lt;Path&gt;" class="s69" d="m542.5 571.1l8.6-7.1c0.9-0.8 2.2-0.6 3 0.2 0.7 0.9 0.6 2.3-0.3 3l-8.5 7.3c-0.9 0.7-2.3 0.6-3.1-0.3-0.8-0.9-0.6-2.3 0.3-3z"/>
				<path id="&lt;Path&gt;" class="s69" d="m565.1 552.7l8.8-6.9c0.8-0.6 2.1-0.5 2.7 0.4 0.7 0.8 0.6 2-0.3 2.7l-8.7 7c-0.9 0.7-2.2 0.5-2.9-0.4-0.7-0.8-0.5-2.1 0.4-2.8z"/>
				<path id="&lt;Path&gt;" class="s69" d="m588.2 535l9.1-6.6c0.8-0.6 1.9-0.4 2.5 0.4 0.6 0.8 0.4 1.9-0.4 2.5l-9 6.7c-0.8 0.6-2 0.4-2.6-0.4-0.6-0.8-0.4-2 0.4-2.6z"/>
				<path id="&lt;Path&gt;" class="s69" d="m611.9 518l9.2-6.3c0.8-0.5 1.8-0.4 2.3 0.4 0.5 0.7 0.4 1.8-0.4 2.3l-9.1 6.4c-0.8 0.6-1.9 0.4-2.4-0.4-0.6-0.8-0.4-1.8 0.4-2.4z"/>
				<path id="&lt;Path&gt;" class="s69" d="m636.1 501.7l9.4-6c0.7-0.5 1.6-0.3 2.1 0.4 0.4 0.7 0.2 1.6-0.5 2.1l-9.3 6.1c-0.7 0.5-1.7 0.3-2.2-0.4-0.5-0.7-0.3-1.7 0.5-2.2z"/>
				<path id="&lt;Path&gt;" class="s69" d="m660.7 486.2l9.6-5.7c0.7-0.4 1.5-0.2 1.9 0.4 0.4 0.7 0.2 1.5-0.5 1.9l-9.5 5.8c-0.7 0.4-1.5 0.2-1.9-0.4-0.4-0.7-0.2-1.6 0.4-2z"/>
			</g>
			<g id="&lt;Group&gt;">
				<path id="&lt;Path&gt;" class="s3" d="m736.7 442.3l-21.6 18.2-4.7-34.8z"/>
				<path id="&lt;Path&gt;" class="s1" d="m864.2 384.4l-82.8 95.3c-1.5 1.8-3.8 2.9-6.2 3-2.4 0.1-4.8-0.7-6.6-2.4l-92.5-86.7c-1-1-1.4-2.5-0.9-3.9 0.6-1.4 1.9-2.3 3.3-2.3z"/>
				<path id="&lt;Path&gt;" class="s3" d="m710.4 425.7l153.8-41.3-138.9 55.3 0.9 9.7z"/>
				<path id="&lt;Path&gt;" class="s3" d="m734.2 448l-19.1 12.5 10.2-20.8z"/>
			</g>
		</g>
	</g>
</svg>