<svg version="1.2" xmlns="http://www.w3.org/2000/svg" viewBox="0 0 3710 3710" width="3710" height="3710">
	<title>20943639-ai</title>
	<defs>
		<linearGradient id="g1" x1="2496.1" y1="4225.8" x2="570.2" y2="2540.6" gradientUnits="userSpaceOnUse">
			<stop offset="0" stop-color="#dae3fe"/>
			<stop offset="1" stop-color="#e9effd"/>
		</linearGradient>
		<linearGradient id="g2" x1="2582.4" y1="1860.3" x2="3027.1" y2="1860.3" gradientUnits="userSpaceOnUse">
			<stop offset="0" stop-color="#dae3fe"/>
			<stop offset="1" stop-color="#e9effd"/>
		</linearGradient>
		<linearGradient id="g3" x1="852.1" y1="3058.9" x2="718.6" y2="-893.7" gradientUnits="userSpaceOnUse">
			<stop offset="0" stop-color="#09005d"/>
			<stop offset="1" stop-color="#1a0f91"/>
		</linearGradient>
		<linearGradient id="g4" x1="677.2" y1="2446.4" x2="2191.3" y2="3408.3" gradientUnits="userSpaceOnUse">
			<stop offset="0" stop-color="#a737d5"/>
			<stop offset="1" stop-color="#ef497a"/>
		</linearGradient>
		<linearGradient id="g5" x1="3928" y1="1268.5" x2="1298.6" y2="4778.8" gradientUnits="userSpaceOnUse">
			<stop offset="0" stop-color="#4f52ff"/>
			<stop offset="1" stop-color="#4042e2"/>
		</linearGradient>
		<linearGradient id="g6" x1="1175.9" y1="983.4" x2="1724.2" y2="983.4" gradientUnits="userSpaceOnUse">
			<stop offset="0" stop-color="#dae3fe"/>
			<stop offset="1" stop-color="#e9effd"/>
		</linearGradient>
		<linearGradient id="g7" x1="1835" y1="1013.3" x2="2386.8" y2="1013.3" gradientUnits="userSpaceOnUse">
			<stop offset="0" stop-color="#dae3fe"/>
			<stop offset="1" stop-color="#e9effd"/>
		</linearGradient>
		<linearGradient id="g8" x1="1835" y1="1094.7" x2="2386.8" y2="1094.7" gradientUnits="userSpaceOnUse">
			<stop offset="0" stop-color="#dae3fe"/>
			<stop offset="1" stop-color="#e9effd"/>
		</linearGradient>
		<linearGradient id="g9" x1="1835" y1="1177.2" x2="2386.8" y2="1177.2" gradientUnits="userSpaceOnUse">
			<stop offset="0" stop-color="#dae3fe"/>
			<stop offset="1" stop-color="#e9effd"/>
		</linearGradient>
		<linearGradient id="g10" x1="1835" y1="1271.2" x2="2386.8" y2="1271.2" gradientUnits="userSpaceOnUse">
			<stop offset="0" stop-color="#dae3fe"/>
			<stop offset="1" stop-color="#e9effd"/>
		</linearGradient>
		<linearGradient id="g11" x1="1835" y1="1363.9" x2="2386.8" y2="1363.9" gradientUnits="userSpaceOnUse">
			<stop offset="0" stop-color="#dae3fe"/>
			<stop offset="1" stop-color="#e9effd"/>
		</linearGradient>
		<linearGradient id="g12" x1="1184.5" y1="1575.1" x2="2436.9" y2="1575.1" gradientUnits="userSpaceOnUse">
			<stop offset="0" stop-color="#dae3fe"/>
			<stop offset="1" stop-color="#e9effd"/>
		</linearGradient>
		<linearGradient id="g13" x1="1184.5" y1="1656.5" x2="2436.9" y2="1656.5" gradientUnits="userSpaceOnUse">
			<stop offset="0" stop-color="#dae3fe"/>
			<stop offset="1" stop-color="#e9effd"/>
		</linearGradient>
		<linearGradient id="g14" x1="1380.3" y1="1835.6" x2="1691.3" y2="1835.6" gradientUnits="userSpaceOnUse">
			<stop offset="0" stop-color="#dae3fe"/>
			<stop offset="1" stop-color="#e9effd"/>
		</linearGradient>
		<linearGradient id="g15" x1="1780.9" y1="1788.6" x2="1952.6" y2="1788.6" gradientUnits="userSpaceOnUse">
			<stop offset="0" stop-color="#dae3fe"/>
			<stop offset="1" stop-color="#e9effd"/>
		</linearGradient>
		<linearGradient id="g16" x1="1991.9" y1="1835.6" x2="2302.8" y2="1835.6" gradientUnits="userSpaceOnUse">
			<stop offset="0" stop-color="#dae3fe"/>
			<stop offset="1" stop-color="#e9effd"/>
		</linearGradient>
		<linearGradient id="g17" x1="1222.9" y1="2088" x2="1349.8" y2="2088" gradientUnits="userSpaceOnUse">
			<stop offset="0" stop-color="#dae3fe"/>
			<stop offset="1" stop-color="#e9effd"/>
		</linearGradient>
		<linearGradient id="g18" x1="1438.5" y1="2121.3" x2="2438.4" y2="2121.3" gradientUnits="userSpaceOnUse">
			<stop offset="0" stop-color="#dae3fe"/>
			<stop offset="1" stop-color="#e9effd"/>
		</linearGradient>
		<linearGradient id="g19" x1="1656.8" y1="1596.6" x2="1331.2" y2="2167.3" gradientUnits="userSpaceOnUse">
			<stop offset="0" stop-color="#ff928e"/>
			<stop offset="1" stop-color="#fe7062"/>
		</linearGradient>
		<linearGradient id="g20" x1="1222.9" y1="2310" x2="1349.8" y2="2310" gradientUnits="userSpaceOnUse">
			<stop offset="0" stop-color="#dae3fe"/>
			<stop offset="1" stop-color="#e9effd"/>
		</linearGradient>
		<linearGradient id="g21" x1="1438.5" y1="2343.3" x2="2438.4" y2="2343.3" gradientUnits="userSpaceOnUse">
			<stop offset="0" stop-color="#dae3fe"/>
			<stop offset="1" stop-color="#e9effd"/>
		</linearGradient>
		<linearGradient id="g22" x1="1750.7" y1="1653.5" x2="1425.1" y2="2224.2" gradientUnits="userSpaceOnUse">
			<stop offset="0" stop-color="#ff928e"/>
			<stop offset="1" stop-color="#fe7062"/>
		</linearGradient>
		<linearGradient id="g23" x1="1222.9" y1="2532" x2="1349.8" y2="2532" gradientUnits="userSpaceOnUse">
			<stop offset="0" stop-color="#dae3fe"/>
			<stop offset="1" stop-color="#e9effd"/>
		</linearGradient>
		<linearGradient id="g24" x1="1438.5" y1="2565.3" x2="2438.4" y2="2565.3" gradientUnits="userSpaceOnUse">
			<stop offset="0" stop-color="#dae3fe"/>
			<stop offset="1" stop-color="#e9effd"/>
		</linearGradient>
		<linearGradient id="g25" x1="1844.6" y1="1710.4" x2="1519" y2="2281" gradientUnits="userSpaceOnUse">
			<stop offset="0" stop-color="#ff928e"/>
			<stop offset="1" stop-color="#fe7062"/>
		</linearGradient>
		<linearGradient id="g26" x1="1222.9" y1="2754" x2="1349.8" y2="2754" gradientUnits="userSpaceOnUse">
			<stop offset="0" stop-color="#dae3fe"/>
			<stop offset="1" stop-color="#e9effd"/>
		</linearGradient>
		<linearGradient id="g27" x1="1438.5" y1="2787.3" x2="2438.4" y2="2787.3" gradientUnits="userSpaceOnUse">
			<stop offset="0" stop-color="#dae3fe"/>
			<stop offset="1" stop-color="#e9effd"/>
		</linearGradient>
		<linearGradient id="g28" x1="1938.5" y1="1767.2" x2="1612.9" y2="2337.9" gradientUnits="userSpaceOnUse">
			<stop offset="0" stop-color="#ff928e"/>
			<stop offset="1" stop-color="#fe7062"/>
		</linearGradient>
		<linearGradient id="g29" x1="2083" y1="356.4" x2="1427.8" y2="1218.3" gradientUnits="userSpaceOnUse">
			<stop offset="0" stop-color="#09005d"/>
			<stop offset="1" stop-color="#1a0f91"/>
		</linearGradient>
		<linearGradient id="g30" x1="2299.2" y1="496.9" x2="1635.4" y2="1370.1" gradientUnits="userSpaceOnUse">
			<stop offset="0" stop-color="#09005d"/>
			<stop offset="1" stop-color="#1a0f91"/>
		</linearGradient>
		<linearGradient id="g31" x1="2409.1" y1="607.9" x2="1947.8" y2="1454.9" gradientUnits="userSpaceOnUse">
			<stop offset="0" stop-color="#4f52ff"/>
			<stop offset="1" stop-color="#4042e2"/>
		</linearGradient>
		<linearGradient id="g32" x1="-20551.9" y1="-20034.8" x2="-20273.9" y2="-19753.5" gradientUnits="userSpaceOnUse">
			<stop offset="0" stop-color="#4f52ff"/>
			<stop offset="1" stop-color="#4042e2"/>
		</linearGradient>
		<linearGradient id="g33" x1="2396.6" y1="2009.8" x2="2216.8" y2="2418.9" gradientUnits="userSpaceOnUse">
			<stop offset="0" stop-color="#febbba"/>
			<stop offset="1" stop-color="#ff928e"/>
		</linearGradient>
		<linearGradient id="g34" x1="3011.4" y1="3425.5" x2="2932.4" y2="3425.5" gradientUnits="userSpaceOnUse">
			<stop offset="0" stop-color="#09005d"/>
			<stop offset="1" stop-color="#1a0f91"/>
		</linearGradient>
		<linearGradient id="g35" x1="2723.4" y1="3776.2" x2="2605.2" y2="2395.6" gradientUnits="userSpaceOnUse">
			<stop offset="0" stop-color="#febbba"/>
			<stop offset="1" stop-color="#ff928e"/>
		</linearGradient>
		<linearGradient id="g36" x1="2678.7" y1="3391.2" x2="2550.4" y2="3391.2" gradientUnits="userSpaceOnUse">
			<stop offset="0" stop-color="#09005d"/>
			<stop offset="1" stop-color="#1a0f91"/>
		</linearGradient>
		<linearGradient id="g37" x1="3063.9" y1="3781.4" x2="2950.4" y2="2454" gradientUnits="userSpaceOnUse">
			<stop offset="0" stop-color="#febbba"/>
			<stop offset="1" stop-color="#ff928e"/>
		</linearGradient>
		<linearGradient id="g38" x1="-12743.4" y1="-18690.9" x2="-12274.5" y2="-18031.2" gradientUnits="userSpaceOnUse">
			<stop offset="0" stop-color="#ff928e"/>
			<stop offset="1" stop-color="#fe7062"/>
		</linearGradient>
		<linearGradient id="g39" x1="-12994" y1="-18951.5" x2="-12516.7" y2="-18279.9" gradientUnits="userSpaceOnUse">
			<stop offset="0" stop-color="#ff928e"/>
			<stop offset="1" stop-color="#fe7062"/>
		</linearGradient>
		<linearGradient id="g40" x1="2690" y1="2406.9" x2="2668.4" y2="2249.3" gradientUnits="userSpaceOnUse">
			<stop offset="0" stop-color="#febbba"/>
			<stop offset="1" stop-color="#ff928e"/>
		</linearGradient>
		<linearGradient id="g41" x1="2692.1" y1="2174.7" x2="2519.4" y2="1867.4" gradientUnits="userSpaceOnUse">
			<stop offset="0" stop-color="#febbba"/>
			<stop offset="1" stop-color="#ff928e"/>
		</linearGradient>
		<linearGradient id="g42" x1="-17611.5" y1="-18960.8" x2="-17369.2" y2="-18715.6" gradientUnits="userSpaceOnUse">
			<stop offset="0" stop-color="#4f52ff"/>
			<stop offset="1" stop-color="#4042e2"/>
		</linearGradient>
		<linearGradient id="g43" x1="2718.7" y1="2204.1" x2="2565.3" y2="1931" gradientUnits="userSpaceOnUse">
			<stop offset="0" stop-color="#febbba"/>
			<stop offset="1" stop-color="#ff928e"/>
		</linearGradient>
		<linearGradient id="g44" x1="2207.1" y1="2001.5" x2="2089.8" y2="2268.2" gradientUnits="userSpaceOnUse">
			<stop offset="0" stop-color="#febbba"/>
			<stop offset="1" stop-color="#ff928e"/>
		</linearGradient>
		<linearGradient id="g45" x1="2320.1" y1="2316.6" x2="2678" y2="2111.5" gradientUnits="userSpaceOnUse">
			<stop offset="0" stop-color="#febbba"/>
			<stop offset="1" stop-color="#ff928e"/>
		</linearGradient>
		<linearGradient id="g46" x1="2100.6" y1="2107.4" x2="2101.2" y2="2229.2" gradientUnits="userSpaceOnUse">
			<stop offset="0" stop-color="#4f52ff"/>
			<stop offset="1" stop-color="#4042e2"/>
		</linearGradient>
		<linearGradient id="g47" x1="2440.6" y1="1692.3" x2="2209.4" y2="2411.1" gradientUnits="userSpaceOnUse">
			<stop offset="0" stop-color="#ff928e"/>
			<stop offset="1" stop-color="#fe7062"/>
		</linearGradient>
		<linearGradient id="g48" x1="2113.2" y1="1953" x2="2098.4" y2="2425.2" gradientUnits="userSpaceOnUse">
			<stop offset="0" stop-color="#e1473d"/>
			<stop offset="1" stop-color="#e9605a"/>
		</linearGradient>
		<linearGradient id="g49" x1="2202.9" y1="1955.9" x2="2188" y2="2428" gradientUnits="userSpaceOnUse">
			<stop offset="0" stop-color="#e1473d"/>
			<stop offset="1" stop-color="#e9605a"/>
		</linearGradient>
		<linearGradient id="g50" x1="2370.1" y1="716.5" x2="336.6" y2="-1478.4" gradientUnits="userSpaceOnUse">
			<stop offset="0" stop-color="#dae3fe"/>
			<stop offset="1" stop-color="#e9effd"/>
		</linearGradient>
		<linearGradient id="g51" x1="1222.9" y1="-3282.7" x2="3107.4" y2="-3317.1" gradientUnits="userSpaceOnUse">
			<stop offset="0" stop-color="#ff928e"/>
			<stop offset="1" stop-color="#fe7062"/>
		</linearGradient>
		<linearGradient id="g52" x1="935.9" y1="-1947.6" x2="1172.6" y2="-1947.6" gradientUnits="userSpaceOnUse">
			<stop offset="0" stop-color="#dae3fe"/>
			<stop offset="1" stop-color="#e9effd"/>
		</linearGradient>
		<linearGradient id="g53" x1="1692.2" y1="-665.6" x2="1692.2" y2="-2273.5" gradientUnits="userSpaceOnUse">
			<stop offset="0" stop-color="#09005d"/>
			<stop offset="1" stop-color="#1a0f91"/>
		</linearGradient>
		<clipPath clipPathUnits="userSpaceOnUse" id="cp1">
			<path d="m2249.25-1469.56c0 307.65-249.4 557.05-557.05 557.05-307.66 0-557.06-249.4-557.06-557.05 0-307.65 262.75-862.16 568.16-899.28 2343.58-284.89 545.95 591.63 545.95 899.28z"/>
		</clipPath>
		<linearGradient id="g54" x1="2205" y1="425" x2="1223.8" y2="1472.1" gradientUnits="userSpaceOnUse">
			<stop offset="0" stop-color="#09005d"/>
			<stop offset="1" stop-color="#1a0f91"/>
		</linearGradient>
		<linearGradient id="g55" x1="1758.2" y1="333.4" x2="1845.4" y2="334.2" gradientUnits="userSpaceOnUse">
			<stop offset="0" stop-color="#febbba"/>
			<stop offset="1" stop-color="#ff928e"/>
		</linearGradient>
		<linearGradient id="g56" x1="1924.4" y1="158" x2="933.4" y2="1215.6" gradientUnits="userSpaceOnUse">
			<stop offset="0" stop-color="#09005d"/>
			<stop offset="1" stop-color="#1a0f91"/>
		</linearGradient>
		<linearGradient id="g57" x1="1444.3" y1="312.1" x2="1519.6" y2="312.8" gradientUnits="userSpaceOnUse">
			<stop offset="0" stop-color="#febbba"/>
			<stop offset="1" stop-color="#ff928e"/>
		</linearGradient>
		<linearGradient id="g58" x1="1220.3" y1="-1707.2" x2="1719.7" y2="215.7" gradientUnits="userSpaceOnUse">
			<stop offset="0" stop-color="#4f52ff"/>
			<stop offset="1" stop-color="#4042e2"/>
		</linearGradient>
		<linearGradient id="g59" x1="2140.7" y1="-2154.5" x2="2586" y2="-2150.3" gradientUnits="userSpaceOnUse">
			<stop offset="0" stop-color="#febbba"/>
			<stop offset="1" stop-color="#ff928e"/>
		</linearGradient>
		<linearGradient id="g60" x1="2445" y1="-2003.6" x2="2151.9" y2="-1353.4" gradientUnits="userSpaceOnUse">
			<stop offset="0" stop-color="#febbba"/>
			<stop offset="1" stop-color="#ff928e"/>
		</linearGradient>
		<linearGradient id="g61" x1="3133.7" y1="-2251.4" x2="2115.3" y2="-2067.1" gradientUnits="userSpaceOnUse">
			<stop offset="0" stop-color="#febbba"/>
			<stop offset="1" stop-color="#ff928e"/>
		</linearGradient>
		<linearGradient id="g62" x1="1092.8" y1="-1680" x2="1608.7" y2="306.2" gradientUnits="userSpaceOnUse">
			<stop offset="0" stop-color="#4f52ff"/>
			<stop offset="1" stop-color="#4042e2"/>
		</linearGradient>
		<linearGradient id="g63" x1="1164.9" y1="-1415.6" x2="1722.6" y2="-1410.3" gradientUnits="userSpaceOnUse">
			<stop offset="0" stop-color="#febbba"/>
			<stop offset="1" stop-color="#ff928e"/>
		</linearGradient>
		<linearGradient id="g64" x1="1598.2" y1="-1989.8" x2="1820.2" y2="-1987.7" gradientUnits="userSpaceOnUse">
			<stop offset="0" stop-color="#febbba"/>
			<stop offset="1" stop-color="#ff928e"/>
		</linearGradient>
		<linearGradient id="g65" x1="1799.2" y1="-1913.1" x2="1564.7" y2="-2059.2" gradientUnits="userSpaceOnUse">
			<stop offset="0" stop-color="#febbba"/>
			<stop offset="1" stop-color="#ff928e"/>
		</linearGradient>
		<linearGradient id="g66" x1="1524.7" y1="-1954.7" x2="1572.3" y2="-2668" gradientUnits="userSpaceOnUse">
			<stop offset="0" stop-color="#e1473d"/>
			<stop offset="1" stop-color="#e9605a"/>
		</linearGradient>
		<linearGradient id="g67" x1="1785.8" y1="-1932.9" x2="1577.9" y2="-2062.4" gradientUnits="userSpaceOnUse">
			<stop offset="0" stop-color="#febbba"/>
			<stop offset="1" stop-color="#ff928e"/>
		</linearGradient>
		<linearGradient id="g68" x1="2216.6" y1="-1706.6" x2="2525.4" y2="-420" gradientUnits="userSpaceOnUse">
			<stop offset="0" stop-color="#09005d"/>
			<stop offset="1" stop-color="#1a0f91"/>
		</linearGradient>
		<linearGradient id="g69" x1="1590.3" y1="-1266.7" x2="1878.6" y2="-1554.9" gradientUnits="userSpaceOnUse">
			<stop offset="0" stop-color="#febbba"/>
			<stop offset="1" stop-color="#ff928e"/>
		</linearGradient>
	</defs>
	<style>
		.s0 { fill: url(#g1) } 
		.s1 { fill: #91b3fa } 
		.s2 { fill: #bdd0fb } 
		.s3 { fill: url(#g2) } 
		.s4 { fill: url(#g3) } 
		.s5 { fill: url(#g4) } 
		.s6 { fill: url(#g5) } 
		.s7 { fill: url(#g6) } 
		.s8 { fill: url(#g7) } 
		.s9 { fill: url(#g8) } 
		.s10 { fill: url(#g9) } 
		.s11 { fill: url(#g10) } 
		.s12 { fill: url(#g11) } 
		.s13 { fill: url(#g12) } 
		.s14 { fill: url(#g13) } 
		.s15 { opacity: .6;fill: #ffffff } 
		.s16 { fill: url(#g14) } 
		.s17 { fill: url(#g15) } 
		.s18 { fill: url(#g16) } 
		.s19 { fill: #ffffff } 
		.s20 { fill: url(#g17) } 
		.s21 { fill: url(#g18) } 
		.s22 { fill: url(#g19) } 
		.s23 { fill: url(#g20) } 
		.s24 { fill: url(#g21) } 
		.s25 { fill: url(#g22) } 
		.s26 { fill: url(#g23) } 
		.s27 { fill: url(#g24) } 
		.s28 { fill: url(#g25) } 
		.s29 { fill: url(#g26) } 
		.s30 { fill: url(#g27) } 
		.s31 { fill: url(#g28) } 
		.s32 { fill: url(#g29) } 
		.s33 { fill: url(#g30) } 
		.s34 { fill: url(#g31) } 
		.s35 { fill: url(#g32) } 
		.s36 { fill: url(#g33) } 
		.s37 { fill: url(#g34) } 
		.s38 { fill: url(#g35) } 
		.s39 { fill: url(#g36) } 
		.s40 { fill: url(#g37) } 
		.s41 { fill: url(#g38) } 
		.s42 { fill: url(#g39) } 
		.s43 { fill: url(#g40) } 
		.s44 { fill: url(#g41) } 
		.s45 { fill: url(#g42) } 
		.s46 { fill: url(#g43) } 
		.s47 { fill: url(#g44) } 
		.s48 { fill: url(#g45) } 
		.s49 { fill: url(#g46) } 
		.s50 { fill: url(#g47) } 
		.s51 { fill: url(#g48) } 
		.s52 { fill: url(#g49) } 
		.s53 { opacity: .8;fill: #ffffff } 
		.s54 { fill: url(#g50) } 
		.s55 { fill: url(#g51) } 
		.s56 { fill: url(#g52) } 
		.s57 { fill: url(#g53) } 
		.s58 { fill: url(#g54) } 
		.s59 { fill: url(#g55) } 
		.s60 { fill: url(#g56) } 
		.s61 { fill: url(#g57) } 
		.s62 { fill: url(#g58) } 
		.s63 { fill: url(#g59) } 
		.s64 { fill: url(#g60) } 
		.s65 { fill: url(#g61) } 
		.s66 { fill: url(#g62) } 
		.s67 { fill: url(#g63) } 
		.s68 { fill: url(#g64) } 
		.s69 { fill: url(#g65) } 
		.s70 { fill: url(#g66) } 
		.s71 { fill: url(#g67) } 
		.s72 { fill: url(#g68) } 
		.s73 { fill: url(#g69) } 
	</style>
	<g id="Illustration">
		<g id="&lt;Group&gt;">
			<path id="&lt;Path&gt;" class="s0" d="m3102.3 2343.3c-267.5 629.8-980 982.7-1597.9 887.5-100.6-15.5-376.2-61.6-620.2-279.3-469.9-418.9-570.3-1248.6-191.3-1833.2 275.8-425.6 770.2-666.8 1240.1-654.7 101.2 2.6 489 18.6 829.9 299.7 50 41.3 160.5 139.4 260 295 233.7 365.4 253.7 874.5 79.4 1285z"/>
			<g id="&lt;Group&gt;">
				<g id="&lt;Group&gt;">
					<g id="&lt;Group&gt;" style="opacity: .3">
						<path id="&lt;Compound Path&gt;" class="s1" d="m838.1 920.8c-0.2 4.4-4 7.8-8.5 7.6-8.6-0.5-17.4-0.5-26.1-0.2-4.4 0.1-8.1-3.3-8.3-7.7q0-0.1 0-0.1c-0.2-4.5 3.3-8.2 7.8-8.4 9.1-0.3 18.4-0.2 27.5 0.3 4.1 0.2 7.4 3.5 7.6 7.6q0 0.4 0 0.9zm-76.8 11.7c-8.6 1.4-17.1 3.3-25.5 5.5-4.3 1.1-8.7-1.5-9.9-5.8-1.1-4.3 1.5-8.7 5.8-9.8 8.8-2.3 17.9-4.3 26.9-5.8 4.4-0.8 8.5 2.2 9.3 6.6q0.1 0.4 0.1 0.9c0.2 4-2.6 7.7-6.7 8.4zm-65.7 19c-8 3.4-16 7.1-23.6 11.1-4 2-8.9 0.5-10.9-3.4-2.1-4-0.6-8.8 3.4-10.9 8.1-4.2 16.5-8.2 24.9-11.7 4.1-1.7 8.8 0.3 10.5 4.4q0.6 1.3 0.7 2.7c0.1 3.3-1.8 6.5-5 7.8zm-59.8 33.3c-7.1 5-14 10.4-20.6 16.1-3.4 2.9-8.5 2.5-11.4-0.9-2.8-3.4-2.4-8.5 1-11.4 6.9-5.9 14.2-11.6 21.6-16.9 3.6-2.6 8.7-1.8 11.3 1.8 0.9 1.3 1.4 2.8 1.5 4.3 0.1 2.7-1.1 5.3-3.4 7zm-50.9 45.8c-5.8 6.4-11.3 13.2-16.5 20.2-2.7 3.6-7.7 4.3-11.3 1.6-3.6-2.6-4.3-7.7-1.6-11.3 5.4-7.3 11.3-14.5 17.3-21.3 3-3.3 8.1-3.6 11.4-0.6 1.7 1.5 2.6 3.5 2.7 5.6 0.1 2-0.5 4.1-2 5.8zm-39.5 55.8c-4.2 7.6-8.1 15.5-11.6 23.4-1.8 4.1-6.6 5.9-10.7 4.1-4-1.8-5.9-6.6-4.1-10.6 3.7-8.4 7.9-16.7 12.3-24.7 2.1-3.9 7-5.3 10.9-3.1 2.6 1.4 4 3.9 4.2 6.6 0.1 1.5-0.3 3-1 4.3zm-7 299.3c-3.9 2.1-8.8 0.6-10.9-3.4-4.2-8.1-8.1-16.5-11.6-24.9-1.7-4.1 0.3-8.9 4.4-10.6 4.1-1.7 8.8 0.3 10.5 4.4 3.3 8 7.1 16 11 23.7 0.6 1 0.9 2.1 0.9 3.3 0.2 3-1.4 6-4.3 7.5zm-19.1-236.1c-2.4 8.4-4.5 16.9-6.1 25.4-0.9 4.4-5.1 7.2-9.5 6.4-4.4-0.9-7.2-5.1-6.4-9.5 1.8-8.9 4-17.9 6.5-26.7 1.2-4.3 5.7-6.8 10-5.5 3.3 0.9 5.6 4 5.8 7.3q0.1 1.3-0.3 2.6zm-7.7 171.2c-4.3 1.1-8.7-1.5-9.9-5.8-2.2-8.8-4.2-17.9-5.7-26.9-0.8-4.4 2.2-8.5 6.6-9.3 4.4-0.7 8.5 2.2 9.3 6.6 1.4 8.6 3.3 17.2 5.5 25.6q0.2 0.8 0.2 1.6c0.2 3.7-2.3 7.2-6 8.2zm-3.7-103.7c-0.4 8.6-0.5 17.4-0.3 26.1 0.2 4.5-3.3 8.2-7.8 8.3-4.3 0.2-8-3.2-8.3-7.6q0-0.1 0-0.2c-0.3-9.1-0.2-18.4 0.3-27.5 0.3-4.4 4.1-7.8 8.5-7.6 4.2 0.2 7.4 3.6 7.6 7.6q0.1 0.5 0 0.9z"/>
						<path id="&lt;Path&gt;" class="s1" d="m570.2 1432.6c-3.5 2.8-8.6 2.1-11.3-1.4-2.7-3.4-5.4-7-7.9-10.6-2.6-3.6-1.8-8.7 1.9-11.2 3.6-2.6 8.6-1.8 11.2 1.8 2.4 3.4 5 6.8 7.5 10.1 1 1.4 1.6 3 1.7 4.5 0.1 2.6-1 5.2-3.1 6.8z"/>
					</g>
					<g id="&lt;Group&gt;" style="opacity: .3">
						<path id="&lt;Path&gt;" class="s1" d="m787.8 1547c-0.4 4.4-4.4 7.6-8.8 7.2-4.4-0.5-8.8-1.1-13.1-1.7-4.4-0.7-7.5-4.8-6.8-9.2 0.6-4.4 4.7-7.4 9.1-6.8 4.2 0.6 8.4 1.2 12.5 1.6 4 0.4 7 3.7 7.2 7.6q0 0.6-0.1 1.3z"/>
						<path id="&lt;Compound Path&gt;" class="s1" d="m1135.5 1233.2c0 4.4-3.6 8-8.1 8.1-4.4 0-8-3.6-8.1-8.1 0-8.5-0.4-17.1-1.1-25.7-0.4-4.4 2.9-8.3 7.3-8.7 4.5-0.4 8.4 2.9 8.7 7.4q0.5 5.5 0.8 11.1c0.3 5.3 0.5 10.6 0.5 15.9zm-14.1-60.8c-4.3 1-8.6-1.8-9.6-6.1-1.9-8.4-4.2-16.7-6.7-24.8-1.4-4.3 1-8.8 5.2-10.2 4.3-1.3 8.8 1.1 10.1 5.3 2.8 8.6 5.1 17.4 7.1 26.1q0.2 0.7 0.2 1.4c0.2 3.8-2.4 7.4-6.3 8.3zm11.2 104.6c-1.2 8.9-2.8 17.9-4.7 26.6-1 4.4-5.3 7.1-9.6 6.2-4.4-1-7.1-5.3-6.2-9.6 1.9-8.4 3.4-16.9 4.5-25.3 0.6-4.5 4.7-7.6 9.1-7 3.9 0.6 6.8 3.8 7 7.6q0 0.7-0.1 1.5zm-32.1-170.6c-4 2-8.8 0.2-10.7-3.8-3.7-7.7-7.7-15.3-12-22.7-2.2-3.8-0.9-8.8 2.9-11 3.9-2.3 8.8-1 11 2.9 4.6 7.7 8.8 15.8 12.7 23.9q0.7 1.5 0.7 3c0.2 3.2-1.5 6.3-4.6 7.7zm15 239.3c-3.2 8.5-6.7 16.8-10.5 25-1.9 4-6.7 5.7-10.7 3.8-4.1-1.8-5.8-6.6-3.9-10.7 3.6-7.7 7-15.7 9.9-23.7 1.6-4.1 6.2-6.3 10.4-4.7 3.1 1.1 5.1 4 5.3 7.1 0 1.1-0.1 2.2-0.5 3.2zm-31.9 63.4c-4.8 7.5-10.1 14.9-15.6 22-2.7 3.5-7.8 4.2-11.3 1.5-3.5-2.8-4.2-7.8-1.5-11.4 5.3-6.7 10.3-13.8 14.9-20.9 2.4-3.8 7.4-4.8 11.2-2.4 2.2 1.5 3.5 3.9 3.6 6.4 0.1 1.6-0.3 3.3-1.3 4.8zm-44.8 54.8c-6.4 6.3-13.2 12.4-20.1 18.2-3.4 2.8-8.5 2.3-11.3-1.1-2.9-3.4-2.4-8.5 1-11.4 6.6-5.4 13-11.2 19.1-17.2 3.2-3.1 8.3-3 11.4 0.1 1.4 1.5 2.2 3.4 2.3 5.3 0.1 2.2-0.7 4.5-2.4 6.1zm-55.8 43.8c-7.6 4.8-15.5 9.2-23.5 13.3-4 2-8.9 0.4-10.9-3.5-2-4-0.4-8.8 3.5-10.9 7.6-3.8 15.2-8.1 22.4-12.6 3.8-2.3 8.8-1.2 11.1 2.6 0.8 1.2 1.2 2.5 1.2 3.8 0.2 2.9-1.2 5.7-3.8 7.3zm-64 30.5c-8.5 2.9-17.2 5.5-25.9 7.8-4.3 1.1-8.7-1.6-9.8-5.9-1.1-4.3 1.5-8.7 5.8-9.8 8.3-2.1 16.6-4.5 24.6-7.3 4.2-1.5 8.8 0.7 10.3 4.9q0.3 1.2 0.4 2.3c0.2 3.5-1.9 6.8-5.4 8zm-69.1 15.7c-6.6 0.7-13.3 1.3-19.9 1.6q-3.5 0.2-7.1 0.3c-4.5 0.1-8.3-3.3-8.3-7.8-0.2-4.5 3.3-8.2 7.8-8.3q3.4-0.1 6.8-0.3c6.3-0.3 12.6-0.8 18.8-1.6 4.5-0.5 8.5 2.7 9 7.1q0 0.3 0 0.5c0.2 4.3-2.9 8-7.1 8.5z"/>
						<path id="&lt;Path&gt;" class="s1" d="m1065.6 1046.6c-3.5 2.7-8.6 2.1-11.4-1.4-2.5-3.3-5.2-6.5-7.9-9.7-2.9-3.4-2.5-8.5 0.9-11.4 3.4-2.9 8.5-2.5 11.4 0.9 2.8 3.4 5.6 6.8 8.3 10.3 1.1 1.3 1.6 2.9 1.7 4.5 0.2 2.5-0.9 5.1-3 6.8z"/>
					</g>
					<g id="&lt;Group&gt;">
						<path id="&lt;Compound Path&gt;" class="s1" d="m975.8 1055.6c1.3 0.9 1.9 2.6 1.4 4.1l-13.6 43.9c14 16.2 25.4 34.8 33.7 55.3l45.1 8.1c1.6 0.3 2.8 1.5 3.1 3.1l8.4 54.4c0.2 1.6-0.6 3.1-2 3.9l-40.5 21.4c-1.7 22-7 43.2-15.4 62.9l26.2 37.6c0.9 1.4 0.9 3.1-0.1 4.4l-32.5 44.4c-0.9 1.3-2.6 1.9-4.1 1.4l-43.8-13.6c-16.3 14-34.9 25.4-55.3 33.7l-8.2 45.1c-0.3 1.6-1.5 2.8-3.1 3l-54.4 8.5c-1.6 0.2-3.1-0.6-3.9-2l-21.4-40.5c-22-1.7-43.2-7-62.9-15.4l-37.6 26.2c-1.4 0.9-3.1 0.9-4.4-0.1l-44.4-32.5c-1.3-0.9-1.9-2.6-1.4-4.1l13.6-43.9c-14-16.2-25.4-34.8-33.7-55.3l-45.1-8.1c-1.6-0.3-2.8-1.5-3-3.1l-8.4-54.4c-0.3-1.6 0.5-3.2 1.9-3.9l40.6-21.4c1.6-22 6.9-43.2 15.3-62.9l-26.2-37.6c-0.9-1.4-0.8-3.1 0.1-4.4l32.5-44.4c0.9-1.3 2.6-1.9 4.1-1.4l43.9 13.6c16.2-14 34.8-25.4 55.3-33.7l8.1-45.1c0.3-1.6 1.5-2.8 3.1-3l54.4-8.5c1.6-0.2 3.2 0.6 3.9 2l21.4 40.5c22 1.7 43.2 7 62.9 15.4l37.7-26.2c1.3-0.9 3-0.9 4.3 0.1z"/>
						<g id="&lt;Group&gt;">
							<path id="&lt;Compound Path&gt;" fill-rule="evenodd" class="s2" d="m866 1239.4c-2.8 30.4-29.9 52.8-60.2 49.9-14.7-1.4-28-8.4-37.4-19.8-9.5-11.4-13.9-25.7-12.5-40.4 2.9-30.4 29.9-52.8 60.2-49.9 27.7 2.6 48.7 25.2 50.1 52.1q0.2 4-0.2 8.1zm-87.7 21.9c7.2 8.7 17.4 14.1 28.7 15.2 23.3 2.1 44-15 46.2-38.3 2.2-23.3-15-44-38.3-46.2-23.2-2.2-44 15-46.2 38.3q-0.2 3.1-0.1 6.3c0.5 9 3.8 17.6 9.7 24.7z"/>
						</g>
						<path id="&lt;Path&gt;" class="s2" d="m919.9 1315.4c-21.4 29.3-53 48.5-88.9 54.1q-7 1.1-13.9 1.4c-31.2 1.7-61.7-7.4-87.2-26.1-29.3-21.4-48.5-53-54.1-88.9-11.4-74 39.5-143.7 113.6-155.1q6.9-1.1 13.7-1.5c19.9-1 39.8 2.3 58.2 9.8 1.7 0.7 2.5 2.6 1.8 4.2-0.5 1.2-1.6 2-2.8 2q-0.7 0.1-1.4-0.2c-17.6-7.1-36.5-10.3-55.4-9.3q-6.6 0.3-13.1 1.3c-70.6 11-119.1 77.2-108.2 147.8 5.3 34.2 23.6 64.3 51.5 84.7 24.3 17.8 53.4 26.5 83 24.9q6.7-0.3 13.3-1.4c25.2-3.9 47.6-14.9 65.5-30.6 32.2-28.2 49.7-71.8 42.7-117.2-1.4-9.1-3.8-18.1-7.1-26.6-0.6-1.7 0.2-3.6 1.9-4.2q0.5-0.2 1-0.2c1.3-0.1 2.6 0.7 3.1 2.1q0.3 0.7 0.6 1.5 0.2 0.4 0.3 0.8 0.1 0.1 0.1 0.3c2.5 6.8 4.4 13.8 5.7 21q0.4 2.1 0.8 4.3 1 7 1.4 13.9c1.6 31.2-7.4 61.7-26.1 87.2z"/>
					</g>
				</g>
				<g id="&lt;Group&gt;">
					<g id="&lt;Group&gt;" style="opacity: .3">
						<path id="&lt;Path&gt;" class="s1" d="m906.9 495.9c-0.6 2.7-3.3 4.4-6 3.7-3.9-0.9-7.9-1.7-11.9-2.4-2.7-0.5-4.5-3.1-4-5.8 0.5-2.7 3.1-4.5 5.8-4 4.1 0.7 8.3 1.6 12.4 2.5 2.2 0.6 3.8 2.5 3.9 4.6q0 0.7-0.2 1.4z"/>
						<path id="&lt;Compound Path&gt;" class="s1" d="m869.1 489.6c-0.1 2.8-2.4 4.9-5.2 4.8-6.9-0.4-13.9-0.4-20.9 0q-2.2 0.1-4.4 0.3c-2.7 0.2-5.1-1.9-5.3-4.6-0.1-2.6 1.9-5.1 4.6-5.3q2.3-0.2 4.6-0.3c7.3-0.4 14.6-0.4 21.9-0.1 2.6 0.1 4.6 2.2 4.7 4.7q0.1 0.3 0 0.5zm-55.5 8.5c-8.3 1.6-16.5 3.8-24.5 6.4-2.6 0.9-5.4-0.6-6.3-3.2-0.8-2.6 0.6-5.4 3.2-6.3 8.4-2.7 17-5 25.6-6.7 2.7-0.5 5.4 1.2 5.9 3.9q0.1 0.4 0.1 0.7c0.1 2.5-1.6 4.7-4 5.2zm-48 15.8c-7.6 3.6-15 7.7-22.1 12.2-2.3 1.5-5.4 0.8-6.9-1.5-1.4-2.3-0.8-5.4 1.6-6.9 7.4-4.7 15.2-9 23.2-12.8 2.5-1.2 5.4-0.1 6.6 2.4q0.4 0.9 0.5 1.8c0.1 2-1 3.9-2.9 4.8zm-42.5 27.1c-6.5 5.4-12.7 11.2-18.5 17.3-1.9 2-5 2.1-7 0.2-2-1.9-2.1-5-0.2-7 6-6.4 12.5-12.5 19.3-18.2 2.1-1.7 5.3-1.4 7 0.7 0.7 0.9 1.1 1.9 1.2 2.9 0 1.5-0.6 3.1-1.8 4.1zm-34.7 36.7c-5 6.8-9.6 13.9-13.7 21.3-1.4 2.4-4.4 3.2-6.8 1.9-2.4-1.4-3.3-4.4-1.9-6.8 4.3-7.7 9.1-15.2 14.4-22.3 1.6-2.2 4.7-2.7 6.9-1.1 1.3 1 2 2.4 2.1 3.8 0 1.1-0.3 2.2-1 3.2zm-24.7 44c-3.2 7.8-5.9 15.8-8.1 23.9-0.7 2.7-3.5 4.3-6.1 3.5-2.7-0.7-4.2-3.4-3.5-6.1 2.3-8.5 5.1-16.9 8.5-25.1 1-2.5 3.9-3.7 6.5-2.7 1.8 0.8 2.9 2.5 3 4.4q0.1 1-0.3 2.1zm-13.2 48.7c-1.2 8.3-1.9 16.8-2 25.2 0 2.7-2.3 4.9-5.1 4.9-2.7-0.1-4.9-2.3-4.9-5.1 0.2-8.8 0.9-17.7 2.1-26.4 0.4-2.7 2.9-4.6 5.7-4.2 2.3 0.3 4.1 2.3 4.2 4.6q0.1 0.5 0 1zm-0.4 81.4c-2.7 0.6-5.3-1.1-6-3.8-1.7-7.4-3-15-4-22.6q-0.2-1.8-0.4-3.5c-0.3-2.7 1.7-5.2 4.5-5.5 2.7-0.3 5.2 1.7 5.4 4.5q0.2 1.6 0.4 3.2c0.9 7.3 2.2 14.6 3.8 21.7q0.1 0.4 0.2 0.9c0.1 2.3-1.5 4.5-3.9 5.1z"/>
					</g>
					<g id="&lt;Group&gt;" style="opacity: .3">
						<path id="&lt;Compound Path&gt;" class="s1" d="m1068.5 690.9c0.4 8.7 0.2 17.5-0.5 26.1-0.2 2.7-2.6 4.8-5.4 4.6-2.7-0.3-4.7-2.7-4.5-5.4 0.6-8.2 0.8-16.6 0.5-24.9-0.1-2.7 2-5 4.8-5.1 2.7-0.1 5 2 5.1 4.7q0 0 0 0zm-6.7-20.2c-2.7 0.4-5.3-1.4-5.7-4.1-1.3-8.2-3.1-16.4-5.4-24.3-0.8-2.6 0.7-5.4 3.4-6.2 2.6-0.7 5.4 0.8 6.2 3.4 2.3 8.4 4.3 16.9 5.6 25.5q0.1 0.3 0.1 0.5c0.1 2.5-1.7 4.8-4.2 5.2zm2.5 72.1c-1.8 8.5-4.1 17-6.9 25.2-0.8 2.6-3.7 4-6.3 3.1-2.6-0.9-4-3.7-3.1-6.3 2.7-7.8 4.8-15.9 6.5-24 0.6-2.7 3.2-4.4 5.9-3.9 2.3 0.5 3.9 2.4 4 4.6q0 0.7-0.1 1.3zm-15.4-121.3c-2.5 1.1-5.5-0.1-6.5-2.7-3.3-7.6-7-15.1-11.2-22.2-1.3-2.4-0.5-5.4 1.9-6.8 2.3-1.4 5.4-0.6 6.8 1.8 4.3 7.5 8.2 15.4 11.6 23.3q0.4 0.9 0.4 1.7c0.1 2.1-1 4-3 4.9zm-1.3 170.6c-3.7 7.8-8 15.5-12.7 22.8-1.4 2.3-4.5 3-6.8 1.5-2.4-1.5-3-4.5-1.6-6.9 4.5-6.9 8.6-14.2 12.1-21.7 1.2-2.5 4.2-3.5 6.7-2.3 1.7 0.8 2.7 2.5 2.8 4.2 0 0.8-0.1 1.6-0.5 2.4zm-28 43.9c-5.5 6.7-11.5 13.1-17.8 19.1-1.9 1.9-5.1 1.8-7-0.2-1.9-2-1.8-5.1 0.2-7 6-5.7 11.7-11.8 16.9-18.2 1.8-2.2 4.9-2.5 7-0.7 1.2 0.9 1.8 2.2 1.8 3.6 0.1 1.2-0.3 2.4-1.1 3.4zm-37.7 35.9c-7 5.2-14.3 10-21.8 14.3-2.4 1.3-5.5 0.5-6.8-1.9-1.4-2.4-0.5-5.4 1.8-6.8 7.2-4.1 14.2-8.6 20.9-13.6 2.2-1.6 5.3-1.2 6.9 1 0.6 0.9 1 1.8 1 2.7 0.1 1.6-0.6 3.3-2 4.3z"/>
						<path id="&lt;Path&gt;" class="s1" d="m1024.3 576.6c-2.2 1.7-5.3 1.3-6.9-0.9-2.5-3.3-5.1-6.4-7.7-9.5-1.7-2.1-1.5-5.2 0.6-7 2.1-1.8 5.2-1.5 7 0.5 2.7 3.2 5.4 6.6 8 10 0.6 0.8 1 1.8 1 2.7 0.1 1.6-0.6 3.2-2 4.2z"/>
					</g>
					<g id="&lt;Group&gt;">
						<path id="&lt;Compound Path&gt;" class="s1" d="m962.3 579.9c0.8 0.7 1.2 1.8 0.9 2.8l-9.1 29.3c9.4 10.9 17 23.4 22.5 37l30.2 5.5c1.1 0.2 1.9 1 2.1 2.1l5.6 36.3c0.2 1.1-0.4 2.2-1.3 2.7l-27.1 14.3c-1.2 14.7-4.7 28.9-10.3 42.1l17.5 25.2c0.6 0.8 0.6 2 0 2.9l-21.8 29.7c-0.6 0.9-1.7 1.2-2.8 0.9l-29.3-9c-10.9 9.3-23.3 16.9-37 22.5l-5.4 30.1c-0.2 1.1-1.1 1.9-2.1 2.1l-36.4 5.6c-1.1 0.2-2.1-0.3-2.6-1.3l-14.3-27.1c-14.7-1.1-28.9-4.7-42.1-10.3l-25.2 17.5c-0.9 0.6-2.1 0.6-3 0l-29.7-21.8c-0.8-0.6-1.2-1.7-0.9-2.7l9.1-29.4c-9.3-10.8-17-23.3-22.5-37l-30.2-5.4c-1.1-0.2-1.9-1-2.1-2.1l-5.6-36.4c-0.1-1.1 0.4-2.1 1.3-2.6l27.2-14.3c1.1-14.7 4.6-28.9 10.2-42.1l-17.5-25.2c-0.6-0.9-0.6-2.1 0.1-2.9l21.7-29.7c0.6-0.9 1.8-1.3 2.8-1l29.3 9.1c10.9-9.3 23.3-17 37-22.5l5.5-30.2c0.1-1 1-1.9 2.1-2l36.3-5.7c1.1-0.1 2.1 0.4 2.6 1.4l14.4 27.1c14.7 1.1 28.8 4.6 42 10.2l25.2-17.5c0.9-0.6 2.1-0.6 3 0.1z"/>
						<g id="&lt;Group&gt;">
							<path id="&lt;Compound Path&gt;" fill-rule="evenodd" class="s2" d="m889.5 703c-1 10-5.8 19.1-13.5 25.5-7.8 6.4-17.5 9.4-27.6 8.5-20.6-2-35.9-20.3-33.9-41 1.9-20.7 20.3-36 41-34 10 0.9 19.1 5.7 25.5 13.5 5.2 6.3 8.2 13.9 8.6 21.9q0.1 2.8-0.1 5.6zm-40.1 24.1c7.3 0.7 14.5-1.6 20.2-6.3 5.7-4.7 9.3-11.4 9.9-18.7 0.7-7.4-1.5-14.6-6.2-20.3-4.7-5.7-11.4-9.2-18.7-9.9-15.3-1.4-28.8 9.8-30.2 25q-0.2 2-0.1 4.1c0.7 13.4 11.2 24.8 25.1 26.1z"/>
						</g>
						<path id="&lt;Path&gt;" class="s2" d="m865.8 792.8q-4.8 0.7-9.6 1c-21.5 1.1-42.6-5.2-60.2-18-20.2-14.8-33.4-36.6-37.3-61.4-3.8-24.8 2.3-49.5 17.1-69.7 14.8-20.3 36.5-33.5 61.3-37.3q4.7-0.8 9.5-1c13.7-0.7 27.4 1.6 40.1 6.7 2.6 1.1 3.8 4 2.8 6.5-0.8 1.9-2.5 3-4.4 3.1q-1 0.1-2.1-0.3c-11.4-4.7-23.6-6.7-35.9-6.1q-4.2 0.3-8.5 0.9c-22.1 3.4-41.6 15.3-54.8 33.3-13.2 18.1-18.6 40.3-15.2 62.4 3.4 22.1 15.3 41.6 33.3 54.8 15.8 11.5 34.6 17.1 53.8 16.1q4.3-0.2 8.6-0.9c22.1-3.4 41.6-15.2 54.8-33.3q0.2-0.2 0.3-0.5 0.1 0 0.2-0.1c4.4-6.2 8-12.9 10.6-19.9 4.7-13 6.3-26.9 4.2-40.9q0-0.5-0.1-1c-0.9-5.9-2.4-11.7-4.6-17.2-0.9-2.6 0.3-5.5 2.9-6.4q0.8-0.3 1.5-0.4c2.1-0.1 4.1 1.2 4.9 3.2q0.2 0.4 0.3 0.8c2.3 6 3.9 12.2 4.8 18.5q0.8 4.8 1 9.5c2.5 47.5-31.4 90.2-79.3 97.6z"/>
					</g>
				</g>
			</g>
			<g id="&lt;Group&gt;">
				<path id="&lt;Path&gt;" class="s1" d="m2688.8 2222.4c-166.9 216.2-397.6 256.5-397.6 256.5 178.4-121.1 335.1-335.1 330-970.9-4.1-506.8 272.8-765 385.3-849 11.1-8.2 26.5 2.6 22.2 15.7-75.8 233.9 69.9 1016.8-339.9 1547.7z"/>
				<path id="&lt;Path&gt;" class="s2" d="m2929 861.8c-20.6 68.4-39.9 137.1-56.7 206.5-17.1 69.2-32.1 138.9-45 209-12.5 70.2-23.7 140.5-32 211.3-8.5 70.7-14 141.7-19.3 213-5.6 71.2-10.9 143-23.6 214.4-12.6 71.4-33.9 142.3-67.5 207.3-8.4 16.2-17.1 32.3-26.7 47.7-9.3 15.6-19.3 30.8-29.6 45.8-20.7 30-43.4 58.6-68.1 85.4-49.6 53.5-107.4 99.3-169.4 136.7-6.6 3.9-15.1 1.8-19-4.7-3.8-6.5-1.9-14.8 4.4-18.8 14.9-9.5 29.6-19.2 43.8-29.5 7.2-5 14.2-10.3 21.2-15.5 6.9-5.5 14-10.7 20.6-16.4 27.1-22.2 52.6-46.3 76.2-72.2 47.4-51.5 87.3-110.3 119.5-172.3 15.8-31.2 29.3-63.5 40.2-96.7 10.9-33.3 19.2-67.4 25.6-102 12.8-69.3 18.7-140.3 24.9-211.5 6.2-71.2 13-142.7 22.7-213.8q7.2-53.3 16.2-106.4c3-17.6 6.2-35.3 9.4-52.9q5.1-26.4 10.6-52.8c14.6-70.2 31.4-139.9 50.4-208.9 19.3-69 40.4-137.5 64.2-205 0.7-1.9 2.8-2.9 4.7-2.3 1.9 0.7 2.9 2.7 2.3 4.6z"/>
			</g>
			<g id="&lt;Group&gt;">
				<g id="&lt;Group&gt;">
					<path id="&lt;Path&gt;" class="s2" d="m3214.3 1442.5c18.2-11.8 41 6.5 33.3 26.8-36.3 96.1-101.2 312.1-149.6 719.1-57.4 482-374.1 724.8-492.9 800-21.5 13.6-50.1 1.2-54.6-23.9-160.1-909.3 462.7-1392 663.8-1522z"/>
					<path id="&lt;Path&gt;" class="s3" d="m2582.9 2958.1c3.4-5.2 333-528.8 425.2-1087.5 0.9-5.4 6-9.1 11.4-8.2 5.5 0.9 9.1 6 8.2 11.4-92.9 562.9-424.6 1089.7-428 1095-2.9 4.6-9.1 6-13.7 3q-0.8-0.5-1.5-1.2c-3.4-3.2-4.2-8.4-1.6-12.5z"/>
				</g>
			</g>
			<g id="&lt;Group&gt;">
				<path id="&lt;Path&gt;" class="s4" d="m856.1 944.7c0-94.3 76.5-170.8 170.9-170.8h1452.5c80.1 0 146.2 62.8 150.2 142.9l107.3 2105.8c3.1 62.6-46.2 115.5-108.9 116.6l-1664.7 30.3c-58.9 1-107.3-46.4-107.3-105.3z"/>
				<path id="&lt;Path&gt;" class="s1" d="m1206.7 3133.7q0 0-0.1 0l-186.2-2.4c-62.3-0.8-113-52.2-113-114.5v-281.2c0-2.2 1.8-4 4-4 2.2 0 4 1.8 4 4v281.2c0 58 47.1 105.8 105.1 106.5l186.3 2.4c2.1 0 3.9 1.8 3.9 4-0.1 2.2-1.8 4-4 4z"/>
				<path id="&lt;Path&gt;" class="s5" d="m911.4 2652.4c-2.2 0-4-1.7-4-3.9v-45.6c0-2.2 1.8-4 4-4 2.2 0 4 1.8 4 4v45.6c0 2.2-1.8 3.9-4 3.9z"/>
				<g id="&lt;Group&gt;">
					<path id="&lt;Path&gt;" class="s6" d="m975.1 806.4c-0.1-30.2 26.4-53.6 56.3-49.5 198.4 26.9 880.5 110.1 1444.4 66.8 25.7-2 48 17.5 49.4 43.2l112.4 2115.3c1.6 29-20.6 53.8-49.6 55.5-237.2 14-1214 68.3-1562.4 31.8-21.2-2.2-37.3-20.1-37.4-41.4z"/>
					<path id="&lt;Path&gt;" class="s2" d="m998.5 859.4c-0.2-29.1 25.4-51.6 54.2-47.7 190.8 25.9 847.2 106 1389.9 64.3 24.8-1.9 46.3 16.9 47.6 41.7l108.2 2035.6c1.5 27.9-19.9 51.7-47.8 53.4-228.2 13.5-1168.2 65.7-1503.5 30.6-20.4-2.1-35.9-19.3-36-39.8z"/>
					<path id="&lt;Path&gt;" class="s7" d="m1205.7 985.4l477.7 16.8c16.4 0.5 30.2 12.3 33.2 28.4 18.7 99.6 12.7 337.8 10 419.6-0.5 16.1-13.2 29.1-29.3 30-142.2 7.4-394.1 1.3-474.9-1-14.5-0.4-26.2-12-26.9-26.5l-20.3-436.4c-0.8-17.2 13.3-31.5 30.5-30.9z"/>
					<path id="&lt;Path&gt;" class="s8" d="m1857.9 1054.3c-8.5 0-17.7-6.6-20.5-14.6l-3.6-10.1c-2.8-8 1.8-14.4 10.3-14.3l527.1 9.4c8.4 0.2 15.6 6.9 15.8 14.9 0.2 8.1-6.5 14.7-15 14.7z"/>
					<path id="&lt;Path&gt;" class="s9" d="m2371.2 1106.1c8.4 0.1 15.6 6.9 15.8 14.9 0.2 8.1-6.5 14.6-15 14.6h-514.1c-8.5 0-17.7-6.5-20.5-14.5l-3.6-10.1c-2.8-8 1.8-14.5 10.3-14.3z"/>
					<path id="&lt;Path&gt;" class="s10" d="m2371.2 1188.6c8.4 0.2 15.6 6.9 15.8 14.9 0.2 8.1-6.5 14.7-15 14.7h-514.1c-8.5 0-17.7-6.6-20.5-14.6l-3.6-10.1c-2.8-8 1.8-14.4 10.3-14.3z"/>
					<path id="&lt;Path&gt;" class="s11" d="m2371.2 1282.6c8.4 0.1 15.6 6.8 15.8 14.9 0.2 8-6.5 14.6-15 14.6h-514.1c-8.5 0-17.7-6.5-20.5-14.5l-3.6-10.2c-2.8-8 1.8-14.4 10.3-14.2z"/>
					<path id="&lt;Path&gt;" class="s12" d="m2371.2 1375.3c8.4 0.1 15.6 6.8 15.8 14.9 0.2 8-6.5 14.6-15 14.6h-514.1c-8.5 0-17.7-6.5-20.5-14.5l-3.6-10.2c-2.8-8 1.8-14.4 10.3-14.2z"/>
					<path id="&lt;Path&gt;" class="s13" d="m1221.7 1616.2c-8.5 0-19.7-5.4-25-12l-12-15.1c-5.3-6.7-2.7-12 5.8-12l1230.5 9.7c8.4 0.1 15.8 6.7 16.3 14.8 0.6 8-5.9 14.6-14.4 14.6z"/>
					<path id="&lt;Path&gt;" class="s14" d="m2421 1668.2c8.4 0.1 15.8 6.7 16.3 14.8 0.6 8-5.9 14.6-14.4 14.6h-1201.2c-8.5 0-19.7-5.4-25-12.1l-12-15.1c-5.3-6.6-2.7-12 5.8-11.9z"/>
					<path id="&lt;Path&gt;" class="s15" d="m1186.6 1794.3c29.5-2.2 84.7-3.3 115.1-3.7 12.9-0.2 24.2 8.6 27.3 21.1 5.8 24.3 13.9 66.6 12.9 111.4-0.3 13.4-11.3 24.1-24.7 23.9l-112.2-1.2c-13.9-0.1-25.3-10.7-26.6-24.4l-9.9-105.6c-1-10.9 7.1-20.6 18.1-21.5z"/>
					<path id="&lt;Path&gt;" class="s16" d="m1675.7 1849.5c8.4 0.3 15.5 7.6 15.6 16l0.1 7.8c0.1 8.5-6.8 15.5-15.3 15.5h-275.8c-8.5 0-16.4-6.9-17.7-15.3l-3.2-21.3c-1.2-8.3 4.7-14.9 13.1-14.6z"/>
					<path id="&lt;Path&gt;" class="s17" d="m1798.1 1794.3c29.5-2.2 84.7-3.3 115.2-3.7 12.9-0.2 24.2 8.6 27.2 21.1 5.8 24.3 13.9 66.6 12.9 111.4-0.3 13.4-11.3 24.1-24.7 23.9l-112.2-1.2c-13.8-0.1-25.3-10.7-26.6-24.4l-9.8-105.6c-1.1-10.9 7-20.6 18-21.5z"/>
					<path id="&lt;Path&gt;" class="s18" d="m2287.2 1849.5c8.5 0.3 15.5 7.6 15.6 16l0.1 7.8c0.1 8.5-6.8 15.5-15.2 15.5h-275.9c-8.4 0-16.4-6.9-17.7-15.3l-3.2-21.3c-1.2-8.3 4.7-14.9 13.2-14.6z"/>
					<g id="&lt;Group&gt;">
						<path id="&lt;Compound Path&gt;" fill-rule="evenodd" class="s19" d="m1344.9 2213.3q-0.1 0-0.3 0l-103.5-1c-14.8-0.1-27-10.3-28.4-23.7l-9.2-86.9c-0.5-5.1 1.1-10.1 4.5-14.2 3.8-4.5 9.6-7.4 15.9-7.8 8.7-0.6 21-1.6 34-2.7 27.4-2.4 61.5-5.3 80.7-5.5 13.9-0.1 25.7 8.1 29 20.3 5.4 19.9 4.9 57.7 3.9 97.9-0.4 13.1-12.2 23.6-26.6 23.6zm-120.5-125.7c-4.1 0.3-7.9 2.1-10.3 5-2 2.4-2.9 5.4-2.6 8.3l9.1 86.9c0.9 9.3 9.8 16.5 20.5 16.6l103.6 1q0.1 0 0.2 0c10.1 0 18.4-7.1 18.6-15.9 1-39.6 1.5-76.7-3.6-95.7-2.3-8.4-11.1-14.3-21.2-14.4-18.9 0.3-52.9 3.2-80.1 5.5-13.1 1.1-25.4 2.1-34.2 2.7z"/>
						<path id="&lt;Path&gt;" class="s20" d="m1235.5 2096.6c21.8-1.5 69.1-6.3 91.5-6.6 9.5-0.1 17.9 5.7 20.1 13.9 4.3 16 3.8 47.9 3 77.4-0.2 8.8-8.3 15.8-18.2 15.7l-82.8-0.8c-10.2-0.1-18.6-7-19.6-16l-7.2-69.5c-0.8-7.2 5.2-13.5 13.2-14.1z"/>
						<path id="&lt;Path&gt;" class="s21" d="m1460.9 2123.3l958.4 4.4c10.5 0 19.1 8.5 19.3 19 0.3 10.9-8.4 19.8-19.2 19.9l-958.4 8.2c-11.8 0.1-22.1-7.8-25.1-19.2-4.3-16.4 8.1-32.4 25-32.3z"/>
						<path id="&lt;Path&gt;" class="s22" d="m1240 2110.2c7.6-4.5 17.5-1.8 21.9 6l20.4 36.6c2.1 3.7 7.4 3.5 9.1-0.4l50.7-112.8c2.5-5.6 10.9-3.7 10.8 2.5-0.5 34.5-9.7 100.1-64.8 155 0 0-30.4-11.8-54.8-65.6-3.6-7.7-0.7-16.9 6.7-21.3z"/>
						<path id="&lt;Compound Path&gt;" fill-rule="evenodd" class="s19" d="m1344.9 2435.3q-0.1 0-0.3 0l-103.5-1c-14.8-0.1-27-10.3-28.4-23.7l-9.2-86.9c-0.5-5.1 1.1-10.1 4.5-14.2 3.8-4.5 9.6-7.4 15.9-7.8 8.7-0.6 21-1.6 34-2.8 27.4-2.3 61.5-5.2 80.7-5.4q0.2 0 0.4 0c13.6 0 25.3 8.3 28.6 20.3 5.4 19.9 4.9 57.7 3.9 97.9-0.4 13.1-12.2 23.6-26.6 23.6zm-120.5-125.7c-4.1 0.3-7.9 2.1-10.3 5-2 2.4-2.9 5.4-2.6 8.3l9.1 86.9c0.9 9.3 9.8 16.5 20.5 16.6l103.6 1q0.1 0 0.2 0c10.1 0 18.4-7.1 18.6-15.9 1-39.6 1.5-76.7-3.6-95.7-2.3-8.4-11.3-14.5-21.2-14.4-18.9 0.3-52.9 3.2-80.1 5.5-13.1 1.1-25.4 2.1-34.2 2.7z"/>
						<path id="&lt;Path&gt;" class="s23" d="m1235.5 2318.6c21.8-1.5 69.1-6.3 91.5-6.6 9.5-0.1 17.9 5.7 20.1 13.9 4.3 16 3.8 47.9 3 77.4-0.2 8.8-8.3 15.8-18.2 15.7l-82.8-0.8c-10.2-0.1-18.6-7-19.6-16l-7.2-69.5c-0.8-7.2 5.2-13.5 13.2-14.1z"/>
						<path id="&lt;Path&gt;" class="s24" d="m1460.9 2345.3l958.4 4.4c10.5 0 19.1 8.5 19.3 19 0.3 10.9-8.4 19.8-19.2 19.9l-958.4 8.2c-11.8 0.1-22.1-7.8-25.1-19.2-4.3-16.4 8.1-32.4 25-32.3z"/>
						<path id="&lt;Path&gt;" class="s25" d="m1240 2332.2c7.6-4.5 17.5-1.8 21.9 6l20.4 36.6c2.1 3.7 7.4 3.5 9.1-0.4l50.7-112.8c2.5-5.6 10.9-3.7 10.8 2.5-0.5 34.5-9.7 100.1-64.8 155 0 0-30.4-11.8-54.8-65.6-3.6-7.7-0.7-16.9 6.7-21.3z"/>
						<path id="&lt;Compound Path&gt;" fill-rule="evenodd" class="s19" d="m1344.9 2657.3q-0.1 0-0.3 0l-103.5-1c-14.8-0.1-27-10.3-28.4-23.7l-9.2-86.9c-0.5-5.1 1.1-10.1 4.5-14.2 3.8-4.5 9.6-7.4 15.9-7.8 8.7-0.6 21-1.6 34-2.8 27.4-2.3 61.5-5.2 80.7-5.4q0.2 0 0.4 0c13.6 0 25.3 8.3 28.6 20.3 5.4 19.9 4.9 57.7 3.9 97.9-0.4 13.1-12.2 23.6-26.6 23.6zm-120.5-125.7c-4.1 0.3-7.9 2.1-10.3 5-2 2.4-2.9 5.4-2.6 8.3l9.1 86.9c0.9 9.3 9.8 16.5 20.5 16.6l103.6 1q0.1 0 0.2 0c10.1 0 18.4-7.1 18.6-15.9 1-39.6 1.5-76.7-3.6-95.7-2.3-8.4-11.3-14.6-21.2-14.4-18.9 0.3-52.9 3.2-80.1 5.5-13.1 1.1-25.4 2.1-34.2 2.7z"/>
						<path id="&lt;Path&gt;" class="s26" d="m1235.5 2540.6c21.8-1.5 69.1-6.3 91.5-6.6 9.5-0.1 17.9 5.7 20.1 13.9 4.3 16 3.8 47.9 3 77.4-0.2 8.8-8.3 15.8-18.2 15.7l-82.8-0.8c-10.2-0.1-18.6-7-19.6-16l-7.2-69.5c-0.8-7.2 5.2-13.5 13.2-14.1z"/>
						<path id="&lt;Path&gt;" class="s27" d="m1460.9 2567.3l958.4 4.4c10.5 0 19.1 8.5 19.3 19 0.3 10.9-8.4 19.8-19.2 19.9l-958.4 8.2c-11.8 0.1-22.1-7.8-25.1-19.2-4.3-16.4 8.1-32.4 25-32.3z"/>
						<path id="&lt;Path&gt;" class="s28" d="m1240 2554.2c7.6-4.5 17.5-1.8 21.9 6l20.4 36.6c2.1 3.7 7.4 3.5 9.1-0.4l50.7-112.8c2.5-5.6 10.9-3.7 10.8 2.5-0.5 34.5-9.7 100.1-64.8 155 0 0-30.4-11.8-54.8-65.6-3.6-7.7-0.7-17 6.7-21.3z"/>
						<path id="&lt;Compound Path&gt;" fill-rule="evenodd" class="s19" d="m1344.9 2879.3q-0.1 0-0.3 0l-103.5-1c-14.8-0.1-27-10.3-28.4-23.7l-9.2-86.9c-0.5-5.1 1.1-10.1 4.5-14.2 3.8-4.5 9.6-7.4 15.9-7.8 8.7-0.6 21-1.6 34-2.8 27.4-2.3 61.5-5.2 80.7-5.4q0.2 0 0.4 0c13.6 0 25.3 8.3 28.6 20.3 5.4 19.9 4.9 57.7 3.9 97.9-0.4 13.1-12.2 23.6-26.6 23.6zm-120.5-125.7c-4.1 0.3-7.9 2.1-10.3 5-2 2.4-2.9 5.4-2.6 8.3l9.1 86.9c0.9 9.3 9.8 16.5 20.5 16.6l103.6 0.9q0.1 0 0.2 0c10.1 0 18.4-7 18.6-15.8 1-39.6 1.5-76.7-3.6-95.7-2.3-8.4-11.3-14.6-21.2-14.4-18.9 0.3-52.9 3.1-80.1 5.5-13.1 1.1-25.4 2.1-34.2 2.7z"/>
						<path id="&lt;Path&gt;" class="s29" d="m1235.5 2762.6c21.8-1.5 69.1-6.3 91.5-6.6 9.5-0.1 17.9 5.7 20.1 13.9 4.3 16 3.8 47.9 3 77.4-0.2 8.8-8.3 15.8-18.2 15.7l-82.8-0.8c-10.2-0.1-18.6-7-19.6-16.1l-7.2-69.4c-0.8-7.2 5.2-13.5 13.2-14.1z"/>
						<path id="&lt;Path&gt;" class="s30" d="m1460.9 2789.3l958.4 4.4c10.5 0 19.1 8.5 19.3 19 0.3 10.9-8.4 19.8-19.2 19.9l-958.4 8.2c-11.8 0.1-22.1-7.8-25.1-19.2-4.3-16.4 8.1-32.4 25-32.3z"/>
						<path id="&lt;Path&gt;" class="s31" d="m1240 2776.2c7.6-4.5 17.5-1.8 21.9 6l20.4 36.6c2.1 3.7 7.4 3.5 9.1-0.4l50.7-112.8c2.5-5.6 10.9-3.7 10.8 2.5-0.5 34.5-9.7 100.1-64.8 155 0 0-30.4-11.8-54.8-65.6-3.6-7.7-0.7-17 6.7-21.3z"/>
					</g>
				</g>
				<path id="&lt;Compound Path&gt;" fill-rule="evenodd" class="s32" d="m1846.2 693.7l-164.8-14.7-13.8-151.1c-2.8-30.5 16.2-58.7 45.5-67.4 32.1-9.5 77.7-10.2 130.2 26.3 102.9 71.6 2.9 206.9 2.9 206.9zm-34.3-126c0-22.7-18.4-41.1-41.1-41.1-22.7 0-41.1 18.4-41.1 41.1 0 22.7 18.4 41.1 41.1 41.1 22.7 0 41.1-18.4 41.1-41.1z"/>
				<g id="&lt;Group&gt;">
					<path id="&lt;Compound Path&gt;" class="s2" d="m1697.9 615.4c-2 0-3.8-1.5-4-3.6l-2.2-24.1c-0.2-2.1 1.5-4.1 3.6-4.3 2.3-0.2 4.2 1.4 4.4 3.6l2.2 24.1c0.2 2.2-1.4 4.1-3.6 4.3q-0.2 0-0.4 0zm-4.3-47.1c-2.1 0-3.8-1.6-4-3.7l-1.7-18.2c-2.6-29 15.6-56 43.4-64.2 19.7-5.8 39.9-6.6 60.2-2.5 2.2 0.5 3.6 2.6 3.1 4.7-0.4 2.2-2.5 3.6-4.7 3.1-19-3.9-37.9-3.1-56.4 2.3-24.1 7.2-39.9 30.6-37.6 55.8l1.6 18.3c0.2 2.2-1.4 4.1-3.6 4.3q-0.1 0.1-0.3 0.1z"/>
				</g>
				<path id="&lt;Path&gt;" class="s33" d="m1456.5 776.7v-76c0-26.2 21.8-47.2 48-46.3l524 17.9c23.2 0.8 42.1 19.2 43.5 42.4l4.3 73z"/>
				<path id="&lt;Path&gt;" class="s2" d="m1651.9 683h-22.5c-2.2 0-4-1.8-4-4 0-2.2 1.8-4 4-4h22.5c2.2 0 4 1.8 4 4 0 2.2-1.8 4-4 4z"/>
				<path id="&lt;Path&gt;" class="s2" d="m1484.9 752.9c-2.2 0-4-1.8-4-4v-30.8c0-23.7 19.3-43.1 43.1-43.1h82.8c2.2 0 4 1.8 4 4 0 2.2-1.8 4-4 4h-82.8c-19.4 0-35.1 15.8-35.1 35.1v30.8c0 2.2-1.8 4-4 4z"/>
				<path id="&lt;Path&gt;" class="s34" d="m1243 795.9c1.3-26.3 23-47 49.3-47h916.3c33 0 61.2 23.7 66.8 56.2l0.8 4.4c6.1 35.6-21.3 68.1-57.4 68.1h-940c-21.6 0-38.9-18-37.8-39.6z"/>
			</g>
			<g id="&lt;Group&gt;">
				<g id="&lt;Group&gt;">
					<path id="&lt;Path&gt;" class="s35" d="m2649.7 2033.3c0 0 32.5 16.3 38.3 34.6 4.6 14.7 40.7 17 44 45.8 1.6 14.9 12.5 26.9 27.3 29.4 36.8 6.1 93.4 25.8 101.8 90 6.4 48.9-18.7 67.2-45 73.3-19.2 4.5-32.2 23-28.5 42.5 3.5 18.6-2.3 40.1-34.7 56.7-72.7 37.3-143.3-91.9-143.3-91.9l-12.3-224.3z"/>
					<path id="&lt;Path&gt;" class="s36" d="m2311.1 1911.3c0 0 90.1 254.3 247.5 335.3 0 0-53.7 85.4-81.2 90.3 0 0-166.7-218.4-181.9-395.9z"/>
					<path id="&lt;Path&gt;" class="s37" d="m2943.8 3427.5l42.6 0.5c12.3 13.2 20.7 35.5 25.2 50.4 2.5 8.2-3.1 16.7-11.6 17.5-19.3 1.8-39.1 0.2-51.4-1.4-7.2-0.9-12.9-6.7-13.7-14l-4.3-38.5c-0.8-7.8 5.4-14.6 13.2-14.5z"/>
					<path id="&lt;Path&gt;" class="s38" d="m2652 3023.4l21.5 41.6c7.4 14.3 10.5 30.5 9 46.5l-25.9 273 17.2 24.2-2.3 12.9-107.1 61.7 42.6-67.6c8.2-12.9 12.3-28 11.8-43.3-3.2-97.6-24.5-341.9-24.5-341.9l7.7-42.2z"/>
					<path id="&lt;Path&gt;" class="s39" d="m2555.8 3475.2c7.2-1.2 13.8-0.2 13.8-0.2 0 0 54.1-37.2 71.8-47.6 17.6-10.3 21.1-34.2 21.1-34.2 14 7.5 21.6 23.2 18.9 38.8l-10.7 62.3-7.9-0.1c0 0 2.4-50.2-11.8-49.4-10.5 0.6-32.7 27.2-43.5 40.8-3.9 5-9.9 7.9-16.3 7.8l-33.9-0.4c-10.9-0.1-12.3-16-1.5-17.8z"/>
					<path id="&lt;Path&gt;" class="s40" d="m2820.1 3010.9c58.4 45.6 73.1 94.7 86.1 139.9 13 45.1 36.2 175 47.3 203.7 9.3 24 34.6 77.1 42.6 93.7 2.2 4.7 2 10.2-0.7 14.6-3.3 5.1-9.9 10.4-23.2 10.3-25.9-0.3-35.2-7.7-35.6-15.2-0.2-4.8-7.5-55.9-29.3-117.3-21.7-61.3-159.8-330.6-159.8-330.6 32.7-39.1 72.6 0.9 72.6 0.9z"/>
					<path id="&lt;Path&gt;" class="s41" d="m2536.8 2581.4c0 0-62.2-170-68.8-204-11.4-58 90.6-130.8 90.6-130.8 0 0 105.7 26.6 163.3 83.1 0 0-93.2 86.2-58.6 240.8-67.6 39.6-126.5 10.9-126.5 10.9z"/>
					<path id="&lt;Path&gt;" class="s42" d="m2824.6 3014.7c0 0-139.9 35.2-230.3 15.8 0 0-54.1-303.9-62.7-351.2-8.7-47.3 5.2-97.9 5.2-97.9 0 0 58.9 28.7 126.5-10.9 0 0 65.6 32.5 79.9 77.3 14.3 44.7 24.8 263.7 81.4 366.9z"/>
					<path id="&lt;Path&gt;" class="s43" d="m2625.9 2145.4l28.1 133.2c2.7 11.8-8 9.8-19.8 7.4-19.3-3.9-44.2-11.7-52.4-26.9-0.8-1.5-1.2-3.3-1.5-5l-11.6-92.3c-1-7.3 3.1-14.4 9.8-17.3l24.7-10.6c9.5-4.1 20.4 1.4 22.7 11.5z"/>
					<g id="&lt;Group&gt;">
						<path id="&lt;Path&gt;" class="s44" d="m2639.9 2131.7c-35.7 32.3-69.2 32.4-91.5 28.9-22.3-3.4-39.8-27-15.4-77.4 24.4-50.3 59.6-64.7 59.6-64.7 45.7-17.1 83 80.9 47.3 113.2z"/>
						<path id="&lt;Path&gt;" class="s45" d="m2616.4 2104.4c0 0 27.3-73.8-38.4-75.4l-15.5 10.6c0 0-23.7-41.3 16.1-60.5 39.8-19.2 85.9-2.5 102.1 51 16.3 53.5 18.7 89.2-9.6 114.4-28.3 25.2-39.5-3.9-39.5-3.9 0 0 15.5-23.6 9.5-36.5-6.1-12.8-20.6 2.4-20.6 2.4z"/>
						<path id="&lt;Path&gt;" class="s46" d="m2623.7 2112.7c0 0 13.8-38 31.5-22.6 17.6 15.4-14.9 35.1-27.6 41.4z"/>
					</g>
					<g id="&lt;Group&gt;">
						<path id="&lt;Path&gt;" class="s47" d="m2274.4 1940.8c-5.9-8.6-12.1-19.5-16.6-28-4.6-8.3-5.9-18.1-3.4-27.3 3.3-12 10.1-20.4 15.7-30.3 0 0 29.7 2.8 57.4 41.4 5.2 7.3-0.6 45.1-1.1 53.9-9.8 18.3-26.2 11.3-24.7 6.8 0 0-16.2-0.3-27.3-16.5z"/>
					</g>
					<path id="&lt;Path&gt;" class="s48" d="m2737.8 2370.9c0 0-274.4 327.5-472.4-51.1 0 0-3.8-9.7-1.2-23.6 1.3-7-3.1-31.9-5.5-44.6-0.7-4.1 2.2-7.9 6.4-8.3 3.2-0.3 6.4 1.1 8.4 3.7l36.4 47.5c2.6 9.3-1.9 19.2-10.7 23.3-5.7 2.6-7.5 9.6-3.8 14.6 151.5 203.3 411.2-15 415.9-12.3 16.6 9.4 35.8 19.8 26.5 50.8z"/>
				</g>
				<g id="&lt;Group&gt;">
					<path id="&lt;Path&gt;" class="s49" d="m2102.3 2148.6c0.3-3.4 3.7-6.3 9.5-8.6-6.3-3.5-9.8-7.2-9.5-10.9 0.9-11 36-17.2 78.3-13.8 42.4 3.4 76 15.1 75.1 26.2-0.2 3.4-3.7 6.3-9.5 8.6 6.3 3.5 9.8 7.2 9.5 10.9-0.2 3.3-3.7 6.2-9.5 8.6 6.3 3.4 9.8 7.2 9.5 10.8-0.2 3.4-3.7 6.3-9.5 8.6 6.3 3.5 9.8 7.2 9.5 10.9-0.4 4.9-7.5 8.8-18.9 11.4 0.2 3.6 0.1 7.6-0.3 12-1.6 20.4-24.6 36.4-54.9 36.4-30.4 0-56.7-21.8-57-42.3 0-5 0.2-9.4 0.6-13.3-14.5-4.9-23.3-10.8-22.9-16.6 0.3-3.3 3.7-6.2 9.5-8.6-6.3-3.4-9.8-7.2-9.5-10.8 0.3-3.4 3.7-6.3 9.5-8.6-6.3-3.5-9.8-7.2-9.5-10.9z"/>
					<g id="&lt;Group&gt;">
						<path id="&lt;Path&gt;" class="s1" d="m2177.3 2214.8c-17.5-1.4-33.8-4.3-47.3-8.2-0.6-0.1-0.9-0.7-0.7-1.2 0.1-0.6 0.7-0.9 1.2-0.7 13.4 3.9 29.6 6.7 47 8.1 21.2 1.7 41.1 1 56-1.8 0.5-0.1 1 0.2 1.1 0.8 0.2 0.5-0.2 1.1-0.8 1.2-9.5 1.8-21 2.7-33.6 2.7-7.3 0-15-0.3-22.9-0.9z"/>
						<path id="&lt;Path&gt;" class="s1" d="m2177.3 2195.3c-24.9-2-48.1-7.1-62.2-13.5-0.5-0.3-0.7-0.9-0.5-1.4 0.3-0.5 0.9-0.7 1.4-0.5 13.8 6.4 36.8 11.4 61.5 13.4 24.9 2 48.5 0.7 63.2-3.5 0.6-0.1 1.1 0.2 1.3 0.7 0.1 0.6-0.2 1.1-0.7 1.3-10.3 2.9-24.9 4.4-41.3 4.4-7.3 0-14.9-0.3-22.7-0.9z"/>
						<path id="&lt;Path&gt;" class="s1" d="m2177.3 2175.8c-24.9-2-48.1-7-62.2-13.5-0.5-0.2-0.7-0.9-0.5-1.4 0.3-0.5 0.9-0.7 1.4-0.5 13.9 6.4 36.8 11.4 61.5 13.4 26.6 2.2 51.1 0.6 65.6-4.2 0.5-0.1 1.1 0.1 1.3 0.7 0.1 0.5-0.1 1.1-0.7 1.3-10.4 3.4-25.8 5.2-43.5 5.2-7.3 0-15-0.3-22.9-1z"/>
						<path id="&lt;Path&gt;" class="s1" d="m2177.3 2156.4c-24.6-2-47.8-7-61.8-13.4-0.5-0.3-0.8-0.9-0.5-1.4 0.2-0.5 0.8-0.7 1.3-0.5 13.9 6.3 36.8 11.3 61.2 13.3 22.5 1.8 43.9 0.9 58.8-2.4 0.5-0.1 1.1 0.2 1.2 0.8 0.1 0.5-0.2 1.1-0.8 1.2-9.9 2.2-22.6 3.3-36.6 3.3-7.3 0-15-0.3-22.8-0.9z"/>
					</g>
					<path id="&lt;Path&gt;" class="s50" d="m2178.3 2147.7c-52-2.5-73.8-43.9-83-77-7.5-27.1-21.4-52-40.8-72.3-30.6-32-71.8-87.8-78.7-161.2-11.2-119.4 91.3-196.7 195.1-205.4 103.9-8.8 217.7 55.5 210.3 183.8-5 88.2-46.2 152.9-71.4 184.6-11.8 14.9-20.5 31.9-25.6 50.1-10.8 38-38.7 100.6-105.9 97.4z"/>
					<path id="&lt;Path&gt;" class="s51" d="m2160.2 2125.8c-0.8 0.4-1.7-0.7-2-2.5l-41.4-234.1c0-0.1 0-0.3 0-0.4-0.8-4.9 0.4-9.5 2.6-10.4 2.2-0.8 4.6 2.5 5.4 7.3l36.3 236.4c0.3 1.7-0.1 3.3-0.9 3.7z"/>
					<path id="&lt;Path&gt;" class="s52" d="m2198.8 2124l36.4-236.4c0.7-4.9 3.1-8.1 5.3-7.3 2.2 0.8 3.4 5.5 2.7 10.4 0 0.1-0.1 0.2-0.1 0.4l-41.4 234.1c-0.3 1.8-1.2 2.9-2 2.5-0.7-0.4-1.1-2-0.9-3.7z"/>
					<path id="&lt;Path&gt;" class="s53" d="m2125 1865.5c1-1.5 3.1-2.1 4.8-1.3l20.2 9.5 7.1-20c0.3-1.1 1.2-2 2.4-2.5 2.3-1 5.1-0.1 6.2 1.9l0.1 0.1 16.6 30.3 15.5-43.2v-0.1c0.4-1 1.2-2 2.3-2.6 2.6-1.4 6-0.7 7.7 1.5l23.2 32c1 1.3 0.6 3.1-0.8 4.1-1.5 1-3.8 0.8-4.9-0.6l-20.5-22.8-18.5 41.1c-0.3 0.7-0.8 1.2-1.6 1.6-1.7 0.8-3.9 0.3-4.8-1.2l-17.8-28.6-6.7 14.4-0.1 0.2q-0.1 0.1-0.2 0.3c-0.9 1.5-3 2-4.7 1.2l-24-11.2c-1.7-0.8-2.4-2.7-1.5-4.1z"/>
					<path id="&lt;Path&gt;" class="s53" d="m2048.4 1967.2c-6.4-8.7-12.3-17.7-17.5-26.7-1.8-3.1-0.7-7.1 2.4-8.9 3.1-1.8 7.1-0.7 8.9 2.4 4.9 8.6 10.6 17.1 16.7 25.4 2.1 2.9 1.5 7-1.3 9.1-1.2 0.9-2.6 1.3-3.9 1.3-2 0-4-0.9-5.3-2.6z"/>
					<path id="&lt;Path&gt;" class="s53" d="m2017.8 1914.6c-40.3-93-6.3-169.3-4.8-172.5 1.5-3.3 5.3-4.7 8.6-3.2 3.3 1.5 4.7 5.4 3.2 8.6-0.3 0.8-33.1 74.2 5 161.9 1.4 3.3-0.1 7.1-3.4 8.5q-1.3 0.6-2.6 0.6c-2.5 0-4.9-1.5-6-3.9z"/>
				</g>
			</g>
		</g>
		<g id="&lt;Group&gt;">
			<path id="&lt;Path&gt;" class="s54" d="m3159.6-1546.6c-286.3 660.9-1041.9 944.7-1634 896.3-161.7-13.2-486.9-39.8-740.9-277-487.7-455.5-412.6-1407.7 54.3-1968.2 60.1-72.2 476.3-555.9 1124.8-549.4 474.9 4.7 808.1 269.6 848.7 302.6 51.1 41.7 164.1 140.8 265.8 297.9 239.1 369.3 260.1 884.9 81.3 1297.8z"/>
			<g id="&lt;Group&gt;">
				<path id="&lt;Path&gt;" class="s55" d="m546-1777c-56.6 20.6-115.8-22.7-114-82.9 24.6-811.5 651.8-1430 1389.5-1441.7 738.2-11.8 1439.4 635 1435 1440.1-0.3 58.3-60.3 97.2-113.8 74l-236.6-102.5c-37.5-16.3-63.3-51.4-67.7-92.1-54.8-508-489.1-899.7-1010.1-891.4-542.9 8.7-977.9 448.5-983.9 988.2z"/>
				<path id="&lt;Path&gt;" class="s19" d="m1828.3-2844.1c-16 0-29.1-12.9-29.3-28.9l-6.9-428.2c-0.2-16.2 12.7-29.5 28.9-29.8 16.2-0.1 29.6 12.7 29.8 28.9l6.9 428.2c0.2 16.2-12.7 29.5-28.9 29.8q-0.3 0-0.5 0z"/>
				<path id="&lt;Path&gt;" class="s19" d="m2316.5-2725.9c-4 0-8.1-0.8-12-2.6-14.8-6.7-21.4-24-14.7-38.8l175.3-388.8c6.6-14.8 24-21.4 38.8-14.7 14.8 6.6 21.4 24 14.7 38.8l-175.3 388.8c-4.9 10.9-15.6 17.3-26.8 17.3z"/>
				<path id="&lt;Path&gt;" class="s19" d="m2672.5-2404.8c-10.5 0-20.6-5.6-25.9-15.4-7.7-14.3-2.3-32.1 11.9-39.8l369.3-199.2c14.3-7.7 32.1-2.4 39.8 11.9 7.7 14.3 2.4 32.1-11.9 39.8l-369.3 199.2c-4.4 2.3-9.2 3.5-13.9 3.5z"/>
				<path id="&lt;Path&gt;" class="s19" d="m1267-2666.2c-8.7 0-17.2-3.8-23-11.1l-265.7-333.6c-10.1-12.7-8-31.2 4.6-41.3 12.7-10.1 31.2-8 41.3 4.7l265.7 333.6c10.1 12.7 8 31.2-4.7 41.3-5.4 4.3-11.8 6.4-18.2 6.4z"/>
				<path id="&lt;Path&gt;" class="s19" d="m980.9-2365.9q-3.5 0-7.1-0.9l-407-102c-15.7-4-25.3-19.9-21.3-35.7 3.9-15.7 19.9-25.2 35.6-21.3l407 102c15.7 4 25.2 19.9 21.3 35.6-3.3 13.4-15.3 22.3-28.5 22.3z"/>
				<path id="&lt;Path&gt;" class="s1" d="m1796.8-1934.6l1057.8-864.1c7.7-5.9 15.2 2.9 8 9.5l-987.7 903.8z"/>
				<path id="&lt;Path&gt;" class="s1" d="m1921.2-1910.3c0 40.9-33.1 74-74 74-40.9 0-74.1-33.1-74.1-74 0-40.9 33.2-74.1 74.1-74.1 40.9 0 74 33.2 74 74.1z"/>
			</g>
			<g id="&lt;Group&gt;">
				<path id="&lt;Path&gt;" class="s1" d="m457.9-2234c-5.8-10.6 8-22.6 20-17.5 122 52.5 361 268.8 509.8 684.9 129.7 362.5 437.2 113.6 426.9 758 0 0-233.5 6.2-425.9-150.6-472.3-385.2-426.4-1086.5-530.8-1274.8z"/>
				<path id="&lt;Path&gt;" class="s2" d="m581.8-2094.7c1.8-0.9 4-0.4 5 1.2 31.9 54 61.5 109.3 89.2 165.4 27.5 56.2 52.9 113.3 76.2 171.3q8.7 21.7 17 43.6c5.5 14.7 10.9 29.3 16 44q15.6 44.2 29.4 88.9c18.5 59.6 34.2 120.1 49.4 180.4 15 60.3 29.7 120.5 51.1 178 10.7 28.8 23.3 56.7 38.2 83.5 15 26.7 32.4 52.2 51.9 76.3 39.7 47.7 86.6 91.4 140 127.4 26.6 18.1 54.8 34.4 84.4 48.7 7.4 3.8 15 7 22.5 10.5 7.6 3.2 15.2 6.6 22.9 9.7 15.4 6.3 31.2 12 47.1 17.6 6.7 2.4 9.7 9.2 6.7 15.4-3.1 6.3-11.2 9.6-18.1 7.4-66.2-21.2-129.1-50.5-184.9-87.8-27.9-18.7-53.9-39.4-78.2-61.5-12-11.2-23.9-22.5-35-34.3-11.5-11.6-22.1-23.9-32.5-36.4-41.4-50.1-71.4-107.5-92.8-166.8-21.5-59.4-35.8-120.4-50.3-180.8-14.2-60.6-28.5-120.9-45.9-180.3-17-59.6-37-118.3-58.2-176.6-21.5-58.2-45.1-115.7-70.7-172.4-25.3-56.8-53.1-112.7-82.1-168-0.8-1.5-0.1-3.5 1.7-4.4z"/>
			</g>
			<g id="&lt;Group&gt;">
				<g id="&lt;Group&gt;">
					<path id="&lt;Path&gt;" class="s2" d="m1196.3-1079.9c-5.5 18.4-28 25.2-42.9 13.1-82.2-66.7-297.7-276.4-298-641.9-0.3-308.7-29.8-476-48.5-551.1-3.9-15.8 14.7-27.5 27.3-17.1 139 115 562.2 531 362.1 1197z"/>
					<path id="&lt;Path&gt;" class="s56" d="m1170.4-1078.3q-0.6 0.4-1.2 0.8c-3.8 1.8-8.2 0.2-10-3.5-2.1-4.3-203.7-427.6-223.5-856.8-0.2-4.1 3-7.6 7.1-7.8 4.2-0.2 7.7 3 7.9 7.1 19.6 426.1 219.9 846.8 222 851 1.5 3.2 0.5 7.1-2.3 9.2z"/>
				</g>
			</g>
			<g id="&lt;Group&gt;">
				<g id="&lt;Group&gt;">
					<path id="&lt;Compound Path&gt;" fill-rule="evenodd" class="s57" d="m976.6-1178.1l49-58.5c13.2-15.8 17.6-37.1 12.3-57-13.5-50.1-21-101-22.8-151.8-0.7-20.7-11.2-39.7-28.5-51l-64-41.5c-27-17.5-39.9-50.2-32.2-81.4l23.2-93.2c7.8-31.3 34.5-54.1 66.5-57l76-6.7c20.6-1.8 38.8-13.8 49.1-31.7 25.3-44.1 55.8-85.6 91.2-123.5 14-15.1 20.1-36 15.8-56.1l-15.9-74.6c-6.7-31.5 7.3-63.7 34.9-80.3l82.3-49.5c27.5-16.6 62.6-13.9 87.3 6.8l58.4 48.9c15.8 13.2 37.1 17.7 57 12.3 50.1-13.5 101-21 151.9-22.8 20.6-0.7 39.7-11.1 50.9-28.5l41.6-64c17.5-27 50.2-39.9 81.4-32.1l93.2 23.2c31.2 7.7 54.1 34.4 56.9 66.5l6.7 76c1.9 20.6 13.8 38.7 31.7 49 44.1 25.4 85.6 55.9 123.6 91.2 15 14.1 35.9 20.1 56.1 15.8l74.5-15.8c31.5-6.7 63.7 7.3 80.3 34.8l49.6 82.3c16.5 27.6 13.8 62.6-6.8 87.3l-49 58.5c-13.2 15.8-17.6 37-12.3 56.9 13.5 50.1 21 101.1 22.8 151.9 0.7 20.6 11.2 39.7 28.5 50.9l64 41.6c27 17.5 39.9 50.2 32.1 81.4l-23.1 93.2c-7.8 31.3-34.5 54.1-66.5 57l-76.1 6.7c-20.5 1.8-38.7 13.8-49 31.7-25.3 44-55.8 85.6-91.2 123.5-14.1 15.1-20.1 35.9-15.8 56.1l15.9 74.6c6.7 31.4-7.3 63.7-34.9 80.3l-82.3 49.5c-27.5 16.6-62.6 13.9-87.3-6.8l-58.4-48.9c-15.8-13.3-37.1-17.7-57-12.3-50.1 13.5-101 21-151.9 22.7-20.6 0.8-39.7 11.2-50.9 28.5l-41.6 64.1c-17.5 26.9-50.2 39.9-81.4 32.1l-93.2-23.2c-31.2-7.7-54.1-34.4-56.9-66.5l-6.8-76c-1.8-20.6-13.7-38.8-31.6-49-44.1-25.4-85.6-55.9-123.6-91.3-15-14-35.9-20.1-56.1-15.8l-74.5 15.9c-31.5 6.7-63.8-7.3-80.3-34.9l-49.6-82.2c-16.6-27.6-13.8-62.6 6.8-87.3zm954.1 214c279.1-131.7 398.6-464.8 266.9-743.9-131.7-279.2-464.7-398.7-743.9-267-279.1 131.7-398.6 464.8-266.9 743.9 131.7 279.2 464.7 398.7 743.9 267z"/>
				</g>
				<g id="&lt;Clip Group&gt;" clip-path="url(#cp1)">
					<g id="&lt;Group&gt;">
						<path id="&lt;Path&gt;" class="s58" d="m1813.4 387.7l266.7 125.7c6.7 3.1 11.8 8.7 14.5 15.5 3.1 8.2-2.7 17.1-11.4 17.4-58.2 2-220.4-5.7-296.2-9.5-22.3-1.2-39.3-20.7-37.1-42.9 5.5-56.9 16.2-114.3 16.2-114.3z"/>
						<path id="&lt;Path&gt;" class="s59" d="m1825.9 335.7l18.7 76.9c-32.2 24.3-79 2-79 2l-7.5-68.9z"/>
						<path id="&lt;Path&gt;" class="s60" d="m1517.9 410.5c32.6 36.3 42.8 82.6 46 110.8 1.5 14.2-9.7 26.5-23.9 26.4-30.9-0.1-69.4-3.6-94.4-6.3-14.2-1.5-23.8-14.9-20.8-28.9 16.4-77 32.8-105.9 32.8-105.9z"/>
						<path id="&lt;Path&gt;" class="s61" d="m1510.4 314.6l8.1 112c-37.4 9.9-56.2-4.4-56.2-4.4l-18-104.2z"/>
						<g id="&lt;Group&gt;">
							<path id="&lt;Path&gt;" class="s62" d="m2137.6-1833.6c11.4 50.9 38 137 95.6 205-76.7 42.2-169.7 73.8-282.3 86.7 0 0-142.7 469.6-173.9 636.7 0 0-201.8 73.4-379.6 25 0 0-52.2-462.4 20.3-862.1 0 0 254.6-61.9 484.7-55.9 71 1.9 153.5-10.8 235.2-35.4z"/>
							<path id="&lt;Path&gt;" class="s63" d="m2233.2-1628.6c-57.6-68-84.2-154.1-95.6-205 183-54.9 361.7-169.3 397-312 0 0 28.7-12.7 51.1 14.8 0 0-48 334.8-352.5 502.2z"/>
						</g>
						<g id="&lt;Group&gt;">
							<path id="&lt;Path&gt;" class="s64" d="m2580.1-2123.9c2.3 7.6-25.2 18.8-41-12.1-0.5-14.8-8.8-78.1 0.1-90 47.5-63.5 139.3-142.8 139.3-142.8 15.2 15.3 2.4 30.1 2.4 30.1l-44.6 45.5c9.1 16.8 20.2 31 25.3 51.2 3.9 15.3 1.3 31.6-6.6 45.5-7.9 13.8-18.6 31.9-28.7 46-19.2 26.7-46.2 26.6-46.2 26.6z"/>
							<path id="&lt;Path&gt;" class="s65" d="m2620.5-2237.6c-9.1 14.5-21.8 81.7-21.8 81.7l-35.5-40.1 13-33.8 40.5-33.7c8.3 4.3 12.9 11.4 3.8 25.9z"/>
						</g>
						<path id="&lt;Path&gt;" class="s66" d="m1350.6-1361.5c-72.1-37.2-145.9-48.5-186.5-51.9 37.1-184.9 253.6-328.9 253.6-328.9l86.1 223.7c0 0-136.5 69.8-153.2 157.1z"/>
						<path id="&lt;Path&gt;" class="s67" d="m1721.1-1247.2c0 0-390.7 271.7-530.9 9.4-32.2-60.4-37.3-119.8-26.1-175.6 40.6 3.4 114.4 14.7 186.5 51.9-4.4 22.9-0.6 47 16.1 71.3 80.3 117.3 323-16.8 323-16.8z"/>
						<path id="&lt;Path&gt;" class="s68" d="m1820.1-1985.9l-25.4 183.2c-1.5 10.5-7.7 19.8-16.8 25.5-87.2 54.1-158.9 21.5-178.7 10.3-3.3-1.8-4.7-5.7-3.4-9.2l75.2-211.2z"/>
						<g id="&lt;Group&gt;">
							<path id="&lt;Path&gt;" class="s69" d="m1832.3-2181.9c0 0 79 152.2 68.1 213.2-10.9 61.1-110.5 55.7-197.1 5.2l-59.3-164z"/>
							<path id="&lt;Path&gt;" class="s70" d="m1696.5-2038.8c-2.9 1.3-4.5 4.6-3.4 7.7l22.1 66.5c1.5 4.4-2.1 8.8-6.6 8.3-52.7-6.7-100.8-57.9-111.5-69.9-1.4-1.6-3.5-2.3-5.6-2.1-12.6 1.7-56.8 4.8-58.7-34.8-1.3-28.6 14.6-38.9 26.9-42.5 4.5-1.3 6-6.9 2.7-10.3-10-10.5-21-32-3.5-69.5 21.3-45.6 65.9-42.1 84.5-38.4 3.9 0.8 7.5-2.3 7.4-6.3-0.4-13.5 4-40.4 40.9-56.6 39.5-17.3 67.5 12.1 78.1 26.2 2.5 3.3 7.4 3.3 9.9 0 66.5-84.6 106.7 22.8 90.6 65.2-16.5 43.5-93.1 61.8-144.5 73.6-51.4 11.8-37 21.2-37 21.2 3.7 17.6 15.6 37.8 21.9 47.7 2.1 3.2 0.7 7.6-2.8 9.1z"/>
							<path id="&lt;Path&gt;" class="s71" d="m1734.4-2004.7c-27.7 12.1-83.3-3.3-78.8-36.3 4.5-33.1 61.4 6.8 61.4 6.8z"/>
						</g>
						<g id="&lt;Group&gt;">
							<g id="&lt;Group&gt;">
								<path id="&lt;Path&gt;" class="s72" d="m1640.1-1095l132.2-461.8c1.6-5.2 6-9.1 11.4-9.7 24-2.8 93.4-10.6 173.6-17.4 96.5-8.2 208.6-14.8 275.6-9.2 9.5 0.8 15.3 10.9 11.1 19.5-38.1 77-194.9 390.6-273.3 493.3-2.6 3.4-6.6 5.4-10.9 5.3l-306.8-2.8c-8.9-0.1-15.3-8.7-12.9-17.2z"/>
								<path id="&lt;Path&gt;" class="s73" d="m1672.1-1206.6c0 0-18.4-75.7-11-102.6 7.4-26.9 21.8-61.4 69.8-53.8 48 7.7 104.6 27.9 104.6 27.9 0 0-2.9 35-39.4 23.7l22.7 17.5c0 0-3.3 28.1-34.1 13.1l21.1 23.2c0 0-13.3 23-35.9 8.3-22.7-14.8-33.6 51.8-97.8 42.7z"/>
							</g>
							<path id="&lt;Path&gt;" class="s1" d="m1987.3-1484.9c21.4 0 38.8 17.4 38.8 38.8 0 21.5-17.4 38.8-38.8 38.8-21.5 0-38.9-17.3-38.9-38.8 0-21.4 17.4-38.8 38.9-38.8z"/>
							<path id="&lt;Path&gt;" class="s1" d="m1777.4-1423.4l26.9-91.3c4.4-14.9 16.4-26.1 31.4-29.2 85.3-17.8 310-21.4 319.5-21.6l0.2 10.3c-2.3 0.1-233.3 3.8-317.6 21.4-11.2 2.4-20.3 10.8-23.6 22l-26.9 91.3z"/>
						</g>
					</g>
				</g>
			</g>
		</g>
	</g>
</svg>