<svg version="1.2" xmlns="http://www.w3.org/2000/svg" viewBox="0 0 3710 3710" width="3710" height="3710">
	<title>20944095-ai</title>
	<defs>
		<linearGradient id="g1" x1="2460.4" y1="4793.1" x2="102.9" y2="1865.2" gradientUnits="userSpaceOnUse">
			<stop offset="0" stop-color="#dae3fe"/>
			<stop offset="1" stop-color="#e9effd"/>
		</linearGradient>
		<linearGradient id="g2" x1="3302.8" y1="1210.8" x2="2844.4" y2="3044.6" gradientUnits="userSpaceOnUse">
			<stop offset="0" stop-color="#4f52ff"/>
			<stop offset="1" stop-color="#4042e2"/>
		</linearGradient>
		<clipPath clipPathUnits="userSpaceOnUse" id="cp1">
			<path d="m1814.67 1202.82c0 151.56-122.86 274.42-274.42 274.42-151.56 0-274.42-122.86-274.42-274.42 0-151.56 122.86-274.43 274.42-274.43 151.56 0 274.42 122.87 274.42 274.43z"/>
		</clipPath>
		<linearGradient id="g3" x1="1651.5" y1="987.4" x2="1623.2" y2="1444.7" gradientUnits="userSpaceOnUse">
			<stop offset="0" stop-color="#09005d"/>
			<stop offset="1" stop-color="#1a0f91"/>
		</linearGradient>
		<linearGradient id="g4" x1="1540.6" y1="986.2" x2="1513.7" y2="1420.1" gradientUnits="userSpaceOnUse">
			<stop offset="0" stop-color="#09005d"/>
			<stop offset="1" stop-color="#1a0f91"/>
		</linearGradient>
		<linearGradient id="g5" x1="1769.4" y1="998.7" x2="1742.7" y2="1430.5" gradientUnits="userSpaceOnUse">
			<stop offset="0" stop-color="#09005d"/>
			<stop offset="1" stop-color="#1a0f91"/>
		</linearGradient>
		<linearGradient id="g6" x1="1642.6" y1="1267.7" x2="1606.3" y2="1310.2" gradientUnits="userSpaceOnUse">
			<stop offset="0" stop-color="#cb236d"/>
			<stop offset="1" stop-color="#4c246d"/>
		</linearGradient>
		<linearGradient id="g7" x1="1448.2" y1="1145.6" x2="1517.2" y2="925" gradientUnits="userSpaceOnUse">
			<stop offset="0" stop-color="#febbba"/>
			<stop offset="1" stop-color="#ff928e"/>
		</linearGradient>
		<linearGradient id="g8" x1="1564.5" y1="1178.1" x2="1625.2" y2="984.4" gradientUnits="userSpaceOnUse">
			<stop offset="0" stop-color="#febbba"/>
			<stop offset="1" stop-color="#ff928e"/>
		</linearGradient>
		<linearGradient id="g9" x1="1716.8" y1="1282.3" x2="1854.6" y2="1016.8" gradientUnits="userSpaceOnUse">
			<stop offset="0" stop-color="#fe7062"/>
			<stop offset="1" stop-color="#ff928e"/>
		</linearGradient>
		<linearGradient id="g10" x1="1473.4" y1="1150.9" x2="1607.6" y2="892.4" gradientUnits="userSpaceOnUse">
			<stop offset="0" stop-color="#fe7062"/>
			<stop offset="1" stop-color="#ff928e"/>
		</linearGradient>
		<linearGradient id="g11" x1="1472.4" y1="1391.9" x2="1507.6" y2="1156.4" gradientUnits="userSpaceOnUse">
			<stop offset="0" stop-color="#febbba"/>
			<stop offset="1" stop-color="#ff928e"/>
		</linearGradient>
		<linearGradient id="g12" x1="1413.4" y1="1436.6" x2="1430.3" y2="1323" gradientUnits="userSpaceOnUse">
			<stop offset="0" stop-color="#09005d"/>
			<stop offset="1" stop-color="#1a0f91"/>
		</linearGradient>
		<linearGradient id="g13" x1="1475" y1="1154.4" x2="1612.8" y2="888.9" gradientUnits="userSpaceOnUse">
			<stop offset="0" stop-color="#fe7062"/>
			<stop offset="1" stop-color="#ff928e"/>
		</linearGradient>
		<linearGradient id="g14" x1="1607.4" y1="1223.1" x2="1745.2" y2="957.7" gradientUnits="userSpaceOnUse">
			<stop offset="0" stop-color="#fe7062"/>
			<stop offset="1" stop-color="#ff928e"/>
		</linearGradient>
		<linearGradient id="g15" x1="1463.7" y1="1160" x2="1526.3" y2="960.2" gradientUnits="userSpaceOnUse">
			<stop offset="0" stop-color="#febbba"/>
			<stop offset="1" stop-color="#ff928e"/>
		</linearGradient>
		<linearGradient id="g16" x1="1528.5" y1="971.9" x2="1763" y2="1345.8" gradientUnits="userSpaceOnUse">
			<stop offset="0" stop-color="#09005d"/>
			<stop offset="1" stop-color="#1a0f91"/>
		</linearGradient>
		<linearGradient id="g17" x1="1341.9" y1="1523.4" x2="1245.9" y2="1966.1" gradientUnits="userSpaceOnUse">
			<stop offset="0" stop-color="#fe7062"/>
			<stop offset="1" stop-color="#ff928e"/>
		</linearGradient>
		<linearGradient id="g18" x1="1184.7" y1="2458.5" x2="1815.1" y2="2962.5" gradientUnits="userSpaceOnUse">
			<stop offset="0" stop-color="#4f52ff"/>
			<stop offset="1" stop-color="#4042e2"/>
		</linearGradient>
		<linearGradient id="g19" x1="1699.5" y1="1086.6" x2="1867.5" y2="-10.8" gradientUnits="userSpaceOnUse">
			<stop offset="0" stop-color="#09005d"/>
			<stop offset="1" stop-color="#1a0f91"/>
		</linearGradient>
		<linearGradient id="g20" x1="2220" y1="526.8" x2="2124.9" y2="1458.2" gradientUnits="userSpaceOnUse">
			<stop offset="0" stop-color="#09005d"/>
			<stop offset="1" stop-color="#1a0f91"/>
		</linearGradient>
		<linearGradient id="g21" x1="2518.9" y1="611.7" x2="2064.9" y2="1445.2" gradientUnits="userSpaceOnUse">
			<stop offset="0" stop-color="#4f52ff"/>
			<stop offset="1" stop-color="#4042e2"/>
		</linearGradient>
		<linearGradient id="g22" x1="2782.2" y1="1066.9" x2="2911" y2="1066.9" gradientUnits="userSpaceOnUse">
			<stop offset="0" stop-color="#dae3fe"/>
			<stop offset="1" stop-color="#e9effd"/>
		</linearGradient>
		<linearGradient id="g23" x1="2678.6" y1="968.2" x2="3008.6" y2="968.2" gradientUnits="userSpaceOnUse">
			<stop offset="0" stop-color="#dae3fe"/>
			<stop offset="1" stop-color="#e9effd"/>
		</linearGradient>
		<linearGradient id="g24" x1="2456.5" y1="684.7" x2="2542.5" y2="684.7" gradientUnits="userSpaceOnUse">
			<stop offset="0" stop-color="#dae3fe"/>
			<stop offset="1" stop-color="#e9effd"/>
		</linearGradient>
		<linearGradient id="g25" x1="2387.5" y1="616" x2="2615.1" y2="616" gradientUnits="userSpaceOnUse">
			<stop offset="0" stop-color="#dae3fe"/>
			<stop offset="1" stop-color="#e9effd"/>
		</linearGradient>
		<linearGradient id="g26" x1="2846.8" y1="2693.7" x2="2209.3" y2="2995.6" gradientUnits="userSpaceOnUse">
			<stop offset="0" stop-color="#09005d"/>
			<stop offset="1" stop-color="#1a0f91"/>
		</linearGradient>
		<linearGradient id="g27" x1="1817.7" y1="1839.3" x2="1583.9" y2="1592.8" gradientUnits="userSpaceOnUse">
			<stop offset="0" stop-color="#09005d"/>
			<stop offset="1" stop-color="#1a0f91"/>
		</linearGradient>
		<linearGradient id="g28" x1="1483.6" y1="1608.9" x2="2346.8" y2="2686.3" gradientUnits="userSpaceOnUse">
			<stop offset="0" stop-color="#fe7062"/>
			<stop offset="1" stop-color="#ff928e"/>
		</linearGradient>
		<linearGradient id="g29" x1="2239.3" y1="3134.6" x2="2582" y2="2585.3" gradientUnits="userSpaceOnUse">
			<stop offset="0" stop-color="#febbba"/>
			<stop offset="1" stop-color="#ff928e"/>
		</linearGradient>
		<linearGradient id="g30" x1="2654.6" y1="2560.8" x2="2649.6" y2="3261.4" gradientUnits="userSpaceOnUse">
			<stop offset="0" stop-color="#febbba"/>
			<stop offset="1" stop-color="#ff928e"/>
		</linearGradient>
		<linearGradient id="g31" x1="2709.6" y1="1943.5" x2="2652.8" y2="1943.5" gradientUnits="userSpaceOnUse">
			<stop offset="0" stop-color="#febbba"/>
			<stop offset="1" stop-color="#ff928e"/>
		</linearGradient>
		<linearGradient id="g32" x1="2714.6" y1="3059.6" x2="2614.3" y2="3229.3" gradientUnits="userSpaceOnUse">
			<stop offset="0" stop-color="#09005d"/>
			<stop offset="1" stop-color="#1a0f91"/>
		</linearGradient>
		<linearGradient id="g33" x1="2806" y1="2990" x2="2780.1" y2="3180.4" gradientUnits="userSpaceOnUse">
			<stop offset="0" stop-color="#09005d"/>
			<stop offset="1" stop-color="#1a0f91"/>
		</linearGradient>
		<linearGradient id="g34" x1="2988.7" y1="1971.8" x2="2710.1" y2="2568.7" gradientUnits="userSpaceOnUse">
			<stop offset="0" stop-color="#09005d"/>
			<stop offset="1" stop-color="#1a0f91"/>
		</linearGradient>
		<linearGradient id="g35" x1="2642.2" y1="1789.8" x2="2560.8" y2="1789.8" gradientUnits="userSpaceOnUse">
			<stop offset="0" stop-color="#febbba"/>
			<stop offset="1" stop-color="#ff928e"/>
		</linearGradient>
		<linearGradient id="g36" x1="2381" y1="2065.9" x2="2769.1" y2="2563.8" gradientUnits="userSpaceOnUse">
			<stop offset="0" stop-color="#fe7062"/>
			<stop offset="1" stop-color="#ff928e"/>
		</linearGradient>
		<linearGradient id="g37" x1="2086.7" y1="2054.8" x2="2786" y2="2455.4" gradientUnits="userSpaceOnUse">
			<stop offset="0" stop-color="#febbba"/>
			<stop offset="1" stop-color="#ff928e"/>
		</linearGradient>
		<linearGradient id="g38" x1="2087.8" y1="2052.9" x2="2745.4" y2="2429.6" gradientUnits="userSpaceOnUse">
			<stop offset="0" stop-color="#febbba"/>
			<stop offset="1" stop-color="#ff928e"/>
		</linearGradient>
		<linearGradient id="g39" x1="2680.6" y1="1700.5" x2="2474.7" y2="2030" gradientUnits="userSpaceOnUse">
			<stop offset="0" stop-color="#febbba"/>
			<stop offset="1" stop-color="#ff928e"/>
		</linearGradient>
		<linearGradient id="g40" x1="2964.6" y1="1651" x2="3073.4" y2="2284.4" gradientUnits="userSpaceOnUse">
			<stop offset="0" stop-color="#09005d"/>
			<stop offset="1" stop-color="#1a0f91"/>
		</linearGradient>
	</defs>
	<style>
		.s0 { fill: url(#g1) } 
		.s1 { fill: #91b3fa } 
		.s2 { opacity: .6;fill: #ffffff } 
		.s3 { fill: #7d97f4 } 
		.s4 { fill: url(#g2) } 
		.s5 { fill: #bdd0fb } 
		.s6 { fill: #ffffff } 
		.s7 { fill: url(#g3) } 
		.s8 { fill: url(#g4) } 
		.s9 { fill: url(#g5) } 
		.s10 { fill: url(#g6) } 
		.s11 { fill: url(#g7) } 
		.s12 { fill: url(#g8) } 
		.s13 { fill: url(#g9) } 
		.s14 { fill: url(#g10) } 
		.s15 { fill: url(#g11) } 
		.s16 { fill: url(#g12) } 
		.s17 { fill: url(#g13) } 
		.s18 { fill: url(#g14) } 
		.s19 { fill: url(#g15) } 
		.s20 { fill: url(#g16) } 
		.s21 { fill: url(#g17) } 
		.s22 { fill: url(#g18) } 
		.s23 { fill: url(#g19) } 
		.s24 { fill: url(#g20) } 
		.s25 { fill: url(#g21) } 
		.s26 { fill: url(#g22) } 
		.s27 { fill: url(#g23) } 
		.s28 { fill: url(#g24) } 
		.s29 { fill: url(#g25) } 
		.s30 { fill: url(#g26) } 
		.s31 { fill: url(#g27) } 
		.s32 { fill: url(#g28) } 
		.s33 { fill: url(#g29) } 
		.s34 { fill: url(#g30) } 
		.s35 { fill: url(#g31) } 
		.s36 { fill: url(#g32) } 
		.s37 { fill: url(#g33) } 
		.s38 { fill: url(#g34) } 
		.s39 { fill: url(#g35) } 
		.s40 { fill: url(#g36) } 
		.s41 { fill: url(#g37) } 
		.s42 { fill: url(#g38) } 
		.s43 { fill: url(#g39) } 
		.s44 { fill: url(#g40) } 
	</style>
	<g id="Illustration">
		<g id="&lt;Group&gt;">
			<path id="&lt;Path&gt;" class="s0" d="m2925.1 2846.6c-56.8 59.7-110.6 98.1-153.1 128.5-499.5 357.1-1090.5 253-1216.1 227.6-185.5-37.6-544.1-110.1-803.3-413.9-392.2-459.5-331.1-1183.5-26.9-1661.4 55.6-87.4 349.6-572.6 947-650.4 361.5-47.1 783 47.9 1088.2 302.7 640.6 534.8 595 1615.1 164.2 2066.9z"/>
			<g id="&lt;Group&gt;">
				<g id="&lt;Group&gt;">
					<path id="&lt;Path&gt;" class="s1" d="m1265 2208.2c0 0 9-377-164.7-477.9-173.6-101-503.8-164-516.2-705.4-7.2-317-15.1-455.5-20.3-516-2.1-23.5 18.8-42.6 42.1-38.2 164.5 31 698.7 158.5 810.8 523.2 132.8 432.3-151.7 1214.3-151.7 1214.3z"/>
					<path id="&lt;Path&gt;" class="s2" d="m733.1 621.4c180.5 161 389.3 445.9 500.5 730.9 14.3 46.9 56.1 146.8 74.2 324.3 16.3 147.9 8.2 304.3-11.5 407.8-1.2 6.6-7.5 10.9-14 9.6-11.3-2.1-9.8-14.2-9.7-13.8 22.4-176.9 13.1-397-38.3-595.6-65.7-243.9-212.2-480.4-363.7-680.9l-15.6-19.8c-117.5-150.8-142.2-151.9-131.2-162.4 2.6-2.5 6.7-2.5 9.3-0.1z"/>
				</g>
				<g id="&lt;Group&gt;">
					<path id="&lt;Path&gt;" class="s3" d="m1267.1 2357.4c-63.2-207.5-135.4-233-265.2-259.3-129.8-26.2-274.7-123.2-317.3-275.6-32.3-115.7-156.2-230.5-214.1-279.1-11.8-9.9-6.7-29 8.4-31.7 120.8-22.1 490-80.1 598.6 11.8 130.3 110.5 130.8 397.3 167.1 626.2 77 485.7 323 794.9 299.5 783.4-66.8-32.8-213.8-368.2-277-575.7z"/>
					<path id="&lt;Path&gt;" class="s2" d="m648.8 1576.1c154.2 6.5 319.6 76.8 403.6 208.7l7.9 12.5c18.3 29.6 122 239.3 179.7 413.2 0.7 2.2-0.5 4.6-2.7 5.3-3.7 1.2-5.5-2.9-5.1-2.5-40.2-98.2-97.8-222.8-143.8-315.9-49.2-101.7-83.7-170.5-196-236.4-125-71.1-244.4-78.4-244.1-78.3-1.8-0.2-3.1-1.8-2.9-3.6 0.2-1.8 1.7-3.1 3.4-3z"/>
				</g>
			</g>
			<g id="&lt;Group&gt;">
				<path id="&lt;Path&gt;" class="s4" d="m990.7 943.2c0-92.8 75.3-168.1 168.1-168.1h1429.3c78.8 0 143.9 61.8 147.9 140.6l105.5 2072.2c3.1 61.6-45.4 113.6-107.1 114.7l-1638.2 29.8c-57.9 1.1-105.5-45.6-105.5-103.6z"/>
				<path id="&lt;Path&gt;" class="s5" d="m1335.7 3097.2h-0.1l-183.3-2.4c-61.3-0.8-111.1-51.3-111.1-112.6v-276.7c0-2.2 1.7-4 3.9-4 2.1 0 3.9 1.8 3.9 4v276.7c0 57 46.4 104 103.4 104.8l183.3 2.3c2.2 0.1 3.9 1.9 3.9 4-0.1 2.2-1.8 3.9-3.9 3.9z"/>
				<path id="&lt;Path&gt;" class="s5" d="m1045.1 2623.6c-2.2 0-3.9-1.7-3.9-3.9v-44.8c0-2.2 1.7-3.9 3.9-3.9 2.1 0 3.9 1.7 3.9 3.9v44.8c0 2.2-1.8 3.9-3.9 3.9z"/>
				<g id="&lt;Group&gt;">
					<path id="&lt;Path&gt;" class="s3" d="m1107.8 807c-0.2-29.7 25.9-52.6 55.4-48.7 195.2 26.5 866.3 108.4 1421.3 65.8 25.3-2 47.2 17.2 48.6 42.6l110.6 2081.4c1.5 28.5-20.3 53-48.8 54.6-233.4 13.9-1194.6 67.2-1537.4 31.3-20.9-2.1-36.7-19.7-36.8-40.7z"/>
					<path id="&lt;Path&gt;" class="s2" d="m1130.8 859.2c-0.2-28.6 25-50.7 53.3-46.9 187.8 25.5 833.7 104.3 1367.8 63.3 24.3-1.9 45.4 16.6 46.7 41l106.5 2003c1.5 27.5-19.5 51-47 52.6-224.6 13.3-1149.6 64.7-1479.5 30.1-20.1-2.1-35.3-19-35.4-39.2z"/>
					<g id="&lt;Group&gt;">
						<g id="&lt;Group&gt;" style="opacity: .6">
							<path id="&lt;Path&gt;" class="s6" d="m1959.2 1185.4c-2.6 0-5.3-1.9-6.2-4.3l-10.5-29.9c-0.8-2.4 0.5-4.3 3.1-4.3l539.8 9.6c2.5 0.1 4.6 2.2 4.7 4.7l0.6 19.6c0 2.6-2 4.6-4.5 4.6z"/>
						</g>
						<g id="&lt;Group&gt;" style="opacity: .8">
							<path id="&lt;Path&gt;" class="s6" d="m1949.5 1044.3c-2.5 0-5.1-2-5.7-4.4l-11.8-46.6c-0.6-2.4 1-4.4 3.5-4.3l556.6 13.8c2.5 0.1 4.6 2.2 4.7 4.7l0.6 32.2c0.1 2.6-1.9 4.6-4.5 4.6z"/>
						</g>
						<g id="&lt;Group&gt;" style="opacity: .6">
							<path id="&lt;Path&gt;" class="s6" d="m2485.4 1236.6c2.5 0 4.6 2.1 4.7 4.7l0.6 19.6c0 2.5-2 4.6-4.5 4.6h-527c-2.6 0-5.3-2-6.2-4.3l-10.5-30c-0.8-2.4 0.5-4.3 3.1-4.2z"/>
						</g>
						<g id="&lt;Group&gt;" style="opacity: .6">
							<path id="&lt;Path&gt;" class="s6" d="m2485.4 1317.8c2.5 0.1 4.6 2.2 4.7 4.7l0.6 19.6c0 2.5-2 4.6-4.5 4.6h-527c-2.6 0-5.3-1.9-6.2-4.3l-10.5-30c-0.8-2.3 0.5-4.3 3.1-4.2z"/>
						</g>
					</g>
					<g id="&lt;Group&gt;">
						<path id="&lt;Path&gt;" class="s6" d="m1814.7 1202.8c0 151.6-122.9 274.4-274.4 274.4-151.6 0-274.5-122.8-274.5-274.4 0-151.5 122.9-274.4 274.5-274.4 151.5 0 274.4 122.9 274.4 274.4z"/>
						<g id="&lt;Clip Group&gt;" clip-path="url(#cp1)">
							<g id="&lt;Group&gt;">
								<path id="&lt;Path&gt;" class="s7" d="m1479.4 1148.3c-16.8 0-34.2 2.1-40.8-18.1-12.4-38.1 8.4-95.1 42.5-115.9 11.4-6.9 24.8-10 37.9-12.6 15.4-3.1 28.7-3.9 42.6 3.6 12.8 6.9 25.2-4.2 38.5 4.7 11.3 7.5 20 19.3 26 31.3 7.9 15.6 12 32.8 15.4 50 0.8 3.9 1.5 7.9 0.7 11.8-0.8 3.2-2.6 6.1-4.4 8.9-13.8 21.3-32.1 36.3-58.6 36.3 0 0-99.4 0-99.8 0z"/>
								<path id="&lt;Path&gt;" class="s8" d="m1531.1 1116.2l-11.8 186.4c0 0-49.9 144.3-107.3 112.7-25.6-14.2-37.3-69.7-34.3-85.1 3.1-16.2-0.8-20.3-16.1-24.2-20.7-5.3-32.5-26.7-28.2-67.5 3.7-35.6 43.2-53.9 72.5-58.6 11.7-1.8 16.6-32.4 18-44.7 2.9-24 24.3-32.2 35.4-37.7 19.8-10 16.7-16.3 16.7-16.3z"/>
								<path id="&lt;Path&gt;" class="s9" d="m1607.3 1064.9c0 0-3.1 6.7 17 17.3 11.3 5.8 33.1 14.5 36 39.9 1.5 13.1 5 31.5 17 33.5 29.8 5 64.3 34 71.7 90.4 5.6 43.1-6.7 89.3-27.8 94.9-15.5 4.2-14.4-4-11.2 13 3 16.4-4.1 10.1-30.1 25.1-58.4 33.5-116.7-79.5-116.7-79.5l-12-197.5z"/>
								<path id="&lt;Path&gt;" class="s10" d="m1529.2 1271.8c0 0 44.3-11.4 53.8 2.7 4.7 23.5 7.1 46.8 7.1 46.8l-51.1 9.6-33.8-7.8-8-4.6-3.3-33.3c0 0 17.2-10 35.3-13.4z"/>
								<path id="&lt;Path&gt;" class="s11" d="m1474.3 1191.7c0 0-26.7-45.5-16.1-52.6 10.7-7.1 17.9 14.3 17.9 14.3z"/>
								<path id="&lt;Path&gt;" class="s12" d="m1583 1153.4c0 0 0-32.1 17.8-14.3 17.8 17.8-17.8 42.8-17.8 42.8z"/>
								<path id="&lt;Path&gt;" class="s13" d="m1721.9 1480h-62.2c-0.7-37.1 7.5-66.9 7.5-66.9l40.5-100.1c6.7 3.3 28.1 59.6 43.1 131.6 3.7 18.2-10.2 35.4-28.9 35.4z"/>
								<path id="&lt;Path&gt;" class="s14" d="m1396.9 1480c-16.8 0-30.1-14.4-28.7-31.2q0.5-5.4 1-10.6c7.1-74.8 14.2-103.2 14.2-103.2l57 92.5c0 0 0.8 20.3-1 52.5z"/>
								<path id="&lt;Path&gt;" class="s15" d="m1493.9 1313.9c14.2-32 7.1-99.9 7.1-99.9l64.1-14.3c0 0 3.6 50 10.7 74.9 7.2 24.9 21.4 28.6 21.4 28.6l-16.8 177h-62.1z"/>
								<path id="&lt;Path&gt;" class="s16" d="m1442.4 1480.2l-19.3-95.4c67.8 20.7 134.7 22.6 199.7-16.3l-8.9 111.7z"/>
								<path id="&lt;Path&gt;" class="s17" d="m1418.2 1480c-15-59.3-29.9-122-34.8-144.8l99.8-28.6 10.7-21.3c0 0 20.4 101.7 39.6 194.7z"/>
								<path id="&lt;Path&gt;" class="s18" d="m1556.6 1480c12.1-102 26.4-205.4 26.4-205.4l11.4 17c0 0 106.5 14.6 113.3 21.4l-21.6 116.3c0 0-4.7 22.2-10 50.7z"/>
								<path id="&lt;Path&gt;" class="s19" d="m1586.5 1085.7c0 0 3.6 92.6 3.6 96.2 0 3.5-39.2 74.8-64.2 71.2-24.9-3.5-39.1-35.6-49.8-49.9-10.7-14.2-7.2-99.7-7.2-99.7 42.8-78.4 117.6-17.8 117.6-17.8z"/>
								<path id="&lt;Path&gt;" class="s20" d="m1590.1 1067.9c14.2 21.3 0 58.3 0 58.3 0 0-7.1-26.3-14.3-37-7.1-10.7-49.9 14.3-49.9 14.3 0 0 0 0-42.7 14.2-42.8 14.3-28.5-28.5-28.5-28.5 32.1-60.5 121.1-42.7 135.4-21.3z"/>
							</g>
						</g>
					</g>
					<g id="&lt;Group&gt;">
						<g id="&lt;Group&gt;" style="opacity: .6">
							<path id="&lt;Path&gt;" class="s6" d="m1450.4 1630.5c-2.6 0-5.5-1.9-6.6-4.2l-23-46.7c-1.1-2.3 0.1-4.1 2.6-4.1l1081 13.8c2.5 0.1 4.6 2.2 4.7 4.7l1.3 31.9c0.1 2.5-1.8 4.6-4.4 4.6z"/>
						</g>
						<g id="&lt;Group&gt;" style="opacity: .6">
							<path id="&lt;Path&gt;" class="s6" d="m2504.4 1713.5c2.5 0 4.6 2.1 4.7 4.6l1.3 31.9c0.1 2.5-1.8 4.6-4.4 4.6h-1055.6c-2.6 0-5.5-1.8-6.6-4.1l-23-46.8c-1.1-2.2 0.1-4.1 2.6-4z"/>
						</g>
						<g id="&lt;Group&gt;" style="opacity: .6">
							<path id="&lt;Path&gt;" class="s6" d="m2378.1 1838.9c2.5 0.1 4.6 2.2 4.7 4.7l1.2 31.9c0 2.5-1.9 4.6-4.5 4.6h-925.7c-2.5 0-5.4-1.9-6.4-4.3l-20.1-46.5c-1-2.3 0.3-4.2 2.8-4.2z"/>
						</g>
						<path id="&lt;Path&gt;" class="s21" d="m1316.4 1604.8c0 26.5-21.4 48-48 48-26.5 0-48-21.5-48-48 0-26.5 21.5-48 48-48 26.6 0 48 21.5 48 48z"/>
					</g>
					<g id="&lt;Group&gt;">
						<g id="&lt;Group&gt;" style="opacity: .6">
							<path id="&lt;Path&gt;" class="s6" d="m1463.8 2100.9c-2.5 0-5.5-1.9-6.6-4.1l-23-46.8c-1.1-2.2 0.1-4.1 2.6-4l1081 13.8c2.5 0 4.7 2.1 4.8 4.6l1.3 31.9c0.1 2.5-1.9 4.6-4.4 4.6z"/>
						</g>
						<g id="&lt;Group&gt;" style="opacity: .6">
							<path id="&lt;Path&gt;" class="s6" d="m2356.8 2190.6c2.5 0.1 4.6 2.2 4.7 4.7l1.1 31.9c0.1 2.5-1.9 4.6-4.4 4.6h-898.4c-2.5 0-5.4-1.9-6.3-4.3l-19.5-46.5c-1-2.3 0.3-4.2 2.8-4.2z"/>
						</g>
						<g id="&lt;Group&gt;" style="opacity: .6">
							<path id="&lt;Path&gt;" class="s6" d="m2515.6 2320.6c2.5 0 4.7 2.1 4.8 4.6l1.2 31.9c0.1 2.5-1.8 4.6-4.4 4.6h-1049.1c-2.5 0-5.5-1.9-6.6-4.1l-22.8-46.8c-1.1-2.2 0.1-4.1 2.6-4z"/>
						</g>
						<path id="&lt;Path&gt;" class="s3" d="m1312.9 2075.8c0 26.5-21.5 48-48 48-26.5 0-48-21.5-48-48 0-26.5 21.5-48 48-48 26.5 0 48 21.5 48 48z"/>
					</g>
					<g id="&lt;Group&gt;">
						<g id="&lt;Group&gt;" style="opacity: .6">
							<path id="&lt;Path&gt;" class="s6" d="m1458.2 2615c-2.5 0-5.5-1.8-6.6-4.1l-23-46.7c-1.1-2.3 0.1-4.1 2.6-4.1l1081 13.8c2.5 0 4.7 2.1 4.8 4.7l1.3 31.8c0.1 2.6-1.9 4.6-4.4 4.6z"/>
						</g>
						<g id="&lt;Group&gt;" style="opacity: .6">
							<path id="&lt;Path&gt;" class="s6" d="m2341.1 2698.1c2.5 0 4.7 2.1 4.7 4.6l1.1 31.9c0.1 2.5-1.9 4.6-4.4 4.6h-888.5c-2.6 0-5.4-1.9-6.4-4.3l-19.2-46.5c-1-2.3 0.3-4.2 2.8-4.1z"/>
						</g>
						<g id="&lt;Group&gt;" style="opacity: .6">
							<path id="&lt;Path&gt;" class="s6" d="m2180.1 2830.2c2.5 0.1 4.6 2.2 4.7 4.7l0.9 31.9c0 2.5-2 4.5-4.5 4.5h-724.7c-2.5 0-5.2-1.9-6-4.3l-15.7-46.3c-0.8-2.4 0.6-4.3 3.1-4.3z"/>
						</g>
						<path id="&lt;Path&gt;" class="s22" d="m1307 2589.7c0 26.5-21.5 48-48 48-26.6 0-48.1-21.5-48.1-48 0-26.6 21.5-48.1 48.1-48.1 26.5 0 48 21.5 48 48.1z"/>
					</g>
				</g>
				<path id="&lt;Compound Path&gt;" fill-rule="evenodd" class="s23" d="m1965 696.1l-162.2-14.4-13.6-148.7c-2.8-29.9 15.9-57.8 44.8-66.3 31.6-9.3 76.4-10 128.1 25.9 101.2 70.4 2.9 203.5 2.9 203.5zm-33.8-123.9c0-22.4-18.1-40.5-40.4-40.5-22.4 0-40.5 18.1-40.5 40.5 0 22.3 18.1 40.4 40.5 40.4 22.3 0 40.4-18.1 40.4-40.4z"/>
				<g id="&lt;Group&gt;">
					<path id="&lt;Compound Path&gt;" class="s5" d="m1819 619.2c-2 0-3.7-1.6-3.9-3.6l-2.2-23.7c-0.1-2.1 1.4-4 3.6-4.2 2.2-0.2 4 1.4 4.2 3.5l2.2 23.7c0.2 2.2-1.4 4.1-3.5 4.3q-0.2 0-0.4 0zm-4.2-46.5c-2 0-3.7-1.5-3.9-3.5l-1.7-18c-2.6-28.5 15.3-55.1 42.7-63.1 19.3-5.7 39.3-6.6 59.2-2.5 2.2 0.5 3.5 2.5 3.1 4.7-0.4 2.1-2.5 3.4-4.6 3-18.7-3.8-37.4-3.1-55.5 2.3-23.8 7-39.4 30.1-37.1 54.9l1.7 18c0.2 2.1-1.4 4-3.6 4.2q-0.2 0.1-0.3 0z"/>
				</g>
				<path id="&lt;Path&gt;" class="s24" d="m1581.5 777.9v-74.8c0-25.8 21.4-46.5 47.2-45.6l515.6 17.6c22.9 0.8 41.4 18.9 42.8 41.8l4.3 71.8z"/>
				<path id="&lt;Path&gt;" class="s5" d="m1773.7 685.7h-22.1c-2.2 0-3.9-1.8-3.9-4 0-2.1 1.7-3.9 3.9-3.9h22.1c2.2 0 4 1.8 4 3.9 0 2.2-1.8 4-4 4z"/>
				<path id="&lt;Path&gt;" class="s5" d="m1609.4 754.4c-2.2 0-3.9-1.8-3.9-3.9v-30.3c0-23.3 19-42.4 42.4-42.4h81.5c2.2 0 3.9 1.8 3.9 3.9 0 2.2-1.7 4-3.9 4h-81.5c-19.1 0-34.6 15.5-34.6 34.5v30.3c0 2.1-1.8 3.9-3.9 3.9z"/>
				<path id="&lt;Path&gt;" class="s25" d="m1371.4 796.8c1.2-25.9 22.6-46.3 48.5-46.3h901.7c32.4 0 60.1 23.3 65.7 55.3l0.7 4.4c6.1 35-20.9 67-56.4 67h-925c-21.3 0-38.2-17.8-37.2-39z"/>
			</g>
			<g id="&lt;Group&gt;">
				<g id="&lt;Group&gt;">
					<g id="&lt;Group&gt;" style="opacity: .3">
						<path id="&lt;Compound Path&gt;" class="s1" d="m2699 776.6c-1.2-4.8 1.4-9.9 6.3-11.7 10.5-3.8 21.3-7.3 32.2-10.2 5.3-1.5 10.8 1.7 12.2 7q0 0.1 0 0.1c1.3 5.3-1.8 10.6-7 12-10.3 2.8-20.6 6.1-30.6 9.8-5.2 1.8-10.9-0.8-12.8-6q-0.2-0.5-0.3-1zm84-20.4q-0.1-0.5-0.2-1.1c-0.7-5.5 3.2-10.4 8.6-11.1 11.2-1.5 22.5-2.4 33.7-2.9 5.5-0.2 10.1 4 10.4 9.5 0.2 5.5-4.1 10.1-9.5 10.3-10.7 0.5-21.5 1.4-32.1 2.8-5 0.6-9.6-2.6-10.9-7.5zm86.5-1.3q-0.4-1.6-0.3-3.4c0.6-5.5 5.4-9.5 10.9-8.9 11.1 1.1 22.4 2.6 33.5 4.7 5.4 1 8.9 6.2 7.9 11.6-1 5.3-6.1 8.9-11.5 7.9-10.5-1.9-21.2-3.4-31.9-4.5-4.2-0.4-7.6-3.5-8.6-7.4zm84.6 18c-0.5-1.8-0.5-3.7 0.2-5.6 1.7-5.2 7.3-8 12.5-6.3 10.7 3.6 21.3 7.7 31.6 12.1 5.1 2.2 7.4 8 5.2 13.1-2.2 5-8 7.3-13 5.1-9.8-4.2-19.9-8-30.1-11.4-3.3-1.1-5.7-3.9-6.4-7zm78.4 36.4c-0.6-2.5-0.3-5.3 1.1-7.6 2.9-4.7 9-6.2 13.7-3.3 9.6 5.8 19 12.1 28.1 18.7 4.5 3.3 5.4 9.5 2.2 13.9-3.2 4.4-9.5 5.4-13.9 2.2-8.6-6.3-17.6-12.3-26.7-17.9-2.4-1.4-3.9-3.6-4.5-6zm68.4 52.8c-0.8-3.2 0-6.8 2.5-9.3 3.8-4 10.1-4.1 14.1-0.3 8 7.9 15.9 16.1 23.2 24.6 3.6 4.1 3.2 10.4-0.9 14-4.1 3.6-10.4 3.2-14-1-7-8-14.5-15.9-22.1-23.3-1.4-1.3-2.3-3-2.8-4.7zm111.3 347c-0.3-1.3-0.4-2.7-0.1-4.2 1.9-10.4 3.4-21.2 4.4-31.8 0.5-5.5 5.4-9.5 10.8-8.9 5.5 0.5 9.5 5.3 9 10.8-1.1 11.2-2.7 22.5-4.7 33.5-1 5.4-6.2 9-11.6 8-3.9-0.7-6.9-3.7-7.8-7.4zm-56.3-280.4c-1-4 0.6-8.3 4.2-10.7 4.6-3 10.8-1.7 13.8 2.9 6.1 9.4 11.9 19.2 17.2 29.1 2.6 4.9 0.8 10.9-4.1 13.5-4.8 2.5-10.8 0.7-13.4-4.1-5-9.4-10.5-18.7-16.4-27.7q-0.9-1.4-1.3-3zm62.2 194.2q-0.3-1-0.3-2c-0.5-10.7-1.4-21.4-2.8-32-0.7-5.5 3.1-10.4 8.6-11.2 5.4-0.7 10.4 3.2 11.1 8.6 1.4 11.2 2.4 22.5 2.9 33.7 0.3 5.5-4 10.1-9.4 10.4-4.8 0.2-9-3-10.1-7.5zm-23.5-116.9c-1.2-4.9 1.4-10 6.2-11.7 5.2-1.9 10.9 0.7 12.8 5.9 3.8 10.5 7.3 21.4 10.3 32.2q0 0.1 0 0.2c1.3 5.2-1.8 10.6-7 12-5.3 1.4-10.7-1.7-12.2-7-2.8-10.3-6.1-20.6-9.8-30.6q-0.1-0.5-0.3-1z"/>
						<path id="&lt;Path&gt;" class="s1" d="m3193.5 1276.3c-0.5-1.9-0.4-4 0.3-5.9 1.9-4.8 3.6-9.7 5.2-14.6 1.8-5.2 7.4-8 12.6-6.3 5.2 1.7 8 7.4 6.3 12.6-1.8 5.1-3.6 10.3-5.5 15.3-1.9 5.1-7.7 7.7-12.8 5.8-3.2-1.2-5.3-3.9-6.1-6.9z"/>
					</g>
					<g id="&lt;Group&gt;" style="opacity: .3">
						<path id="&lt;Path&gt;" class="s1" d="m2984.3 1494.9c-1.2-4.7 1.2-9.6 5.7-11.5 4.7-2.1 9.5-4.2 14.1-6.4 4.9-2.4 10.9-0.3 13.2 4.7 2.4 4.9 0.3 10.8-4.6 13.2-4.9 2.3-9.9 4.6-14.9 6.7-5 2.2-10.9-0.2-13-5.2q-0.3-0.8-0.5-1.5z"/>
						<path id="&lt;Compound Path&gt;" class="s1" d="m2457.1 1233.9q-1.7-6.7-3.1-13.4c-1.2-5.4 2.2-10.6 7.6-11.8 5.4-1.1 10.7 2.3 11.8 7.6 2.2 10.4 4.9 20.7 7.9 30.7 1.6 5.2-1.4 10.8-6.6 12.3-5.3 1.6-10.8-1.3-12.4-6.6-1.9-6.2-3.6-12.5-5.2-18.8zm-10.6-65.3q-0.2-0.8-0.3-1.6c-0.8-11.1-1.2-22.3-1.1-33.3 0-5.5 4.5-9.9 10-9.9 5.5 0.1 9.9 4.6 9.8 10 0 10.5 0.3 21.2 1.1 31.7 0.4 5.4-3.7 10.2-9.1 10.6-4.9 0.4-9.2-2.9-10.4-7.5zm34.4 132.9c-1.1-4.5 1.1-9.4 5.5-11.4 5-2.3 10.8-0.1 13.1 4.9 4.4 9.5 9.3 19 14.5 28.1 2.7 4.8 1 10.8-3.8 13.6-4.7 2.7-10.8 1-13.5-3.8-5.5-9.6-10.6-19.6-15.2-29.6q-0.4-0.9-0.6-1.8zm-31.5-217.9c-0.3-1.2-0.4-2.5-0.2-3.9 1.6-10.9 3.7-21.9 6.2-32.7 1.3-5.3 6.6-8.6 12-7.4 5.3 1.3 8.6 6.6 7.4 11.9-2.4 10.3-4.4 20.7-5.9 31.1-0.8 5.4-5.9 9.2-11.3 8.4-4.1-0.6-7.2-3.6-8.2-7.4zm75.4 290.8c-0.9-3.8 0.3-7.9 3.6-10.3 4.3-3.4 10.6-2.5 13.9 1.8 6.4 8.3 13.2 16.5 20.3 24.3 3.6 4 3.4 10.3-0.7 14-4.1 3.7-10.3 3.4-14-0.7-7.5-8.2-14.7-16.8-21.4-25.5-0.8-1.1-1.4-2.4-1.7-3.6zm58.8 61.4c-0.7-3-0.1-6.3 2-8.8 3.5-4.2 9.8-4.8 14-1.2 8.1 6.7 16.5 13.2 25.1 19.2 4.5 3.2 5.5 9.4 2.4 13.9-3.2 4.5-9.4 5.5-13.8 2.4-9.1-6.4-18-13.2-26.4-20.3-1.7-1.4-2.8-3.2-3.3-5.2zm70.8 47.1c-0.5-2.2-0.3-4.7 0.8-6.9 2.6-4.9 8.5-6.8 13.4-4.3 9.4 4.9 19 9.4 28.7 13.4 5 2.1 7.4 7.9 5.3 13-2.1 5-7.9 7.4-12.9 5.3-10.2-4.2-20.4-9-30.2-14-2.6-1.4-4.4-3.8-5.1-6.5zm79.4 30.6c-0.4-1.5-0.4-3.2 0.1-4.9 1.3-5.3 6.8-8.5 12.1-7.1 10.1 2.7 20.5 5 30.9 6.8 5.4 0.9 9 6.1 8.1 11.5-1 5.4-6.1 9-11.5 8-10.9-1.9-21.9-4.3-32.6-7.1-3.6-0.9-6.2-3.8-7.1-7.2zm84.2 12.4q-0.3-1.3-0.3-2.7c0.2-5.5 4.8-9.8 10.3-9.6 10.5 0.4 21.1 0.3 31.6-0.2 5.5-0.3 10.2 3.9 10.4 9.4 0.3 5.5-3.9 10.1-9.4 10.4-11.1 0.5-22.3 0.6-33.3 0.2-4.5-0.1-8.2-3.3-9.3-7.5zm84.9-6.4q-0.1-0.2-0.2-0.6c-1-5.3 2.6-10.5 8-11.5 7.6-1.4 15.2-3.1 22.7-5q4.1-1 8.1-2.1c5.3-1.5 10.7 1.6 12.2 6.9 1.6 5.4-1.7 10.8-7 12.2q-4.2 1.2-8.5 2.3c-7.9 1.9-15.9 3.7-23.9 5.2-5.2 1-10.2-2.3-11.4-7.4z"/>
						<path id="&lt;Path&gt;" class="s1" d="m2471.1 1001c-0.5-1.9-0.4-4 0.3-5.9 2-5 4-10.1 6.2-15.1 2.2-5 8-7.3 13.1-5.2 5 2.2 7.3 8.1 5.1 13.1-2 4.7-4 9.5-5.8 14.3-2 5.1-7.7 7.7-12.9 5.7-3.1-1.2-5.3-3.8-6-6.9z"/>
					</g>
					<g id="&lt;Group&gt;">
						<path id="&lt;Compound Path&gt;" class="s1" d="m2626.5 931.8c1.2-1.6 3.2-2.3 5.1-1.7l53.8 17.2c20.2-17 43.2-30.9 68.5-40.8l10.5-55.4c0.3-2 1.9-3.5 3.9-3.7l67-9.8c1.9-0.3 3.9 0.7 4.8 2.5l25.9 50.1c27 2.3 53 9.1 77.2 19.6l46.6-31.8c1.7-1.1 3.8-1 5.4 0.2l54.3 40.4c1.6 1.2 2.3 3.3 1.7 5.2l-17.2 53.8c17 20.1 30.9 43.1 40.8 68.4l55.4 10.5c2 0.4 3.5 2 3.7 3.9l9.8 67c0.3 2-0.7 3.9-2.5 4.8l-50.1 25.9c-2.3 27-9.1 53.1-19.6 77.2l31.8 46.7c1.1 1.6 1 3.8-0.2 5.4l-40.5 54.3c-1.1 1.5-3.2 2.2-5.1 1.6l-53.8-17.2c-20.1 17-43.2 30.9-68.4 40.8l-10.5 55.5c-0.4 1.9-2 3.4-3.9 3.7l-67 9.7c-2 0.3-3.9-0.7-4.8-2.4l-25.9-50.2c-27-2.3-53.1-9-77.2-19.6l-46.7 31.8c-1.6 1.1-3.8 1.1-5.4-0.1l-54.3-40.5c-1.6-1.2-2.2-3.3-1.6-5.1l17.2-53.8c-17-20.2-30.9-43.2-40.8-68.5l-55.5-10.5c-1.9-0.4-3.4-1.9-3.7-3.9l-9.7-67c-0.3-2 0.7-3.9 2.4-4.8l50.2-25.9c2.3-27 9-53 19.6-77.2l-31.8-46.7c-1.1-1.6-1.1-3.8 0.1-5.3z"/>
						<path id="&lt;Compound Path&gt;" fill-rule="evenodd" class="s26" d="m2778.5 1153.2c-8-32.2 8.5-66.4 40.1-79.4 34.7-14.3 74.6 2.2 88.9 36.9 6.9 16.8 6.9 35.3-0.1 52.1-6.9 16.8-20 29.9-36.8 36.8-34.7 14.4-74.6-2.2-88.9-36.9q-2-4.7-3.2-9.5zm116.7-29.1q-0.9-3.7-2.4-7.3c-11-26.6-41.6-39.3-68.2-28.3-26.6 11-39.3 41.5-28.3 68.1 11 26.6 41.6 39.3 68.2 28.4 12.9-5.4 22.9-15.4 28.3-28.3 4.3-10.4 5.1-21.8 2.4-32.6z"/>
						<path id="&lt;Path&gt;" class="s27" d="m2683.5 1178.4q-2.1-8.2-3.3-16.8-0.4-2.7-0.7-5.4c-1-8.9-1.3-17.9-0.9-26.8q0-0.2 0-0.4 0-0.5 0.1-1 0-1 0.1-2c0.1-1.8 1.3-3.2 3-3.6q0.6-0.2 1.2-0.1c2.2 0.1 3.8 2 3.7 4.2-0.8 11.3-0.3 22.7 1.3 33.9 8.1 55.9 44.5 100.9 92.6 122.5 26.7 12.1 57 16.9 88.1 12.4q8.2-1.2 16.1-3.2c35.5-8.9 66.6-29.6 88.8-59.3 25.4-34.1 36.1-76.1 30-118.3-12.7-87-93.8-147.4-180.8-134.8q-8 1.2-15.8 3.1c-22.7 5.7-43.8 16.3-61.9 31q-0.7 0.6-1.6 0.8c-1.4 0.4-3-0.1-4-1.3-1.4-1.7-1.1-4.2 0.6-5.6 19-15.5 41.2-26.6 64.9-32.6q8.3-2 16.7-3.3c91.3-13.2 176.4 50.3 189.7 141.6 6.5 44.2-4.7 88.3-31.5 124.2-23.2 31.2-55.9 52.8-93.1 62.2q-8.3 2.1-16.9 3.3c-44.3 6.4-88.4-4.7-124.2-31.5-31.2-23.2-52.9-55.9-62.2-93.2z"/>
					</g>
				</g>
				<g id="&lt;Group&gt;">
					<g id="&lt;Group&gt;" style="opacity: .3">
						<path id="&lt;Path&gt;" class="s1" d="m2363 511.6c-0.6-2.5 0.5-5.3 2.9-6.7 4.5-2.7 9.1-5.2 13.7-7.6 3.1-1.5 6.7-0.3 8.3 2.7 1.5 3 0.3 6.7-2.7 8.2-4.4 2.3-8.8 4.7-13.1 7.2-2.9 1.7-6.7 0.8-8.4-2.2q-0.5-0.7-0.7-1.6z"/>
						<path id="&lt;Compound Path&gt;" class="s1" d="m2405.7 491.6c-0.7-3 0.9-6.2 3.9-7.3 8.4-3 17.1-5.7 25.8-7.8q2.7-0.7 5.5-1.4c3.3-0.7 6.5 1.6 7.3 4.7 0.8 3.3-1.3 6.5-4.6 7.3q-2.6 0.6-5.3 1.3c-8.2 2-16.5 4.6-24.6 7.5-3.1 1.1-6.6-0.5-7.8-3.7q-0.1-0.3-0.2-0.6zm62.1-14.2q-0.1-0.4-0.2-0.8c-0.3-3.4 2.1-6.4 5.5-6.8 10.8-1.1 21.8-1.5 32.6-1.3 3.4 0.1 6.1 2.9 6 6.2-0.1 3.4-2.9 6.1-6.3 6.1-10.3-0.3-20.8 0.2-31.1 1.2-3 0.3-5.8-1.7-6.5-4.6zm63.6 1.3q-0.3-1.1-0.1-2.3c0.5-3.4 3.6-5.7 6.9-5.2 10.8 1.6 21.5 3.8 32 6.7 3.3 0.9 5.2 4.3 4.3 7.6-0.9 3.2-4.3 5.1-7.6 4.2-10-2.7-20.2-4.9-30.4-6.4-2.6-0.3-4.5-2.2-5.1-4.6zm61.4 17c-0.3-1.3-0.3-2.6 0.2-3.9 1.3-3.1 4.9-4.6 8.1-3.3 10 4.2 19.9 9 29.3 14.4 2.9 1.6 4 5.4 2.3 8.3-1.7 3-5.4 4-8.4 2.3-8.9-5.1-18.4-9.7-27.9-13.6-1.9-0.8-3.2-2.4-3.6-4.2zm55.3 31.4c-0.4-1.8-0.1-3.6 1.1-5.2 2-2.7 5.8-3.3 8.5-1.2 8.7 6.4 17.1 13.5 25 21 2.4 2.3 2.5 6.2 0.2 8.6-2.3 2.5-6.2 2.6-8.7 0.2-7.5-7.1-15.5-13.8-23.8-20-1.2-0.9-1.9-2.1-2.3-3.4zm46.1 43.8c-0.6-2.2 0.2-4.6 2.1-6.2 2.6-2.1 6.4-1.7 8.6 0.9 6.9 8.4 13.3 17.3 19.1 26.4 1.8 2.9 0.9 6.7-2 8.5-2.8 1.8-6.6 0.9-8.4-1.9-5.5-8.8-11.6-17.3-18.2-25.3-0.6-0.7-1-1.5-1.2-2.4zm33.9 53.8c-0.7-2.7 0.7-5.7 3.4-7 3-1.4 6.7-0.1 8.1 3 4.6 9.7 8.7 20 12 30.3 1 3.2-0.7 6.7-3.9 7.7-3.2 1.1-6.7-0.7-7.7-3.9-3.2-9.9-7.1-19.6-11.5-28.9q-0.2-0.6-0.4-1.2zm23.9 92.2q-0.1-0.5-0.2-1.1c-0.6-8.9-1.7-18-3.3-26.9q-0.3-2-0.7-4c-0.7-3.3 1.5-6.5 4.8-7.1 3.3-0.7 6.6 1.5 7.2 4.8q0.4 2.1 0.8 4.2c1.6 9.3 2.8 18.8 3.5 28.1 0.2 3.4-2.3 6.4-5.7 6.6-3 0.2-5.7-1.8-6.4-4.6z"/>
					</g>
					<g id="&lt;Group&gt;" style="opacity: .3">
						<path id="&lt;Compound Path&gt;" class="s1" d="m2244 801c-0.8-3.2 1.1-6.5 4.4-7.4 3.3-0.8 6.6 1.1 7.5 4.4 2.6 9.8 5.8 19.6 9.6 29 1.2 3.2-0.3 6.8-3.5 8-3.1 1.3-6.7-0.3-7.9-3.4-4-9.9-7.3-20.2-10.1-30.5q0 0 0-0.1zm-6.2-30.7q-0.1-0.3-0.1-0.7c-1.5-10.5-2.3-21.3-2.5-32-0.1-3.3 2.6-6.1 6-6.2 3.4-0.1 6.2 2.6 6.2 6 0.2 10.2 1 20.5 2.4 30.5 0.5 3.4-1.8 6.5-5.2 7-3.1 0.4-6-1.6-6.8-4.6zm29.4 88.9c-0.7-2.7 0.5-5.5 3-6.9 3-1.6 6.7-0.5 8.3 2.4 4.9 9 10.4 17.7 16.4 25.9 1.9 2.8 1.3 6.6-1.4 8.6-2.8 2-6.6 1.3-8.6-1.4-6.2-8.7-12-17.8-17.1-27.2q-0.4-0.7-0.6-1.4zm-30.5-151.5q-0.2-1-0.1-2.2c1.1-10.6 2.9-21.2 5.3-31.6 0.7-3.3 4-5.4 7.3-4.6 3.3 0.7 5.4 4 4.6 7.3-2.3 9.9-4 20.1-5 30.2-0.4 3.4-3.4 5.8-6.8 5.5-2.6-0.3-4.7-2.2-5.3-4.6zm67.1 202.3c-0.6-2.1 0-4.5 1.7-6 2.5-2.3 6.4-2.2 8.7 0.3 6.9 7.5 14.3 14.6 22.1 21.2 2.6 2.2 2.9 6.1 0.7 8.7-2.2 2.5-6.1 2.8-8.6 0.7-8.2-7-16-14.4-23.2-22.3-0.7-0.8-1.2-1.7-1.4-2.6zm47.6 40.5c-0.4-1.6-0.1-3.4 0.9-4.9 1.8-2.8 5.6-3.6 8.5-1.7 8.5 5.6 17.4 10.8 26.5 15.3 3 1.5 4.2 5.2 2.7 8.2-1.5 3.1-5.2 4.3-8.2 2.8-9.5-4.8-18.9-10.2-27.8-16.1-1.3-0.8-2.2-2.2-2.6-3.6zm56.1 28c-0.3-1.2-0.3-2.4 0.1-3.6 1.2-3.2 4.7-4.8 7.9-3.7 9.6 3.4 19.5 6.3 29.4 8.5 3.3 0.8 5.4 4 4.6 7.3-0.7 3.3-4 5.4-7.3 4.7-10.4-2.4-20.8-5.4-30.8-8.9-2.1-0.8-3.5-2.4-3.9-4.3z"/>
						<path id="&lt;Path&gt;" class="s1" d="m2250.9 646.4c-0.3-1.2-0.3-2.4 0.2-3.6 1.8-4.9 3.7-9.8 5.8-14.6 1.3-3.1 4.9-4.5 8-3.2 3.1 1.4 4.6 5 3.2 8.1-1.9 4.5-3.8 9.2-5.5 13.9-1.2 3.2-4.7 4.8-7.9 3.7-2-0.8-3.3-2.4-3.8-4.3z"/>
					</g>
					<g id="&lt;Group&gt;">
						<path id="&lt;Compound Path&gt;" class="s1" d="m2356 595.8c0.8-1.1 2.2-1.5 3.5-1.1l36 11.5c13.4-11.4 28.9-20.7 45.8-27.3l7-37.1c0.2-1.3 1.3-2.3 2.6-2.5l44.8-6.6c1.3-0.1 2.6 0.5 3.2 1.7l17.4 33.5c18 1.6 35.5 6.1 51.6 13.2l31.3-21.3c1.1-0.7 2.5-0.7 3.6 0.1l36.3 27.1c1 0.8 1.5 2.1 1.1 3.4l-11.5 36c11.4 13.5 20.7 28.9 27.3 45.8l37.1 7c1.3 0.3 2.3 1.3 2.5 2.6l6.5 44.9c0.2 1.3-0.5 2.6-1.6 3.2l-33.6 17.3c-1.5 18.1-6.1 35.5-13.1 51.7l21.3 31.2c0.7 1.1 0.7 2.6-0.1 3.6l-27.1 36.3c-0.8 1.1-2.2 1.5-3.5 1.1l-35.9-11.4c-13.5 11.3-28.9 20.6-45.8 27.2l-7.1 37.1c-0.2 1.3-1.3 2.3-2.6 2.5l-44.8 6.6c-1.3 0.1-2.6-0.5-3.2-1.7l-17.4-33.5c-18-1.6-35.5-6.1-51.6-13.2l-31.3 21.3c-1.1 0.7-2.5 0.7-3.6-0.1l-36.3-27.1c-1-0.8-1.5-2.1-1.1-3.4l11.5-36c-11.4-13.5-20.7-28.9-27.3-45.8l-37.1-7c-1.3-0.3-2.3-1.3-2.5-2.6l-6.5-44.9c-0.2-1.3 0.5-2.6 1.6-3.2l33.6-17.3c1.6-18.1 6.1-35.5 13.1-51.7l-21.2-31.2c-0.8-1.1-0.8-2.6 0-3.6z"/>
						<path id="&lt;Compound Path&gt;" fill-rule="evenodd" class="s28" d="m2456.9 744.1c-2.4-9.6-1.6-19.7 2.2-29 4.8-11.4 13.7-20.3 25.2-25.1 23.6-9.7 50.7 1.6 60.5 25.2 9.7 23.7-1.5 50.8-25.1 60.6-11.5 4.7-24.1 4.7-35.5-0.1-11.5-4.7-20.4-13.6-25.1-25.1q-1.3-3.2-2.2-6.5zm78.1-19.5q-0.6-2.4-1.5-4.7c-7.2-17.4-27.2-25.7-44.6-18.5-8.4 3.5-15 10-18.4 18.4-3.5 8.4-3.5 17.7-0.1 26.1 3.5 8.4 10.1 15 18.5 18.5 8.4 3.5 17.7 3.5 26.1 0 15.8-6.5 24.1-23.6 20-39.8z"/>
						<path id="&lt;Path&gt;" class="s29" d="m2390.8 761.6q-1.4-5.7-2.3-11.6c-1.1-7.7-1.5-15.6-1-23.5q0-0.5 0.1-1c0.1-2.7 2.1-4.9 4.6-5.6q0.9-0.2 1.9-0.1c3.4 0.2 5.9 3.1 5.7 6.5-0.5 7.3-0.2 14.7 0.8 22q0.1 0.6 0.2 1.2c2.7 17.1 9.5 33 19.8 46.5 5.6 7.3 12.2 13.9 19.7 19.6q0.1 0 0.2 0.1 0.3 0.2 0.6 0.4c22.1 16.5 49.2 23.4 76.5 19.4q5.3-0.7 10.4-2c23-5.8 43.1-19.1 57.5-38.4 16.5-22.1 23.4-49.3 19.4-76.5-4-27.3-18.3-51.4-40.4-67.9-22.1-16.5-49.3-23.4-76.6-19.4q-5.2 0.7-10.3 2c-14.6 3.7-28.3 10.5-40 20.1q-1.1 0.9-2.4 1.2c-2.2 0.5-4.7-0.2-6.2-2.1-2.2-2.6-1.8-6.5 0.8-8.6 13.1-10.7 28.4-18.4 44.8-22.5q5.7-1.4 11.5-2.3c30.6-4.4 61 3.3 85.7 21.8 24.7 18.4 40.8 45.4 45.2 75.9 4.5 30.5-3.2 60.9-21.7 85.7-16 21.5-38.5 36.4-64.3 42.9q-5.7 1.4-11.6 2.3c-59.1 8.6-114.4-29.4-128.6-86.1z"/>
					</g>
				</g>
			</g>
			<g id="&lt;Group&gt;">
				<g id="&lt;Group&gt;">
					<g id="&lt;Group&gt;">
						<path id="&lt;Path&gt;" class="s30" d="m3230 2394.5c-7 63.6-26.3 104.6-44.7 130.3-18 24.9-51.2 33.5-78.9 20.2l-1306.5-626 90.9-192.2 1308.2 612.6c21.1 9.9 33.6 32 31 55.1z"/>
						<g id="&lt;Group&gt;">
							<path id="&lt;Path&gt;" class="s31" d="m1476.7 1634.9l184.9 41.1c-2.7 25.7-14.3 58.2-46.6 93.7l-146.3-118.2c-7.8-6.3-1.8-18.7 8-16.6z"/>
							<path id="&lt;Path&gt;" class="s32" d="m1890.8 1726.8c-3.5 125.6-90.9 192.2-90.9 192.2l-184.9-149.3c32.3-35.5 43.9-68 46.6-93.7z"/>
						</g>
					</g>
					<path id="&lt;Path&gt;" class="s3" d="m3175 2398.5l-1251.9-583.2c-2-0.9-2.8-3.3-1.9-5.3 0.9-2 3.3-2.8 5.3-1.9l1251.9 583.1c2 1 2.9 3.3 1.9 5.3-0.7 1.6-2.3 2.5-4 2.3q-0.7 0-1.3-0.3z"/>
					<path id="&lt;Path&gt;" class="s3" d="m3145.1 2474.4l-1251.9-583.1c-2-0.9-2.8-3.3-1.9-5.3 0.9-2 3.3-2.9 5.3-2l1251.9 583.2c2 0.9 2.9 3.3 1.9 5.3-0.7 1.6-2.3 2.5-4 2.3q-0.6-0.1-1.3-0.4z"/>
				</g>
				<g id="&lt;Group&gt;">
					<path id="&lt;Path&gt;" class="s33" d="m2580.9 2590.8l95.8 23.9-23.9 179.5c0 0 35.9 35.9 47.8 83.8 12 47.9 23 248.9 23 248.9l22.7 13.7 2.8 11.5-66.1 88.9 11-70.8c1.7-11.2-1.3-34-0.3-34.5-36-95.7-112.8-365.4-112.8-365.4z"/>
					<path id="&lt;Path&gt;" class="s34" d="m2553 3153.3c1 0 2 0.1 3.1 0-4.7-57.7-25.8-311.7-47-406.9-23.9-107.8 35.9-323.2 35.9-323.2l107.8 107.7-59.9 203.5c41 61.5-6.7 421.7-5.6 421.6l-0.1 0.8 15.6 21.4-1.9 11.7-95.4 56.3 37.5-61c6-9.7 9.3-20.6 10-31.9z"/>
					<path id="&lt;Path&gt;" class="s35" d="m2674.1 1945.5c0 0 209.7 236.4 0 357.6l-21.3-15.5c0 0 104.1-99.7 0-221.8z"/>
					<path id="&lt;Path&gt;" class="s36" d="m2497.7 3239c6.5-1.1 12.4-0.3 12.4-0.3 0 0 48.2-33.9 63.8-43.3 15.7-9.5 18.6-30.9 18.6-30.9 12.7 6.6 19.6 20.5 17.4 34.6l-9 55.9h-7.1c0 0 1.6-45-11-44.1-9.4 0.6-29.1 24.6-38.6 37-3.5 4.5-8.8 7.1-14.5 7.1h-30.5c-9.7 0-11.1-14.2-1.5-16z"/>
					<path id="&lt;Path&gt;" class="s37" d="m2673.1 3237.4c5.5-3.6 11.3-5.1 11.3-5.1 0 0 31.2-49.9 42-64.7 10.8-14.8 5.1-35.7 5.1-35.7 14.2 1.2 26.1 11.3 29.5 25.2l13.4 55-6.6 2.8c0 0-15.9-42.1-27.3-36.5-8.4 4.3-17.2 34.1-21.2 49.1-1.4 5.5-5.3 10-10.6 12.2l-28.1 11.8c-8.9 3.8-15.7-8.8-7.5-14.1z"/>
					<path id="&lt;Path&gt;" class="s38" d="m2641.5 2239.5c0 0 67.9 56.7 80.4 135.8 12.5 79-38.9 287-38.9 287-121.7 7.8-191.8-8.6-191.8-8.6-5-133.2 19.6-272.4 24.8-331.7 5.1-59.3 1.6-80.9 1.6-80.9z"/>
					<path id="&lt;Path&gt;" class="s39" d="m2622 1791.8l20.2 153.7h-81.4l8.6-100.7z"/>
					<path id="&lt;Path&gt;" class="s40" d="m2685.6 1947.3c30.6 114-44.1 292.2-44.1 292.2-85.1 24.9-123.9 1.6-123.9 1.6l-43.6-160c-5.2-19.1-5.8-39.1-1.7-58.5l10.8-52c4.8-22.9 24.4-39.7 47.8-41 44.5-2.4 107.3 0.4 135.4 2 9.2 0.5 16.9 6.8 19.3 15.7z"/>
					<path id="&lt;Path&gt;" class="s41" d="m2485.7 1960.1c5-13.2 18.4-22.1 33.2-20.8 18 1.5 31.3 17.3 29.7 35.2-3.2 37.5-10.9 72.7-22.1 108.6-5.6 17.9-12.5 35.7-21.2 53.6-4.4 9-9.3 18.1-15.5 27.3-6.1 9.1-13.1 18.7-24.4 28.3-3.1 2.4-6.2 4.8-9.7 7.1-4.1 2.3-7.4 4.5-12.6 6.4q-3.7 1.3-7.4 2.5c-2.3 0.6-3.8 0.6-5.7 1q-5.5 0.8-10.9 1.3c-6.9 0.4-12.5-0.1-18.8-0.4-5.6-0.7-10.9-1.7-16.3-2.6-20.7-4.4-38.6-11.4-55.9-18.9-8.6-4-16.9-8.2-25.2-12.4-8.1-4.5-16.1-9.2-23.9-14-15.6-10-30.6-20.2-44.7-32.7-3.2-2.8-4.9-7.1-4-11.5 1.2-6.8 7.7-11.2 14.4-10l0.3 0.1c35.1 6.5 69.3 15.1 102.2 21.3 16.3 3.1 32.6 5.7 46.9 6.4l10 0.1c2.6-0.5 11-1.8 10.7-1.8-0.4-0.1-1.7-0.3-1.3-0.6 1.9-2.2 5.6-7 8.9-12.8 3.3-5.8 6.8-12.1 10.1-19.1 6.4-14 12.4-29.2 18.3-44.7 11.6-31 22.5-64.1 34.4-95.7z"/>
					<path id="&lt;Path&gt;" class="s42" d="m2185.7 2117.4c-6.1-14.9 5.4-27.6 5.4-27.6-32.1-5.8-26-19-26-19l76.4 19 14.5 34.5c0.8 22.9-64.2 8-70.3-6.9z"/>
					<path id="&lt;Path&gt;" class="s43" d="m2622 1791.8c-15.9 48.9-74.5 86.8-93.7 53-19.2-33.9 3.7-114.6 6.6-116.3 77.4-45.7 102.9 14.3 87.1 63.3z"/>
					<path id="&lt;Path&gt;" class="s44" d="m2686.8 1791.8c13.1 64.4 56.7 46.7 87.5 75.4 50 46.4 121.5-1.5 191 42.5 50.2 31.8 74.3 113 50.3 178.7-33.4 90.8-147.4 128.2-206.4 100.5-56.5-26.4-48.5-105.7-124.4-136.3-32.3-13-48.2-4.5-67.5-23.8-33.8-33.7-24.7-99.1-21.2-124.4 7.7-54.7 26-64.6 17.2-88.6-17-46.8-96.5-37.1-103.2-70.1-6-30.1 51.7-87.1 105.9-78.1 83.9 13.9 64.9 95.5 70.8 124.2z"/>
					<path id="&lt;Path&gt;" class="s1" d="m2990 2072.9c-1.2-0.3-1.9-1.5-1.6-2.6 10.4-43.3 5.8-78.7-13.8-105.1-32.5-44.1-96.2-48.5-96.9-48.5-1.2-0.1-2.1-1.2-2-2.4 0-1.2 1.3-2.2 2.3-2 0.7 0 66.3 4.5 100.1 50.2 20.4 27.6 25.3 64.2 14.5 108.8-0.2 1-1.1 1.7-2.1 1.7q-0.3 0-0.5-0.1z"/>
					<path id="&lt;Path&gt;" class="s1" d="m2774.3 2113c-10.3-39.6-28.3-67-53.6-81.6-18.2-10.5-35.5-11.5-50.7-12.4-15.4-0.9-28.6-1.6-39.5-11.4-22.2-19.7-21.2-66.3 3-138.5 0.2-0.6 0.8-0.9 1.4-0.7 0.6 0.2 0.9 0.8 0.7 1.4-23.9 71.3-25.1 117.1-3.7 136.2 10.4 9.2 23.3 10 38.2 10.8 15.5 0.9 33 1.9 51.7 12.7 25.8 14.9 44.2 42.8 54.6 82.9 0.2 0.6-0.2 1.2-0.8 1.4q-0.1 0-0.2 0c-0.5 0-1-0.3-1.1-0.8z"/>
					<path id="&lt;Path&gt;" class="s1" d="m2654.6 1775c-7.7-23-29.7-19.6-55.2-15.7-16.3 2.6-33.2 5.1-47.8 0.8-11.3-3.3-18-8.7-20-15.9-3.4-12.1 7.8-24.7 8.3-25.2 0.4-0.5 1.1-0.5 1.5-0.1 0.5 0.4 0.5 1.1 0.1 1.5-0.1 0.2-10.9 12.3-7.8 23.3 1.8 6.4 8 11.2 18.5 14.3 14.1 4.2 30.8 1.6 46.8-0.8 25.4-3.9 49.4-7.6 57.7 17.1 0.2 0.6-0.1 1.2-0.7 1.4q-0.1 0.1-0.3 0.1c-0.5 0-0.9-0.3-1.1-0.8z"/>
				</g>
			</g>
		</g>
	</g>
</svg>