<svg version="1.2" xmlns="http://www.w3.org/2000/svg" viewBox="0 0 234 228" width="293" height="285">
	<title>7474048-ai</title>
	<style>
		.s0 { fill: #383838 } 
		.s1 { fill: #f0f2f2 } 
		.s2 { fill: #ffffff } 
	</style>
	<g id="OBJECTS">
		<g id="&lt;Group&gt;">
			<g id="&lt;Group&gt;">
				<g id="&lt;Group&gt;">
					<path id="&lt;Path&gt;" class="s0" d="m473.2-408.9c-21.4 20.4-50.3 33-82.2 33-31.9 0-60.8-12.6-82.2-33l7.5-12.5c4.1-14.8 15.6-26.3 30.4-30.5l27.2-7.8h17.1 17.1l27.2 7.8c14.8 4.2 26.3 15.7 30.4 30.5z"/>
					<path id="&lt;Path&gt;" class="s1" d="m412.1-455.1c0 0-9.1 9.5-21.1 10-12-0.5-21.1-10-21.1-10l5.1-26.4h16 16z"/>
					<path id="&lt;Path&gt;" class="s2" d="m426.8-518.6c0 21.6-16 50.6-35.8 50.6-19.8 0-35.8-29-35.8-50.6 0-21.7 16-39.3 35.8-39.3 19.8 0 35.8 17.6 35.8 39.3z"/>
					<path id="&lt;Path&gt;" class="s2" d="m359.7-515.6c-0.2 4.2-2.7 9.8-5.5 9.7-2.8-0.1-4.9-5.9-4.7-10.1 0.1-4.3 2.6-7.6 5.4-7.5 2.8 0.1 5 3.7 4.8 7.9z"/>
					<path id="&lt;Path&gt;" class="s2" d="m431.9-516c0.1 4.2-2 10-4.8 10.1-2.8 0.1-5.3-5.5-5.5-9.7-0.1-4.3 2.1-7.8 4.9-7.9 2.8-0.1 5.2 3.3 5.4 7.5z"/>
				</g>
				<path id="&lt;Path&gt;" class="s0" d="m433.1-532.9c-0.7 2.4-1.3 4.9-1 7.4 0.1 0.8 0.3 1.6 0.2 2.4-0.2 0.9-0.8 1.7-1.6 1.7-1.3-0.1-2.4-1.9-3.5-1.2-0.5 0.3-0.6 0.9-0.6 1.5-0.3 6.6-1.5 13.1-3.6 19.4-1.4-2.6-0.5-5.7-0.2-8.7 0.7-5.9-1.1-12-2.7-17.5-0.6-2-0.5-4.2-1.7-5.9-1.7-2.5-5.3-2.7-7.8-4.3-1.5-1-2.7-2.6-4.2-3.7-4.4-3.2-11-2.9-15.4-6.1-0.2-0.2-7 3.9-7.7 4.3-2.2 1.3-4 2.7-6.6 3.2-2 0.4-4.1 0.6-5.9 1.7-1.8 1.1-3 3.2-4.8 4.3-3.8 2.3-3.1 6.9-4.2 11-1.1 4.6-3.2 8-2.6 13 0.3 3 1.2 6.1-0.2 8.7-2-6.3-3.2-12.8-3.6-19.4 0-0.6-0.1-1.2-0.6-1.5-1.1-0.7-2.2 1.1-3.5 1.2-0.8 0-1.4-0.8-1.6-1.7-0.1-0.8 0.1-1.6 0.2-2.4 0.3-2.5-0.3-5-1-7.4-0.8-2.4-1.6-4.9-1.6-7.4-0.1-2.5 0.7-5.2 2.8-6.6-0.5 0-0.8-0.8-0.5-1.2 0.4-0.4 0.9-0.5 1.4-0.7 3.3-0.8 5.4-3.8 8.2-5.6 1.7-1 3.8-1.6 5-3.2 0.4-0.4 0.7-1 0.6-1.6-0.1-0.2-0.2-0.5-0.2-0.7-0.1-0.8 0.8-1.2 1.5-1.5 4.5-1.4 9-4.1 13.7-4.4q0.6 0 1.3 0c4.7 0.2 8.1 2.4 9.9 5.7 1.8-3.3 5.2-5.5 9.9-5.7q0.7 0 1.3 0c4.7 0.3 9.2 3 13.7 4.4 0.7 0.3 1.6 0.7 1.5 1.5 0 0.2-0.1 0.5-0.2 0.7-0.1 0.6 0.2 1.2 0.6 1.6 1.2 1.6 3.3 2.2 5 3.2 2.8 1.8 4.9 4.8 8.2 5.6 0.5 0.2 1 0.3 1.4 0.7 0.3 0.4 0.1 1.2-0.5 1.2 2.1 1.4 2.9 4.1 2.9 6.6-0.1 2.5-0.9 5-1.7 7.4z"/>
			</g>
		</g>
		<g id="&lt;Group&gt;">
			<g id="&lt;Group&gt;">
				<path id="&lt;Path&gt;" class="s0" d="m108.4-461.8c-6.6-2.5-13.9 0.5-20.9 1.1-6.1 0.5-12.4-0.8-17.7-3.8 6-9 8.5-20.2 6.8-30.9-1.9 1.7-4.9 2.1-7.3 1 0.2 0 2.4-10 2.5-10.9 0.4-3.9 0.4-7.7 0.1-11.6-0.6-7-1.9-14.8-0.2-21.8 1.4-6 5.5-11.7 11.3-13.4 3.7-1.1 7.7-0.6 11.5-0.1 1.2-5.1 4.8-9.5 9.3-12.4 5.3-3.5 12.8-6.3 19.2-5.8 10.3 0.6 20 6.1 26.9 13.7 7 7.7 11.4 17.4 13.8 27.4 1 4.2 1.7 8.5 1.4 12.8-0.6 9.9-6.4 19.4-4.6 29.1 0.1 0.6 0.2 1.3-0.1 1.8-0.9 1.5-3.2-0.6-4.9-0.3 0.8 9.2 3.1 17.7 7.9 25.6-8.8-3.4-18.5-3-27.9-2-9.3 1.1-18.3 3.8-27.1 0.5z"/>
				<g id="&lt;Group&gt;">
					<path id="&lt;Path&gt;" class="s0" d="m199.5-408.9c-21.4 20.4-50.3 33-82.2 33-31.9 0-60.9-12.6-82.3-33l7.5-12.5c4.2-14.8 15.7-26.3 30.4-30.5l27.2-7.8h17.2 17.1l27.2 7.8c14.7 4.2 26.3 15.7 30.4 30.5z"/>
					<path id="&lt;Path&gt;" class="s1" d="m138.3-455.1c0 0-9 9.5-21 10-12.1-0.5-21.1-10-21.1-10l5-26.4h16.1 16z"/>
					<path id="&lt;Path&gt;" class="s2" d="m153.1-518.6c0 21.6-16 50.6-35.8 50.6-19.8 0-35.9-29-35.9-50.6 0-21.7 16.1-39.3 35.9-39.3 19.8 0 35.8 17.6 35.8 39.3z"/>
					<path id="&lt;Path&gt;" class="s2" d="m86-515.6c-0.2 4.2-2.7 9.8-5.6 9.7-2.8-0.1-4.8-5.9-4.7-10.1 0.2-4.3 2.6-7.6 5.5-7.5 2.8 0.1 4.9 3.7 4.8 7.9z"/>
					<path id="&lt;Path&gt;" class="s2" d="m158.1-516c0.2 4.2-1.9 10-4.7 10.1-2.9 0.1-5.3-5.5-5.5-9.7-0.1-4.3 2-7.8 4.9-7.9 2.8-0.1 5.2 3.3 5.3 7.5z"/>
				</g>
				<path id="&lt;Path&gt;" class="s0" d="m123.7-537.5c-8.8-1.5-18.5-3.4-24-10.5 1 1.3-5.7 9.9-6.6 11.2-2.7 4-5 7.8-5.4 12.7-0.4 4.6 0.8 9.2 0.2 13.8-0.6 5.2-3.5 10.3-2.4 15.5-3.6-5.2-1.4-12.6-3.8-18.5-0.4-1.1-1-2.1-1.3-3.3-1.3-4.8 1.7-13.5 3.5-18 2.5-6.2 6.5-11.9 11.6-16.2 8.9-7.4 21.4-10.6 32.7-7.7 11.3 2.9 20.9 11.8 24.1 23 2.6 9 0.1 16.3-0.7 25.2-0.5 5.1 0.9 10.2-0.1 15.1-0.3 1.7-1 3.5-2.6 4.2-2.1-4.1-1.2-9-0.7-13.6 0.9-8.1 0.9-18.6-4.9-24.9-5.2-5.6-12.4-6.8-19.6-8z"/>
			</g>
		</g>
		<g id="&lt;Group&gt;">
			<g id="&lt;Group&gt;">
				<path id="&lt;Path&gt;" class="s0" d="m669.5-551.5c-5.6 1.3-9.8 6.2-12.5 11-8.5 15.2 41.4 36.9 1.6 85.5-39.7 48.5-76.1 14.3-76.1 14.3 0 0 37.3-0.9 31.1-59.3-3.5-32.9 8.6-74.4 49.3-72.1 4.7 0.2 9.5 1.3 13.1 4.2 4.3 3.5 6.4 9.5 5.2 14.9-0.6 2.6-2.6 2.8-4.8 2.5-2.3-0.4-5-1.4-6.9-1z"/>
				<path id="&lt;Path&gt;" class="s0" d="m669.3-549.6c0.3-2.2 1.1-4.4 2.7-6.6 4-5.9 11.9-9.3 18.7-7 9.9 3.3 16.3 15.3 19.2 24.6 4 12.4 4.1 25.8 2.7 38.6-6.2 58.4 31.1 59.3 31.1 59.3 0 0-36.4 34.2-76.1-14.3-13.6-16.6-20.4-36.2-10.5-56.2 3-6.1 7.2-11.4 10.4-17.4 3.6-6.7 0.5-13.8 1.8-21z"/>
				<g id="&lt;Group&gt;">
					<path id="&lt;Path&gt;" class="s0" d="m747-408.9c-21.4 20.4-50.4 33-82.3 33-31.9 0-60.8-12.6-82.2-33l7.5-12.5c4.1-14.8 15.7-26.3 30.4-30.5l27.2-7.8h17.1 17.2l27.2 7.8c14.7 4.2 26.2 15.7 30.4 30.5z"/>
					<path id="&lt;Path&gt;" class="s1" d="m685.8-455.1c0 0-9 9.5-21.1 10-12-0.5-21-10-21-10l5-26.4h16 16.1z"/>
					<path id="&lt;Path&gt;" class="s2" d="m700.6-518.6c0 21.6-16.1 50.6-35.9 50.6-19.8 0-35.8-29-35.8-50.6 0-21.7 16-39.3 35.8-39.3 19.8 0 35.9 17.6 35.9 39.3z"/>
				</g>
				<path id="&lt;Path&gt;" class="s0" d="m687.3-505.9c-0.9 14.4 8 21.8 8 21.8 39.1-46.3-21.5-105.7-56.9-70.7-35.3 34.9-2.5 73.3-2.5 73.3-5-9.7 1.7-19.1 1.7-19.1 34.1-19.9 38.8-49.9 38.8-49.9 11.6 7.3 11.7 30.2 10.9 44.6z"/>
			</g>
		</g>
		<g id="&lt;Group&gt;">
			<g id="&lt;Group&gt;">
				<path id="&lt;Path&gt;" class="s0" d="m426.5-210.2c-4.6 20.2 2.8 37.5 2.8 37.5-39.2 9.9-77.4 1-77.4 1 8.3-16.3 2.9-37.8 2.9-37.8z"/>
				<g id="&lt;Group&gt;">
					<path id="&lt;Path&gt;" class="s0" d="m473.2-115c-21.4 20.5-50.3 33-82.2 33-31.9 0-60.8-12.5-82.2-33l7.5-12.4c4.1-14.8 15.6-26.3 30.4-30.5l27.2-7.8h17.1 17.1l27.2 7.8c14.8 4.2 26.3 15.7 30.4 30.5z"/>
					<path id="&lt;Path&gt;" class="s1" d="m412.1-161.2c0 0-9.1 9.5-21.1 10-12-0.5-21.1-10-21.1-10l5.1-26.4h16 16z"/>
					<path id="&lt;Path&gt;" class="s2" d="m426.8-224.7c0 21.7-16 50.7-35.8 50.7-19.8 0-35.8-29-35.8-50.7 0-21.6 16-39.2 35.8-39.2 19.8 0 35.8 17.6 35.8 39.2z"/>
				</g>
				<path id="&lt;Path&gt;" class="s0" d="m356.3-188.3c0.9-11.8-6.7-23.4-9-35-1.2-6.4-1.8-12.9-1.7-19.4 0.1-5.1 0.5-10.3 2.6-15 2.1-4.7 6-8.8 11-10 5.4-1.3 10.9 0.8 16.1 2.9 5.9-12 22.5-15.3 34.1-10.4 8.9 3.8 15.8 11.7 19.7 20.7 3.9 8.9 5.1 18.9 4.9 28.6-0.3 13.6-4.7 19.1-13 37.6-0.1-7 9.6-50.1-31.4-62.4-4.7-1.4-9.1-3.7-13.9-5.1-0.2 0.5-0.3 1-0.7 1.3-28.6 19.6-6.6 44.3-18.7 66.2z"/>
				<path id="&lt;Path&gt;" class="s0" d="m427.1-214.2c0 0-1.3 20.1 8.8 40.2h-4.4c0 0-5.3-6.7-8.7-16z"/>
			</g>
		</g>
		<g id="&lt;Group&gt;">
			<g id="&lt;Group&gt;">
				<g id="&lt;Group&gt;">
					<path id="&lt;Path&gt;" class="s0" d="m199.5-115c-21.4 20.5-50.3 33-82.2 33-31.9 0-60.9-12.5-82.3-33l7.5-12.4c4.2-14.8 15.7-26.3 30.4-30.5l27.2-7.8h17.2 17.1l27.2 7.8c14.7 4.2 26.3 15.7 30.4 30.5z"/>
					<path id="&lt;Path&gt;" class="s1" d="m138.3-161.2c0 0-9 9.5-21 10-12.1-0.5-21.1-10-21.1-10l5-26.4h16.1 16z"/>
					<path id="&lt;Path&gt;" class="s2" d="m153.1-224.7c0 21.7-16 50.7-35.8 50.7-19.8 0-35.9-29-35.9-50.7 0-21.6 16.1-39.2 35.9-39.2 19.8 0 35.8 17.6 35.8 39.2z"/>
					<path id="&lt;Path&gt;" class="s2" d="m86-221.7c-0.2 4.3-2.7 9.9-5.6 9.7-2.8-0.1-4.8-5.8-4.7-10.1 0.2-4.2 2.6-7.5 5.5-7.4 2.8 0.1 4.9 3.6 4.8 7.8z"/>
					<path id="&lt;Path&gt;" class="s2" d="m158.1-222c0.2 4.2-1.9 10-4.7 10-2.9 0.1-5.3-5.4-5.5-9.7-0.1-4.2 2-7.7 4.9-7.8 2.8-0.1 5.2 3.2 5.3 7.5z"/>
				</g>
				<path id="&lt;Path&gt;" class="s0" d="m115.1-272.4c30.4-0.3 38 12.7 40 23.3 1.2 6.7-2.3 19.6-2.3 19.6q-0.8 6.4-1.5 12.8c-3.3-0.6-3.1-9.6-3-12.1 0.2-4.1 0.8-8.3-0.3-12.3-0.8-2.8-2.3-5.3-3.9-7.7-0.4-0.5-0.8-1-1.3-1.3-0.9-0.4-2-0.1-3 0.3-4.2 1.3-8.7 1.7-13.1 1-2-0.3-3.9-1.3-5.8-1.7-1.7-0.3-3.7 0.3-5.4 0.5-7 0.8-32 1.6-25.9-12.4 0 0 4.3-9.8 25.5-10z"/>
				<path id="&lt;Path&gt;" class="s0" d="m98.3-255q0 0.5-0.5 1c-0.7 0.7-1.8 0.9-2.8 1.3-3.1 1.1-4.9 4.2-6.6 7-1.1 1.9-2.2 3.8-2.3 5.9-0.2 2.9 1.4 5.4 1.8 8.2 0.3 2.2-0.2 4.2-0.8 6.3-0.3 1-2.5 9.4-4.2 8.6l-1.5-12.8c0 0-3.5-12.9-2.3-19.6 1.2-6.6 4.4-14.5 12.5-12.3 1.7 0.5 7.2 3.9 6.7 6.4z"/>
			</g>
		</g>
		<g id="&lt;Group&gt;">
			<g id="&lt;Group&gt;">
				<g id="&lt;Group&gt;">
					<path id="&lt;Path&gt;" class="s0" d="m747-115c-21.4 20.5-50.4 33-82.3 33-31.9 0-60.8-12.5-82.2-33l7.5-12.4c4.1-14.8 15.7-26.3 30.4-30.5l27.2-7.8h17.1 17.2l27.2 7.8c14.7 4.2 26.2 15.7 30.4 30.5z"/>
					<path id="&lt;Path&gt;" class="s1" d="m685.8-161.2c0 0-9 9.5-21.1 10-12-0.5-21-10-21-10l5-26.4h16 16.1z"/>
					<path id="&lt;Path&gt;" class="s2" d="m700.6-224.7c0 21.7-16.1 50.7-35.9 50.7-19.8 0-35.8-29-35.8-50.7 0-21.6 16-39.2 35.8-39.2 19.8 0 35.9 17.6 35.9 39.2z"/>
					<path id="&lt;Path&gt;" class="s2" d="m633.4-221.7c-0.1 4.3-2.7 9.9-5.5 9.7-2.8-0.1-4.9-5.8-4.7-10.1 0.2-4.2 2.6-7.5 5.4-7.4 2.8 0.1 5 3.6 4.8 7.8z"/>
					<path id="&lt;Path&gt;" class="s2" d="m705.6-222c0.2 4.2-1.9 10-4.8 10-2.8 0.1-5.3-5.4-5.4-9.7-0.2-4.2 2-7.7 4.8-7.8 2.9-0.1 5.3 3.2 5.4 7.5z"/>
				</g>
				<path id="&lt;Compound Path&gt;" fill-rule="evenodd" class="s0" d="m703.1-228.8c-0.1 0-0.4-0.2-0.4-0.2q-0.3-0.2-0.6-0.2-0.5-0.2-1.1-0.2c-0.3-0.1-0.6 0-0.9 0.1-0.3 0.2-0.5 0.7-0.7 1-0.2 0.4-0.3 0.8-0.3 1.3-0.1 0.9 0 1.8 0.1 2.7 0.4 3.8 0 7.7-0.5 11.6-0.2 1.2-0.9 2.6-0.8 3.7 0 1.5 1.5 2.6 1.3 4.1-0.1 1-0.9 1.8-0.9 2.8 0 0.7 0.6 1.5 0.4 2.2-0.2 0.5-0.6 0.8-0.9 1.2-1.2 1.3-1.3 3.1-2 4.7-1 2.7-3.3 4.6-5.3 6.6-2 2.1-3.7 4.9-3 7.6-2.8 0.9-5.5 2.2-8 3.9-1 0.7-1.9 1.5-3.1 1.9-1 0.5-2.2 0.6-3.3 0.7q-3 0.2-5.9 0.5 0 0.2 0.1 0.4-1.1-0.1-2.1-0.2-0.2 0-0.5 0-0.2 0-0.4 0-1.1 0.1-2.1 0.2 0-0.2 0.1-0.4-3-0.3-5.9-0.5c-1.1-0.1-2.3-0.2-3.3-0.7-1.2-0.4-2.2-1.2-3.2-1.9-2.4-1.7-5.1-3-8-3.9 0.7-2.7-1-5.5-2.9-7.6-2-2-4.3-3.9-5.4-6.6-0.6-1.6-0.8-3.4-1.9-4.7-0.4-0.4-0.8-0.7-0.9-1.2-0.2-0.7 0.3-1.5 0.4-2.2 0-1-0.8-1.8-0.9-2.8-0.2-1.5 1.2-2.6 1.3-4.1 0.1-1.1-0.7-2.5-0.8-3.7-0.6-3.9-0.9-7.8-0.5-11.6 0.1-0.9 0.2-1.8 0.1-2.7-0.1-0.5-0.1-0.9-0.3-1.3-0.2-0.3-0.4-0.8-0.7-1-0.3-0.1-0.7-0.2-1-0.1q-0.5 0-1.1 0.2-0.2 0-0.5 0.2c-0.1 0-0.3 0.2-0.4 0.2-0.3-0.1 0.2-1.7 0.2-2 0.3-1.4 0.4-2.9 0.5-4.3 0.2-3 0.6-5.9 1.9-8.6 0.9-1.8 2-3.4 3.3-5 1-1.3 1.9-2.9 3.1-4.1q1.1 0.7 2.2 1.3c0.3 0.2 0.6 0.4 0.8 0.6q0.1 0.1 0.2 0.2c0.6 1.1-0.2 2.7 0.2 4 0.3 0.9 1.3 1.7 1.4 2.7 0 0.6-0.3 1.1-0.6 1.6-2.7 4.8-5.4 10.5-5.2 16.1 0.1 3.1 0.7 5.7 0.2 8.7-0.5 2.9-0.7 6.2 1 8.8 0.7 1 1.7 1.8 2.3 2.9 0.7 1.2 0.8 2.7 1.2 4.1 0.7 2.7 2.2 5.3 4.2 7.4 0.5 0.4 1 1 1 1.6 0 0.3-0.1 0.6-0.2 0.9 0 0.5 0.3 1 0.5 1.4 2.3 3.6 5.5 6.6 9.1 8.8-0.5-0.6-0.7-1.4-0.8-2.2 0-0.2-0.1-0.4-0.1-0.6-0.2-0.5-0.6-0.8-0.9-1.1-0.6-0.8-0.6-1.8-0.4-2.8 0.1-0.9 0.4-1.9 0.3-2.8q-0.1 0.1-0.2 0.3c-0.4-0.9-0.5-2-0.3-3 0-0.3 1.1-3.6 1.5-3.2-1.7-1.4-3.6-2.5-5.6-3.3 2-0.3 3.9-0.7 5.8-1.4-0.3-0.2-0.5-0.4-0.6-0.7 1.2 0 2-0.6 3-1.1 1.6-0.9 3.4-1.6 5.3-1.4q-0.3-0.1-0.6-0.3c1.2-0.5 2.4 0.6 3.7 0.5q0.5 0 0.9-0.2 0.5 0.2 1 0.2c1.2 0.1 2.5-1 3.6-0.5q-0.2 0.2-0.5 0.3c1.8-0.2 3.6 0.5 5.3 1.4 1 0.5 1.8 1.1 3 1.1-0.1 0.3-0.3 0.5-0.6 0.7 1.9 0.7 3.8 1.1 5.8 1.4-2 0.8-3.9 1.9-5.6 3.3 0.4-0.4 1.4 2.9 1.5 3.2 0.1 1 0.1 2.1-0.3 3q-0.2-0.2-0.3-0.3c-0.1 0.9 0.2 1.9 0.4 2.8 0.2 1 0.2 2-0.4 2.8-0.3 0.3-0.7 0.6-0.9 1.1-0.1 0.2-0.1 0.4-0.1 0.6-0.1 0.8-0.4 1.6-0.8 2.2 3.6-2.2 6.8-5.2 9-8.8 0.3-0.4 0.6-0.9 0.5-1.4 0-0.3-0.1-0.6-0.1-0.9 0-0.6 0.5-1.2 1-1.6 2-2.1 3.5-4.7 4.2-7.4 0.3-1.4 0.5-2.9 1.2-4.1 0.6-1.1 1.5-1.9 2.2-2.9 1.8-2.6 1.6-5.9 1.1-8.8-0.6-3 0-5.6 0.2-8.7 0.2-5.6-2.5-11.3-5.2-16.1-0.3-0.5-0.6-1-0.6-1.6 0.1-1 1-1.8 1.3-2.7 0.4-1.3-0.4-2.9 0.3-4q0-0.1 0.1-0.2c0.3-0.2 0.5-0.4 0.8-0.6q1.1-0.6 2.3-1.3c1.2 1.2 2 2.8 3.1 4.1 1.2 1.6 2.3 3.2 3.2 5 1.4 2.7 1.7 5.6 2 8.6 0.1 1.4 0.2 2.9 0.4 4.3 0.1 0.3 0.6 1.9 0.3 2zm-50.3 31.7q0 0 0 0 0 0 0 0zm21.5 6.5c0.3-0.9 0.7-1.8 0.5-2.7q-0.3 0.2-0.6 0.4c-0.3-0.7-0.1-1.4 0.2-2.1 0.1-0.2 0.2-0.5 0.2-0.7 0-0.4-0.2-0.8-0.6-1.1-1.1-1-2.6-1.3-3.9-2q-2.2-1-4.2-2.5-0.4-0.2-0.7-0.5-0.2 0.2-0.5 0.4-0.2-0.2-0.4-0.4-0.3 0.3-0.7 0.5-2 1.5-4.2 2.5c-1.4 0.7-2.8 1-4 2-0.3 0.3-0.5 0.7-0.5 1.1 0 0.2 0.1 0.5 0.2 0.7 0.2 0.7 0.4 1.4 0.1 2.1q-0.2-0.2-0.5-0.4c-0.2 0.9 0.2 1.8 0.5 2.7 0.3 0.9 0.6 2 0.2 2.8q-0.1-0.2-0.4-0.3c-0.3 0.5 0.3 1.1 0.4 1.7 0 0.5-0.3 0.9-0.4 1.3-0.2 0.7-0.1 1.5 0.3 2.2 0.4 0.7 1 1.2 1.7 1.7 0.7 0.4 1.3 1 2 1.5 1.5 1 3.1 1.7 4.7 2.4q0.3 0.2 0.6 0.3 0.2-0.1 0.4-0.2 0.2 0.1 0.5 0.2 0.3-0.1 0.6-0.3c1.6-0.7 3.2-1.4 4.7-2.4 0.7-0.5 1.3-1.1 1.9-1.5 0.7-0.5 1.3-1 1.8-1.7 0.3-0.7 0.5-1.5 0.3-2.2-0.2-0.4-0.4-0.8-0.4-1.3 0-0.6 0.7-1.2 0.4-1.7q-0.3 0.1-0.5 0.3c-0.3-0.8 0-1.9 0.3-2.8z"/>
			</g>
		</g>
		<g id="&lt;Group&gt;">
			<g id="&lt;Group&gt;">
				<g id="&lt;Group&gt;">
					<path id="&lt;Path&gt;" class="s0" d="m473.2 179c-21.4 20.4-50.3 33-82.2 33-31.9 0-60.8-12.6-82.2-33l7.5-12.5c4.1-14.7 15.6-26.3 30.4-30.5l27.2-7.7h17.1 17.1l27.2 7.7c14.8 4.2 26.3 15.8 30.4 30.5z"/>
					<path id="&lt;Path&gt;" class="s1" d="m412.1 132.8c0 0-9.1 9.5-21.1 10-12-0.5-21.1-10-21.1-10l5.1-26.4h16 16z"/>
					<path id="&lt;Path&gt;" class="s2" d="m426.8 69.3c0 21.6-16 50.7-35.8 50.7-19.8 0-35.8-29.1-35.8-50.7 0-21.7 16-39.2 35.8-39.2 19.8 0 35.8 17.5 35.8 39.2z"/>
					<path id="&lt;Path&gt;" class="s2" d="m359.7 72.3c-0.2 4.2-2.7 9.8-5.5 9.7-2.8-0.1-4.9-5.9-4.7-10.1 0.1-4.2 2.6-7.6 5.4-7.5 2.8 0.2 5 3.7 4.8 7.9z"/>
					<path id="&lt;Path&gt;" class="s2" d="m431.9 71.9c0.1 4.3-2 10-4.8 10.1-2.8 0.1-5.3-5.5-5.5-9.7-0.1-4.3 2.1-7.8 4.9-7.9 2.8-0.1 5.2 3.3 5.4 7.5z"/>
				</g>
				<path id="&lt;Path&gt;" class="s0" d="m416.7 111c0.2 0 0.4 0 0.4 0.1 0.2 0.2 0.1 0.4 0 0.5-0.6 0.8-1.4 1.5-2.3 1.9-1.5 0.7-3.1 0.7-4.8 1-1.8 0.4-2.9 1.1-3.9 2.6-0.3 0.5-2.3 3.4-1.8 4-0.6-0.7-1.8-0.4-2.4 0.4-0.5 0.8-0.5 1.8-0.3 2.7-1.2-0.3-2.4 0.3-3 1.4-0.3 0.5-0.3 1.2-0.7 1.8-0.3 0.5-0.8 0.8-1.3 1.2-2.1 1.4-3.9 3.1-5.5 5.1-0.7-1.5-1.7-2.8-2.9-4-1-1-2.3-1.9-2.9-3.2-0.4-0.6-0.5-1.4-0.9-2.1-0.3-0.6-0.9-1.3-1.7-1.3-0.8-0.1-1.5 0.7-1.3 1.4-2-1.2-1.4-4.4-3-6.2-0.6-0.7-1.6-1.1-2.2-1.9-0.3-0.4-0.4-0.9-0.8-1.2-0.7-0.6-1.8-0.4-2.7-0.3-2 0.1-3.9-0.6-5.3-2-0.3-0.4-0.6-0.9-0.4-1.4 0.1-0.3 0.4-0.5 0.7-0.6 4.2-2.6 3-7.3 5.5-10.9 1.3-1.8 3-3.2 4.7-4.7-2.2 0.1-4.4-1.1-5.7-2.9 1.7 0.1 3.3-0.9 4.9-1.5 2.2-0.9 4.7-0.8 7-1 1.1-0.1 2-0.4 3-0.8 0.9-0.3 1.8-0.7 2.7-0.5 0.8 0.1 1.5 0.6 2.2 0.3 0.4-0.1 0.7-0.5 1.2-0.6 0.4-0.1 0.9 0.2 1.3 0.5 1.8 1.2 3.6 1.3 5.6 1.1 2-0.1 4.3 0.3 6.1 1 1.6 0.6 3.2 1.6 4.9 1.5-1.3 1.8-3.6 3-5.8 2.9 1.7 1.5 3.4 2.9 4.7 4.7 1.7 2.3 2.4 4.9 2.8 7.6 0.2 1.4 0.8 2.4 1.8 2.9q0.8 0.5 2.1 0.5z"/>
				<path id="&lt;Path&gt;" class="s2" d="m388.7 98.7c1.8-0.5 2.2-1.5 3.6-2.5 1.3 1 2.5 2 4.2 2.3 2.4 0.5 4.9 1.5 7.4 0.8 0.8 2.5 0.7 5.3-0.3 7.7-0.3 0.8-0.8 1.6-1.6 1.8q-0.4-0.6-0.8-1.3c0 2.1-2 4-4 3.9-0.3 0-0.6 0-0.9 0-0.7 0.2-1.1 1.1-1.8 1.4-0.7 0.4-1.5 0.4-2.2 0.4-1.6-0.1-3.6-0.4-4.2-1.9-1.7 0.6-3.3-0.1-4.6-1.3-1.1-1-1.2-1.7-1.4-3.1q-0.4 0.5-0.7 1c0 0.1-0.1 0.2-0.2 0.2-0.2 0.1-0.4-0.2-0.4-0.4-1.1-2.6-1.1-5.7 0-8.4 0-0.1 0.1-0.2 0.2-0.3 0.2-0.1 0.4-0.1 0.6 0 1.9 0.3 4 0.3 6 0q0.6-0.1 1.1-0.3z"/>
				<path id="&lt;Path&gt;" class="s0" d="m379.8 13.5c4.2-6.9 12-12.1 20.1-11.5 2.2 0.2 4.4 0.8 6.1 2.2 2.5 2.2 3.3 5.7 3.8 9.1 0.4 3.3 0.8 6.8 2.8 9.4 2.3 3.3 6.8 4.9 8.4 8.6 1.1 2.6 0.4 5.6 1.2 8.2 0.9 2.8 3.2 4.9 4.8 7.3 2.7 4.1 3.4 9.5 1.9 14.2-0.9 2.7-2.5 5.2-3.4 7.9-1.5 4.9-0.8 10.2-1.7 15.3-0.1 0.5-0.3 1.1-0.7 1.6-0.4 0.4-1.1 0.5-1.5 0.1-0.4-0.3-0.4-0.9-0.4-1.4q0.3-5.8 0.6-11.7c0.1-1.3 0.1-2.6 0.5-3.8 0.2-1.1 0.7-2.2 0.8-3.3 0-1.2-0.5-2.5-1.1-3.6-1.7-3.5-4-6.6-6.8-9.3-0.3-0.3-0.7-0.7-0.9-1.1-0.3-1.1 0.6-2.2 1-3.2 0.8-2.2-0.9-4.4-2.6-6-3.7-3.3-8.5-5.5-13.4-6.2-7-1-14.5 0.8-21-1.8-0.7-0.3-1.4-0.7-1.8-1.3-0.3-0.6-0.3-1.2-0.3-1.8-0.2-6.2 0.3-12.4 3.6-17.9z"/>
				<path id="&lt;Path&gt;" class="s0" d="m378.3 29.8c1 2.5-1.5 6.9-3.5 8.1-0.8 0.5-1.8 0.9-2.7 1.3-1.7 0.9-3 2.3-4.3 3.7-0.6 0.6-1.1 1.3-1.5 2.1-0.9 2.2-0.2 6.5-2.9 7.7-0.4 0.2-0.9 0.3-1.3 0.5-1.1 0.4-1.8 1.6-2.2 2.7-0.8 2.5-0.7 5.3-1.6 7.8-0.2 0.7-0.6 1.4-0.7 2.2-0.3 2.1 2.4 4.8 2.9 7 0.4 1.9-0.1 3.7-0.3 5.6-0.2 2.1-0.1 4.3 0.4 6.3 0.1 0.4 0.2 0.9-0.1 1.2-0.5 0.6-1.4-0.1-1.8-0.8-1.6-2.8-2.6-5.9-2.9-9.1-0.2-2-0.2-4.1-0.5-6.2-0.7-4.5-3.4-8.8-2.9-13.4 0.4-5 4.6-9 5.7-14 1-4.2-0.3-9.1 2.2-12.7 0.5-0.7 1.2-1.4 2-2 2.4-1.7 5.6-2.4 8.6-1.9 2 0.4 6.6 1.9 7.4 3.9z"/>
			</g>
		</g>
		<g id="&lt;Group&gt;">
			<g id="&lt;Group&gt;">
				<g id="&lt;Group&gt;">
					<path id="&lt;Path&gt;" class="s0" d="m199.5 179c-21.4 20.4-50.3 33-82.2 33-31.9 0-60.9-12.6-82.3-33l7.5-12.5c4.2-14.7 15.7-26.3 30.4-30.5l27.2-7.7h17.2 17.1l27.2 7.7c14.7 4.2 26.3 15.8 30.4 30.5z"/>
					<path id="&lt;Path&gt;" class="s1" d="m138.3 132.8c0 0-9 9.5-21 10-12.1-0.5-21.1-10-21.1-10l5-26.4h16.1 16z"/>
					<path id="&lt;Path&gt;" class="s2" d="m153.1 69.3c0 21.6-16 50.7-35.8 50.7-19.8 0-35.9-29.1-35.9-50.7 0-21.7 16.1-39.2 35.9-39.2 19.8 0 35.8 17.5 35.8 39.2z"/>
					<path id="&lt;Path&gt;" class="s2" d="m86 72.3c-0.2 4.2-2.7 9.8-5.6 9.7-2.8-0.1-4.8-5.9-4.7-10.1 0.2-4.2 2.6-7.6 5.5-7.5 2.8 0.2 4.9 3.7 4.8 7.9z"/>
					<path id="&lt;Path&gt;" class="s2" d="m158.1 71.9c0.2 4.3-1.9 10-4.7 10.1-2.9 0.1-5.3-5.5-5.5-9.7-0.1-4.3 2-7.8 4.9-7.9 2.8-0.1 5.2 3.3 5.3 7.5z"/>
				</g>
				<path id="&lt;Path&gt;" class="s0" d="m100.1 28.8c0.1-5 2.4-10.3 6.8-12.7 3.5-2 7.8-1.8 11.8-1.2 16.1 2.8 30.1 13.6 38.8 27.4 10.3 16.5 19.8 46.4 6.3 63.5-6.2 7.9-19 9.8-28.2 5.6 12.3-12.8 16.7-32.2 9.6-48.4-9-0.5-12.6-3.8-20.9-7.4-12.1-5.3-24.7-13.5-24.2-26.8z"/>
				<path id="&lt;Path&gt;" class="s0" d="m111.4 39.5c0 0-14 5.7-21.4 14.7-14.3 17.7-4 42.5 4.5 52.2 0 0-21.1 16.9-31.4-8-15.5-37.1 20.2-81.6 45.1-71.5 30.5 12.3 3.2 12.6 3.2 12.6z"/>
			</g>
		</g>
		<g id="&lt;Group&gt;">
			<g id="&lt;Group&gt;">
				<path id="&lt;Path&gt;" class="s0" d="m662.9 109.6c-21.1 8.8-43.4 0-43.4 0 10.9-19.8 5.3-38.2 5.3-38.2z"/>
				<path id="&lt;Path&gt;" class="s0" d="m705.9 71.4c0 0-5.6 18.4 5.3 38.2 0 0-22.3 8.8-43.3 0z"/>
				<g id="&lt;Group&gt;">
					<path id="&lt;Path&gt;" class="s0" d="m747 179c-21.4 20.4-50.4 33-82.3 33-31.9 0-60.8-12.6-82.2-33l7.5-12.5c4.1-14.7 15.7-26.3 30.4-30.5l27.2-7.7h17.1 17.2l27.2 7.7c14.7 4.2 26.2 15.8 30.4 30.5z"/>
					<path id="&lt;Path&gt;" class="s1" d="m685.8 132.8c0 0-9 9.5-21.1 10-12-0.5-21-10-21-10l5-26.4h16 16.1z"/>
					<path id="&lt;Path&gt;" class="s2" d="m700.6 69.3c0 21.6-16.1 50.7-35.9 50.7-19.8 0-35.8-29.1-35.8-50.7 0-21.7 16-39.2 35.8-39.2 19.8 0 35.9 17.5 35.9 39.2z"/>
				</g>
				<path id="&lt;Path&gt;" class="s0" d="m683.3 35.7c0 0-49.5-5.6-51.6 50.5 0 0-13.5-17.7-6.5-39.1 6.9-21.5 28.4-35.1 45.8-30.4 19.2 5.2 12.3 19 12.3 19z"/>
				<path id="&lt;Path&gt;" class="s0" d="m685.8 30.1c42.7 21 13.4 57.3 13.4 57.3-18.2-21.3-15.9-51.7-15.9-51.7l-9.5-3.8c0 0-15.1-15.2 12-1.8z"/>
			</g>
		</g>
	</g>
</svg>